<svg width="110" height="108" viewBox="0 0 110 108" fill="none" xmlns="http://www.w3.org/2000/svg">
<path fill-rule="evenodd" clip-rule="evenodd" d="M50.6644 0.10352C37.2859 1.22177 25.387 6.62585 16.0356 15.8308C7.34753 24.3826 2.11956 34.8657 0.300862 47.3817C-0.120817 50.2846 -0.0542926 58.4275 0.415671 61.4284C1.07062 65.6097 1.57792 67.6204 2.08072 68.0293C2.64381 68.487 3.52687 68.5046 4.15671 68.0701C4.77367 67.6449 4.76723 67.0731 4.108 63.7519C1.86827 52.4695 3.64962 40.4755 9.06514 30.3777C16.5043 16.5063 30.1438 6.65944 45.6214 3.98612C60.2062 1.467 74.2004 4.75563 86.1134 13.5018C87.2711 14.3518 89.7278 16.5336 91.5723 18.3499C93.4167 20.1663 95.0835 21.7118 95.276 21.7845C95.8676 22.008 96.5558 21.6073 98.8101 19.7263C100.004 18.7301 101.03 17.9152 101.091 17.9152C101.152 17.9152 101.202 21.8599 101.202 26.6812C101.202 33.0445 101.135 35.4472 100.96 35.4472C100.458 35.4472 84.3381 32.6755 83.9507 32.5228C83.6114 32.3888 83.929 32.0485 85.9121 30.4214C88.2793 28.4792 88.7048 27.8939 88.3791 27.0291C88.1044 26.2997 85.1919 23.2944 83.0082 21.4871C76.3137 15.9465 68.5293 12.5969 59.9555 11.5673C56.857 11.1954 49.9942 11.4112 46.9721 11.9759C35.3215 14.1524 25.3094 20.6392 18.7599 30.2546C11.154 41.4208 9.32974 55.6217 13.8732 68.2923C14.2358 69.3041 14.483 70.1811 14.4221 70.2411C14.3611 70.3009 13.0927 70.1369 11.6034 69.8767C8.62458 69.356 7.55139 69.3974 6.59194 70.07C5.28999 70.9825 5.25608 71.2966 5.32368 81.8496C5.38312 91.1097 5.39793 91.4096 5.82733 91.9755C6.50202 92.8648 7.26727 93.3443 8.19324 93.4583C9.24304 93.5874 10.2804 93.0619 12.3581 91.3477L13.8577 90.1106L16.035 92.2539C20.3391 96.4905 24.8194 99.6509 30.4011 102.388C35.8155 105.042 41.322 106.731 47.4455 107.614C51.0183 108.129 58.6834 108.129 62.2526 107.613C70.9409 106.359 78.2453 103.621 85.4413 98.9211C88.4802 96.9366 89.1843 96.292 89.1843 95.4939C89.1843 94.7217 88.3988 93.9577 87.605 93.9577C87.2222 93.9577 86.2971 94.4678 84.9363 95.4291C68.3848 107.123 46.0987 108.061 28.5167 97.8025C24.5905 95.5119 21.778 93.3263 18.0805 89.6934C15.118 86.7824 14.5942 86.3538 14.0032 86.3568C13.4626 86.3596 12.8671 86.7442 11.0716 88.2509C9.83232 89.2906 8.74604 90.1446 8.65741 90.1484C8.56879 90.1524 8.49647 86.2108 8.49647 81.3895C8.49647 76.5682 8.56879 72.6237 8.65741 72.624C8.74604 72.6242 12.7178 73.2895 17.4837 74.1026C22.2497 74.9156 26.1907 75.5807 26.2416 75.5807C26.2924 75.5807 25.29 76.4455 24.0141 77.5023C21.513 79.5738 21.0717 80.1346 21.2851 80.9707C21.4539 81.6331 25.6495 85.8676 27.7197 87.4651C33.2346 91.7206 39.3913 94.5381 46.3725 96.0011C49.0204 96.5558 49.4515 96.5856 54.849 96.5856C60.2465 96.5856 60.6777 96.5558 63.3255 96.0011C75.069 93.5401 84.613 87.1884 91.1515 77.4818C98.4206 66.691 100.245 52.866 96.0363 40.4728C95.5616 39.0749 95.2163 37.8884 95.2691 37.8364C95.3221 37.7845 96.4807 37.9385 97.8443 38.1788C101.149 38.7612 102.019 38.746 103.003 38.0891C103.553 37.7215 103.818 37.6417 103.881 37.825C104.845 40.6614 105.675 44.2483 106.168 47.6985C106.592 50.6711 106.537 57.9877 106.067 61.0059C104.414 71.6316 99.8383 81.1494 92.8483 88.5031C90.8886 90.5651 90.6137 91.2176 91.3289 92.1128C91.6652 92.5333 91.9828 92.6903 92.4983 92.6903C93.0942 92.6903 93.4461 92.4482 94.7249 91.1589C102.834 82.9824 108.615 70.4624 109.497 59.167C109.573 58.1955 109.717 57.3508 109.818 57.2898C109.918 57.2287 110 55.658 110 53.7992C110 51.9404 109.918 50.4696 109.817 50.5309C109.717 50.5921 109.573 49.8135 109.498 48.8007C109.132 43.8638 107.305 36.9765 105.094 32.1968L104.421 30.7417V24.0049C104.421 18.7929 104.354 17.1119 104.128 16.5783C103.477 15.0463 101.563 14.205 100.097 14.8076C99.696 14.9726 98.6125 15.7393 97.6895 16.5114C96.7666 17.2834 95.9462 17.9152 95.8663 17.9152C95.7867 17.9152 94.7575 16.9571 93.5794 15.786C84.587 6.84701 72.7158 1.36752 59.7847 0.187378C57.5021 -0.0208936 52.6831 -0.0652517 50.6644 0.10352ZM50.1279 14.6743C49.7148 14.7267 48.2159 14.9983 46.7972 15.2778C30.3036 18.5261 17.6176 31.7292 15.0187 48.3514C14.5614 51.2755 14.5601 56.828 15.0159 59.7193C15.6084 63.4784 17.5022 69.6203 18.4217 70.7645C18.6065 70.9945 19.9239 71.3038 22.6598 71.7596C24.8433 72.1233 27.039 72.569 27.539 72.7498C28.6444 73.1497 29.3339 74.0426 29.4725 75.2533C29.6257 76.5913 29.1021 77.4347 27.0504 79.1543C24.8911 80.9641 24.8463 80.7398 27.9004 83.3924C32.9719 87.7974 38.3449 90.6862 44.3824 92.2541C47.926 93.1742 50.8745 93.5352 54.849 93.5352C61.6929 93.5352 67.3477 92.2011 73.3042 89.1811C80.949 85.3053 86.9407 79.3011 90.7755 71.673C93.8051 65.6462 94.9783 60.7233 94.9783 54.0354C94.9783 48.2496 93.9107 43.0608 91.7208 38.2031L91.2015 37.0513L86.6647 36.2725C81.7372 35.4267 81.152 35.1994 80.5195 33.8881C79.6854 32.1577 80.1944 30.9795 82.6312 28.9992C83.6282 28.189 84.4481 27.4585 84.4535 27.3762C84.4737 27.0606 81.0457 23.9325 79.0597 22.4543C74.2761 18.894 68.9366 16.5116 62.9034 15.2457C60.6616 14.7751 59.6989 14.6954 55.6001 14.6414C53.0035 14.6069 50.541 14.6217 50.1279 14.6743ZM53.3293 21.9248C50.867 23.2059 45.6214 29.1507 41.4877 35.345C34.3052 46.1075 31.9331 54.6813 34.0432 62.2522C36.0331 69.3919 42.331 73.8683 51.5419 74.69L53.2396 74.8414L53.2969 79.9344C53.3497 84.6114 53.3874 85.0567 53.7582 85.387C54.3434 85.9084 55.4276 85.8777 55.9902 85.3241C56.4559 84.8657 56.4587 84.8125 56.5179 75.2054L56.5776 65.5474L62.6875 59.5189C66.0481 56.2032 68.7977 53.3324 68.7977 53.1391C68.7977 52.0741 67.7136 51.1409 66.788 51.4092C66.5361 51.482 64.1328 53.6942 61.4478 56.3249L56.5658 61.1082V54.8864V48.6647L60.1066 45.1574C63.373 41.922 63.6474 41.5912 63.6474 40.8876C63.6474 40.0471 62.8854 39.2493 62.0826 39.2493C61.8167 39.2493 60.668 40.2026 59.1163 41.7112L56.584 44.1729L56.5214 37.8252C56.463 31.9286 56.4295 31.4459 56.0497 31.0332C55.7714 30.7307 55.3817 30.5889 54.828 30.5889C53.3634 30.5889 53.3469 30.6699 53.3469 37.8588V44.1898L50.9288 41.8415C49.4923 40.4466 48.265 39.4325 47.9058 39.3438C47.0077 39.122 46.1777 39.7996 46.0899 40.8266C46.0236 41.6012 46.1199 41.7197 49.6844 45.2491L53.3469 48.8755V54.9407C53.3469 58.2766 53.2771 61.0059 53.1917 61.0059C53.1065 61.0059 50.8084 58.8197 48.0848 56.1477C44.5287 52.659 42.9948 51.2894 42.6437 51.2894C42.3748 51.2894 41.8628 51.5769 41.5057 51.9284C40.9834 52.4425 40.884 52.6799 40.9978 53.1429C41.0892 53.5164 43.2826 55.8334 47.2429 59.7398L53.3469 65.7613V68.6643V71.5674H52.4048C51.1668 71.5674 48.2283 71.0258 46.4798 70.4755C43.2542 69.4602 40.4679 67.493 38.8432 65.0835C37.1481 62.5699 36.2376 58.3671 36.6097 54.7747C37.2621 48.4777 41.3549 40.2489 48.1131 31.6464C50.0672 29.1591 54.3834 24.6745 54.8231 24.6745C55.2278 24.6745 58.3808 27.7595 60.2703 30.0041C67.5979 38.7088 72.5542 48.3639 73.2089 55.209C73.387 57.0712 72.987 60.2168 72.3285 62.1328C70.8791 66.3504 67.5024 69.2718 62.3663 70.7516C61.2455 71.0744 60.2062 71.5034 60.0566 71.7047C59.4394 72.5355 59.9382 73.9353 60.9395 74.1826C61.6596 74.3605 64.8891 73.4116 66.9737 72.4098C71.2428 70.3577 73.9585 67.3386 75.4261 63.0126C77.2152 57.7384 76.6811 52.0893 73.7476 45.2613C70.2615 37.147 62.3478 26.274 57.1323 22.4323C55.6905 21.3703 54.6593 21.2328 53.3293 21.9248ZM0 54.0354C0 55.9523 0.0326185 56.7366 0.0723186 55.778C0.112019 54.8195 0.112019 53.2511 0.0723186 52.2927C0.0326185 51.3344 0 52.1185 0 54.0354Z" fill="white"/>
</svg>
