<svg width="118" height="118" viewBox="0 0 118 118" fill="none" xmlns="http://www.w3.org/2000/svg">
<mask id="path-1-outside-1_2281_17790" maskUnits="userSpaceOnUse" x="0" y="0" width="118" height="118" fill="black">
<rect fill="white" width="118" height="118"/>
<path fill-rule="evenodd" clip-rule="evenodd" d="M52.0853 1.18813C48.3472 1.58855 43.0041 2.89137 39.0238 4.3735C8.11925 15.8789 -7.05099 50.3189 5.30219 80.9282C11.6812 96.7335 25.9844 109.745 42.2961 114.58C49.5471 116.729 58.1357 117.507 65.3749 116.67C81.6007 114.794 95.6319 106.739 105.458 93.6614C107.049 91.5439 108.351 89.7197 108.351 89.6078C108.351 89.4962 108.944 88.4304 109.668 87.2395C111.765 83.7957 113.84 78.6646 115.365 73.1548C117.702 64.7108 117.518 52.4302 114.913 43.0976C110.447 27.093 98.7869 13.3572 83.6698 6.29198C75.4619 2.45606 68.281 0.914506 59.0335 1.00364C55.8764 1.03404 52.7497 1.11731 52.0853 1.18813ZM55.7097 2.89483C51.5191 3.36192 48.409 3.85148 45.9913 4.42394C27.6254 8.77257 12.0116 22.9976 6.00602 40.8519C3.52103 48.2401 2.5514 57.0389 3.36051 64.8631C5.34257 84.0348 17.7341 101.377 35.3437 109.626C43.7338 113.555 51.6375 115.184 60.7149 114.852C67.8216 114.593 70.5441 114.098 77.3639 111.826C84.7098 109.38 92.3567 104.625 98.248 98.8433C115.337 82.0697 119.873 56.198 109.512 34.5896C105.153 25.5003 97.21 16.6914 88.3947 11.1727C86.1765 9.7838 81.2317 7.38372 78.492 6.36592C71.3974 3.73056 61.6013 2.23771 55.7097 2.89483ZM50.7045 9.57306C45.3748 10.5522 42.5371 11.4211 38.7362 13.2387C37.3748 13.8896 36.1736 14.4223 36.0672 14.4223C35.6572 14.4223 31.0828 17.3707 28.6364 19.2114C25.7054 21.417 21.6747 25.4039 19.3816 28.365C15.8255 32.9572 12.3357 39.9564 10.9159 45.3432C10.6156 46.4833 10.2024 48.0567 9.9981 48.8395C9.38297 51.195 8.87555 58.954 9.1196 62.272C9.76924 71.1126 12.7078 79.7114 17.6201 87.1469C19.9885 90.732 27.2964 98.084 30.6558 100.262C37.2692 104.548 41.7766 106.402 49.6206 108.057C53.6624 108.911 54.7463 108.927 54.9751 108.135C55.8284 105.185 56.6134 92.3693 56.688 80.1775L56.7453 70.7896L55.7097 69.6947C55.1401 69.0926 53.6648 67.798 52.4308 66.8179C49.5685 64.5443 48.6558 63.5769 48.0697 62.1967C47.2057 60.1611 47.6103 53.1273 49.1391 43.6158C50.6341 34.3143 52.0421 29.5988 51.6144 35.3241C51.184 41.0938 50.9665 51.0299 51.2026 54.169C51.4929 58.0346 51.9565 58.9443 53.38 58.444C54.8492 57.9272 55.2119 56.2322 55.554 48.2798C55.8226 42.0418 56.6987 33.528 57.1153 33.111C57.1968 33.0298 57.263 38.1744 57.263 44.5431C57.263 51.9676 57.3973 56.5083 57.6372 57.1968C58.0908 58.499 59.1826 58.9439 59.9769 58.1497C60.4729 57.6539 60.5634 56.0671 60.7149 45.2451C60.8709 34.0991 60.9293 33.1231 61.32 35.1514C61.9852 38.6049 62.7836 47.6856 62.785 51.8142C62.7864 56.1514 63.3787 58.1745 64.7484 58.5186C65.8095 58.785 66.2061 58.3974 66.6089 56.7C67.0377 54.8928 67.0353 45.2451 66.6041 38.2822C66.4108 35.1587 66.3062 32.5496 66.3715 32.4843C67.1882 31.6668 70.3497 51.0171 70.4764 57.6079C70.5779 62.8991 70.3553 63.2704 64.2586 67.969C61.639 69.9884 61.2914 70.6749 61.1305 74.1487C60.9641 77.7332 61.9869 100.664 62.465 104.076C63.1492 108.956 63.0736 108.74 64.096 108.739C65.6607 108.737 71.7688 107.444 74.6949 106.495C77.105 105.714 83.7578 102.642 85.7343 101.397C95.0147 95.5529 102.917 85.5311 106.368 75.2277C111.291 60.5294 109.343 44.5375 101.085 31.8693C91.5134 17.1851 76.0591 8.79917 58.8164 8.93287C55.8664 8.95602 52.7062 9.20512 50.7045 9.57306ZM55.7097 10.5C46.8274 11.5282 40.3337 13.6322 33.9064 17.5645C27.9274 21.2221 23.0717 25.8627 18.7572 32.042C16.9719 34.5993 14.4434 39.8182 13.15 43.6158C11.2339 49.2417 10.8507 51.8857 10.8711 59.3354C10.889 65.721 10.946 66.2903 11.966 70.2548C13.5621 76.458 14.9978 79.8026 18.4407 85.3394C23.5076 93.489 32.3271 100.612 41.7659 104.177C44.4908 105.206 51.4967 107.002 52.817 107.009C53.186 107.011 53.506 106.513 53.758 105.544C54.3345 103.326 55.1933 87.4302 55.1926 78.9956C55.1919 70.4396 55.4443 71.179 51.5095 68.2036C49.0203 66.3214 47.0656 64.1466 46.3327 62.4447C45.5712 60.6752 45.9875 52.9608 47.2651 45.1705C49.0814 34.0935 49.5481 32.2162 50.7943 30.969C51.5209 30.2417 52.1004 29.9633 52.7345 30.0368C53.2385 30.0956 53.5999 30.3343 53.5513 30.5772C52.9247 33.6955 52.5057 56.226 53.0739 56.226C53.4715 56.226 53.8112 53.6007 53.8112 50.5276C53.8112 44.3631 55.1698 32.7406 56.1036 30.9192C56.9731 29.2222 58.6438 29.8924 58.6438 31.9384C58.6438 32.5654 58.7991 33.0785 58.989 33.0785C59.1788 33.0785 59.3342 32.6363 59.3342 32.0956C59.3342 31.1203 60.2323 29.9691 60.9931 29.9691C62.5672 29.9691 63.6093 36.8039 64.377 52.1666C64.4888 54.3991 64.7077 56.226 64.8637 56.226C65.4826 56.226 65.6262 51.1456 65.2444 42.7559C65.0239 37.9084 64.7536 33.0481 64.6438 31.9557C64.4495 30.0209 64.4664 29.9691 65.2945 29.9691C67.2755 29.9691 68.5706 32.1184 69.3715 36.7355C69.5665 37.8593 69.9538 40.1005 70.2327 41.7156C72.1858 53.0348 72.6231 60.7919 71.436 63.0632C70.532 64.793 69.2369 66.167 66.7084 68.0786C65.543 68.9596 64.1612 70.1902 63.6376 70.8131L62.6852 71.9456L62.9055 80.9282C63.2627 95.5001 64 106.27 64.688 106.958C64.7639 107.034 65.8817 106.908 67.1716 106.678C82.7985 103.887 95.6812 94.2415 102.486 80.2372C104.367 76.3633 106.309 70.4306 106.781 67.1088C108.371 55.9223 106.874 46.2591 102.09 36.8508C98.7468 30.2749 92.6885 23.3216 86.6325 19.1105C82.9846 16.5733 77.0173 13.6943 72.969 12.5183C67.0304 10.793 60.1388 9.98695 55.7097 10.5ZM58.649 46.6388C58.6459 51.1912 58.7698 53.8076 58.989 53.8076C59.4436 53.8076 59.4436 40.692 58.989 39.9882C58.767 39.6444 58.6524 41.8825 58.649 46.6388ZM84.8779 65.2404C74.6432 66.0658 68.7491 70.8798 66.5641 80.1982C65.9655 82.751 65.863 84.1377 65.9548 88.4318C66.0542 93.0717 66.1333 93.6452 66.7353 94.0853C67.2458 94.4581 68.6442 94.5714 72.6035 94.5597C77.5455 94.5455 78.53 94.4405 82.0767 93.5488C87.6891 92.1382 92.8203 87.0467 94.2735 81.4464C95.1886 77.9214 95.3291 76.7299 95.3533 72.2911C95.384 66.6942 95.1907 65.6284 94.1065 65.4073C92.578 65.096 87.753 65.0086 84.8779 65.2404ZM23.3157 65.8405C22.8345 66.3726 22.7469 67.313 22.7596 71.8001C22.7734 76.7969 22.8918 77.9532 23.7172 81.1714C24.8836 85.719 28.178 89.9602 32.089 91.9488C35.915 93.8942 39.3679 94.5749 45.4107 94.5749C52.5074 94.5749 52.0853 94.9981 52.0853 87.8835C52.0853 83.3183 51.952 81.7581 51.3724 79.5438C49.4021 72.014 45.2223 67.8775 37.5774 65.8906C33.8701 64.9271 24.1725 64.8932 23.3157 65.8405ZM26.1963 67.2408L24.9881 67.4543L24.6733 70.0295C24.1452 74.347 25.4158 81.2018 27.3737 84.5976C28.8 87.072 31.3064 89.3694 33.8674 90.5506C37.2381 92.1057 44.1353 93.1031 47.943 92.5866L49.8415 92.3292L50.1481 90.0835C50.5205 87.3532 49.9662 82.0013 48.961 78.6231C47.5581 73.9086 43.8498 70.0268 39.2958 68.5049C35.537 67.2491 29.4635 66.6628 26.1963 67.2408ZM83.4972 67.436C75.3114 68.7467 71.1267 72.127 68.9338 79.2008C68.3066 81.2229 68.1799 82.4957 68.1602 86.9697L68.1364 92.3206L70.2075 92.6215C72.7681 92.9939 78.8579 92.3969 81.6687 91.4983C85.2739 90.3454 88.122 88.4902 89.6132 86.3233C92.1451 82.6439 93.0885 79.2965 93.3743 72.982C93.5321 69.4913 93.4738 68.356 93.111 67.8861C92.4648 67.0487 87.3971 66.8113 83.4972 67.436Z"/>
</mask>
<path fill-rule="evenodd" clip-rule="evenodd" d="M52.0853 1.18813C48.3472 1.58855 43.0041 2.89137 39.0238 4.3735C8.11925 15.8789 -7.05099 50.3189 5.30219 80.9282C11.6812 96.7335 25.9844 109.745 42.2961 114.58C49.5471 116.729 58.1357 117.507 65.3749 116.67C81.6007 114.794 95.6319 106.739 105.458 93.6614C107.049 91.5439 108.351 89.7197 108.351 89.6078C108.351 89.4962 108.944 88.4304 109.668 87.2395C111.765 83.7957 113.84 78.6646 115.365 73.1548C117.702 64.7108 117.518 52.4302 114.913 43.0976C110.447 27.093 98.7869 13.3572 83.6698 6.29198C75.4619 2.45606 68.281 0.914506 59.0335 1.00364C55.8764 1.03404 52.7497 1.11731 52.0853 1.18813ZM55.7097 2.89483C51.5191 3.36192 48.409 3.85148 45.9913 4.42394C27.6254 8.77257 12.0116 22.9976 6.00602 40.8519C3.52103 48.2401 2.5514 57.0389 3.36051 64.8631C5.34257 84.0348 17.7341 101.377 35.3437 109.626C43.7338 113.555 51.6375 115.184 60.7149 114.852C67.8216 114.593 70.5441 114.098 77.3639 111.826C84.7098 109.38 92.3567 104.625 98.248 98.8433C115.337 82.0697 119.873 56.198 109.512 34.5896C105.153 25.5003 97.21 16.6914 88.3947 11.1727C86.1765 9.7838 81.2317 7.38372 78.492 6.36592C71.3974 3.73056 61.6013 2.23771 55.7097 2.89483ZM50.7045 9.57306C45.3748 10.5522 42.5371 11.4211 38.7362 13.2387C37.3748 13.8896 36.1736 14.4223 36.0672 14.4223C35.6572 14.4223 31.0828 17.3707 28.6364 19.2114C25.7054 21.417 21.6747 25.4039 19.3816 28.365C15.8255 32.9572 12.3357 39.9564 10.9159 45.3432C10.6156 46.4833 10.2024 48.0567 9.9981 48.8395C9.38297 51.195 8.87555 58.954 9.1196 62.272C9.76924 71.1126 12.7078 79.7114 17.6201 87.1469C19.9885 90.732 27.2964 98.084 30.6558 100.262C37.2692 104.548 41.7766 106.402 49.6206 108.057C53.6624 108.911 54.7463 108.927 54.9751 108.135C55.8284 105.185 56.6134 92.3693 56.688 80.1775L56.7453 70.7896L55.7097 69.6947C55.1401 69.0926 53.6648 67.798 52.4308 66.8179C49.5685 64.5443 48.6558 63.5769 48.0697 62.1967C47.2057 60.1611 47.6103 53.1273 49.1391 43.6158C50.6341 34.3143 52.0421 29.5988 51.6144 35.3241C51.184 41.0938 50.9665 51.0299 51.2026 54.169C51.4929 58.0346 51.9565 58.9443 53.38 58.444C54.8492 57.9272 55.2119 56.2322 55.554 48.2798C55.8226 42.0418 56.6987 33.528 57.1153 33.111C57.1968 33.0298 57.263 38.1744 57.263 44.5431C57.263 51.9676 57.3973 56.5083 57.6372 57.1968C58.0908 58.499 59.1826 58.9439 59.9769 58.1497C60.4729 57.6539 60.5634 56.0671 60.7149 45.2451C60.8709 34.0991 60.9293 33.1231 61.32 35.1514C61.9852 38.6049 62.7836 47.6856 62.785 51.8142C62.7864 56.1514 63.3787 58.1745 64.7484 58.5186C65.8095 58.785 66.2061 58.3974 66.6089 56.7C67.0377 54.8928 67.0353 45.2451 66.6041 38.2822C66.4108 35.1587 66.3062 32.5496 66.3715 32.4843C67.1882 31.6668 70.3497 51.0171 70.4764 57.6079C70.5779 62.8991 70.3553 63.2704 64.2586 67.969C61.639 69.9884 61.2914 70.6749 61.1305 74.1487C60.9641 77.7332 61.9869 100.664 62.465 104.076C63.1492 108.956 63.0736 108.74 64.096 108.739C65.6607 108.737 71.7688 107.444 74.6949 106.495C77.105 105.714 83.7578 102.642 85.7343 101.397C95.0147 95.5529 102.917 85.5311 106.368 75.2277C111.291 60.5294 109.343 44.5375 101.085 31.8693C91.5134 17.1851 76.0591 8.79917 58.8164 8.93287C55.8664 8.95602 52.7062 9.20512 50.7045 9.57306ZM55.7097 10.5C46.8274 11.5282 40.3337 13.6322 33.9064 17.5645C27.9274 21.2221 23.0717 25.8627 18.7572 32.042C16.9719 34.5993 14.4434 39.8182 13.15 43.6158C11.2339 49.2417 10.8507 51.8857 10.8711 59.3354C10.889 65.721 10.946 66.2903 11.966 70.2548C13.5621 76.458 14.9978 79.8026 18.4407 85.3394C23.5076 93.489 32.3271 100.612 41.7659 104.177C44.4908 105.206 51.4967 107.002 52.817 107.009C53.186 107.011 53.506 106.513 53.758 105.544C54.3345 103.326 55.1933 87.4302 55.1926 78.9956C55.1919 70.4396 55.4443 71.179 51.5095 68.2036C49.0203 66.3214 47.0656 64.1466 46.3327 62.4447C45.5712 60.6752 45.9875 52.9608 47.2651 45.1705C49.0814 34.0935 49.5481 32.2162 50.7943 30.969C51.5209 30.2417 52.1004 29.9633 52.7345 30.0368C53.2385 30.0956 53.5999 30.3343 53.5513 30.5772C52.9247 33.6955 52.5057 56.226 53.0739 56.226C53.4715 56.226 53.8112 53.6007 53.8112 50.5276C53.8112 44.3631 55.1698 32.7406 56.1036 30.9192C56.9731 29.2222 58.6438 29.8924 58.6438 31.9384C58.6438 32.5654 58.7991 33.0785 58.989 33.0785C59.1788 33.0785 59.3342 32.6363 59.3342 32.0956C59.3342 31.1203 60.2323 29.9691 60.9931 29.9691C62.5672 29.9691 63.6093 36.8039 64.377 52.1666C64.4888 54.3991 64.7077 56.226 64.8637 56.226C65.4826 56.226 65.6262 51.1456 65.2444 42.7559C65.0239 37.9084 64.7536 33.0481 64.6438 31.9557C64.4495 30.0209 64.4664 29.9691 65.2945 29.9691C67.2755 29.9691 68.5706 32.1184 69.3715 36.7355C69.5665 37.8593 69.9538 40.1005 70.2327 41.7156C72.1858 53.0348 72.6231 60.7919 71.436 63.0632C70.532 64.793 69.2369 66.167 66.7084 68.0786C65.543 68.9596 64.1612 70.1902 63.6376 70.8131L62.6852 71.9456L62.9055 80.9282C63.2627 95.5001 64 106.27 64.688 106.958C64.7639 107.034 65.8817 106.908 67.1716 106.678C82.7985 103.887 95.6812 94.2415 102.486 80.2372C104.367 76.3633 106.309 70.4306 106.781 67.1088C108.371 55.9223 106.874 46.2591 102.09 36.8508C98.7468 30.2749 92.6885 23.3216 86.6325 19.1105C82.9846 16.5733 77.0173 13.6943 72.969 12.5183C67.0304 10.793 60.1388 9.98695 55.7097 10.5ZM58.649 46.6388C58.6459 51.1912 58.7698 53.8076 58.989 53.8076C59.4436 53.8076 59.4436 40.692 58.989 39.9882C58.767 39.6444 58.6524 41.8825 58.649 46.6388ZM84.8779 65.2404C74.6432 66.0658 68.7491 70.8798 66.5641 80.1982C65.9655 82.751 65.863 84.1377 65.9548 88.4318C66.0542 93.0717 66.1333 93.6452 66.7353 94.0853C67.2458 94.4581 68.6442 94.5714 72.6035 94.5597C77.5455 94.5455 78.53 94.4405 82.0767 93.5488C87.6891 92.1382 92.8203 87.0467 94.2735 81.4464C95.1886 77.9214 95.3291 76.7299 95.3533 72.2911C95.384 66.6942 95.1907 65.6284 94.1065 65.4073C92.578 65.096 87.753 65.0086 84.8779 65.2404ZM23.3157 65.8405C22.8345 66.3726 22.7469 67.313 22.7596 71.8001C22.7734 76.7969 22.8918 77.9532 23.7172 81.1714C24.8836 85.719 28.178 89.9602 32.089 91.9488C35.915 93.8942 39.3679 94.5749 45.4107 94.5749C52.5074 94.5749 52.0853 94.9981 52.0853 87.8835C52.0853 83.3183 51.952 81.7581 51.3724 79.5438C49.4021 72.014 45.2223 67.8775 37.5774 65.8906C33.8701 64.9271 24.1725 64.8932 23.3157 65.8405ZM26.1963 67.2408L24.9881 67.4543L24.6733 70.0295C24.1452 74.347 25.4158 81.2018 27.3737 84.5976C28.8 87.072 31.3064 89.3694 33.8674 90.5506C37.2381 92.1057 44.1353 93.1031 47.943 92.5866L49.8415 92.3292L50.1481 90.0835C50.5205 87.3532 49.9662 82.0013 48.961 78.6231C47.5581 73.9086 43.8498 70.0268 39.2958 68.5049C35.537 67.2491 29.4635 66.6628 26.1963 67.2408ZM83.4972 67.436C75.3114 68.7467 71.1267 72.127 68.9338 79.2008C68.3066 81.2229 68.1799 82.4957 68.1602 86.9697L68.1364 92.3206L70.2075 92.6215C72.7681 92.9939 78.8579 92.3969 81.6687 91.4983C85.2739 90.3454 88.122 88.4902 89.6132 86.3233C92.1451 82.6439 93.0885 79.2965 93.3743 72.982C93.5321 69.4913 93.4738 68.356 93.111 67.8861C92.4648 67.0487 87.3971 66.8113 83.4972 67.436Z" fill="white"/>
<path fill-rule="evenodd" clip-rule="evenodd" d="M52.0853 1.18813C48.3472 1.58855 43.0041 2.89137 39.0238 4.3735C8.11925 15.8789 -7.05099 50.3189 5.30219 80.9282C11.6812 96.7335 25.9844 109.745 42.2961 114.58C49.5471 116.729 58.1357 117.507 65.3749 116.67C81.6007 114.794 95.6319 106.739 105.458 93.6614C107.049 91.5439 108.351 89.7197 108.351 89.6078C108.351 89.4962 108.944 88.4304 109.668 87.2395C111.765 83.7957 113.84 78.6646 115.365 73.1548C117.702 64.7108 117.518 52.4302 114.913 43.0976C110.447 27.093 98.7869 13.3572 83.6698 6.29198C75.4619 2.45606 68.281 0.914506 59.0335 1.00364C55.8764 1.03404 52.7497 1.11731 52.0853 1.18813ZM55.7097 2.89483C51.5191 3.36192 48.409 3.85148 45.9913 4.42394C27.6254 8.77257 12.0116 22.9976 6.00602 40.8519C3.52103 48.2401 2.5514 57.0389 3.36051 64.8631C5.34257 84.0348 17.7341 101.377 35.3437 109.626C43.7338 113.555 51.6375 115.184 60.7149 114.852C67.8216 114.593 70.5441 114.098 77.3639 111.826C84.7098 109.38 92.3567 104.625 98.248 98.8433C115.337 82.0697 119.873 56.198 109.512 34.5896C105.153 25.5003 97.21 16.6914 88.3947 11.1727C86.1765 9.7838 81.2317 7.38372 78.492 6.36592C71.3974 3.73056 61.6013 2.23771 55.7097 2.89483ZM50.7045 9.57306C45.3748 10.5522 42.5371 11.4211 38.7362 13.2387C37.3748 13.8896 36.1736 14.4223 36.0672 14.4223C35.6572 14.4223 31.0828 17.3707 28.6364 19.2114C25.7054 21.417 21.6747 25.4039 19.3816 28.365C15.8255 32.9572 12.3357 39.9564 10.9159 45.3432C10.6156 46.4833 10.2024 48.0567 9.9981 48.8395C9.38297 51.195 8.87555 58.954 9.1196 62.272C9.76924 71.1126 12.7078 79.7114 17.6201 87.1469C19.9885 90.732 27.2964 98.084 30.6558 100.262C37.2692 104.548 41.7766 106.402 49.6206 108.057C53.6624 108.911 54.7463 108.927 54.9751 108.135C55.8284 105.185 56.6134 92.3693 56.688 80.1775L56.7453 70.7896L55.7097 69.6947C55.1401 69.0926 53.6648 67.798 52.4308 66.8179C49.5685 64.5443 48.6558 63.5769 48.0697 62.1967C47.2057 60.1611 47.6103 53.1273 49.1391 43.6158C50.6341 34.3143 52.0421 29.5988 51.6144 35.3241C51.184 41.0938 50.9665 51.0299 51.2026 54.169C51.4929 58.0346 51.9565 58.9443 53.38 58.444C54.8492 57.9272 55.2119 56.2322 55.554 48.2798C55.8226 42.0418 56.6987 33.528 57.1153 33.111C57.1968 33.0298 57.263 38.1744 57.263 44.5431C57.263 51.9676 57.3973 56.5083 57.6372 57.1968C58.0908 58.499 59.1826 58.9439 59.9769 58.1497C60.4729 57.6539 60.5634 56.0671 60.7149 45.2451C60.8709 34.0991 60.9293 33.1231 61.32 35.1514C61.9852 38.6049 62.7836 47.6856 62.785 51.8142C62.7864 56.1514 63.3787 58.1745 64.7484 58.5186C65.8095 58.785 66.2061 58.3974 66.6089 56.7C67.0377 54.8928 67.0353 45.2451 66.6041 38.2822C66.4108 35.1587 66.3062 32.5496 66.3715 32.4843C67.1882 31.6668 70.3497 51.0171 70.4764 57.6079C70.5779 62.8991 70.3553 63.2704 64.2586 67.969C61.639 69.9884 61.2914 70.6749 61.1305 74.1487C60.9641 77.7332 61.9869 100.664 62.465 104.076C63.1492 108.956 63.0736 108.74 64.096 108.739C65.6607 108.737 71.7688 107.444 74.6949 106.495C77.105 105.714 83.7578 102.642 85.7343 101.397C95.0147 95.5529 102.917 85.5311 106.368 75.2277C111.291 60.5294 109.343 44.5375 101.085 31.8693C91.5134 17.1851 76.0591 8.79917 58.8164 8.93287C55.8664 8.95602 52.7062 9.20512 50.7045 9.57306ZM55.7097 10.5C46.8274 11.5282 40.3337 13.6322 33.9064 17.5645C27.9274 21.2221 23.0717 25.8627 18.7572 32.042C16.9719 34.5993 14.4434 39.8182 13.15 43.6158C11.2339 49.2417 10.8507 51.8857 10.8711 59.3354C10.889 65.721 10.946 66.2903 11.966 70.2548C13.5621 76.458 14.9978 79.8026 18.4407 85.3394C23.5076 93.489 32.3271 100.612 41.7659 104.177C44.4908 105.206 51.4967 107.002 52.817 107.009C53.186 107.011 53.506 106.513 53.758 105.544C54.3345 103.326 55.1933 87.4302 55.1926 78.9956C55.1919 70.4396 55.4443 71.179 51.5095 68.2036C49.0203 66.3214 47.0656 64.1466 46.3327 62.4447C45.5712 60.6752 45.9875 52.9608 47.2651 45.1705C49.0814 34.0935 49.5481 32.2162 50.7943 30.969C51.5209 30.2417 52.1004 29.9633 52.7345 30.0368C53.2385 30.0956 53.5999 30.3343 53.5513 30.5772C52.9247 33.6955 52.5057 56.226 53.0739 56.226C53.4715 56.226 53.8112 53.6007 53.8112 50.5276C53.8112 44.3631 55.1698 32.7406 56.1036 30.9192C56.9731 29.2222 58.6438 29.8924 58.6438 31.9384C58.6438 32.5654 58.7991 33.0785 58.989 33.0785C59.1788 33.0785 59.3342 32.6363 59.3342 32.0956C59.3342 31.1203 60.2323 29.9691 60.9931 29.9691C62.5672 29.9691 63.6093 36.8039 64.377 52.1666C64.4888 54.3991 64.7077 56.226 64.8637 56.226C65.4826 56.226 65.6262 51.1456 65.2444 42.7559C65.0239 37.9084 64.7536 33.0481 64.6438 31.9557C64.4495 30.0209 64.4664 29.9691 65.2945 29.9691C67.2755 29.9691 68.5706 32.1184 69.3715 36.7355C69.5665 37.8593 69.9538 40.1005 70.2327 41.7156C72.1858 53.0348 72.6231 60.7919 71.436 63.0632C70.532 64.793 69.2369 66.167 66.7084 68.0786C65.543 68.9596 64.1612 70.1902 63.6376 70.8131L62.6852 71.9456L62.9055 80.9282C63.2627 95.5001 64 106.27 64.688 106.958C64.7639 107.034 65.8817 106.908 67.1716 106.678C82.7985 103.887 95.6812 94.2415 102.486 80.2372C104.367 76.3633 106.309 70.4306 106.781 67.1088C108.371 55.9223 106.874 46.2591 102.09 36.8508C98.7468 30.2749 92.6885 23.3216 86.6325 19.1105C82.9846 16.5733 77.0173 13.6943 72.969 12.5183C67.0304 10.793 60.1388 9.98695 55.7097 10.5ZM58.649 46.6388C58.6459 51.1912 58.7698 53.8076 58.989 53.8076C59.4436 53.8076 59.4436 40.692 58.989 39.9882C58.767 39.6444 58.6524 41.8825 58.649 46.6388ZM84.8779 65.2404C74.6432 66.0658 68.7491 70.8798 66.5641 80.1982C65.9655 82.751 65.863 84.1377 65.9548 88.4318C66.0542 93.0717 66.1333 93.6452 66.7353 94.0853C67.2458 94.4581 68.6442 94.5714 72.6035 94.5597C77.5455 94.5455 78.53 94.4405 82.0767 93.5488C87.6891 92.1382 92.8203 87.0467 94.2735 81.4464C95.1886 77.9214 95.3291 76.7299 95.3533 72.2911C95.384 66.6942 95.1907 65.6284 94.1065 65.4073C92.578 65.096 87.753 65.0086 84.8779 65.2404ZM23.3157 65.8405C22.8345 66.3726 22.7469 67.313 22.7596 71.8001C22.7734 76.7969 22.8918 77.9532 23.7172 81.1714C24.8836 85.719 28.178 89.9602 32.089 91.9488C35.915 93.8942 39.3679 94.5749 45.4107 94.5749C52.5074 94.5749 52.0853 94.9981 52.0853 87.8835C52.0853 83.3183 51.952 81.7581 51.3724 79.5438C49.4021 72.014 45.2223 67.8775 37.5774 65.8906C33.8701 64.9271 24.1725 64.8932 23.3157 65.8405ZM26.1963 67.2408L24.9881 67.4543L24.6733 70.0295C24.1452 74.347 25.4158 81.2018 27.3737 84.5976C28.8 87.072 31.3064 89.3694 33.8674 90.5506C37.2381 92.1057 44.1353 93.1031 47.943 92.5866L49.8415 92.3292L50.1481 90.0835C50.5205 87.3532 49.9662 82.0013 48.961 78.6231C47.5581 73.9086 43.8498 70.0268 39.2958 68.5049C35.537 67.2491 29.4635 66.6628 26.1963 67.2408ZM83.4972 67.436C75.3114 68.7467 71.1267 72.127 68.9338 79.2008C68.3066 81.2229 68.1799 82.4957 68.1602 86.9697L68.1364 92.3206L70.2075 92.6215C72.7681 92.9939 78.8579 92.3969 81.6687 91.4983C85.2739 90.3454 88.122 88.4902 89.6132 86.3233C92.1451 82.6439 93.0885 79.2965 93.3743 72.982C93.5321 69.4913 93.4738 68.356 93.111 67.8861C92.4648 67.0487 87.3971 66.8113 83.4972 67.436Z" stroke="white" stroke-width="0.8" mask="url(#path-1-outside-1_2281_17790)"/>
</svg>
