<svg width="85" height="85" viewBox="0 0 85 85" fill="none" xmlns="http://www.w3.org/2000/svg">
<path fill-rule="evenodd" clip-rule="evenodd" d="M38.8423 1.85241C37.1118 3.63839 37.0473 3.82989 37.0473 7.19032C37.0473 9.90885 37.2087 10.71 37.7822 10.8336C38.3386 10.9533 37.9814 11.7935 36.3081 14.303C35.0934 16.1246 34.2116 17.7982 34.3488 18.022C34.4865 18.2462 35.5858 18.7078 36.7923 19.0483C37.9988 19.3888 38.9862 19.9164 38.9862 20.2207C38.9862 20.5255 38.264 21.8709 37.3808 23.2104C34.4918 27.5937 34.5863 26.522 34.7317 53.3385L34.866 78.0779L36.3415 80.1955C37.1535 81.3601 38.7894 82.8628 39.977 83.5345L42.137 84.7557L57.8908 84.9184C76.7804 85.1138 77.8487 84.9619 81.175 81.6098C82.9855 79.7857 83.5807 78.7647 84.0092 76.7526C84.5899 74.0213 84.7901 32.5433 84.2385 29.1784C84.0722 28.1658 82.9985 25.7579 81.8526 23.8278C80.7062 21.8973 79.8657 20.1597 79.9845 19.9667C80.1027 19.7732 81.2797 19.2535 82.6001 18.8114L85 18.0083L82.7155 14.5418C81.2108 12.2591 80.6379 11.0055 81.0368 10.8707C81.4469 10.732 81.6427 9.52586 81.6427 7.14195C81.6427 3.70629 81.5967 3.57244 79.8046 1.80894L77.9665 0H59.3019H40.6372L38.8423 1.85241ZM40.6697 3.9227C40.1801 4.46787 39.7793 5.62172 39.7793 6.48736V8.06034L59.4992 8.18785L79.2191 8.31534V6.43167C79.2191 2.84506 79.7043 2.93103 59.5031 2.93103C42.0885 2.93103 41.534 2.96034 40.6697 3.9227ZM39.852 13.556C38.8622 15.0934 38.2078 16.5066 38.3978 16.6961C38.5883 16.8857 39.7647 17.3146 41.0129 17.6497C43.1971 18.2364 43.3963 18.1983 46.345 16.6224C50.0493 14.6425 52.8036 14.472 55.8113 16.0362C58.3911 17.3781 60.9466 17.3874 63.0717 16.064C65.6204 14.4764 68.7314 14.6288 72.332 16.5174C73.9651 17.3737 75.667 18.0747 76.1134 18.0747C77.442 18.0747 80.6733 16.9761 80.6733 16.5242C80.6733 16.2941 79.8788 14.8999 78.9079 13.4266L77.143 10.7471L59.3974 10.7535L41.6523 10.7603L39.852 13.556ZM47.281 19.0776C45.8442 19.8695 44.0764 20.5172 43.3522 20.5172C42.2369 20.5172 41.6721 21.0971 39.6624 24.3032L37.2897 28.0891V52.6008C37.2897 76.7062 37.3066 77.1351 38.3037 78.4916C38.8617 79.2503 40.0391 80.3655 40.9203 80.9698C42.5069 82.0582 42.6901 82.069 59.5467 82.069H76.5705L78.3102 80.8775C81.7019 78.5547 81.6427 79.0612 81.6427 52.4328C81.6427 30.5863 81.571 28.4374 80.7945 27.0886C80.3277 26.2777 79.2918 24.4707 78.492 23.0731C77.2661 20.93 76.8158 20.5304 75.6228 20.5241C74.8444 20.5202 73.0484 19.8578 71.6311 19.0517C68.5346 17.2907 66.4173 17.1939 63.6015 18.6853C60.9762 20.0761 57.853 20.061 55.123 18.6448C52.4061 17.2355 50.4245 17.3449 47.281 19.0776ZM73.506 23.1478L72.4241 23.7316L73.7833 25.9103C76.015 29.4867 76.3601 30.8345 76.3873 36.0683L76.413 41.0345H77.8158H79.2191V36.7268C79.2191 31.6483 78.3 28.1184 76.1328 24.8757C74.7154 22.7541 74.4997 22.6124 73.506 23.1478ZM42.6479 24.9617C39.9596 29.0553 39.9557 29.0993 39.9576 52.9423C39.9591 73.6476 40.0144 75.077 40.8699 76.4902C41.7022 77.8659 44.4279 79.6264 45.7245 79.6264C46.0178 79.6264 46.2572 78.967 46.2572 78.1609C46.2572 77.0393 46.0377 76.6954 45.3232 76.6954C44.8089 76.6954 43.9363 76.116 43.3842 75.4082C42.4026 74.1513 42.3794 73.6281 42.3794 52.9985C42.3794 30.1799 42.3959 30.0133 45.0532 25.9665C45.7657 24.8811 46.2063 23.7604 46.0323 23.4766C45.3673 22.3921 43.917 23.0287 42.6479 24.9617ZM4.66521 25.5479C3.19793 27.073 3.11601 27.3558 3.11601 30.8804C3.11601 33.2858 3.3162 34.6697 3.68266 34.7928C4.03118 34.9101 3.50428 36.1001 2.3128 37.8866C1.24785 39.4835 0.224576 41.0521 0.0384388 41.3725C-0.187931 41.7624 0.584733 42.2352 2.37776 42.8048C3.85038 43.2728 5.05494 43.8107 5.05494 43.9997C5.05494 44.1893 4.25658 45.5146 3.28033 46.9444C0.482454 51.043 0.20761 52.6003 0.20761 64.344C0.20761 76.9167 0.504266 78.4462 3.55808 81.6083C6.5833 84.7416 8.08404 85 23.2562 85H35.5931V83.5345V82.069H22.215C7.40493 82.069 6.53531 81.9165 4.43933 78.9557C3.39861 77.4853 3.35353 76.9631 3.22265 64.9713C3.10098 53.7576 3.17369 52.3663 3.94975 51.0327C4.4243 50.2179 5.46696 48.4075 6.26677 47.0099C7.43013 44.9767 7.974 44.4667 8.98564 44.4609C9.68123 44.457 11.5179 43.7726 13.0666 42.9397C16.373 41.1615 18.2246 41.0467 20.9561 42.4511C23.5766 43.7984 26.8786 43.7843 29.6018 42.4135C31.1869 41.6158 31.7153 41.0662 31.7153 40.2153C31.7153 38.7903 30.5504 38.7317 28.5645 40.0575C26.6226 41.3535 24.5897 41.2851 21.4627 39.8181C18.1708 38.2734 16.4752 38.2798 13.4985 39.8484C9.97304 41.7057 8.69965 42.0012 6.63953 41.4409C5.63468 41.1674 4.61286 40.7521 4.36904 40.5176C4.10535 40.2646 4.64873 38.9945 5.70691 37.3878L7.4883 34.6839H19.6018H31.7153V33.2184V31.7529H18.6275H5.53967V30.1281C5.53967 29.0617 5.92503 28.1389 6.66134 27.4413C7.75102 26.4101 8.13106 26.3793 19.7491 26.3793H31.7153V25.158V23.9368H18.9648H6.21442L4.66521 25.5479ZM45.2878 33.1402C45.2878 33.6346 45.9383 35.2286 46.7332 36.6819C47.5282 38.1357 48.1826 39.5826 48.1874 39.8972C48.1923 40.2123 47.4327 40.7243 46.4996 41.0345C45.3678 41.4106 44.803 41.9021 44.803 42.5093C44.803 43.9968 45.6266 44.094 48.9082 42.9934L52.0217 41.9495L50.3048 38.1948C49.3605 36.1294 48.3556 33.9448 48.0716 33.3405C47.4225 31.9571 45.2878 31.8032 45.2878 33.1402ZM76.4217 45.1868C76.5026 46.1726 76.7823 46.408 77.8706 46.408C78.9859 46.408 79.2191 46.197 79.2191 45.1868C79.2191 44.1565 78.9927 43.9655 77.7702 43.9655C76.5215 43.9655 76.3354 44.1341 76.4217 45.1868ZM46.6208 45.9679C45.4734 46.6288 45.5287 46.9249 47.3479 49.8725L48.9233 52.4245L49.0779 63.3387L49.232 74.2529H50.4109H51.5893V63.3572C51.5893 52.6976 51.5631 52.4098 50.3746 50.0455C48.5156 46.3475 47.631 45.3861 46.6208 45.9679ZM8.43595 48.8691C5.90177 52.8495 5.53967 54.8577 5.54064 64.9268C5.54113 72.6076 5.672 74.267 6.38892 75.6837C7.97255 78.8141 11.9134 80.5561 12.2387 78.2699C12.3628 77.3959 12.0671 77.0422 10.8562 76.6168C8.38699 75.7492 8.1771 74.6031 8.44807 63.4584L8.69044 53.4914L10.2712 50.9106C12.2653 47.6552 12.3162 47.3821 11.0259 46.8775C10.1102 46.5194 9.76169 46.7876 8.43595 48.8691ZM15.0593 77.0344C14.8892 77.2064 14.7496 77.8595 14.7496 78.4868C14.7496 79.3768 15.0152 79.6264 15.9614 79.6264C16.8499 79.6264 17.1733 79.3661 17.1733 78.6494C17.1733 78.1121 17.2276 77.5293 17.2944 77.3549C17.4573 76.927 15.451 76.6397 15.0593 77.0344ZM49.1656 78.2278C49.1656 79.4037 49.3639 79.6264 50.4095 79.6264C51.4807 79.6264 51.6324 79.4398 51.5001 78.283C51.3862 77.2826 51.0687 76.9255 50.2563 76.8845C49.3663 76.839 49.1656 77.0862 49.1656 78.2278Z" fill="white"/>
</svg>
