<svg width="76" height="83" viewBox="0 0 76 83" fill="none" xmlns="http://www.w3.org/2000/svg">
<path fill-rule="evenodd" clip-rule="evenodd" d="M39.192 0.38328C38.6906 0.622331 37.9947 1.19758 37.3094 1.94003C32.9303 6.68277 30.7449 12.09 31.3155 16.7704C31.6432 19.459 32.7631 22.2986 34.5843 25.0576C35.776 26.8631 37.9085 29.3126 38.7316 29.8214L39.4206 30.2473L39.4255 33.4221C39.4305 36.5276 39.4386 36.6045 39.7987 36.9494C40.3234 37.4517 41.1735 37.422 41.6699 36.8839C42.0439 36.4785 42.0579 36.3718 42.135 33.3369L42.2146 30.2079L42.9296 29.6522C43.9059 28.8939 45.7653 26.6766 46.9955 24.8041C48.687 22.2292 49.5965 19.9491 50.0462 17.1569C50.7347 12.8801 49.0939 8.05025 45.363 3.37206C42.8448 0.214777 41.2085 -0.577788 39.192 0.38328ZM39.1753 3.97747C38.5536 4.64873 37.6471 5.76176 37.161 6.45118C33.0699 12.2508 32.9086 17.5134 36.6468 23.2073C37.5619 24.6009 39.1158 26.573 39.3113 26.5887C39.377 26.5939 39.4306 22.6998 39.4306 17.935C39.4306 13.1702 39.4752 9.15355 39.5294 9.00921C39.6867 8.59128 40.5051 8.23757 41.0385 8.35693C42.0677 8.58739 42.0472 8.40786 42.135 17.9509L42.2146 26.59L43.2343 25.3373C47.7613 19.7759 48.6278 14.648 45.954 9.24518C45.0097 7.337 42.8864 4.43725 41.5728 3.26146C40.7311 2.50814 40.4615 2.58874 39.1753 3.97747ZM9.06905 12.3421C7.45405 12.5934 6.42605 13.2889 5.80006 14.5538C5.34111 15.4814 5.33347 16.3363 5.76522 18.4987C6.69172 23.1398 8.31834 26.6244 10.7848 29.2523C13.2354 31.863 16.738 33.4581 21.0252 33.9157C23.0736 34.1343 26.9783 33.8937 28.2675 33.4693L29.0836 33.2005L31.5743 35.2513C33.7838 37.0704 34.1332 37.302 34.6682 37.302C35.3976 37.302 35.9308 36.7245 35.9308 35.9345C35.9308 35.317 35.5794 34.955 32.7094 32.6167L30.6811 30.9641L30.6785 29.8759C30.6755 28.521 30.2186 26.277 29.5002 24.0882C27.7544 18.7696 24.8087 15.2521 20.6563 13.5281C18.2761 12.54 16.8694 12.2915 13.3411 12.2362C11.5474 12.208 9.62505 12.2557 9.06905 12.3421ZM64.541 13.9641C62.4179 14.2241 60.2927 14.8591 58.5306 15.76C55.5447 17.2865 53.7197 19.5892 52.7266 23.0827C52.2478 24.7674 51.9274 27.7247 52.0646 29.1931L52.1633 30.2473L49.9283 32.6799C48.6991 34.0179 47.5823 35.3212 47.4466 35.5761C46.9635 36.483 47.5846 37.4642 48.6418 37.4642C49.2368 37.4642 49.3569 37.3617 51.5376 34.991L53.8126 32.5178L55.0132 32.5729C56.4245 32.6376 58.8821 32.2432 60.5732 31.6804C63.9098 30.57 66.321 28.557 67.645 25.7765C68.7682 23.4175 69.0814 21.8721 69.0913 18.6408C69.0995 15.9751 69.0962 15.949 68.6619 15.2789C67.8797 14.0719 66.7095 13.6986 64.541 13.9641ZM9.7617 15.0226C8.79193 15.1626 8.56699 15.2597 8.31866 15.646C8.08417 16.0109 8.09054 16.1786 8.40345 17.8453C9.59641 24.2022 12.5111 28.4601 16.7952 30.1039C18.2688 30.6694 19.6481 30.9715 21.5162 31.1379C23.1391 31.2824 26.2268 31.1811 26.2268 30.9834C26.2268 30.9245 23.2158 28.4046 19.5356 25.3837C15.8555 22.3626 12.7773 19.7628 12.695 19.6063C12.247 18.7529 12.9042 17.6136 13.8442 17.6136C14.3215 17.6136 15.2125 18.2886 21.0539 23.0753C24.7196 26.0791 27.7446 28.5107 27.7761 28.4785C27.8074 28.4466 27.7207 27.9192 27.5831 27.3066C26.6436 23.122 24.6506 19.4509 22.362 17.6893C21.3249 16.8912 19.2343 15.877 17.6363 15.3969C16.6153 15.0901 15.9957 15.0324 13.3411 14.996C11.6349 14.9728 10.0242 14.9847 9.7617 15.0226ZM64.8043 16.7203C61.8956 17.073 59.1324 18.2174 57.6726 19.6737C56.1992 21.144 55.1055 23.6351 54.8807 26.0329C54.8179 26.7035 54.8134 27.2329 54.8705 27.209C54.9278 27.1853 56.4167 25.5864 58.1791 23.6562C60.0775 21.5769 61.5412 20.1061 61.7704 20.0474C62.5951 19.8364 63.4521 20.5534 63.4521 21.4543C63.4521 21.7843 63.2157 22.1753 62.6169 22.8364C60.8395 24.7981 57.4719 28.4959 56.8613 29.156L56.2207 29.8485L56.774 29.7474C62.2738 28.7429 64.9273 26.6422 66.0143 22.4325C66.4416 20.7774 66.6336 16.9075 66.299 16.6914C66.1769 16.6126 66.0412 16.5565 65.9974 16.5667C65.9537 16.5769 65.4168 16.646 64.8043 16.7203ZM68.9944 40.2498C68.4992 40.3148 67.7475 40.5339 67.324 40.7366C66.8813 40.9486 63.6556 43.566 59.7302 46.8983L52.9064 52.6914L52.2293 51.9238C51.8569 51.5015 51.1997 50.9605 50.7689 50.7214C49.1272 49.8105 48.8758 49.7897 39.4946 49.7897H30.8758L30.0474 49.2088C27.2317 47.2343 25.1124 46.5462 21.8461 46.5462C16.2543 46.5462 10.5301 48.4787 6.08737 51.8663C3.88407 53.5463 1.41813 56.1424 0.819344 57.4121C0.192081 58.7423 -0.0933134 60.2202 0.0269531 61.5152C0.129561 62.6198 5.23675 80.0898 5.65466 80.7658C7.13381 83.1582 10.3328 83.7367 12.35 81.9764C12.7189 81.6545 14.0948 79.9408 15.4074 78.168C17.8803 74.8283 18.3121 74.3776 19.6336 73.7564L20.4202 73.3867L35.6922 73.3056L50.9641 73.2245L51.8772 72.8486C52.3796 72.6418 53.147 72.1994 53.5829 71.8656C54.728 70.9884 74.3537 50.6731 74.9877 49.7086C76.5627 47.3128 76.2793 44.2676 74.2809 42.1133C72.9128 40.6388 71.0445 39.9802 68.9944 40.2498ZM68.4204 43.2621C68.1372 43.4181 64.7684 46.2096 60.9341 49.4654L53.9628 55.3849L53.781 56.6486C53.6806 57.345 53.4137 58.2914 53.1862 58.7569C52.6073 59.9413 51.351 61.1896 50.1854 61.7389L49.2142 62.1964L39.5485 62.2429L29.8828 62.2893L29.4865 61.8853C28.9495 61.3378 28.9468 60.4628 29.4808 59.9186L29.8712 59.5204L39.0655 59.5188L48.2597 59.5172L49.0551 59.1364C50.0064 58.6808 50.2855 58.3829 50.7385 57.339C51.3978 55.8195 50.7781 53.9465 49.3292 53.0782L48.5779 52.6279L39.3511 52.5468C32.531 52.4868 30.0093 52.4135 29.6836 52.2657C29.4412 52.1558 28.8685 51.7806 28.411 51.4321C25.8505 49.4821 22.932 48.9162 18.6703 49.5432C13.3769 50.322 8.9157 52.5923 4.97267 56.5136C3.28703 58.1901 2.7627 59.2356 2.77367 60.8989C2.78004 61.8895 3.1095 63.1381 5.3602 70.702C6.7789 75.4694 8.05045 79.4948 8.18599 79.6476C8.8702 80.4182 10.1362 80.4286 10.8237 79.6691C11.0447 79.4249 12.2103 77.8894 13.4138 76.2569C15.7983 73.0224 16.8694 71.9618 18.5908 71.1295L19.6248 70.6296L35.0558 70.5485L50.4869 70.4675L51.2559 70.0815C51.8357 69.7905 53.7124 67.9561 58.8885 62.6213C73.8545 47.1963 72.9622 48.1743 73.2308 46.9039C73.4993 45.6329 72.6409 43.9447 71.3972 43.2979C70.6045 42.8856 69.1357 42.868 68.4204 43.2621Z" fill="white"/>
</svg>
