<svg width="75" height="105" viewBox="0 0 75 105" fill="none" xmlns="http://www.w3.org/2000/svg">
<path fill-rule="evenodd" clip-rule="evenodd" d="M33.5664 4.15648C21.2148 16.8601 7.60759 38.9773 2.82284 54.1283C-2.11414 69.7621 0.827142 83.1246 11.566 93.844C18.8003 101.065 27.1675 104.5 37.5206 104.5C47.8736 104.5 56.2408 101.065 63.4751 93.844C80.2004 77.1488 77.9823 55.3931 56.2303 22.7871C50.3905 14.0331 39.0294 0.5 37.5206 0.5C37.301 0.5 35.5221 2.14507 33.5664 4.15648ZM33.1904 10.773C23.9597 20.6657 11.627 41.3641 7.27018 54.276C3.54185 65.3234 3.78245 73.2124 8.12668 82.4051C12.1012 90.815 22.9916 98.8286 31.8646 99.8719L35.4161 100.29V54.5734C35.4161 29.4301 35.3172 8.85766 35.1966 8.85766C35.0759 8.85766 34.1731 9.7192 33.1904 10.773ZM39.6552 16.3447C39.6383 20.6545 39.8747 24.18 40.1806 24.18C41.1619 24.18 46.6397 18.2433 46.632 17.1889C46.6278 16.6289 45.0628 14.4469 43.1548 12.34L39.686 8.50943L39.6552 16.3447ZM44.341 26.1128L39.625 30.8314V43.1763C39.625 49.9662 39.8305 55.5213 40.0824 55.5213C40.9571 55.5213 59.2607 37.0592 59.2635 36.174C59.267 35.0297 50.373 21.3942 49.6231 21.3942C49.3116 21.3942 46.9351 23.5177 44.341 26.1128ZM50.2972 51.5417L39.5913 62.1872L39.7835 74.6151L39.9757 87.0422L53.423 73.6616C60.8186 66.3027 67.3781 59.7238 67.9989 59.0434C69.0406 57.8997 68.9845 57.4108 67.2666 52.6581C65.1089 46.6914 62.2805 40.8954 61.5257 40.8954C61.2381 40.8954 56.1854 45.6864 50.2972 51.5417ZM54.525 78.6853L39.625 93.4909V96.8903V100.29L43.1766 99.8719C55.2195 98.456 67.4188 86.733 69.7947 74.2919C70.6175 69.987 70.7129 63.879 69.9574 63.879C69.6649 63.879 62.7203 70.5414 54.525 78.6853ZM14.8847 67.3063C14.3726 69.2501 15.5118 74.5698 17.0915 77.6127C19.3566 81.9761 23.388 86.1661 25.3212 86.1661C28.3754 86.1661 28.0815 84.2654 24.4289 80.4C21.0752 76.8507 19.8097 74.1303 18.9308 68.5801C18.5892 66.4239 18.2314 65.9684 16.8769 65.9684C15.8492 65.9684 15.1057 66.4677 14.8847 67.3063Z" fill="white"/>
</svg>
