<svg width="26" height="25" viewBox="0 0 26 25" fill="none" xmlns="http://www.w3.org/2000/svg">
<path d="M17.6522 0H7.49063C5.50445 0.00146231 3.60006 0.764427 2.19563 2.12136C0.791188 3.47829 0.00151351 5.31827 0 7.23726V17.0552C0.00121081 18.9743 0.790752 20.8146 2.19522 22.1718C3.59969 23.5289 5.50425 24.2921 7.49063 24.2935H17.6522C19.6385 24.2918 21.5429 23.5286 22.9473 22.1715C24.3517 20.8143 25.1413 18.9743 25.1429 17.0552V7.23726C25.1419 5.31809 24.3525 3.47777 22.9479 2.12071C21.5433 0.763655 19.6386 0.000877871 17.6522 0ZM22.6147 17.0552C22.6144 18.3267 22.0915 19.5461 21.1609 20.4452C20.2303 21.3443 18.9683 21.8495 17.6522 21.8498H7.49063C6.83899 21.8498 6.19374 21.7258 5.59173 21.4848C4.98971 21.2439 4.44273 20.8907 3.982 20.4454C3.52128 20.0002 3.15586 19.4716 2.90659 18.8899C2.65733 18.3082 2.52911 17.6848 2.52926 17.0552V7.23726C2.52911 6.60772 2.65733 5.98432 2.90661 5.40268C3.15589 4.82103 3.52134 4.29254 3.98207 3.84738C4.44281 3.40223 4.98981 3.04915 5.59181 2.8083C6.19382 2.56745 6.83905 2.44356 7.49063 2.44371H17.6522C18.968 2.444 20.2297 2.94913 21.1601 3.84803C22.0905 4.74693 22.6133 5.96602 22.6136 7.23726L22.6147 17.0552Z" fill="#137D67"/>
<path d="M12.3429 5.7927C8.68627 5.7927 5.71484 8.45501 5.71484 11.7289C5.71484 15.0028 8.68744 17.6651 12.3429 17.6651C15.9983 17.6651 18.9709 15.0028 18.9709 11.7289C18.9709 8.45501 15.9995 5.7927 12.3429 5.7927ZM12.3429 15.3555C11.2689 15.3557 10.2389 14.9737 9.47942 14.2937C8.71992 13.6136 8.29315 12.6913 8.29299 11.7294C8.29284 10.7676 8.71931 9.84507 9.47859 9.16485C10.2379 8.48462 11.2678 8.1024 12.3417 8.10226C13.4157 8.10212 14.4457 8.48408 15.2052 9.16411C15.9647 9.84413 16.3914 10.7665 16.3916 11.7284C16.3917 12.6902 15.9653 13.6127 15.206 14.2929C14.4467 14.9732 13.4168 15.3554 12.3429 15.3555ZM18.9849 4.41406C19.2989 4.41427 19.6058 4.49784 19.8668 4.65423C20.1279 4.81061 20.3312 5.03278 20.4513 5.29266C20.5714 5.55254 20.6027 5.83847 20.5414 6.1143C20.4801 6.39014 20.3288 6.6435 20.1068 6.84237C19.8847 7.04125 19.6018 7.1767 19.2939 7.23162C18.9859 7.28654 18.6666 7.25846 18.3765 7.15093C18.0863 7.04339 17.8382 6.86123 17.6636 6.62747C17.489 6.3937 17.3957 6.11883 17.3955 5.83758C17.3955 5.05277 17.9898 4.41406 18.9849 4.41406Z" fill="#137D67"/>
</svg>
