<svg width="12" height="23" viewBox="0 0 12 23" fill="none" xmlns="http://www.w3.org/2000/svg">
<path fill-rule="evenodd" clip-rule="evenodd" d="M8.81773 0.0485714C5.64842 0.417232 3.18739 2.65652 2.81172 5.51339C2.78266 5.73438 2.75882 6.58317 2.75877 7.39955L2.75862 8.88393H1.50025H0.241822L0.120936 8.99353L0 9.10308V10.8214V12.5396L0.118818 12.6649L0.237636 12.7902L1.49813 12.8035L2.75862 12.8168V17.7065V22.5962L2.90261 22.7267L3.0466 22.8571H4.91852H6.79049L6.94202 22.7416L7.0936 22.626V17.7208V12.8156L8.91236 12.8029L10.7311 12.7902L10.8582 12.682L10.9852 12.5737V10.8454C10.9852 9.21049 10.9801 9.11134 10.8911 9.01165L10.797 8.90625L8.95759 8.88393L7.11823 8.86161L7.10522 7.48906C7.09054 5.945 7.1232 5.69027 7.39956 5.19326C7.61049 4.81388 8.07034 4.3971 8.48882 4.20598C8.96458 3.98875 9.35296 3.93022 10.3258 3.92933L11.1688 3.92857L11.2987 3.81089L11.4286 3.69317V1.9771V0.260982L11.2846 0.130491L11.1406 0L10.1393 0.00566964C9.58852 0.00879464 8.99384 0.0280804 8.81773 0.0485714Z" fill="#137D67"/>
</svg>
