<svg width="25" height="34" viewBox="0 0 25 34" fill="none" xmlns="http://www.w3.org/2000/svg">
<path d="M12.4786 33.9027C9.00239 33.9027 6.05359 32.6919 3.63215 30.2705C1.21072 27.8491 0 24.9003 0 21.4241C0 18.6313 0.824477 16.1281 2.47343 13.9147C4.12238 11.7012 6.28385 10.2082 8.95783 9.43576C8.36361 9.28721 7.78425 9.0718 7.21974 8.78955C6.65523 8.5073 6.15015 8.14334 5.70449 7.69768C4.72403 6.71722 4.09267 5.55107 3.81042 4.19922C3.52817 2.84738 3.46132 1.47325 3.60987 0.0768385C5.00628 -0.0717159 6.38041 -0.00486645 7.73225 0.277387C9.0841 0.55964 10.2502 1.191 11.2307 2.17145C11.9141 2.8548 12.4117 3.62729 12.7237 4.4889C13.0356 5.35052 13.2362 6.2567 13.3253 7.20745C13.7116 6.28641 14.1795 5.41737 14.7292 4.60032C15.2788 3.78327 15.8953 3.03307 16.5787 2.34972C16.9055 2.0229 17.3214 1.85949 17.8265 1.85949C18.3316 1.85949 18.7476 2.0229 19.0744 2.34972C19.4012 2.67654 19.5646 3.09249 19.5646 3.59758C19.5646 4.10266 19.4012 4.51861 19.0744 4.84543C18.4207 5.49907 17.8414 6.21956 17.3363 7.0069C16.8312 7.79424 16.4598 8.63357 16.2221 9.52489C18.8367 10.3568 20.9462 11.8646 22.5506 14.0484C24.1549 16.2321 24.9571 18.6907 24.9571 21.4241C24.9571 24.9003 23.7464 27.8491 21.325 30.2705C18.9035 32.6919 15.9547 33.9027 12.4786 33.9027ZM12.4786 30.3374C14.9446 30.3374 17.0466 29.4683 18.7847 27.7302C20.5228 25.9921 21.3918 23.8901 21.3918 21.4241C21.3918 18.9581 20.5228 16.8561 18.7847 15.118C17.0466 13.3799 14.9446 12.5108 12.4786 12.5108C10.0126 12.5108 7.91052 13.3799 6.17243 15.118C4.43435 16.8561 3.5653 18.9581 3.5653 21.4241C3.5653 23.8901 4.43435 25.9921 6.17243 27.7302C7.91052 29.4683 10.0126 30.3374 12.4786 30.3374Z" fill="#137D67"/>
<path d="M3.62109 0.0878906C5.01278 -0.0591525 6.38219 0.00874596 7.72949 0.290039C9.07895 0.571793 10.2429 1.20192 11.2217 2.18066C11.9038 2.86277 12.4006 3.6334 12.7119 4.49316C13.0235 5.35374 13.2235 6.25925 13.3125 7.20898L13.3369 7.21191C13.7228 6.29182 14.1902 5.42362 14.7393 4.60742C15.2885 3.79103 15.9051 3.04117 16.5879 2.3584C16.912 2.03441 17.3244 1.87215 17.8262 1.87207C18.3282 1.87207 18.7412 2.03424 19.0654 2.3584C19.3897 2.68264 19.5518 3.09555 19.5518 3.59766C19.5517 4.09973 19.3897 4.51269 19.0654 4.83691C18.4113 5.49106 17.8316 6.21211 17.3262 7C16.8204 7.78837 16.448 8.62895 16.21 9.52148L16.207 9.5332L16.2188 9.53711C18.8305 10.3682 20.9374 11.8744 22.54 14.0557C24.1428 16.2372 24.9443 18.6932 24.9443 21.4238C24.9443 24.8967 23.7354 27.8427 21.3164 30.2617C18.8974 32.6808 15.9514 33.8906 12.4785 33.8906C9.00562 33.8906 6.05967 32.6808 3.64062 30.2617C1.22168 27.8427 0.0126953 24.8967 0.0126953 21.4238C0.0127486 18.6338 0.836126 16.1331 2.4834 13.9219C4.1306 11.7108 6.28983 10.22 8.96094 9.44824L9.00586 9.43457L8.96094 9.42383C8.36769 9.27552 7.78924 9.06013 7.22559 8.77832C6.66228 8.49667 6.1576 8.13319 5.71289 7.68848C4.73437 6.70981 4.10398 5.54556 3.82227 4.19629C3.54102 2.84903 3.47404 1.47952 3.62109 0.0878906ZM12.4785 12.498C10.0093 12.4981 7.90447 13.369 6.16406 15.1094C4.42369 16.8497 3.5528 18.9546 3.55273 21.4238C3.55273 23.8931 4.42362 25.9988 6.16406 27.7393C7.90443 29.4795 10.0094 30.3496 12.4785 30.3496C14.9478 30.3496 17.0535 29.4797 18.7939 27.7393C20.5343 25.9988 21.4043 23.8931 21.4043 21.4238C21.4042 18.9548 20.5341 16.8497 18.7939 15.1094C17.0535 13.3689 14.9478 12.498 12.4785 12.498Z" stroke="#666161" stroke-opacity="0.66" stroke-width="0.025"/>
</svg>
