<svg width="71" height="29" viewBox="0 0 71 29" fill="none" xmlns="http://www.w3.org/2000/svg">
<mask id="path-1-outside-1_2248_10802" maskUnits="userSpaceOnUse" x="0" y="0" width="71" height="29" fill="black">
<rect fill="white" width="71" height="29"/>
<path fill-rule="evenodd" clip-rule="evenodd" d="M21.4609 1.24757C20.4558 1.77317 20.4809 1.47007 20.4809 13.0336C20.4809 24.6464 20.4517 24.3074 21.4956 24.8275C22.167 25.162 30.8831 25.2032 30.777 24.8712C30.7409 24.7587 30.6654 24.4637 30.609 24.2158L30.5066 23.7653H26.4411C22.972 23.7653 22.3364 23.7276 22.1084 23.5079C21.8712 23.2793 21.8412 22.1039 21.8412 13.0419C21.8412 4.63616 21.882 2.80096 22.0725 2.64859C22.2408 2.51391 26.0376 2.47524 36.058 2.50572L49.8122 2.54766L49.8559 13.1565L49.8998 23.7653H45.1474C42.5338 23.7653 40.3614 23.8207 40.3203 23.8882C40.279 23.9557 40.1919 24.2507 40.1266 24.5435L40.0081 25.076H47.3226H54.6368L54.5386 24.4616C54.4843 24.1238 54.4063 23.8103 54.3649 23.7653C54.3236 23.7202 53.6649 23.6834 52.9013 23.6834H51.5126L51.4685 14.713L51.4247 5.74259H56.6785C61.4374 5.74259 61.9646 5.76962 62.2766 6.02931C62.6862 6.37011 68.2233 13.5331 68.469 14.0399C68.6725 14.4597 68.027 22.4491 67.7492 22.9493C67.4561 23.4771 66.9114 23.6413 65.5336 23.6172C64.2298 23.5944 64.2182 23.5978 64.1067 24.0484C64.0448 24.2981 63.9543 24.6315 63.9057 24.7893C63.8258 25.0483 63.9747 25.076 65.4508 25.076C66.7412 25.076 67.2226 25.0082 67.7417 24.7529C68.5361 24.3625 69.0542 23.7599 69.279 22.9649C69.5676 21.9443 70.1382 14.3646 69.9694 13.7971C69.8364 13.3503 68.1438 11.0611 64.4381 6.31604C62.8044 4.2241 62.9708 4.26801 56.6626 4.26801H51.4276V3.39112C51.4276 2.4097 50.962 1.55657 50.2322 1.20071C49.9063 1.04178 46.6922 0.996888 35.8692 1.00016C23.8647 1.00377 21.8615 1.03818 21.4609 1.24757ZM5.72178 6.10304C5.44973 6.36519 5.46333 6.80577 5.75052 7.03547C5.91648 7.16819 7.63418 7.20915 11.7443 7.17834L17.5053 7.13525L17.5609 6.7576C17.6852 5.912 17.6459 5.90643 11.5673 5.90643C7.40617 5.90643 5.87227 5.95804 5.72178 6.10304ZM27.811 8.56888C27.5199 10.0333 27.2821 11.2867 27.2821 11.3542C27.2822 11.4217 27.5119 11.4771 27.7925 11.4771C28.1826 11.4771 28.3026 11.4029 28.3026 11.1618C28.3026 10.9885 28.3922 10.4724 28.5019 10.015L28.701 9.18329H29.6922C30.2371 9.18329 30.6831 9.11562 30.6831 9.03288C30.6831 8.95014 30.7295 8.76581 30.7863 8.62327C30.8736 8.40421 30.7272 8.36407 29.8397 8.36407C28.9212 8.36407 28.8003 8.32819 28.8736 8.07735C28.9197 7.91957 29.0067 7.5542 29.0669 7.26502L29.1766 6.73957L30.3975 6.69157C31.5165 6.64766 31.6229 6.61292 31.6727 6.27508C31.726 5.91397 31.6925 5.90643 30.0336 5.90643H28.3402L27.811 8.56888ZM32.5576 6.75039C32.4488 7.23241 32.189 8.47467 31.9802 9.51097L31.6006 11.3952L32.0075 11.4484C32.5413 11.5184 32.5651 11.4859 32.7946 10.3767C32.9681 9.53833 33.0414 9.42332 33.4304 9.37924C33.8314 9.33386 33.9046 9.42364 34.2634 10.4033C34.6378 11.4251 34.6834 11.4771 35.2047 11.4771H35.7524L35.2714 10.378L34.7902 9.27913L35.2779 8.99323C36.3322 8.37538 36.682 7.02646 35.9667 6.33701C35.6676 6.04881 35.3581 5.97852 34.1801 5.93117L32.7555 5.87399L32.5576 6.75039ZM37.3389 8.48695C37.0449 9.90616 36.8043 11.1597 36.8043 11.2723C36.8044 11.4225 37.2579 11.4771 38.5048 11.4771H40.2052V11.0675C40.2052 10.6703 40.1695 10.6579 39.0394 10.6579H37.8736L38.0416 9.83866L38.2098 9.01944H39.1894C39.9256 9.01944 40.1945 8.95505 40.272 8.76024C40.4699 8.26314 40.3686 8.20023 39.371 8.20023C38.2843 8.20023 38.3424 8.27576 38.5829 7.17621C38.6787 6.73761 38.7122 6.72565 39.8501 6.72565C41.002 6.72565 41.2254 6.61702 41.2254 6.05684C41.2254 5.9741 40.4713 5.90643 39.5495 5.90643H37.8735L37.3389 8.48695ZM41.9298 8.48695C41.6359 9.90616 41.3952 11.1597 41.3952 11.2723C41.3954 11.4225 41.8489 11.4771 43.0958 11.4771H44.7962V11.0675C44.7962 10.6703 44.7604 10.6579 43.6304 10.6579H42.4646L42.6326 9.83866L42.8008 9.01944H43.7803C44.5166 9.01944 44.7854 8.95505 44.863 8.76024C45.0558 8.27592 44.9669 8.21596 43.9823 8.16713L42.9987 8.11831L43.1422 7.42198L43.2859 6.72565H44.4479C45.5926 6.72565 45.8164 6.61636 45.8164 6.05684C45.8164 5.9741 45.0623 5.90643 44.1405 5.90643H42.4644L41.9298 8.48695ZM33.5093 7.01237C33.4612 7.17015 33.3711 7.57566 33.3088 7.91351L33.1958 8.52792H33.9026C34.4263 8.52792 34.7176 8.42371 35.0267 8.12568C35.489 7.68036 35.5273 7.50914 35.2682 7.04252C35.0264 6.60735 33.6401 6.58359 33.5093 7.01237ZM54.378 7.05218C54.1772 7.13034 53.9592 7.27796 53.8934 7.38036C53.8278 7.48276 53.6232 8.74812 53.4389 10.1924C53.1211 12.6808 53.1191 12.8345 53.3973 13.1306C53.6738 13.4252 53.9902 13.4432 58.8617 13.4432C62.1009 13.4432 64.1555 13.3798 64.3616 13.2736C64.5631 13.1696 64.6904 12.9312 64.6904 12.6579C64.6904 12.1085 61.6264 7.20161 61.1768 7.03089C60.7335 6.86278 54.8178 6.8813 54.378 7.05218ZM54.7513 8.07358C54.6266 8.44878 54.1317 12.3351 54.2002 12.4012C54.2369 12.4364 56.3756 12.4457 58.9527 12.4218L63.6386 12.3782L62.2438 10.1663L60.8491 7.95447L57.8349 7.90974C55.5112 7.87517 54.8048 7.91269 54.7513 8.07358ZM1.09679 10.8217C0.968247 11.0532 0.967737 11.2448 1.09526 11.4741C1.27108 11.7907 1.49961 11.8002 10.0837 11.8428C14.9282 11.867 19.0198 11.8629 19.1763 11.8338C19.5459 11.765 19.7297 11.0521 19.4589 10.7377C19.2781 10.5276 18.0084 10.494 10.264 10.494C1.45285 10.494 1.27533 10.5004 1.09679 10.8217ZM26.959 13.6033C26.8592 14.0517 26.7284 14.7153 26.6682 15.0779L26.5587 15.737H27.1841C28.3669 15.737 29.1528 15.0049 29.1528 13.9028C29.1528 13.3842 28.3914 12.7878 27.7293 12.7878C27.1608 12.7878 27.1343 12.8158 26.959 13.6033ZM29.9227 12.9926C29.8843 13.1054 29.7668 13.6398 29.6612 14.1805C29.5558 14.7212 29.4313 15.2925 29.3847 15.4503C29.3113 15.6988 29.4261 15.737 30.2466 15.737C30.9747 15.737 31.1932 15.6803 31.1932 15.4912C31.1932 15.3195 31.0137 15.2455 30.5981 15.2455C30.2708 15.2455 30.003 15.1778 30.003 15.0951C30.003 14.6638 30.2511 14.4263 30.7013 14.4263C31.0252 14.4263 31.1932 14.3424 31.1932 14.1805C31.1932 14.0184 31.0249 13.9347 30.6991 13.9347C30.2932 13.9347 30.2203 13.8777 30.2914 13.6159C30.3529 13.389 30.5527 13.2828 30.9849 13.2472C31.981 13.1655 31.88 12.7878 30.862 12.7878C30.3167 12.7878 29.9663 12.8642 29.9227 12.9926ZM32.3032 12.9926C32.2648 13.1054 32.1473 13.6398 32.0417 14.1805C31.9363 14.7212 31.8105 15.2966 31.7622 15.4593C31.6843 15.7218 31.7751 15.7494 32.5681 15.705C33.6079 15.6469 33.9788 15.2455 32.9927 15.2455C32.6578 15.2455 32.3854 15.1901 32.3876 15.1226C32.3913 15.0128 32.5676 14.198 32.8132 13.1565C32.8744 12.8966 32.8222 12.7878 32.6365 12.7878C32.4915 12.7878 32.3415 12.8801 32.3032 12.9926ZM34.5115 13.1565C34.4625 13.3593 34.3166 14.0266 34.1871 14.6396C33.972 15.6579 33.9757 15.7496 34.2303 15.7029C34.4226 15.6675 34.5712 15.3472 34.7096 14.6704C34.8198 14.1305 34.9519 13.4861 35.0029 13.2384C35.1187 12.6754 34.6465 12.5966 34.5115 13.1565ZM35.5241 13.7299C35.7225 15.5197 35.784 15.737 36.094 15.737C36.2942 15.737 36.6189 15.2894 37.1066 14.3419C37.9109 12.7795 37.9081 12.7878 37.6067 12.7878C37.487 12.7878 37.1088 13.3223 36.7667 13.9757L36.1445 15.1635L36.1321 14.3443C36.1158 13.2708 35.9714 12.7878 35.6671 12.7878C35.4671 12.7878 35.4397 12.9685 35.5241 13.7299ZM38.2545 12.9926C38.2161 13.1054 38.0986 13.6398 37.993 14.1805C37.8876 14.7212 37.7631 15.2925 37.7165 15.4503C37.6431 15.6988 37.7578 15.737 38.5784 15.737C39.3065 15.737 39.525 15.6803 39.525 15.4912C39.525 15.3195 39.3455 15.2455 38.9299 15.2455C38.6026 15.2455 38.3348 15.1778 38.3348 15.0951C38.3348 14.6638 38.5828 14.4263 39.0331 14.4263C39.357 14.4263 39.525 14.3424 39.525 14.1805C39.525 14.0276 39.3645 13.9347 39.0999 13.9347C38.7927 13.9347 38.6748 13.8467 38.6748 13.6169C38.6748 13.3693 38.8127 13.2879 39.2994 13.2482C40.3084 13.1661 40.2217 12.7878 39.1938 12.7878C38.6485 12.7878 38.298 12.8642 38.2545 12.9926ZM40.7005 12.8288C40.6923 12.8512 40.5524 13.515 40.3893 14.3034C40.1065 15.6721 40.1067 15.737 40.3934 15.737C40.6078 15.737 40.709 15.5849 40.7471 15.2058C40.8205 14.4729 41.3226 14.3892 41.4809 15.0836C41.5451 15.3651 41.7085 15.6362 41.8438 15.6864C42.2119 15.8225 42.2609 15.6875 42.0441 15.1344C41.8732 14.6981 41.895 14.5873 42.2172 14.2541C42.6741 13.7814 42.6925 13.182 42.2568 12.9574C41.9746 12.8119 40.7433 12.7102 40.7005 12.8288ZM42.9276 12.9107C42.9286 12.9782 43.0371 13.3757 43.1689 13.794C43.3289 14.3019 43.3624 14.7507 43.2701 15.1457C43.1516 15.6518 43.1749 15.737 43.4314 15.737C43.6421 15.737 43.7599 15.5674 43.8273 15.1681C43.88 14.8554 44.1447 14.2839 44.4156 13.8983C45.1658 12.8309 45.1842 12.7878 44.8854 12.7878C44.7365 12.7878 44.4566 13.0459 44.2634 13.3613C43.8749 13.9958 43.6059 14.102 43.6059 13.6205C43.6059 13.1321 43.4226 12.7878 43.1626 12.7878C43.0324 12.7878 42.9266 12.8432 42.9276 12.9107ZM27.665 13.3238C27.5752 13.4345 27.4252 13.9123 27.3315 14.3853C27.168 15.212 27.1758 15.2455 27.5356 15.2455C28.1713 15.2455 28.5553 14.6396 28.4922 13.7357C28.4653 13.3488 27.8806 13.0577 27.665 13.3238ZM41.1351 13.3613C41.0912 13.4964 41.0176 13.7222 40.9715 13.8631C40.9054 14.0655 41.0031 14.1084 41.4378 14.0679C41.8159 14.0327 42.0067 13.9203 42.0484 13.7086C42.1494 13.1958 41.2941 12.8706 41.1351 13.3613ZM5.9549 15.339C5.80799 15.4807 5.68778 15.6967 5.68778 15.8189C5.68778 15.9411 5.80799 16.1571 5.9549 16.2988C6.18326 16.5187 6.82345 16.5562 10.3418 16.5562C13.3195 16.5562 14.5183 16.5016 14.6657 16.3596C14.9781 16.0586 14.9085 15.4408 14.5409 15.2512C14.3409 15.1481 12.6457 15.0816 10.217 15.0816C6.81206 15.0816 6.18275 15.1196 5.9549 15.339ZM33.8223 19.0738C32.7753 19.5435 31.6527 20.7329 31.291 21.7556C30.7156 23.3827 31.0638 25.3077 32.156 26.5372C33.0388 27.531 33.9342 27.9311 35.2741 27.9308C37.1746 27.9303 38.588 26.9999 39.4512 25.1814C39.8518 24.3371 39.8976 24.0704 39.8311 22.9633C39.7721 21.9819 39.6491 21.5165 39.2727 20.85C38.1773 18.9106 35.8652 18.1571 33.8223 19.0738ZM57.974 18.9776C56.2175 19.538 54.8283 21.5337 54.8283 23.4964C54.8283 25.3447 55.9162 27.0051 57.5788 27.6942C60.3919 28.8603 63.6938 26.5347 63.7171 23.3707C63.7338 21.1217 62.508 19.4007 60.509 18.8657C59.6148 18.6265 58.9876 18.6542 57.974 18.9776ZM9.42858 19.9969C9.29935 20.2297 9.29935 20.4195 9.42858 20.6523C9.60372 20.9675 9.78464 20.98 14.1923 20.98H18.7741L18.8814 20.5682C19.1084 19.6966 18.9622 19.6692 14.0898 19.6692C9.78463 19.6692 9.60355 19.682 9.42858 19.9969ZM34.7582 21.1143C33.3456 21.7177 32.7775 23.4518 33.5782 24.7172C34.7701 26.6012 37.6546 25.5448 37.6546 23.2243C37.6546 21.6846 36.0906 20.5453 34.7582 21.1143ZM58.27 21.3068C57.153 21.963 56.7477 23.2682 57.2795 24.495C58.2198 26.6637 61.5252 25.705 61.5252 23.2638C61.5252 22.3693 61.1732 21.762 60.3878 21.3004C59.6937 20.8926 58.9712 20.8948 58.27 21.3068Z"/>
</mask>
<path fill-rule="evenodd" clip-rule="evenodd" d="M21.4609 1.24757C20.4558 1.77317 20.4809 1.47007 20.4809 13.0336C20.4809 24.6464 20.4517 24.3074 21.4956 24.8275C22.167 25.162 30.8831 25.2032 30.777 24.8712C30.7409 24.7587 30.6654 24.4637 30.609 24.2158L30.5066 23.7653H26.4411C22.972 23.7653 22.3364 23.7276 22.1084 23.5079C21.8712 23.2793 21.8412 22.1039 21.8412 13.0419C21.8412 4.63616 21.882 2.80096 22.0725 2.64859C22.2408 2.51391 26.0376 2.47524 36.058 2.50572L49.8122 2.54766L49.8559 13.1565L49.8998 23.7653H45.1474C42.5338 23.7653 40.3614 23.8207 40.3203 23.8882C40.279 23.9557 40.1919 24.2507 40.1266 24.5435L40.0081 25.076H47.3226H54.6368L54.5386 24.4616C54.4843 24.1238 54.4063 23.8103 54.3649 23.7653C54.3236 23.7202 53.6649 23.6834 52.9013 23.6834H51.5126L51.4685 14.713L51.4247 5.74259H56.6785C61.4374 5.74259 61.9646 5.76962 62.2766 6.02931C62.6862 6.37011 68.2233 13.5331 68.469 14.0399C68.6725 14.4597 68.027 22.4491 67.7492 22.9493C67.4561 23.4771 66.9114 23.6413 65.5336 23.6172C64.2298 23.5944 64.2182 23.5978 64.1067 24.0484C64.0448 24.2981 63.9543 24.6315 63.9057 24.7893C63.8258 25.0483 63.9747 25.076 65.4508 25.076C66.7412 25.076 67.2226 25.0082 67.7417 24.7529C68.5361 24.3625 69.0542 23.7599 69.279 22.9649C69.5676 21.9443 70.1382 14.3646 69.9694 13.7971C69.8364 13.3503 68.1438 11.0611 64.4381 6.31604C62.8044 4.2241 62.9708 4.26801 56.6626 4.26801H51.4276V3.39112C51.4276 2.4097 50.962 1.55657 50.2322 1.20071C49.9063 1.04178 46.6922 0.996888 35.8692 1.00016C23.8647 1.00377 21.8615 1.03818 21.4609 1.24757ZM5.72178 6.10304C5.44973 6.36519 5.46333 6.80577 5.75052 7.03547C5.91648 7.16819 7.63418 7.20915 11.7443 7.17834L17.5053 7.13525L17.5609 6.7576C17.6852 5.912 17.6459 5.90643 11.5673 5.90643C7.40617 5.90643 5.87227 5.95804 5.72178 6.10304ZM27.811 8.56888C27.5199 10.0333 27.2821 11.2867 27.2821 11.3542C27.2822 11.4217 27.5119 11.4771 27.7925 11.4771C28.1826 11.4771 28.3026 11.4029 28.3026 11.1618C28.3026 10.9885 28.3922 10.4724 28.5019 10.015L28.701 9.18329H29.6922C30.2371 9.18329 30.6831 9.11562 30.6831 9.03288C30.6831 8.95014 30.7295 8.76581 30.7863 8.62327C30.8736 8.40421 30.7272 8.36407 29.8397 8.36407C28.9212 8.36407 28.8003 8.32819 28.8736 8.07735C28.9197 7.91957 29.0067 7.5542 29.0669 7.26502L29.1766 6.73957L30.3975 6.69157C31.5165 6.64766 31.6229 6.61292 31.6727 6.27508C31.726 5.91397 31.6925 5.90643 30.0336 5.90643H28.3402L27.811 8.56888ZM32.5576 6.75039C32.4488 7.23241 32.189 8.47467 31.9802 9.51097L31.6006 11.3952L32.0075 11.4484C32.5413 11.5184 32.5651 11.4859 32.7946 10.3767C32.9681 9.53833 33.0414 9.42332 33.4304 9.37924C33.8314 9.33386 33.9046 9.42364 34.2634 10.4033C34.6378 11.4251 34.6834 11.4771 35.2047 11.4771H35.7524L35.2714 10.378L34.7902 9.27913L35.2779 8.99323C36.3322 8.37538 36.682 7.02646 35.9667 6.33701C35.6676 6.04881 35.3581 5.97852 34.1801 5.93117L32.7555 5.87399L32.5576 6.75039ZM37.3389 8.48695C37.0449 9.90616 36.8043 11.1597 36.8043 11.2723C36.8044 11.4225 37.2579 11.4771 38.5048 11.4771H40.2052V11.0675C40.2052 10.6703 40.1695 10.6579 39.0394 10.6579H37.8736L38.0416 9.83866L38.2098 9.01944H39.1894C39.9256 9.01944 40.1945 8.95505 40.272 8.76024C40.4699 8.26314 40.3686 8.20023 39.371 8.20023C38.2843 8.20023 38.3424 8.27576 38.5829 7.17621C38.6787 6.73761 38.7122 6.72565 39.8501 6.72565C41.002 6.72565 41.2254 6.61702 41.2254 6.05684C41.2254 5.9741 40.4713 5.90643 39.5495 5.90643H37.8735L37.3389 8.48695ZM41.9298 8.48695C41.6359 9.90616 41.3952 11.1597 41.3952 11.2723C41.3954 11.4225 41.8489 11.4771 43.0958 11.4771H44.7962V11.0675C44.7962 10.6703 44.7604 10.6579 43.6304 10.6579H42.4646L42.6326 9.83866L42.8008 9.01944H43.7803C44.5166 9.01944 44.7854 8.95505 44.863 8.76024C45.0558 8.27592 44.9669 8.21596 43.9823 8.16713L42.9987 8.11831L43.1422 7.42198L43.2859 6.72565H44.4479C45.5926 6.72565 45.8164 6.61636 45.8164 6.05684C45.8164 5.9741 45.0623 5.90643 44.1405 5.90643H42.4644L41.9298 8.48695ZM33.5093 7.01237C33.4612 7.17015 33.3711 7.57566 33.3088 7.91351L33.1958 8.52792H33.9026C34.4263 8.52792 34.7176 8.42371 35.0267 8.12568C35.489 7.68036 35.5273 7.50914 35.2682 7.04252C35.0264 6.60735 33.6401 6.58359 33.5093 7.01237ZM54.378 7.05218C54.1772 7.13034 53.9592 7.27796 53.8934 7.38036C53.8278 7.48276 53.6232 8.74812 53.4389 10.1924C53.1211 12.6808 53.1191 12.8345 53.3973 13.1306C53.6738 13.4252 53.9902 13.4432 58.8617 13.4432C62.1009 13.4432 64.1555 13.3798 64.3616 13.2736C64.5631 13.1696 64.6904 12.9312 64.6904 12.6579C64.6904 12.1085 61.6264 7.20161 61.1768 7.03089C60.7335 6.86278 54.8178 6.8813 54.378 7.05218ZM54.7513 8.07358C54.6266 8.44878 54.1317 12.3351 54.2002 12.4012C54.2369 12.4364 56.3756 12.4457 58.9527 12.4218L63.6386 12.3782L62.2438 10.1663L60.8491 7.95447L57.8349 7.90974C55.5112 7.87517 54.8048 7.91269 54.7513 8.07358ZM1.09679 10.8217C0.968247 11.0532 0.967737 11.2448 1.09526 11.4741C1.27108 11.7907 1.49961 11.8002 10.0837 11.8428C14.9282 11.867 19.0198 11.8629 19.1763 11.8338C19.5459 11.765 19.7297 11.0521 19.4589 10.7377C19.2781 10.5276 18.0084 10.494 10.264 10.494C1.45285 10.494 1.27533 10.5004 1.09679 10.8217ZM26.959 13.6033C26.8592 14.0517 26.7284 14.7153 26.6682 15.0779L26.5587 15.737H27.1841C28.3669 15.737 29.1528 15.0049 29.1528 13.9028C29.1528 13.3842 28.3914 12.7878 27.7293 12.7878C27.1608 12.7878 27.1343 12.8158 26.959 13.6033ZM29.9227 12.9926C29.8843 13.1054 29.7668 13.6398 29.6612 14.1805C29.5558 14.7212 29.4313 15.2925 29.3847 15.4503C29.3113 15.6988 29.4261 15.737 30.2466 15.737C30.9747 15.737 31.1932 15.6803 31.1932 15.4912C31.1932 15.3195 31.0137 15.2455 30.5981 15.2455C30.2708 15.2455 30.003 15.1778 30.003 15.0951C30.003 14.6638 30.2511 14.4263 30.7013 14.4263C31.0252 14.4263 31.1932 14.3424 31.1932 14.1805C31.1932 14.0184 31.0249 13.9347 30.6991 13.9347C30.2932 13.9347 30.2203 13.8777 30.2914 13.6159C30.3529 13.389 30.5527 13.2828 30.9849 13.2472C31.981 13.1655 31.88 12.7878 30.862 12.7878C30.3167 12.7878 29.9663 12.8642 29.9227 12.9926ZM32.3032 12.9926C32.2648 13.1054 32.1473 13.6398 32.0417 14.1805C31.9363 14.7212 31.8105 15.2966 31.7622 15.4593C31.6843 15.7218 31.7751 15.7494 32.5681 15.705C33.6079 15.6469 33.9788 15.2455 32.9927 15.2455C32.6578 15.2455 32.3854 15.1901 32.3876 15.1226C32.3913 15.0128 32.5676 14.198 32.8132 13.1565C32.8744 12.8966 32.8222 12.7878 32.6365 12.7878C32.4915 12.7878 32.3415 12.8801 32.3032 12.9926ZM34.5115 13.1565C34.4625 13.3593 34.3166 14.0266 34.1871 14.6396C33.972 15.6579 33.9757 15.7496 34.2303 15.7029C34.4226 15.6675 34.5712 15.3472 34.7096 14.6704C34.8198 14.1305 34.9519 13.4861 35.0029 13.2384C35.1187 12.6754 34.6465 12.5966 34.5115 13.1565ZM35.5241 13.7299C35.7225 15.5197 35.784 15.737 36.094 15.737C36.2942 15.737 36.6189 15.2894 37.1066 14.3419C37.9109 12.7795 37.9081 12.7878 37.6067 12.7878C37.487 12.7878 37.1088 13.3223 36.7667 13.9757L36.1445 15.1635L36.1321 14.3443C36.1158 13.2708 35.9714 12.7878 35.6671 12.7878C35.4671 12.7878 35.4397 12.9685 35.5241 13.7299ZM38.2545 12.9926C38.2161 13.1054 38.0986 13.6398 37.993 14.1805C37.8876 14.7212 37.7631 15.2925 37.7165 15.4503C37.6431 15.6988 37.7578 15.737 38.5784 15.737C39.3065 15.737 39.525 15.6803 39.525 15.4912C39.525 15.3195 39.3455 15.2455 38.9299 15.2455C38.6026 15.2455 38.3348 15.1778 38.3348 15.0951C38.3348 14.6638 38.5828 14.4263 39.0331 14.4263C39.357 14.4263 39.525 14.3424 39.525 14.1805C39.525 14.0276 39.3645 13.9347 39.0999 13.9347C38.7927 13.9347 38.6748 13.8467 38.6748 13.6169C38.6748 13.3693 38.8127 13.2879 39.2994 13.2482C40.3084 13.1661 40.2217 12.7878 39.1938 12.7878C38.6485 12.7878 38.298 12.8642 38.2545 12.9926ZM40.7005 12.8288C40.6923 12.8512 40.5524 13.515 40.3893 14.3034C40.1065 15.6721 40.1067 15.737 40.3934 15.737C40.6078 15.737 40.709 15.5849 40.7471 15.2058C40.8205 14.4729 41.3226 14.3892 41.4809 15.0836C41.5451 15.3651 41.7085 15.6362 41.8438 15.6864C42.2119 15.8225 42.2609 15.6875 42.0441 15.1344C41.8732 14.6981 41.895 14.5873 42.2172 14.2541C42.6741 13.7814 42.6925 13.182 42.2568 12.9574C41.9746 12.8119 40.7433 12.7102 40.7005 12.8288ZM42.9276 12.9107C42.9286 12.9782 43.0371 13.3757 43.1689 13.794C43.3289 14.3019 43.3624 14.7507 43.2701 15.1457C43.1516 15.6518 43.1749 15.737 43.4314 15.737C43.6421 15.737 43.7599 15.5674 43.8273 15.1681C43.88 14.8554 44.1447 14.2839 44.4156 13.8983C45.1658 12.8309 45.1842 12.7878 44.8854 12.7878C44.7365 12.7878 44.4566 13.0459 44.2634 13.3613C43.8749 13.9958 43.6059 14.102 43.6059 13.6205C43.6059 13.1321 43.4226 12.7878 43.1626 12.7878C43.0324 12.7878 42.9266 12.8432 42.9276 12.9107ZM27.665 13.3238C27.5752 13.4345 27.4252 13.9123 27.3315 14.3853C27.168 15.212 27.1758 15.2455 27.5356 15.2455C28.1713 15.2455 28.5553 14.6396 28.4922 13.7357C28.4653 13.3488 27.8806 13.0577 27.665 13.3238ZM41.1351 13.3613C41.0912 13.4964 41.0176 13.7222 40.9715 13.8631C40.9054 14.0655 41.0031 14.1084 41.4378 14.0679C41.8159 14.0327 42.0067 13.9203 42.0484 13.7086C42.1494 13.1958 41.2941 12.8706 41.1351 13.3613ZM5.9549 15.339C5.80799 15.4807 5.68778 15.6967 5.68778 15.8189C5.68778 15.9411 5.80799 16.1571 5.9549 16.2988C6.18326 16.5187 6.82345 16.5562 10.3418 16.5562C13.3195 16.5562 14.5183 16.5016 14.6657 16.3596C14.9781 16.0586 14.9085 15.4408 14.5409 15.2512C14.3409 15.1481 12.6457 15.0816 10.217 15.0816C6.81206 15.0816 6.18275 15.1196 5.9549 15.339ZM33.8223 19.0738C32.7753 19.5435 31.6527 20.7329 31.291 21.7556C30.7156 23.3827 31.0638 25.3077 32.156 26.5372C33.0388 27.531 33.9342 27.9311 35.2741 27.9308C37.1746 27.9303 38.588 26.9999 39.4512 25.1814C39.8518 24.3371 39.8976 24.0704 39.8311 22.9633C39.7721 21.9819 39.6491 21.5165 39.2727 20.85C38.1773 18.9106 35.8652 18.1571 33.8223 19.0738ZM57.974 18.9776C56.2175 19.538 54.8283 21.5337 54.8283 23.4964C54.8283 25.3447 55.9162 27.0051 57.5788 27.6942C60.3919 28.8603 63.6938 26.5347 63.7171 23.3707C63.7338 21.1217 62.508 19.4007 60.509 18.8657C59.6148 18.6265 58.9876 18.6542 57.974 18.9776ZM9.42858 19.9969C9.29935 20.2297 9.29935 20.4195 9.42858 20.6523C9.60372 20.9675 9.78464 20.98 14.1923 20.98H18.7741L18.8814 20.5682C19.1084 19.6966 18.9622 19.6692 14.0898 19.6692C9.78463 19.6692 9.60355 19.682 9.42858 19.9969ZM34.7582 21.1143C33.3456 21.7177 32.7775 23.4518 33.5782 24.7172C34.7701 26.6012 37.6546 25.5448 37.6546 23.2243C37.6546 21.6846 36.0906 20.5453 34.7582 21.1143ZM58.27 21.3068C57.153 21.963 56.7477 23.2682 57.2795 24.495C58.2198 26.6637 61.5252 25.705 61.5252 23.2638C61.5252 22.3693 61.1732 21.762 60.3878 21.3004C59.6937 20.8926 58.9712 20.8948 58.27 21.3068Z" fill="#137D67"/>
<path fill-rule="evenodd" clip-rule="evenodd" d="M21.4609 1.24757C20.4558 1.77317 20.4809 1.47007 20.4809 13.0336C20.4809 24.6464 20.4517 24.3074 21.4956 24.8275C22.167 25.162 30.8831 25.2032 30.777 24.8712C30.7409 24.7587 30.6654 24.4637 30.609 24.2158L30.5066 23.7653H26.4411C22.972 23.7653 22.3364 23.7276 22.1084 23.5079C21.8712 23.2793 21.8412 22.1039 21.8412 13.0419C21.8412 4.63616 21.882 2.80096 22.0725 2.64859C22.2408 2.51391 26.0376 2.47524 36.058 2.50572L49.8122 2.54766L49.8559 13.1565L49.8998 23.7653H45.1474C42.5338 23.7653 40.3614 23.8207 40.3203 23.8882C40.279 23.9557 40.1919 24.2507 40.1266 24.5435L40.0081 25.076H47.3226H54.6368L54.5386 24.4616C54.4843 24.1238 54.4063 23.8103 54.3649 23.7653C54.3236 23.7202 53.6649 23.6834 52.9013 23.6834H51.5126L51.4685 14.713L51.4247 5.74259H56.6785C61.4374 5.74259 61.9646 5.76962 62.2766 6.02931C62.6862 6.37011 68.2233 13.5331 68.469 14.0399C68.6725 14.4597 68.027 22.4491 67.7492 22.9493C67.4561 23.4771 66.9114 23.6413 65.5336 23.6172C64.2298 23.5944 64.2182 23.5978 64.1067 24.0484C64.0448 24.2981 63.9543 24.6315 63.9057 24.7893C63.8258 25.0483 63.9747 25.076 65.4508 25.076C66.7412 25.076 67.2226 25.0082 67.7417 24.7529C68.5361 24.3625 69.0542 23.7599 69.279 22.9649C69.5676 21.9443 70.1382 14.3646 69.9694 13.7971C69.8364 13.3503 68.1438 11.0611 64.4381 6.31604C62.8044 4.2241 62.9708 4.26801 56.6626 4.26801H51.4276V3.39112C51.4276 2.4097 50.962 1.55657 50.2322 1.20071C49.9063 1.04178 46.6922 0.996888 35.8692 1.00016C23.8647 1.00377 21.8615 1.03818 21.4609 1.24757ZM5.72178 6.10304C5.44973 6.36519 5.46333 6.80577 5.75052 7.03547C5.91648 7.16819 7.63418 7.20915 11.7443 7.17834L17.5053 7.13525L17.5609 6.7576C17.6852 5.912 17.6459 5.90643 11.5673 5.90643C7.40617 5.90643 5.87227 5.95804 5.72178 6.10304ZM27.811 8.56888C27.5199 10.0333 27.2821 11.2867 27.2821 11.3542C27.2822 11.4217 27.5119 11.4771 27.7925 11.4771C28.1826 11.4771 28.3026 11.4029 28.3026 11.1618C28.3026 10.9885 28.3922 10.4724 28.5019 10.015L28.701 9.18329H29.6922C30.2371 9.18329 30.6831 9.11562 30.6831 9.03288C30.6831 8.95014 30.7295 8.76581 30.7863 8.62327C30.8736 8.40421 30.7272 8.36407 29.8397 8.36407C28.9212 8.36407 28.8003 8.32819 28.8736 8.07735C28.9197 7.91957 29.0067 7.5542 29.0669 7.26502L29.1766 6.73957L30.3975 6.69157C31.5165 6.64766 31.6229 6.61292 31.6727 6.27508C31.726 5.91397 31.6925 5.90643 30.0336 5.90643H28.3402L27.811 8.56888ZM32.5576 6.75039C32.4488 7.23241 32.189 8.47467 31.9802 9.51097L31.6006 11.3952L32.0075 11.4484C32.5413 11.5184 32.5651 11.4859 32.7946 10.3767C32.9681 9.53833 33.0414 9.42332 33.4304 9.37924C33.8314 9.33386 33.9046 9.42364 34.2634 10.4033C34.6378 11.4251 34.6834 11.4771 35.2047 11.4771H35.7524L35.2714 10.378L34.7902 9.27913L35.2779 8.99323C36.3322 8.37538 36.682 7.02646 35.9667 6.33701C35.6676 6.04881 35.3581 5.97852 34.1801 5.93117L32.7555 5.87399L32.5576 6.75039ZM37.3389 8.48695C37.0449 9.90616 36.8043 11.1597 36.8043 11.2723C36.8044 11.4225 37.2579 11.4771 38.5048 11.4771H40.2052V11.0675C40.2052 10.6703 40.1695 10.6579 39.0394 10.6579H37.8736L38.0416 9.83866L38.2098 9.01944H39.1894C39.9256 9.01944 40.1945 8.95505 40.272 8.76024C40.4699 8.26314 40.3686 8.20023 39.371 8.20023C38.2843 8.20023 38.3424 8.27576 38.5829 7.17621C38.6787 6.73761 38.7122 6.72565 39.8501 6.72565C41.002 6.72565 41.2254 6.61702 41.2254 6.05684C41.2254 5.9741 40.4713 5.90643 39.5495 5.90643H37.8735L37.3389 8.48695ZM41.9298 8.48695C41.6359 9.90616 41.3952 11.1597 41.3952 11.2723C41.3954 11.4225 41.8489 11.4771 43.0958 11.4771H44.7962V11.0675C44.7962 10.6703 44.7604 10.6579 43.6304 10.6579H42.4646L42.6326 9.83866L42.8008 9.01944H43.7803C44.5166 9.01944 44.7854 8.95505 44.863 8.76024C45.0558 8.27592 44.9669 8.21596 43.9823 8.16713L42.9987 8.11831L43.1422 7.42198L43.2859 6.72565H44.4479C45.5926 6.72565 45.8164 6.61636 45.8164 6.05684C45.8164 5.9741 45.0623 5.90643 44.1405 5.90643H42.4644L41.9298 8.48695ZM33.5093 7.01237C33.4612 7.17015 33.3711 7.57566 33.3088 7.91351L33.1958 8.52792H33.9026C34.4263 8.52792 34.7176 8.42371 35.0267 8.12568C35.489 7.68036 35.5273 7.50914 35.2682 7.04252C35.0264 6.60735 33.6401 6.58359 33.5093 7.01237ZM54.378 7.05218C54.1772 7.13034 53.9592 7.27796 53.8934 7.38036C53.8278 7.48276 53.6232 8.74812 53.4389 10.1924C53.1211 12.6808 53.1191 12.8345 53.3973 13.1306C53.6738 13.4252 53.9902 13.4432 58.8617 13.4432C62.1009 13.4432 64.1555 13.3798 64.3616 13.2736C64.5631 13.1696 64.6904 12.9312 64.6904 12.6579C64.6904 12.1085 61.6264 7.20161 61.1768 7.03089C60.7335 6.86278 54.8178 6.8813 54.378 7.05218ZM54.7513 8.07358C54.6266 8.44878 54.1317 12.3351 54.2002 12.4012C54.2369 12.4364 56.3756 12.4457 58.9527 12.4218L63.6386 12.3782L62.2438 10.1663L60.8491 7.95447L57.8349 7.90974C55.5112 7.87517 54.8048 7.91269 54.7513 8.07358ZM1.09679 10.8217C0.968247 11.0532 0.967737 11.2448 1.09526 11.4741C1.27108 11.7907 1.49961 11.8002 10.0837 11.8428C14.9282 11.867 19.0198 11.8629 19.1763 11.8338C19.5459 11.765 19.7297 11.0521 19.4589 10.7377C19.2781 10.5276 18.0084 10.494 10.264 10.494C1.45285 10.494 1.27533 10.5004 1.09679 10.8217ZM26.959 13.6033C26.8592 14.0517 26.7284 14.7153 26.6682 15.0779L26.5587 15.737H27.1841C28.3669 15.737 29.1528 15.0049 29.1528 13.9028C29.1528 13.3842 28.3914 12.7878 27.7293 12.7878C27.1608 12.7878 27.1343 12.8158 26.959 13.6033ZM29.9227 12.9926C29.8843 13.1054 29.7668 13.6398 29.6612 14.1805C29.5558 14.7212 29.4313 15.2925 29.3847 15.4503C29.3113 15.6988 29.4261 15.737 30.2466 15.737C30.9747 15.737 31.1932 15.6803 31.1932 15.4912C31.1932 15.3195 31.0137 15.2455 30.5981 15.2455C30.2708 15.2455 30.003 15.1778 30.003 15.0951C30.003 14.6638 30.2511 14.4263 30.7013 14.4263C31.0252 14.4263 31.1932 14.3424 31.1932 14.1805C31.1932 14.0184 31.0249 13.9347 30.6991 13.9347C30.2932 13.9347 30.2203 13.8777 30.2914 13.6159C30.3529 13.389 30.5527 13.2828 30.9849 13.2472C31.981 13.1655 31.88 12.7878 30.862 12.7878C30.3167 12.7878 29.9663 12.8642 29.9227 12.9926ZM32.3032 12.9926C32.2648 13.1054 32.1473 13.6398 32.0417 14.1805C31.9363 14.7212 31.8105 15.2966 31.7622 15.4593C31.6843 15.7218 31.7751 15.7494 32.5681 15.705C33.6079 15.6469 33.9788 15.2455 32.9927 15.2455C32.6578 15.2455 32.3854 15.1901 32.3876 15.1226C32.3913 15.0128 32.5676 14.198 32.8132 13.1565C32.8744 12.8966 32.8222 12.7878 32.6365 12.7878C32.4915 12.7878 32.3415 12.8801 32.3032 12.9926ZM34.5115 13.1565C34.4625 13.3593 34.3166 14.0266 34.1871 14.6396C33.972 15.6579 33.9757 15.7496 34.2303 15.7029C34.4226 15.6675 34.5712 15.3472 34.7096 14.6704C34.8198 14.1305 34.9519 13.4861 35.0029 13.2384C35.1187 12.6754 34.6465 12.5966 34.5115 13.1565ZM35.5241 13.7299C35.7225 15.5197 35.784 15.737 36.094 15.737C36.2942 15.737 36.6189 15.2894 37.1066 14.3419C37.9109 12.7795 37.9081 12.7878 37.6067 12.7878C37.487 12.7878 37.1088 13.3223 36.7667 13.9757L36.1445 15.1635L36.1321 14.3443C36.1158 13.2708 35.9714 12.7878 35.6671 12.7878C35.4671 12.7878 35.4397 12.9685 35.5241 13.7299ZM38.2545 12.9926C38.2161 13.1054 38.0986 13.6398 37.993 14.1805C37.8876 14.7212 37.7631 15.2925 37.7165 15.4503C37.6431 15.6988 37.7578 15.737 38.5784 15.737C39.3065 15.737 39.525 15.6803 39.525 15.4912C39.525 15.3195 39.3455 15.2455 38.9299 15.2455C38.6026 15.2455 38.3348 15.1778 38.3348 15.0951C38.3348 14.6638 38.5828 14.4263 39.0331 14.4263C39.357 14.4263 39.525 14.3424 39.525 14.1805C39.525 14.0276 39.3645 13.9347 39.0999 13.9347C38.7927 13.9347 38.6748 13.8467 38.6748 13.6169C38.6748 13.3693 38.8127 13.2879 39.2994 13.2482C40.3084 13.1661 40.2217 12.7878 39.1938 12.7878C38.6485 12.7878 38.298 12.8642 38.2545 12.9926ZM40.7005 12.8288C40.6923 12.8512 40.5524 13.515 40.3893 14.3034C40.1065 15.6721 40.1067 15.737 40.3934 15.737C40.6078 15.737 40.709 15.5849 40.7471 15.2058C40.8205 14.4729 41.3226 14.3892 41.4809 15.0836C41.5451 15.3651 41.7085 15.6362 41.8438 15.6864C42.2119 15.8225 42.2609 15.6875 42.0441 15.1344C41.8732 14.6981 41.895 14.5873 42.2172 14.2541C42.6741 13.7814 42.6925 13.182 42.2568 12.9574C41.9746 12.8119 40.7433 12.7102 40.7005 12.8288ZM42.9276 12.9107C42.9286 12.9782 43.0371 13.3757 43.1689 13.794C43.3289 14.3019 43.3624 14.7507 43.2701 15.1457C43.1516 15.6518 43.1749 15.737 43.4314 15.737C43.6421 15.737 43.7599 15.5674 43.8273 15.1681C43.88 14.8554 44.1447 14.2839 44.4156 13.8983C45.1658 12.8309 45.1842 12.7878 44.8854 12.7878C44.7365 12.7878 44.4566 13.0459 44.2634 13.3613C43.8749 13.9958 43.6059 14.102 43.6059 13.6205C43.6059 13.1321 43.4226 12.7878 43.1626 12.7878C43.0324 12.7878 42.9266 12.8432 42.9276 12.9107ZM27.665 13.3238C27.5752 13.4345 27.4252 13.9123 27.3315 14.3853C27.168 15.212 27.1758 15.2455 27.5356 15.2455C28.1713 15.2455 28.5553 14.6396 28.4922 13.7357C28.4653 13.3488 27.8806 13.0577 27.665 13.3238ZM41.1351 13.3613C41.0912 13.4964 41.0176 13.7222 40.9715 13.8631C40.9054 14.0655 41.0031 14.1084 41.4378 14.0679C41.8159 14.0327 42.0067 13.9203 42.0484 13.7086C42.1494 13.1958 41.2941 12.8706 41.1351 13.3613ZM5.9549 15.339C5.80799 15.4807 5.68778 15.6967 5.68778 15.8189C5.68778 15.9411 5.80799 16.1571 5.9549 16.2988C6.18326 16.5187 6.82345 16.5562 10.3418 16.5562C13.3195 16.5562 14.5183 16.5016 14.6657 16.3596C14.9781 16.0586 14.9085 15.4408 14.5409 15.2512C14.3409 15.1481 12.6457 15.0816 10.217 15.0816C6.81206 15.0816 6.18275 15.1196 5.9549 15.339ZM33.8223 19.0738C32.7753 19.5435 31.6527 20.7329 31.291 21.7556C30.7156 23.3827 31.0638 25.3077 32.156 26.5372C33.0388 27.531 33.9342 27.9311 35.2741 27.9308C37.1746 27.9303 38.588 26.9999 39.4512 25.1814C39.8518 24.3371 39.8976 24.0704 39.8311 22.9633C39.7721 21.9819 39.6491 21.5165 39.2727 20.85C38.1773 18.9106 35.8652 18.1571 33.8223 19.0738ZM57.974 18.9776C56.2175 19.538 54.8283 21.5337 54.8283 23.4964C54.8283 25.3447 55.9162 27.0051 57.5788 27.6942C60.3919 28.8603 63.6938 26.5347 63.7171 23.3707C63.7338 21.1217 62.508 19.4007 60.509 18.8657C59.6148 18.6265 58.9876 18.6542 57.974 18.9776ZM9.42858 19.9969C9.29935 20.2297 9.29935 20.4195 9.42858 20.6523C9.60372 20.9675 9.78464 20.98 14.1923 20.98H18.7741L18.8814 20.5682C19.1084 19.6966 18.9622 19.6692 14.0898 19.6692C9.78463 19.6692 9.60355 19.682 9.42858 19.9969ZM34.7582 21.1143C33.3456 21.7177 32.7775 23.4518 33.5782 24.7172C34.7701 26.6012 37.6546 25.5448 37.6546 23.2243C37.6546 21.6846 36.0906 20.5453 34.7582 21.1143ZM58.27 21.3068C57.153 21.963 56.7477 23.2682 57.2795 24.495C58.2198 26.6637 61.5252 25.705 61.5252 23.2638C61.5252 22.3693 61.1732 21.762 60.3878 21.3004C59.6937 20.8926 58.9712 20.8948 58.27 21.3068Z" stroke="#137D67" stroke-width="0.6" mask="url(#path-1-outside-1_2248_10802)"/>
</svg>
