<svg width="30" height="30" viewBox="0 0 30 30" fill="none" xmlns="http://www.w3.org/2000/svg">
<path d="M8.64355 0.753418H21.2881C21.7326 0.753418 22.1048 0.903357 22.4053 1.20361C22.7058 1.5041 22.8564 1.87709 22.8564 2.32178C22.8563 2.76627 22.7057 3.13858 22.4053 3.43896C22.1048 3.73925 21.7326 3.88916 21.2881 3.88916H19.6953V13.3853H19.6914L19.6982 13.3931L28.4707 24.063C28.8908 24.5751 29.1343 25.108 29.2031 25.6616C29.2719 26.2153 29.1661 26.7907 28.8838 27.3882C28.6014 27.9857 28.2222 28.4338 27.7471 28.7319C27.272 29.03 26.6999 29.1792 26.0303 29.1792H3.90137C3.23174 29.1792 2.65959 29.03 2.18457 28.7319C1.70945 28.4338 1.33021 27.9857 1.04785 27.3882C0.765571 26.7907 0.659726 26.2153 0.728516 25.6616C0.797307 25.108 1.04087 24.5751 1.46094 24.063L10.2324 13.3931L10.2363 13.396V3.88916H8.64355C8.19901 3.88916 7.8268 3.73925 7.52637 3.43896C7.22598 3.13858 7.0753 2.76627 7.0752 2.32178C7.0752 1.87709 7.22588 1.5041 7.52637 1.20361C7.8268 0.903351 8.19903 0.753418 8.64355 0.753418ZM13.373 14.4868L3.8916 26.0229L3.875 26.0425H26.0566L26.04 26.0229L16.5586 14.4868V3.88916H13.373V14.4868ZM17.4893 18.1401L22.8418 24.437H7.08984L12.4424 18.1401H17.4893Z" fill="#137D67" stroke="#137D67" stroke-width="0.025"/>
</svg>
