<svg width="26" height="32" viewBox="0 0 26 32" fill="none" xmlns="http://www.w3.org/2000/svg">
<path d="M12.9688 0.173828C14.9677 0.173828 16.7102 0.837783 18.1963 2.16602C19.6824 3.49431 20.5435 5.14453 20.7803 7.11719L20.793 7.11621L20.7676 7.11914L20.7881 7.12695C22.261 7.7319 23.4319 8.69912 24.2998 10.0273C25.1676 11.3556 25.6016 12.8087 25.6016 14.3867C25.6015 16.5699 24.8317 18.43 23.293 19.9688C21.7542 21.5075 19.8941 22.2773 17.7109 22.2773H14.5371V28.625H24.0205V31.7607H1.91699V28.625H11.4014V22.2773H8.22754C6.04434 22.2773 4.18327 21.5075 2.64453 19.9688C1.10601 18.4301 0.336944 16.5697 0.336914 14.3867C0.336914 12.8087 0.770765 11.3556 1.63867 10.0273C2.50658 8.69918 3.67661 7.7319 5.14941 7.12695L5.15527 7.13965L5.15723 7.11719C5.39395 5.14461 6.25525 3.49428 7.74121 2.16602C9.22724 0.837798 10.9698 0.1739 12.9688 0.173828ZM12.9688 3.30957C11.7803 3.30964 10.7431 3.71307 9.8584 4.51855C8.97389 5.32397 8.45238 6.32153 8.29395 7.50977L8.05664 9.32031L6.4043 10.0283C5.53287 10.3981 4.82647 10.9793 4.28516 11.7715C3.74371 12.5638 3.47266 13.4358 3.47266 14.3867C3.47269 15.707 3.9352 16.8296 4.85938 17.7539C5.78377 18.6783 6.90709 19.1406 8.22754 19.1406H17.7109C19.0313 19.1406 20.1538 18.6783 21.0781 17.7539C22.0025 16.8295 22.4648 15.7071 22.4648 14.3867C22.4648 13.4359 22.1947 12.5638 21.6533 11.7715C21.112 10.9792 20.4048 10.3981 19.5332 10.0283L17.8809 9.32031L17.6445 7.50977C17.4861 6.3214 16.9638 5.32402 16.0791 4.51855C15.1943 3.71304 14.1573 3.30957 12.9688 3.30957Z" fill="#137D67" stroke="#137D67" stroke-width="0.025"/>
</svg>
