<svg width="27" height="28" viewBox="0 0 27 28" fill="none" xmlns="http://www.w3.org/2000/svg">
<path d="M18.918 0.802734C21.2525 0.725347 23.8642 0.815698 26.7529 1.07324C26.959 3.80734 27.0246 6.32227 26.9473 8.61816C26.8698 10.9171 26.6563 12.9903 26.3076 14.8369C25.959 16.6835 25.4684 18.2975 24.8359 19.6787C24.2035 21.0597 23.423 22.2147 22.4941 23.1436C21.1258 24.5119 19.6732 25.5123 18.1377 26.1445C16.6019 26.7769 15.0337 27.0928 13.4336 27.0928C11.7559 27.0928 10.117 26.7637 8.5166 26.1055C6.9162 25.4472 5.53543 24.5374 4.37402 23.376C3.21258 22.2145 2.30274 20.8724 1.64453 19.3496C0.986354 17.8268 0.657227 16.252 0.657227 14.626C0.657247 13 0.966447 11.3932 1.58594 9.80566C2.20528 8.21859 3.21235 6.72811 4.60645 5.33398C5.50956 4.43087 6.62563 3.65613 7.95508 3.01074C9.28454 2.36537 10.8599 1.85592 12.6807 1.48145C14.5013 1.10699 16.5803 0.88023 18.918 0.802734ZM19.5381 3.85938C17.9485 3.8723 16.3647 3.99492 14.7881 4.22754C13.2114 4.46019 11.7118 4.83456 10.29 5.35156C8.86769 5.8688 7.70361 6.58058 6.79785 7.48633C5.63454 8.64964 4.83265 9.80071 4.39258 10.9395C3.95292 12.0774 3.73246 13.1773 3.73242 14.2383C3.73242 15.7643 4.02311 17.1041 4.60547 18.2559C5.18686 19.4057 5.69818 20.2143 6.13867 20.6807L6.15039 20.6934L6.15918 20.6777C7.24374 18.612 8.67697 16.6297 10.459 14.7314C12.2184 12.8573 14.2677 11.3173 16.6064 10.1104C14.777 11.7224 13.1796 13.5413 11.8154 15.5684C10.4323 17.6237 9.39126 20.0218 8.69336 22.7617L8.69141 22.7705L8.69922 22.7754C9.44946 23.2152 10.2195 23.5325 11.0088 23.7266C11.7977 23.9205 12.606 24.0176 13.4336 24.0176C14.6237 24.0176 15.8009 23.7782 16.9648 23.2998C18.1293 22.8211 19.2425 22.0515 20.3027 20.9912C20.7688 20.5251 21.2405 19.8714 21.7188 19.0312C22.1975 18.1903 22.611 17.0905 22.96 15.7334C23.3089 14.3762 23.574 12.7347 23.7549 10.8096C23.9358 8.88403 23.9622 6.59015 23.833 3.92871L23.832 3.91797L23.8203 3.91699C22.5543 3.86533 21.1269 3.84646 19.5381 3.85938Z" fill="#137D67" stroke="#137D67" stroke-width="0.025"/>
</svg>
