<svg width="34" height="37" viewBox="0 0 34 37" fill="none" xmlns="http://www.w3.org/2000/svg">
<path d="M13.7979 0.976562C15.2709 0.640853 17.6614 0.682875 20.0059 1.07031C21.156 1.26041 21.8264 1.37681 22.334 1.71582C22.8451 2.05724 23.173 2.61204 23.7197 3.55469C24.6237 5.11364 24.7461 6.8761 24.0195 8.33594C23.2621 9.85815 22.5768 10.6181 21.5625 10.8789C20.9531 11.0356 19.7271 11.0928 18.5332 11.0732C17.4885 11.0561 16.4186 10.9798 15.7568 10.8428L15.499 10.7803C15.2393 10.7055 14.9874 10.6371 14.792 10.5879C14.7171 10.569 14.651 10.5544 14.5967 10.542C14.5878 10.6435 14.5867 10.799 14.6035 11.0225C14.6433 11.5511 14.7643 12.3875 14.9736 13.6055C15.4256 16.2346 15.3802 17.6624 14.7598 19.4834C14.6555 19.7894 14.5604 20.0679 14.4912 20.2695C14.4898 20.2736 14.4877 20.2773 14.4863 20.2812C14.594 20.2864 14.7214 20.2923 14.8574 20.2988C15.1264 20.3117 15.2955 20.2901 15.4688 20.2158C15.6528 20.1369 15.8596 19.9909 16.1875 19.7129C17.8316 18.3187 19.8606 17.7065 22.7344 17.6934C25.621 17.6803 28.0413 18.4626 29.6191 19.9668L30.2842 20.6006L31.2227 20.2285C31.8088 19.9959 32.2789 19.8678 32.6172 19.8945C32.7952 19.9086 32.966 19.9683 33.0889 20.1074C33.2099 20.2445 33.25 20.4201 33.25 20.5947C33.25 20.8517 33.0766 21.0455 32.8525 21.209C32.6218 21.3773 32.2696 21.5626 31.7764 21.791C31.4049 21.9631 31.0231 22.1201 30.7061 22.2344C30.5478 22.2914 30.403 22.3386 30.2822 22.3721C30.1701 22.4032 30.0536 22.4296 29.9639 22.4297C29.7675 22.4297 29.5679 22.3205 29.4043 22.1963C29.2307 22.0645 29.0544 21.8834 28.8994 21.6738V21.6729C28.1986 20.7241 26.6712 19.8602 25.0166 19.5215C23.3695 19.1844 21.651 19.2311 20.1699 19.5869C18.6836 19.944 17.4656 20.6049 16.7861 21.4678V21.4688C16.6582 21.6312 16.6113 21.7295 16.5967 21.8535C16.5799 21.9967 16.603 22.1954 16.6807 22.5664C16.7271 22.7887 16.8118 23.0482 16.9111 23.2842C17.0119 23.5235 17.1196 23.7198 17.2061 23.8281C17.4482 24.1311 17.5969 24.4564 17.5781 24.751C17.5683 24.9048 17.512 25.0509 17.4004 25.166C17.2905 25.2794 17.1434 25.3453 16.9814 25.374C16.7174 25.4208 16.4621 25.3337 16.2412 25.1855C16.0203 25.0373 15.8152 24.8168 15.6367 24.5557C15.2794 24.0326 14.9999 23.3074 14.9014 22.541L14.8174 21.8945L13.7891 21.9385C13.4818 21.9513 13.2425 21.961 13.0605 21.9609C12.8855 21.9608 12.7329 21.9531 12.6143 21.916C12.5504 21.896 12.4837 21.8642 12.4268 21.8105C12.3678 21.755 12.3328 21.6887 12.3135 21.623C12.2808 21.5121 12.2905 21.3821 12.2959 21.2891C12.3052 21.1284 12.3832 20.8587 12.4814 20.5771C12.5839 20.2837 12.7215 19.9423 12.8691 19.6221C13.5485 18.1485 13.6777 16.2176 13.2285 13.6484C12.8302 11.3711 12.9003 9.03801 13.4365 7.58203C13.5131 7.37412 13.5786 7.20339 13.6416 7.06836C13.7037 6.93529 13.771 6.81831 13.8564 6.72852C13.9491 6.63124 14.0569 6.5722 14.1826 6.54688C14.297 6.52385 14.4171 6.53074 14.5312 6.54297C14.6436 6.55499 14.7711 6.57102 14.8809 6.61914C15.0108 6.67611 15.1035 6.77128 15.1631 6.90625C15.2157 7.02545 15.242 7.17392 15.2598 7.34375C15.278 7.51772 15.2893 7.74147 15.3027 8.02344C15.3159 8.30121 15.3282 8.50748 15.3457 8.66602C15.3634 8.82652 15.3849 8.91991 15.4092 8.97852C15.4295 9.02751 15.4515 9.05183 15.4834 9.07422C15.5254 9.10364 15.59 9.13348 15.71 9.17676C15.87 9.23438 16.211 9.29174 16.6748 9.33887C17.1292 9.38503 17.6757 9.41921 18.2275 9.4375C18.7794 9.45579 19.3339 9.45797 19.8037 9.44238C20.2808 9.42655 20.6497 9.39237 20.8438 9.34375C21.1127 9.27642 21.303 9.19446 21.4697 9.07324C21.6388 8.95021 21.7989 8.77569 21.9912 8.50293C22.5334 7.7334 22.7865 6.99139 22.7734 6.2373C22.7603 5.48033 22.4779 4.68276 21.8994 3.80469C21.623 3.38527 21.4699 3.18705 21.3037 3.06543C21.1447 2.94917 20.9541 2.88853 20.5537 2.80957C17.437 2.19451 14.8662 2.23641 13.0703 2.89746C12.652 3.05151 12.0134 3.534 11.2695 4.27051C10.535 4.99776 9.72514 5.94635 8.96387 6.99219C7.98871 8.33182 6.56975 10.8472 5.31152 13.3486C4.05116 15.8543 2.97069 18.3079 2.65625 19.5254C2.31313 20.8538 2.31654 22.4184 2.68359 24.3848C2.83799 25.2111 3.20855 26.6883 3.56738 27.9863C3.74647 28.6341 3.922 29.2336 4.06445 29.6816C4.13584 29.9062 4.19824 30.0902 4.24805 30.2217C4.2693 30.2778 4.28819 30.3212 4.30273 30.3535C4.30892 30.3547 4.31579 30.3571 4.32324 30.3584C4.38823 30.3694 4.48074 30.3791 4.59668 30.3867C4.8275 30.4018 5.1314 30.4073 5.45117 30.4033C5.77038 30.3993 6.10172 30.3861 6.3877 30.3643C6.6795 30.342 6.90642 30.3118 7.02734 30.2793C7.50751 30.1499 7.96579 30.3266 8.83301 30.8096C13.9267 33.6468 20.2843 35.0526 25.834 34.5732C26.389 34.5253 26.8432 34.4959 27.207 34.4893C27.5673 34.4827 27.8552 34.4982 28.0713 34.5459C28.2795 34.5919 28.486 34.6823 28.584 34.8828C28.68 35.0795 28.627 35.2929 28.5557 35.4639C28.497 35.6045 28.4116 35.7359 28.2549 35.8398C28.1084 35.9369 27.9171 35.9972 27.6729 36.042C27.187 36.1309 26.3798 36.1751 25.0078 36.2266C19.3099 36.4405 13.7113 35.2029 8.79102 32.6396C8.03473 32.2456 7.68341 32.0677 7.41211 32.001C7.16821 31.9411 6.99073 31.9707 6.54785 32.0684C6.17169 32.1514 5.86809 32.1918 5.52734 32.1777C5.19107 32.1639 4.82903 32.0977 4.33594 31.9814C4.00037 31.9024 3.67903 31.8161 3.43066 31.7402C3.30685 31.7024 3.19758 31.6658 3.11328 31.6338C3.07159 31.6179 3.0324 31.602 2.99902 31.5859C2.97333 31.5736 2.9245 31.5491 2.88477 31.5117C2.84565 31.4748 2.82259 31.4298 2.81543 31.416C2.80351 31.393 2.79207 31.367 2.78125 31.3408C2.75925 31.2877 2.7339 31.2185 2.70605 31.1377C2.65002 30.9751 2.57912 30.752 2.49902 30.4873C2.33851 29.9569 2.13678 29.2497 1.93164 28.5029C1.52228 27.0127 1.09441 25.3475 0.950195 24.6045C0.798146 23.8211 0.736283 22.6989 0.75293 21.6289C0.769544 20.5625 0.865229 19.5139 1.04297 18.8857C1.24139 18.1851 1.82564 16.7694 2.54492 15.1836C3.26696 13.5918 4.1339 11.8093 4.90527 10.3652C6.00159 8.31262 7.30761 6.3452 8.56836 4.78125C9.82055 3.22794 11.0538 2.03928 12.0088 1.58496C12.4589 1.371 13.2582 1.09952 13.7979 0.976562ZM29.7305 33.6348C29.9875 33.5501 30.288 33.6286 30.502 33.7402C30.6143 33.7989 30.7223 33.8763 30.8057 33.9697C30.8867 34.0607 30.9638 34.1896 30.9639 34.3447C30.9639 34.6362 30.7542 34.874 30.5508 35.0088C30.3447 35.1453 30.0465 35.2422 29.7754 35.1465C29.607 35.0869 29.4981 34.9532 29.4336 34.8242C29.3683 34.6934 29.335 34.5425 29.3281 34.3994C29.3213 34.2568 29.3395 34.104 29.3945 33.9697C29.4492 33.8364 29.5536 33.6942 29.7305 33.6357V33.6348ZM6.02539 17.7451C6.14802 17.717 6.28282 17.7169 6.40723 17.7344C6.53193 17.752 6.66117 17.7894 6.77344 17.8486C6.8813 17.9056 7.00274 17.9984 7.0625 18.1416C7.08478 18.1952 7.09225 18.2516 7.0957 18.2939C7.09944 18.34 7.09989 18.3903 7.09766 18.4414C7.09315 18.544 7.07899 18.6669 7.05762 18.7998C7.0147 19.0665 6.93979 19.3927 6.84473 19.7158C6.69668 20.2189 6.62669 20.5227 6.61426 20.8613C6.60165 21.2057 6.64781 21.5984 6.75391 22.2783C7.04525 24.1444 7.30072 25.1416 7.68945 25.9932C7.81 26.257 7.91948 26.4168 8.1875 26.6084C8.47576 26.8144 8.93869 27.0513 9.77637 27.4492C10.2607 27.6793 10.6546 27.8805 10.9619 28.0586C11.2657 28.2346 11.5004 28.3966 11.6533 28.5518C11.7994 28.7 11.929 28.9033 11.8633 29.1387C11.8038 29.3511 11.6089 29.4825 11.4287 29.5713C11.1923 29.6878 10.9255 29.6658 10.5645 29.5547C10.201 29.4428 9.6827 29.2216 8.90527 28.8643C7.89287 28.3991 7.28113 28.0924 6.85645 27.7129C6.41947 27.3223 6.19351 26.8669 5.90234 26.1621C5.66265 25.5816 5.37306 24.3423 5.16113 23.1807C5.05435 22.5954 4.96517 22.0205 4.91113 21.5469C4.88415 21.3103 4.86603 21.096 4.8584 20.917C4.85101 20.7435 4.85242 20.5849 4.87402 20.4688C4.92709 20.1836 5.08706 19.627 5.24805 19.1221C5.32933 18.8672 5.41272 18.6202 5.48535 18.4209C5.55395 18.2327 5.6229 18.0593 5.67578 17.9736C5.76231 17.8335 5.90864 17.7719 6.02539 17.7451ZM28.2695 14.9893C28.4413 14.9535 28.625 14.973 28.7744 15.0957C28.9163 15.2125 28.9852 15.3885 29.0127 15.5723C29.031 15.6946 29 15.817 28.9609 15.918C28.9201 16.0234 28.86 16.1332 28.79 16.2402C28.6497 16.4548 28.4551 16.6831 28.249 16.8877C28.0432 17.092 27.8162 17.2812 27.6074 17.4121C27.5036 17.4772 27.396 17.5334 27.292 17.5674C27.1944 17.5992 27.0641 17.6239 26.9365 17.5791C26.7797 17.5237 26.6351 17.4302 26.5508 17.2773C26.4655 17.1226 26.4652 16.9502 26.5078 16.7891C26.5889 16.483 26.8459 16.1243 27.2197 15.7227C27.5858 15.3293 27.9494 15.056 28.2695 14.9893ZM25.3232 12.8252C25.5277 12.848 25.7503 12.9451 25.9053 13.1191C25.9554 13.1755 25.9808 13.2418 25.9951 13.29C26.0106 13.3422 26.0208 13.3995 26.0273 13.4561C26.0404 13.5694 26.0428 13.7063 26.0381 13.8535C26.0286 14.1501 25.9896 14.5174 25.9336 14.8809C25.8775 15.2447 25.8028 15.6129 25.7207 15.9121C25.6798 16.0611 25.6356 16.198 25.5889 16.3105C25.5464 16.4128 25.488 16.5314 25.4043 16.6084C25.1499 16.8424 24.8228 16.8647 24.5654 16.7002C24.3216 16.5443 24.1768 16.2469 24.1768 15.9082C24.1768 15.6083 24.2727 14.9605 24.3809 14.3809C24.4358 14.0867 24.4963 13.8013 24.5518 13.5742C24.5794 13.461 24.6061 13.3592 24.6318 13.2773C24.6542 13.2062 24.6851 13.119 24.7256 13.0586C24.8698 12.8437 25.1308 12.8038 25.3232 12.8252ZM21.5703 13.5918C21.7421 13.5387 21.9052 13.5796 22.0449 13.6768C22.1726 13.7656 22.2885 13.9054 22.4023 14.0732C22.5187 14.2449 22.6459 14.4667 22.79 14.7383L22.9814 15.1279C23.0361 15.2505 23.0813 15.366 23.1172 15.4736C23.1878 15.6854 23.2276 15.8844 23.2148 16.0586C23.2015 16.2403 23.1278 16.4156 22.959 16.5234C22.803 16.6229 22.6113 16.6342 22.4258 16.6094C22.295 16.5918 22.1779 16.5272 22.082 16.4541C21.9842 16.3795 21.8913 16.2833 21.8057 16.1777C21.6341 15.9663 21.4733 15.6949 21.3457 15.4189C21.2183 15.1433 21.117 14.8495 21.0723 14.5908C21.05 14.4618 21.0404 14.3319 21.0527 14.2129C21.0648 14.0966 21.1008 13.965 21.1943 13.8613L21.2754 13.7773C21.3602 13.6966 21.4577 13.6267 21.5703 13.5918Z" fill="#137D67" stroke="#137D67" stroke-width="0.5"/>
</svg>
