<svg width="110" height="96" viewBox="0 0 110 96" fill="none" xmlns="http://www.w3.org/2000/svg">
<path fill-rule="evenodd" clip-rule="evenodd" d="M20.3467 0.180017C15.4729 1.41401 11.5721 5.28842 9.83393 10.622C9.26271 12.3742 8.58234 13.1579 6.01619 15.0187C3.3771 16.9326 2.17244 18.264 1.2697 20.2639C-1.14549 25.6147 -0.0226855 32.7233 3.85243 36.6164C5.68136 38.4537 7.1826 39.1415 9.72198 39.306C11.5433 39.4238 11.8796 39.3552 15.2047 38.1903C18.2242 37.1323 19.0298 36.9492 20.6626 36.9489C22.8473 36.9489 23.7903 37.3378 26.3771 39.3057C27.2296 39.9544 27.9505 40.4977 27.9791 40.5131C28.0074 40.5285 27.7496 41.1133 27.4056 41.8127C25.7656 45.1488 25.0909 50.173 25.8781 53.1879C26.4391 55.3364 27.0866 56.5796 28.3772 57.9861C30.1497 59.9181 32.4476 61.0102 35.4514 61.3484L37.0564 61.529L37.482 63.066C38.3929 66.355 40.0556 68.4385 42.8645 69.8098C45.6449 71.1673 49.4195 71.3236 53.579 70.253C55.3832 69.7888 59.0777 68.084 60.8704 66.8884L62.2376 65.9769L66.6309 69.2665C69.0471 71.0756 71.6204 72.991 72.3492 73.5228C74.7827 75.2981 74.8467 75.5144 74.8638 82.023C74.8804 88.285 74.9865 88.8357 76.6448 91.2694C78.7797 94.4027 82.1997 96.0105 86.707 96C90.8618 95.99 93.7105 94.8346 96.4348 92.0546C97.9909 90.4663 98.7482 89.0333 99.4171 86.4108C100.039 83.9707 100.692 83.0946 103.212 81.3165C105.699 79.5619 107.358 77.7851 108.344 75.8228C110.997 70.544 110.425 64.6218 106.895 60.8199C104.561 58.3058 102.121 57.299 98.3818 57.3074C95.5757 57.3138 93.5448 57.9338 90.7274 59.6438C89.2313 60.5522 88.6511 60.7576 87.3667 60.835C85.3182 60.9585 84.8581 60.692 78.6538 55.7929C74.3854 52.4222 73.6836 51.7717 73.8185 51.3099C75.1617 46.7061 75.4442 44.1287 74.8924 41.515C74.1972 38.2216 72.8184 36.1017 70.3142 34.4758C68.8117 33.5 66.1769 32.7092 64.4294 32.7092C63.5996 32.7092 63.5355 32.648 63.3762 31.6996C62.9383 29.0961 60.7598 25.979 58.3864 24.5605C56.0895 23.1879 51.5351 22.8303 47.8017 23.7295C45.0714 24.3873 41.8215 25.8796 41.6453 26.5569C41.5714 26.841 41.4627 27.0733 41.4041 27.0733C41.2194 27.0733 39.9837 26.2362 37.8727 24.6807C33.9749 21.8087 33.3274 20.2496 34.4071 16.3347C35.1693 13.5713 35.2915 11.5919 34.8353 9.39721C34.0116 5.43597 31.7675 2.47125 28.3912 0.883988C26.867 0.167464 26.3932 0.073445 23.99 0.0101697C22.5089 -0.028769 20.8695 0.0475738 20.3467 0.180017ZM22.0621 2.50353C17.5594 3.12552 14.3183 5.99879 12.3432 11.1195C11.2648 13.9156 10.219 15.164 7.02526 17.4667C4.81178 19.063 3.73487 20.4684 3.07083 22.6279C1.47422 27.8206 3.48981 34.1177 7.38406 36.1035C9.42387 37.1436 10.7859 37.0621 14.9492 35.6506C17.8813 34.6566 18.6601 34.4919 20.4676 34.484C24.1749 34.4676 24.0662 34.4099 33.2825 41.2942C36.5084 43.7037 41.5892 47.4918 44.5731 49.7118L49.9984 53.7484L50.9483 52.9827C53.3811 51.0217 57.0241 46.7023 58.2025 44.3816L58.7212 43.3602L57.8598 42.637C57.386 42.2392 54.0722 39.7627 50.4957 37.1336C34.5767 25.4312 33.5766 24.6614 32.8411 23.545C32.058 22.3561 31.37 20.1804 31.37 18.8924C31.37 18.3892 31.5898 17.2054 31.8583 16.262C32.9207 12.5305 32.7039 9.18971 31.2366 6.67432C29.4691 3.64428 25.8182 1.98452 22.0621 2.50353ZM44.049 13.432C43.8269 13.9605 43.5461 14.7246 43.4253 15.1307C43.2389 15.7568 42.9629 15.9435 41.6065 16.3619C40.6666 16.6519 40.0479 16.9774 40.1061 17.1524C40.1601 17.3159 40.8941 17.6712 41.7366 17.9417L43.2684 18.4341L43.7581 19.9857C44.0276 20.839 44.3788 21.5779 44.5386 21.6276C44.8324 21.7185 45.6505 19.6752 45.6505 18.8504C45.6505 18.5545 45.9297 18.3436 46.4793 18.2245C47.6459 17.9714 49.2206 17.3197 49.2206 17.0897C49.2206 16.9833 48.5609 16.6982 47.7543 16.4561C46.9477 16.2138 46.159 15.9766 46.0014 15.9292C45.8438 15.8815 45.6331 15.405 45.5334 14.8702C45.3684 13.9879 44.7375 12.4713 44.5351 12.4713C44.4899 12.4713 44.2711 12.9037 44.049 13.432ZM4.59247 23.7459C3.89553 25.0539 5.18103 30.5489 6.65499 32.5622C8.08151 34.5109 10.691 35.7126 11.9852 35.0171C12.3965 34.796 12.51 34.5283 12.4503 33.9196C12.3812 33.211 12.2221 33.0609 11.1227 32.6672C8.73892 31.8136 7.58653 29.9668 7.10712 26.2321C6.77331 23.6296 6.65091 23.3785 5.66912 23.2799C5.07903 23.2205 4.81051 23.3368 4.59247 23.7459ZM50.2386 25.7858C48.1271 26.0596 43.1004 27.8729 43.1004 28.3604C43.1004 28.4785 43.9899 29.216 45.0767 29.9996C47.4514 31.7111 49.3851 33.1327 54.8619 37.1923C57.1427 38.883 59.2108 40.4132 59.4574 40.5922C59.8642 40.8879 59.9596 40.7449 60.4816 39.0552C60.9123 37.6608 61.0594 36.548 61.0665 34.6305C61.0747 32.3508 60.9972 31.8994 60.3622 30.5317C59.0818 27.7745 57.1172 26.3076 54.0306 25.8045C52.2718 25.5178 52.3014 25.5181 50.2386 25.7858ZM63.5011 36.3582C63.5011 37.3216 62.7086 40.6471 62.1085 42.2015C61.9966 42.4918 63.2035 43.5856 66.5602 46.2363C69.093 48.2365 71.2682 49.873 71.3937 49.873C71.6951 49.873 72.0824 48.6136 72.4481 46.4459C73.459 40.4503 70.4483 35.8486 65.1923 35.3555L63.5011 35.1969V36.3582ZM29.3577 43.5326C28.6212 45.3622 28.064 48.1448 28.0622 50.0011C28.0594 53.1338 29.1562 55.5624 31.3241 57.2234C34.4196 59.5953 39.8944 59.3594 45.3317 56.6196C46.6289 55.9658 47.687 55.362 47.6829 55.2778C47.6786 55.1935 45.4863 53.5107 42.8109 51.5381C40.1356 49.5656 36.2088 46.6557 34.0845 45.0717C31.9603 43.4875 30.1497 42.1908 30.0607 42.1897C29.972 42.1885 29.6555 42.793 29.3577 43.5326ZM59.9165 46.4402C58.7727 48.4481 56.4998 51.2253 54.216 53.4044C53.1516 54.4201 52.2807 55.2959 52.2807 55.3505C52.2807 55.4051 53.3423 56.2338 54.6396 57.1919C55.9368 58.15 58.1222 59.7772 59.4957 60.8078C60.8692 61.8384 62.0547 62.6817 62.1304 62.6817C62.2059 62.6817 62.7948 62.2496 63.4389 61.7211C65.0169 60.4266 68.0617 56.7203 69.3852 54.4821C70.302 52.932 70.4101 52.6082 70.1061 52.322C69.6435 51.886 61.4271 45.4178 61.0349 45.1809C60.8462 45.0669 60.4349 45.53 59.9165 46.4402ZM18.4058 48.0157C18.2541 48.403 18.0343 49.1157 17.917 49.5989C17.7229 50.3984 17.5569 50.5267 16.0735 51.0245C15.1769 51.325 14.4037 51.6908 14.3552 51.8371C14.2854 52.0476 15.8894 52.6748 17.4462 53.046C17.5722 53.0759 17.8333 53.7205 18.0264 54.4782C18.4986 56.3329 18.8605 56.762 19.2876 55.9746C19.4649 55.6479 19.7387 54.8499 19.8963 54.201C20.1761 53.049 20.2141 53.0139 21.5049 52.7216C23.9979 52.1568 24.0461 51.7172 21.6924 51.0088C20.3449 50.6033 20.1506 50.4606 19.9983 49.7646C19.7862 48.794 19.0971 47.3112 18.8582 47.3112C18.761 47.3112 18.5573 47.6284 18.4058 48.0157ZM71.945 55.1963C71.1047 56.8509 68.3861 60.3608 66.3978 62.3582C65.3606 63.4003 64.5824 64.3674 64.6686 64.5073C64.7547 64.6471 67.2061 66.538 70.1166 68.7088C75.2639 72.5486 76.2427 73.4939 77.0816 75.4362C77.2811 75.8973 77.3848 78.0264 77.3904 81.7668C77.3989 87.2185 77.4195 87.4445 78.0234 88.6836C80.7831 94.3448 89.5057 95.3247 94.4207 90.526C95.8383 89.1421 96.1471 88.5624 97.0412 85.6095C97.9618 82.5694 98.7799 81.4443 101.583 79.3631C104.39 77.2792 105.419 76.1469 106.371 74.0936C109.269 67.8429 106.488 61.3409 100.29 59.8743C97.9429 59.3189 94.9899 60.0247 91.9461 61.8689C89.931 63.0898 88.1511 63.5658 86.3137 63.3755C83.894 63.1244 83.6476 62.9669 75.1252 56.2123C72.3415 54.0061 72.5205 54.0632 71.945 55.1963ZM48.2006 57.9632C46.4112 59.0815 43.7007 60.2189 41.5048 60.773C39.9248 61.1719 39.7858 61.2618 39.7909 61.8804C39.8052 63.6017 41.4561 66.041 43.4013 67.215C46.1347 68.8646 50.1527 68.905 54.3641 67.3252C56.2989 66.5994 59.5309 64.9179 59.7849 64.5052C59.9409 64.2513 50.3689 57.0367 49.9153 57.0661C49.7436 57.0774 48.972 57.4811 48.2006 57.9632ZM61.9101 70.7961C61.6972 71.3351 61.4427 72.1505 61.3442 72.6086C61.2295 73.1429 61.013 73.4416 60.7396 73.4427C60.1518 73.4445 58.6093 73.9012 58.1459 74.2107C57.806 74.4374 57.806 74.4945 58.1459 74.7243C58.3563 74.8665 59.1308 75.1629 59.867 75.3829C60.9696 75.7124 61.231 75.9037 61.3517 76.4694C61.4322 76.8467 61.6849 77.6006 61.9134 78.1445L62.3288 79.1333L62.7736 78.5818C63.0181 78.2785 63.2935 77.5251 63.3856 76.9077C63.5475 75.8238 63.5939 75.7754 64.7384 75.4949C65.3905 75.335 66.1897 75.0589 66.5148 74.8808C67.2974 74.4522 66.8718 74.0885 65.0358 73.6163C63.675 73.2664 63.675 73.2664 63.3226 71.8808C63.1288 71.1186 62.8187 70.3424 62.6336 70.1557C62.3543 69.8739 62.2309 69.983 61.9101 70.7961Z" fill="white"/>
</svg>
