<svg width="83" height="86" viewBox="0 0 83 86" fill="none" xmlns="http://www.w3.org/2000/svg">
<mask id="path-1-inside-1_2281_18350" fill="white">
<path fill-rule="evenodd" clip-rule="evenodd" d="M40.7336 0.180875C37.341 0.644094 30.9157 2.66621 31.3459 3.13518C31.4755 3.27687 31.4108 3.29534 31.2022 3.17605C30.9932 3.05677 30.1009 3.35559 29.2193 3.8397C26.2809 5.4534 25.2943 6.02803 24.9282 6.33897C24.7287 6.50851 24.1311 6.95508 23.6003 7.3308C21.7674 8.62872 19.8184 10.59 20.0273 10.9257C20.142 11.1101 20.1012 11.1782 19.9361 11.0768C19.7711 10.9757 19.2351 11.2618 18.7448 11.7129C17.7698 12.6097 15.5587 15.4256 15.5532 15.7771C15.5517 15.8982 15.2354 16.3342 14.8504 16.7463C13.8397 17.8286 11.4947 22.7067 10.5468 25.6985C9.46536 29.1127 8.85828 33.2874 8.85614 37.3268L8.85431 40.6281L5.60018 47.1389C3.81067 50.7196 2.34636 53.8323 2.34636 54.0557C2.34636 54.2788 2.28321 54.399 2.20603 54.3227C2.12915 54.2461 1.60291 55.1429 1.03671 56.3152C-0.269272 59.02 -0.336079 60.671 0.806391 62.0182C1.89639 63.3038 2.77193 63.6998 5.88085 64.3125C7.34668 64.6014 8.74114 64.9895 8.98 65.1751C9.29056 65.4164 9.59806 67.3634 10.0612 72.0217C10.4172 75.6018 10.8397 79.0208 11.0008 79.6197C11.3006 80.7359 12.9095 83.191 13.6155 83.6088C13.8327 83.7375 14.2219 84.0526 14.4806 84.3094C14.7393 84.5661 15.1106 84.6781 15.3055 84.5585C15.5102 84.4332 15.5783 84.4726 15.4666 84.6518C15.3583 84.8256 15.8467 85.1801 16.5737 85.4556C18.4517 86.1674 36.3053 86.1871 38.7043 85.4798C39.5787 85.2222 40.2144 84.8831 40.1168 84.7266C40.0192 84.5697 40.1326 84.5153 40.3688 84.6052C40.6049 84.6951 41.4701 84.2697 42.2913 83.6594C44.0585 82.3466 44.5961 81.7308 44.3374 81.3157C44.233 81.148 44.294 81.1005 44.4728 81.2104C44.9774 81.5198 46.543 78.7296 47.0988 76.5297C48.0903 72.6072 47.5585 70.2987 45.7236 70.5593C44.7654 70.6953 44.2516 71.8427 44.2465 73.86C44.244 74.7877 44.0326 76.1561 43.777 76.9012C43.1589 78.7011 41.018 81.0793 39.1741 82.0139C37.69 82.7659 37.6378 82.7699 27.9914 82.861L18.2997 82.9524L16.8116 82.1486C14.8769 81.1035 13.89 79.3384 13.6042 76.4116C13.4904 75.246 13.1951 72.1988 12.948 69.6399C12.4718 64.7101 12.2994 64.113 11.0288 62.9831C10.0059 62.0733 9.43363 61.8614 6.34729 61.2486C3.58675 60.7006 3.05808 60.4306 3.05808 59.5695C3.05808 59.2556 5.00622 55.1511 7.38756 50.4481L11.717 41.8973L11.9346 37.0531C12.0548 34.3849 12.3946 31.1212 12.6914 29.787C12.9879 28.4548 13.2412 27.0712 13.2543 26.7124C13.2671 26.354 13.3809 26.1236 13.5066 26.2008C13.6326 26.2777 13.7354 26.1772 13.7354 25.9774C13.7354 25.3758 15.9038 20.5571 16.7552 19.2667C17.1914 18.6052 17.5026 17.9918 17.4465 17.904C17.39 17.8162 17.4681 17.6609 17.6201 17.5592C17.7717 17.4571 18.8434 16.2891 20.0017 14.9633C22.563 12.0308 23.3117 11.3439 26.243 9.23485C31.9359 5.13914 38.6915 2.99168 45.877 2.9938C51.1376 2.99531 56.0751 4.02711 59.8878 5.92177C60.6913 6.3211 61.5019 6.55362 61.6892 6.43857C61.8765 6.32383 61.947 6.36319 61.8454 6.52607C61.7438 6.68926 62.2374 7.10252 62.9421 7.44494C65.9424 8.90181 71.3896 13.8634 73.745 17.2849C74.767 18.7696 75.2438 19.2413 75.4433 18.9667C75.6416 18.6942 75.6743 18.7305 75.5577 19.0932C75.4678 19.3727 75.8573 20.5347 76.4235 21.6749C79.57 28.0134 80.6725 35.5799 79.4556 42.4843C78.8945 45.6672 78.1297 48.0105 76.6331 51.1314C76.034 52.3802 75.5571 53.5816 75.5733 53.8008C75.5895 54.02 75.5236 54.1211 75.4272 54.0254C75.1657 53.766 74.1435 55.436 74.3552 55.7763C74.4555 55.9374 74.3793 55.9719 74.1856 55.8529C73.9918 55.7342 73.8329 55.7472 73.8329 55.882C73.8326 56.0167 72.9879 57.1487 71.9555 58.3976C70.9235 59.6464 69.6538 61.5538 69.1343 62.6362L68.1895 64.6041L68.098 74.8676C68.037 81.7048 68.1126 85.2364 68.3243 85.4465C68.7789 85.8977 70.4281 85.9667 70.7032 85.5461C70.8307 85.3512 71.0037 80.7638 71.0876 75.352C71.2398 65.5375 71.2423 65.5081 72.0315 63.8472C72.4668 62.9314 73.5108 61.3646 74.3515 60.3655C76.9434 57.2855 79.2088 53.4466 80.8024 49.4338C83.4907 42.6651 83.7338 33.2759 81.4147 25.7603C80.5306 22.8944 78.3903 18.4093 78.0163 18.6388C77.8448 18.7439 77.7914 18.6909 77.897 18.521C78.1654 18.0902 76.2896 15.3605 75.8927 15.604C75.703 15.7205 75.659 15.6582 75.7865 15.4532C76.5626 14.207 65.0141 3.89238 63.727 4.68197C63.5171 4.81064 63.4476 4.7734 63.5598 4.59266C63.9906 3.90146 56.9353 1.24295 52.5214 0.43307C50.1498 -0.00199305 43.1671 -0.15125 40.7336 0.180875ZM47.7501 9.92422C45.9295 10.4101 44.6729 11.1101 43.2818 12.4132L41.8642 13.7408L40.9472 13.2004C39.3807 12.277 36.1387 11.8819 34.0094 12.3548C32.129 12.7723 29.467 14.3442 29.7824 14.8507C29.9124 15.0593 29.8632 15.1141 29.6582 14.9885C29.0905 14.6403 27.56 16.5383 26.7107 18.6436C26.1134 20.1241 25.9255 21.0851 25.9734 22.4094C26.009 23.3873 25.9813 24.2283 25.9117 24.2786C25.8422 24.3288 25.2058 24.6198 24.4971 24.9256C23.7888 25.2314 23.2952 25.6198 23.4004 25.7887C23.5057 25.9577 23.4535 26.0113 23.2845 25.9077C22.8934 25.6676 21.8242 26.4303 21.8059 26.9619C21.7982 27.1835 21.624 27.3301 21.4187 27.2874C20.8876 27.1769 19.2869 29.8006 18.7311 31.6928C18.2805 33.226 18.3034 35.6159 18.7824 37.0646C19.3556 38.7985 19.6329 39.2975 19.9239 39.1189C20.1231 38.9968 20.1722 39.1113 20.0526 39.4201C19.7952 40.0865 22.3498 42.5776 24.3089 43.5709L25.7854 44.3193L36.7315 44.4059C46.6595 44.4846 47.7306 44.4453 48.2477 43.9805C49.0098 43.2963 48.9676 42.4898 48.1397 41.9145C47.5592 41.5106 46.0036 41.4431 37.3001 41.4431C26.1726 41.4431 26.0704 41.4292 23.991 39.6175C21.0179 37.0265 20.668 32.892 23.1463 29.6356C23.5899 29.0528 23.9157 28.4636 23.8702 28.3264C23.8248 28.189 23.9242 28.1605 24.0914 28.2632C24.2586 28.3658 24.7101 28.2453 25.0945 27.9952C25.4788 27.7452 26.5033 27.3894 27.3712 27.2047C29.5127 26.7491 29.7879 26.3649 29.3428 24.4515C28.8748 22.439 28.895 21.7605 29.4755 20.0336C30.3706 17.3699 32.844 15.4986 35.88 15.1877C37.2394 15.0484 37.773 15.1528 39.1204 15.8219C40.0076 16.2625 41.0271 16.8695 41.3856 17.1707C42.1586 17.8201 43.1684 19.7124 43.4615 21.0618C43.5768 21.5913 43.8605 22.1808 44.0921 22.3718C44.6363 22.8199 45.9451 22.6255 45.8358 22.1126C45.7898 21.8962 45.8938 21.8057 46.0668 21.9119C46.6571 22.274 46.7361 21.1938 46.2428 19.5092C45.9719 18.5846 45.6086 17.828 45.4356 17.828C45.2626 17.828 45.1958 17.7078 45.2873 17.561C45.3789 17.4138 45.1678 16.9328 44.8185 16.4919C44.345 15.8946 44.2675 15.5888 44.5146 15.293C44.6973 15.0747 44.7794 14.8065 44.6967 14.6969C44.6144 14.5873 44.6269 14.5543 44.7242 14.6233C44.8218 14.6924 45.3898 14.4199 45.9865 14.0181C49.9506 11.3484 55.5326 13.1083 57.0125 17.4947C57.5153 18.9855 57.4564 19.2286 56.4954 19.6237C55.5998 19.9918 53.3938 21.9516 53.3938 22.3791C53.3938 22.9607 53.8154 23.621 54.3777 23.9195C54.8774 24.185 55.2715 24.0458 56.6108 23.1302C58.849 21.6004 61.5556 21.1193 63.5885 21.8898C64.3707 22.1862 65.443 22.7899 65.972 23.2316C66.501 23.6734 67.0089 24.0016 67.1007 23.9616C67.1926 23.9213 67.271 24.0576 67.2746 24.2643C67.2783 24.4708 67.5065 25.0506 67.7822 25.5523C68.9433 27.667 68.7655 30.6035 67.3512 32.665C65.9512 34.7059 64.5983 35.4413 60.9488 36.1446C59.9656 36.3341 59.5647 37.4131 60.1053 38.4159C60.4082 38.9775 60.6553 39.0559 61.7328 38.9317C64.0083 38.6702 64.9369 38.4564 65.8643 37.9805C66.7654 37.5182 66.788 37.526 67.7182 38.645C69.3307 40.5854 69.731 43.5754 68.6804 45.8331C68.1447 46.9836 66.2066 49.6209 66.2066 49.1989C66.2066 49.0893 65.663 49.2749 64.9985 49.6115C64.3341 49.9479 63.3387 50.2264 62.7868 50.2304C61.2218 50.2416 59.5549 50.7096 58.4881 51.4375C57.4817 52.1241 56.4414 53.3246 56.3087 53.9528C56.2672 54.1493 56.0747 54.6939 55.8813 55.1626C55.6455 55.7333 55.5293 58.687 55.5293 64.1024C55.5293 72.9015 55.6428 73.5354 57.2175 73.5354C58.7496 73.5354 58.8621 72.8769 58.8643 63.9041C58.8661 56.6525 58.9299 55.5392 59.389 54.7681C59.9311 53.8574 60.8991 53.518 64.1532 53.0972C64.9534 52.9936 65.5299 52.7832 65.4338 52.6291C65.3381 52.4753 65.4384 52.4172 65.6568 52.5001C66.1858 52.7009 69.1279 50.736 69.0208 50.2537C68.9747 50.0457 69.0626 49.9521 69.2157 50.0463C69.5556 50.2546 70.785 48.6899 71.5745 47.0441C72.3915 45.3411 72.3918 40.8842 71.5751 39.0871C71.256 38.3847 70.8558 37.81 70.6852 37.81C70.515 37.81 70.4692 37.7174 70.5833 37.6039C70.6977 37.4906 70.4165 37.0098 69.9589 36.5357C69.1392 35.6865 69.1346 35.6611 69.6675 34.8497C72.012 31.2801 72.2838 27.4948 70.4552 23.8832C69.9577 22.901 68.504 21.2501 67.3036 20.3043C66.2652 19.4859 63.9332 18.6664 62.1989 18.5104C60.8264 18.3869 60.4097 18.2358 60.4073 17.8616C60.3951 15.8477 56.9677 11.6384 54.4451 10.5394C52.8109 9.82734 49.3163 9.50642 47.7501 9.92422ZM45.1571 11.1673C44.8822 11.3436 44.8444 11.4625 45.0628 11.4656C45.2626 11.468 45.511 11.3339 45.6147 11.1673C45.8487 10.7913 45.7431 10.7913 45.1571 11.1673ZM40.6449 27.1908C40.0927 27.3307 39.3956 27.6652 39.0954 27.9347C38.7956 28.2041 38.4133 28.4245 38.2461 28.4245C37.8486 28.4245 36.7626 29.6292 36.5009 30.3607C36.2492 31.0634 37.0753 32.0576 37.9109 32.0576C38.6269 32.0576 40.0378 31.0137 39.7318 30.7101C39.6116 30.5911 39.6507 30.5296 39.8184 30.5738C39.9862 30.6177 40.6937 30.4754 41.3907 30.2568C44.5137 29.2783 46.9722 30.9556 47.9088 34.7037C48.3169 36.3374 49.4072 36.7619 50.3688 35.6614C51.8627 33.952 49.4945 29.2674 46.3099 27.6331C45.1906 27.0585 42.1165 26.8187 40.6449 27.1908Z"/>
</mask>
<path fill-rule="evenodd" clip-rule="evenodd" d="M40.7336 0.180875C37.341 0.644094 30.9157 2.66621 31.3459 3.13518C31.4755 3.27687 31.4108 3.29534 31.2022 3.17605C30.9932 3.05677 30.1009 3.35559 29.2193 3.8397C26.2809 5.4534 25.2943 6.02803 24.9282 6.33897C24.7287 6.50851 24.1311 6.95508 23.6003 7.3308C21.7674 8.62872 19.8184 10.59 20.0273 10.9257C20.142 11.1101 20.1012 11.1782 19.9361 11.0768C19.7711 10.9757 19.2351 11.2618 18.7448 11.7129C17.7698 12.6097 15.5587 15.4256 15.5532 15.7771C15.5517 15.8982 15.2354 16.3342 14.8504 16.7463C13.8397 17.8286 11.4947 22.7067 10.5468 25.6985C9.46536 29.1127 8.85828 33.2874 8.85614 37.3268L8.85431 40.6281L5.60018 47.1389C3.81067 50.7196 2.34636 53.8323 2.34636 54.0557C2.34636 54.2788 2.28321 54.399 2.20603 54.3227C2.12915 54.2461 1.60291 55.1429 1.03671 56.3152C-0.269272 59.02 -0.336079 60.671 0.806391 62.0182C1.89639 63.3038 2.77193 63.6998 5.88085 64.3125C7.34668 64.6014 8.74114 64.9895 8.98 65.1751C9.29056 65.4164 9.59806 67.3634 10.0612 72.0217C10.4172 75.6018 10.8397 79.0208 11.0008 79.6197C11.3006 80.7359 12.9095 83.191 13.6155 83.6088C13.8327 83.7375 14.2219 84.0526 14.4806 84.3094C14.7393 84.5661 15.1106 84.6781 15.3055 84.5585C15.5102 84.4332 15.5783 84.4726 15.4666 84.6518C15.3583 84.8256 15.8467 85.1801 16.5737 85.4556C18.4517 86.1674 36.3053 86.1871 38.7043 85.4798C39.5787 85.2222 40.2144 84.8831 40.1168 84.7266C40.0192 84.5697 40.1326 84.5153 40.3688 84.6052C40.6049 84.6951 41.4701 84.2697 42.2913 83.6594C44.0585 82.3466 44.5961 81.7308 44.3374 81.3157C44.233 81.148 44.294 81.1005 44.4728 81.2104C44.9774 81.5198 46.543 78.7296 47.0988 76.5297C48.0903 72.6072 47.5585 70.2987 45.7236 70.5593C44.7654 70.6953 44.2516 71.8427 44.2465 73.86C44.244 74.7877 44.0326 76.1561 43.777 76.9012C43.1589 78.7011 41.018 81.0793 39.1741 82.0139C37.69 82.7659 37.6378 82.7699 27.9914 82.861L18.2997 82.9524L16.8116 82.1486C14.8769 81.1035 13.89 79.3384 13.6042 76.4116C13.4904 75.246 13.1951 72.1988 12.948 69.6399C12.4718 64.7101 12.2994 64.113 11.0288 62.9831C10.0059 62.0733 9.43363 61.8614 6.34729 61.2486C3.58675 60.7006 3.05808 60.4306 3.05808 59.5695C3.05808 59.2556 5.00622 55.1511 7.38756 50.4481L11.717 41.8973L11.9346 37.0531C12.0548 34.3849 12.3946 31.1212 12.6914 29.787C12.9879 28.4548 13.2412 27.0712 13.2543 26.7124C13.2671 26.354 13.3809 26.1236 13.5066 26.2008C13.6326 26.2777 13.7354 26.1772 13.7354 25.9774C13.7354 25.3758 15.9038 20.5571 16.7552 19.2667C17.1914 18.6052 17.5026 17.9918 17.4465 17.904C17.39 17.8162 17.4681 17.6609 17.6201 17.5592C17.7717 17.4571 18.8434 16.2891 20.0017 14.9633C22.563 12.0308 23.3117 11.3439 26.243 9.23485C31.9359 5.13914 38.6915 2.99168 45.877 2.9938C51.1376 2.99531 56.0751 4.02711 59.8878 5.92177C60.6913 6.3211 61.5019 6.55362 61.6892 6.43857C61.8765 6.32383 61.947 6.36319 61.8454 6.52607C61.7438 6.68926 62.2374 7.10252 62.9421 7.44494C65.9424 8.90181 71.3896 13.8634 73.745 17.2849C74.767 18.7696 75.2438 19.2413 75.4433 18.9667C75.6416 18.6942 75.6743 18.7305 75.5577 19.0932C75.4678 19.3727 75.8573 20.5347 76.4235 21.6749C79.57 28.0134 80.6725 35.5799 79.4556 42.4843C78.8945 45.6672 78.1297 48.0105 76.6331 51.1314C76.034 52.3802 75.5571 53.5816 75.5733 53.8008C75.5895 54.02 75.5236 54.1211 75.4272 54.0254C75.1657 53.766 74.1435 55.436 74.3552 55.7763C74.4555 55.9374 74.3793 55.9719 74.1856 55.8529C73.9918 55.7342 73.8329 55.7472 73.8329 55.882C73.8326 56.0167 72.9879 57.1487 71.9555 58.3976C70.9235 59.6464 69.6538 61.5538 69.1343 62.6362L68.1895 64.6041L68.098 74.8676C68.037 81.7048 68.1126 85.2364 68.3243 85.4465C68.7789 85.8977 70.4281 85.9667 70.7032 85.5461C70.8307 85.3512 71.0037 80.7638 71.0876 75.352C71.2398 65.5375 71.2423 65.5081 72.0315 63.8472C72.4668 62.9314 73.5108 61.3646 74.3515 60.3655C76.9434 57.2855 79.2088 53.4466 80.8024 49.4338C83.4907 42.6651 83.7338 33.2759 81.4147 25.7603C80.5306 22.8944 78.3903 18.4093 78.0163 18.6388C77.8448 18.7439 77.7914 18.6909 77.897 18.521C78.1654 18.0902 76.2896 15.3605 75.8927 15.604C75.703 15.7205 75.659 15.6582 75.7865 15.4532C76.5626 14.207 65.0141 3.89238 63.727 4.68197C63.5171 4.81064 63.4476 4.7734 63.5598 4.59266C63.9906 3.90146 56.9353 1.24295 52.5214 0.43307C50.1498 -0.00199305 43.1671 -0.15125 40.7336 0.180875ZM47.7501 9.92422C45.9295 10.4101 44.6729 11.1101 43.2818 12.4132L41.8642 13.7408L40.9472 13.2004C39.3807 12.277 36.1387 11.8819 34.0094 12.3548C32.129 12.7723 29.467 14.3442 29.7824 14.8507C29.9124 15.0593 29.8632 15.1141 29.6582 14.9885C29.0905 14.6403 27.56 16.5383 26.7107 18.6436C26.1134 20.1241 25.9255 21.0851 25.9734 22.4094C26.009 23.3873 25.9813 24.2283 25.9117 24.2786C25.8422 24.3288 25.2058 24.6198 24.4971 24.9256C23.7888 25.2314 23.2952 25.6198 23.4004 25.7887C23.5057 25.9577 23.4535 26.0113 23.2845 25.9077C22.8934 25.6676 21.8242 26.4303 21.8059 26.9619C21.7982 27.1835 21.624 27.3301 21.4187 27.2874C20.8876 27.1769 19.2869 29.8006 18.7311 31.6928C18.2805 33.226 18.3034 35.6159 18.7824 37.0646C19.3556 38.7985 19.6329 39.2975 19.9239 39.1189C20.1231 38.9968 20.1722 39.1113 20.0526 39.4201C19.7952 40.0865 22.3498 42.5776 24.3089 43.5709L25.7854 44.3193L36.7315 44.4059C46.6595 44.4846 47.7306 44.4453 48.2477 43.9805C49.0098 43.2963 48.9676 42.4898 48.1397 41.9145C47.5592 41.5106 46.0036 41.4431 37.3001 41.4431C26.1726 41.4431 26.0704 41.4292 23.991 39.6175C21.0179 37.0265 20.668 32.892 23.1463 29.6356C23.5899 29.0528 23.9157 28.4636 23.8702 28.3264C23.8248 28.189 23.9242 28.1605 24.0914 28.2632C24.2586 28.3658 24.7101 28.2453 25.0945 27.9952C25.4788 27.7452 26.5033 27.3894 27.3712 27.2047C29.5127 26.7491 29.7879 26.3649 29.3428 24.4515C28.8748 22.439 28.895 21.7605 29.4755 20.0336C30.3706 17.3699 32.844 15.4986 35.88 15.1877C37.2394 15.0484 37.773 15.1528 39.1204 15.8219C40.0076 16.2625 41.0271 16.8695 41.3856 17.1707C42.1586 17.8201 43.1684 19.7124 43.4615 21.0618C43.5768 21.5913 43.8605 22.1808 44.0921 22.3718C44.6363 22.8199 45.9451 22.6255 45.8358 22.1126C45.7898 21.8962 45.8938 21.8057 46.0668 21.9119C46.6571 22.274 46.7361 21.1938 46.2428 19.5092C45.9719 18.5846 45.6086 17.828 45.4356 17.828C45.2626 17.828 45.1958 17.7078 45.2873 17.561C45.3789 17.4138 45.1678 16.9328 44.8185 16.4919C44.345 15.8946 44.2675 15.5888 44.5146 15.293C44.6973 15.0747 44.7794 14.8065 44.6967 14.6969C44.6144 14.5873 44.6269 14.5543 44.7242 14.6233C44.8218 14.6924 45.3898 14.4199 45.9865 14.0181C49.9506 11.3484 55.5326 13.1083 57.0125 17.4947C57.5153 18.9855 57.4564 19.2286 56.4954 19.6237C55.5998 19.9918 53.3938 21.9516 53.3938 22.3791C53.3938 22.9607 53.8154 23.621 54.3777 23.9195C54.8774 24.185 55.2715 24.0458 56.6108 23.1302C58.849 21.6004 61.5556 21.1193 63.5885 21.8898C64.3707 22.1862 65.443 22.7899 65.972 23.2316C66.501 23.6734 67.0089 24.0016 67.1007 23.9616C67.1926 23.9213 67.271 24.0576 67.2746 24.2643C67.2783 24.4708 67.5065 25.0506 67.7822 25.5523C68.9433 27.667 68.7655 30.6035 67.3512 32.665C65.9512 34.7059 64.5983 35.4413 60.9488 36.1446C59.9656 36.3341 59.5647 37.4131 60.1053 38.4159C60.4082 38.9775 60.6553 39.0559 61.7328 38.9317C64.0083 38.6702 64.9369 38.4564 65.8643 37.9805C66.7654 37.5182 66.788 37.526 67.7182 38.645C69.3307 40.5854 69.731 43.5754 68.6804 45.8331C68.1447 46.9836 66.2066 49.6209 66.2066 49.1989C66.2066 49.0893 65.663 49.2749 64.9985 49.6115C64.3341 49.9479 63.3387 50.2264 62.7868 50.2304C61.2218 50.2416 59.5549 50.7096 58.4881 51.4375C57.4817 52.1241 56.4414 53.3246 56.3087 53.9528C56.2672 54.1493 56.0747 54.6939 55.8813 55.1626C55.6455 55.7333 55.5293 58.687 55.5293 64.1024C55.5293 72.9015 55.6428 73.5354 57.2175 73.5354C58.7496 73.5354 58.8621 72.8769 58.8643 63.9041C58.8661 56.6525 58.9299 55.5392 59.389 54.7681C59.9311 53.8574 60.8991 53.518 64.1532 53.0972C64.9534 52.9936 65.5299 52.7832 65.4338 52.6291C65.3381 52.4753 65.4384 52.4172 65.6568 52.5001C66.1858 52.7009 69.1279 50.736 69.0208 50.2537C68.9747 50.0457 69.0626 49.9521 69.2157 50.0463C69.5556 50.2546 70.785 48.6899 71.5745 47.0441C72.3915 45.3411 72.3918 40.8842 71.5751 39.0871C71.256 38.3847 70.8558 37.81 70.6852 37.81C70.515 37.81 70.4692 37.7174 70.5833 37.6039C70.6977 37.4906 70.4165 37.0098 69.9589 36.5357C69.1392 35.6865 69.1346 35.6611 69.6675 34.8497C72.012 31.2801 72.2838 27.4948 70.4552 23.8832C69.9577 22.901 68.504 21.2501 67.3036 20.3043C66.2652 19.4859 63.9332 18.6664 62.1989 18.5104C60.8264 18.3869 60.4097 18.2358 60.4073 17.8616C60.3951 15.8477 56.9677 11.6384 54.4451 10.5394C52.8109 9.82734 49.3163 9.50642 47.7501 9.92422ZM45.1571 11.1673C44.8822 11.3436 44.8444 11.4625 45.0628 11.4656C45.2626 11.468 45.511 11.3339 45.6147 11.1673C45.8487 10.7913 45.7431 10.7913 45.1571 11.1673ZM40.6449 27.1908C40.0927 27.3307 39.3956 27.6652 39.0954 27.9347C38.7956 28.2041 38.4133 28.4245 38.2461 28.4245C37.8486 28.4245 36.7626 29.6292 36.5009 30.3607C36.2492 31.0634 37.0753 32.0576 37.9109 32.0576C38.6269 32.0576 40.0378 31.0137 39.7318 30.7101C39.6116 30.5911 39.6507 30.5296 39.8184 30.5738C39.9862 30.6177 40.6937 30.4754 41.3907 30.2568C44.5137 29.2783 46.9722 30.9556 47.9088 34.7037C48.3169 36.3374 49.4072 36.7619 50.3688 35.6614C51.8627 33.952 49.4945 29.2674 46.3099 27.6331C45.1906 27.0585 42.1165 26.8187 40.6449 27.1908Z" fill="white" stroke="#2DA45A" stroke-width="0.6" mask="url(#path-1-inside-1_2281_18350)"/>
</svg>
