<svg width="17" height="21" viewBox="0 0 17 21" fill="none" xmlns="http://www.w3.org/2000/svg">
<path d="M2.24434 20.998C1.67334 20.998 1.18453 20.7999 0.777904 20.4039C0.37128 20.0079 0.167969 19.5319 0.167969 18.9757V6.8425C0.167969 6.28639 0.37128 5.81033 0.777904 5.41432C1.18453 5.0183 1.67334 4.82029 2.24434 4.82029H4.32072C4.32072 3.70808 4.72734 2.75596 5.54059 1.96393C6.35383 1.17189 7.33146 0.775879 8.47346 0.775879C9.61547 0.775879 10.5931 1.17189 11.4063 1.96393C12.2196 2.75596 12.6262 3.70808 12.6262 4.82029H14.7026C15.2736 4.82029 15.7624 5.0183 16.169 5.41432C16.5756 5.81033 16.779 6.28639 16.779 6.8425V18.9757C16.779 19.5319 16.5756 20.0079 16.169 20.4039C15.7624 20.7999 15.2736 20.998 14.7026 20.998H2.24434ZM2.24434 18.9757H14.7026V6.8425H12.6262V8.86471C12.6262 9.15119 12.5267 9.39133 12.3277 9.58512C12.1287 9.77892 11.8822 9.87581 11.588 9.87581C11.2939 9.87581 11.0473 9.77892 10.8483 9.58512C10.6493 9.39133 10.5498 9.15119 10.5498 8.86471V6.8425H6.39709V8.86471C6.39709 9.15119 6.2976 9.39133 6.09861 9.58512C5.89963 9.77892 5.65306 9.87581 5.3589 9.87581C5.06475 9.87581 4.81818 9.77892 4.6192 9.58512C4.42021 9.39133 4.32072 9.15119 4.32072 8.86471V6.8425H2.24434V18.9757ZM6.39709 4.82029H10.5498C10.5498 4.26419 10.3465 3.78813 9.9399 3.39211C9.53328 2.99609 9.04447 2.79809 8.47346 2.79809C7.90246 2.79809 7.41365 2.99609 7.00703 3.39211C6.6004 3.78813 6.39709 4.26419 6.39709 4.82029Z" fill="white"/>
</svg>
