<svg width="10" height="20" viewBox="0 0 10 20" fill="none" xmlns="http://www.w3.org/2000/svg">
<path fill-rule="evenodd" clip-rule="evenodd" d="M7.71552 0.906879C4.94237 1.20814 2.78897 3.03801 2.46026 5.37257C2.43483 5.55315 2.41397 6.24676 2.41392 6.91388L2.41379 8.12687H1.31272H0.211595L0.105819 8.21643L0 8.30595V9.7101V11.1142L0.103966 11.2166L0.207931 11.3189L1.31086 11.3298L2.41379 11.3407V15.3364V19.3321L2.53978 19.4387L2.66578 19.5454H4.30371H5.94168L6.07427 19.4509L6.2069 19.3565V15.3481V11.3397L7.79832 11.3293L9.3897 11.3189L9.50091 11.2305L9.61207 11.142V9.72969C9.61207 8.39373 9.60763 8.3127 9.5297 8.23124L9.44737 8.14511L7.83789 8.12687L6.22845 8.10863L6.21707 6.98703C6.20422 5.72526 6.2328 5.5171 6.47461 5.11096C6.65918 4.80095 7.06155 4.46036 7.42772 4.30419C7.84401 4.12667 8.18384 4.07885 9.03509 4.07812L9.77272 4.0775L9.88638 3.98134L10 3.88514V2.48281V1.08045L9.87401 0.973821L9.74802 0.867188L8.87185 0.871821C8.38996 0.874374 7.86961 0.890134 7.71552 0.906879Z" fill="white"/>
</svg>
