<svg width="28" height="30" viewBox="0 0 28 30" fill="none" xmlns="http://www.w3.org/2000/svg">
<path fill-rule="evenodd" clip-rule="evenodd" d="M12.7951 0.653793C12.2251 1.28414 12.2038 1.35172 12.2038 2.53776C12.2038 3.49724 12.257 3.78 12.4459 3.82362C12.6292 3.86586 12.5115 4.16241 11.9603 5.0481C11.5602 5.69103 11.2697 6.28172 11.3149 6.36069C11.3602 6.43983 11.7224 6.60276 12.1198 6.72293C12.5173 6.8431 12.8425 7.02931 12.8425 7.13672C12.8425 7.24431 12.6046 7.71914 12.3137 8.1919C11.362 9.73897 11.3931 9.36069 11.441 18.8253L11.4853 27.5569L11.9713 28.3043C12.2388 28.7153 12.7777 29.2457 13.1689 29.4828L13.8804 29.9138L19.0699 29.9712C25.2924 30.0402 25.6443 29.9866 26.74 28.8034C27.3364 28.1597 27.5325 27.7993 27.6736 27.0891C27.8649 26.1252 27.9309 11.4859 27.7491 10.2983C27.6944 9.94086 27.3407 9.09103 26.9632 8.40983C26.5856 7.72845 26.3087 7.11517 26.3478 7.04707C26.3868 6.97879 26.7745 6.79535 27.2094 6.63931L28 6.35586L27.2474 5.13241C26.7518 4.32672 26.5631 3.88431 26.6945 3.83672C26.8296 3.78776 26.8941 3.36207 26.8941 2.52069C26.8941 1.3081 26.8789 1.26086 26.2886 0.638448L25.6831 0H19.5347H13.3864L12.7951 0.653793ZM13.3971 1.38448C13.2358 1.5769 13.1038 1.98414 13.1038 2.28965V2.84483L19.5997 2.88983L26.0957 2.93483V2.27C26.0957 1.00414 26.2555 1.03448 19.601 1.03448C13.8645 1.03448 13.6818 1.04483 13.3971 1.38448ZM13.1277 4.78448C12.8017 5.32707 12.5861 5.82586 12.6487 5.89276C12.7114 5.95966 13.099 6.11103 13.5101 6.22931C14.2296 6.43638 14.2953 6.42293 15.2666 5.86672C16.4868 5.16793 17.3941 5.10776 18.3849 5.65983C19.2347 6.13345 20.0765 6.13672 20.7765 5.66966C21.6161 5.10931 22.6409 5.1631 23.827 5.82965C24.365 6.1319 24.9256 6.37931 25.0726 6.37931C25.5103 6.37931 26.5747 5.99155 26.5747 5.83207C26.5747 5.75086 26.313 5.25879 25.9932 4.73879L25.4118 3.7931L19.5662 3.79535L13.7207 3.79776L13.1277 4.78448ZM15.5749 6.73328C15.1016 7.01276 14.5193 7.24138 14.2807 7.24138C13.9133 7.24138 13.7273 7.44603 13.0653 8.57759L12.2837 9.91379V18.565C12.2837 27.0728 12.2892 27.2241 12.6177 27.7029C12.8015 27.9707 13.1893 28.3643 13.4796 28.5776C14.0023 28.9617 14.0626 28.9655 19.6154 28.9655H25.2232L25.7963 28.545C26.9136 27.7252 26.8941 27.904 26.8941 18.5057C26.8941 10.7952 26.8704 10.0367 26.6146 9.56069C26.4609 9.27448 26.1196 8.63672 25.8562 8.14345C25.4524 7.38707 25.304 7.24603 24.9111 7.24379C24.6546 7.24241 24.063 7.00862 23.5961 6.72414C22.5761 6.10259 21.8786 6.06845 20.9511 6.59483C20.0863 7.08569 19.0575 7.08034 18.1582 6.58052C17.2632 6.0831 16.6104 6.12172 15.5749 6.73328ZM24.2137 8.16983L23.8573 8.37586L24.3051 9.14483C25.0402 10.4071 25.1539 10.8828 25.1629 12.73L25.1713 14.4828H25.6334H26.0957V12.9624C26.0957 11.17 25.7929 9.92414 25.079 8.77965C24.6121 8.03086 24.5411 7.98086 24.2137 8.16983ZM14.0487 8.81C13.1632 10.2548 13.1619 10.2703 13.1625 18.6855C13.163 25.9933 13.1812 26.4978 13.463 26.9966C13.7372 27.4821 14.6351 28.1034 15.0622 28.1034C15.1588 28.1034 15.2377 27.8707 15.2377 27.5862C15.2377 27.1903 15.1653 27.069 14.93 27.069C14.7606 27.069 14.4731 26.8645 14.2913 26.6147C13.9679 26.171 13.9603 25.9864 13.9603 18.7053C13.9603 10.6517 13.9657 10.5929 14.841 9.16465C15.0758 8.78155 15.2209 8.38603 15.1636 8.28586C14.9445 7.9031 14.4668 8.12776 14.0487 8.81ZM1.53678 9.0169C1.05343 9.55517 1.02645 9.655 1.02645 10.899C1.02645 11.7479 1.0924 12.2364 1.21311 12.2798C1.32792 12.3212 1.15435 12.7412 0.761865 13.3717C0.411055 13.9353 0.0739781 14.489 0.0126622 14.6021C-0.0619068 14.7397 0.192618 14.9066 0.783262 15.1076C1.26836 15.2728 1.66516 15.4626 1.66516 15.5293C1.66516 15.5962 1.40217 16.064 1.08058 16.5686C0.158926 18.0152 0.0683892 18.5648 0.0683892 22.7097C0.0683892 27.1471 0.166111 27.6869 1.17207 28.8029C2.16862 29.9088 2.66298 30 7.66086 30H11.7248V29.4828V28.9655H7.31787C2.43927 28.9655 2.15281 28.9117 1.46237 27.8667C1.11954 27.3478 1.10469 27.1634 1.06158 22.931C1.0215 18.9733 1.04545 18.4822 1.30109 18.0116C1.45742 17.724 1.80088 17.085 2.06435 16.5917C2.44757 15.8741 2.62673 15.6941 2.95998 15.6921C3.18911 15.6907 3.79413 15.4491 4.30429 15.1552C5.39345 14.5276 6.00341 14.4871 6.90319 14.9828C7.7664 15.4583 8.85412 15.4533 9.75119 14.9695C10.2733 14.6879 10.4474 14.494 10.4474 14.1936C10.4474 13.6907 10.0637 13.67 9.40948 14.1379C8.76981 14.5953 8.10013 14.5712 7.07005 14.0534C5.98569 13.5083 5.42714 13.5105 4.44657 14.0641C3.28524 14.7197 2.86577 14.824 2.18714 14.6262C1.85613 14.5297 1.51953 14.3831 1.43921 14.3003C1.35235 14.211 1.53135 13.7628 1.87992 13.1957L2.46673 12.2414H6.45706H10.4474V11.7241V11.2069H6.13611H1.82483V10.6334C1.82483 10.2571 1.95178 9.93138 2.19432 9.68517C2.55328 9.32121 2.67847 9.31034 6.5056 9.31034H10.4474V8.87931V8.44828H6.24724H2.0471L1.53678 9.0169ZM14.9183 11.6966C14.9183 11.871 15.1326 12.4336 15.3945 12.9466C15.6564 13.4597 15.8719 13.9703 15.8735 14.0814C15.8751 14.1926 15.6249 14.3733 15.3175 14.4828C14.9447 14.6155 14.7586 14.789 14.7586 15.0033C14.7586 15.5283 15.0299 15.5626 16.111 15.1741L17.1366 14.8057L16.571 13.4805C16.2599 12.7516 15.9289 11.9805 15.8353 11.7672C15.6215 11.279 14.9183 11.2247 14.9183 11.6966ZM25.1742 15.9483C25.2009 16.2962 25.293 16.3793 25.6515 16.3793C26.0189 16.3793 26.0957 16.3048 26.0957 15.9483C26.0957 15.5847 26.0211 15.5172 25.6184 15.5172C25.2071 15.5172 25.1458 15.5767 25.1742 15.9483ZM15.3574 16.224C14.9795 16.4572 14.9977 16.5617 15.597 17.6021L16.1159 18.5028L16.1668 22.3548L16.2176 26.2069H16.6059H16.9941V22.3614C16.9941 18.5991 16.9855 18.4976 16.594 17.6631C15.9816 16.3579 15.6902 16.0186 15.3574 16.224ZM2.7789 17.2479C1.94411 18.6528 1.82483 19.3616 1.82515 22.9153C1.82531 25.6262 1.86842 26.2119 2.10459 26.7119C2.62625 27.8167 3.92442 28.4316 4.03157 27.6247C4.07244 27.3162 3.97504 27.1914 3.57617 27.0412C2.76277 26.735 2.69363 26.3305 2.78289 22.3971L2.86273 18.8793L3.38344 17.9684C4.04035 16.8195 4.05711 16.7231 3.63205 16.545C3.33043 16.4186 3.21562 16.5133 2.7789 17.2479ZM4.96072 27.1886C4.90468 27.2493 4.85869 27.4798 4.85869 27.7012C4.85869 28.0153 4.94619 28.1034 5.25788 28.1034C5.55057 28.1034 5.65707 28.0116 5.65707 27.7586C5.65707 27.569 5.67496 27.3633 5.69699 27.3017C5.75065 27.1507 5.08974 27.0493 4.96072 27.1886ZM16.1957 27.6098C16.1957 28.0248 16.261 28.1034 16.6055 28.1034C16.9584 28.1034 17.0083 28.0376 16.9647 27.6293C16.9272 27.2762 16.8226 27.1502 16.555 27.1357C16.2618 27.1197 16.1957 27.2069 16.1957 27.6098Z" fill="#137D67"/>
</svg>
