<svg width="22" height="30" viewBox="0 0 22 30" fill="none" xmlns="http://www.w3.org/2000/svg">
<path fill-rule="evenodd" clip-rule="evenodd" d="M9.83054 1.05475C6.15845 4.71927 2.11307 11.0992 0.690573 15.4697C-0.777177 19.9794 0.0972583 23.834 3.2899 26.9261C5.44064 29.0091 7.92818 30 11.0061 30C14.0841 30 16.5716 29.0091 18.7223 26.9261C23.6947 22.1102 23.0353 15.8346 16.5685 6.42897C14.8323 3.90379 11.4547 0 11.0061 0C10.9408 0 10.412 0.474539 9.83054 1.05475ZM9.71876 2.96335C6.97449 5.81702 3.30804 11.7877 2.01276 15.5123C0.904333 18.6991 0.975865 20.9747 2.26739 23.6265C3.44902 26.0524 6.6867 28.364 9.3246 28.665L10.3805 28.7855V15.5981C10.3805 8.34521 10.3511 2.41086 10.3152 2.41086C10.2793 2.41086 10.0109 2.65938 9.71876 2.96335ZM11.6407 4.5706C11.6357 5.8138 11.706 6.83078 11.7969 6.83078C12.0887 6.83078 13.7172 5.11827 13.7149 4.8141C13.7137 4.65257 13.2484 4.02313 12.6812 3.41539L11.6499 2.31041L11.6407 4.5706ZM13.0338 7.3883L11.6318 8.74943V12.3105C11.6318 14.2691 11.6929 15.8715 11.7677 15.8715C12.0278 15.8715 17.4694 10.5459 17.4702 10.2906C17.4713 9.96049 14.8271 6.02716 14.6042 6.02716C14.5116 6.02716 13.805 6.63972 13.0338 7.3883ZM14.8046 14.7236L11.6217 17.7944L11.6789 21.3793L11.736 24.9641L15.7339 21.1043C17.9326 18.9815 19.8827 17.0838 20.0672 16.8875C20.3769 16.5576 20.3603 16.4166 19.8495 15.0456C19.208 13.3244 18.3672 11.6525 18.1428 11.6525C18.0573 11.6525 16.5551 13.0345 14.8046 14.7236ZM16.0615 22.5534L11.6318 26.8243V27.8049V28.7855L12.6876 28.665C16.268 28.2565 19.8948 24.8749 20.6011 21.2861C20.8458 20.0443 20.8741 18.2824 20.6495 18.2824C20.5625 18.2824 18.4979 20.2043 16.0615 22.5534ZM4.27653 19.271C4.12429 19.8318 4.46297 21.3663 4.93262 22.244C5.60601 23.5027 6.80453 24.7114 7.37928 24.7114C8.28729 24.7114 8.19991 24.1631 7.11401 23.0481C6.11695 22.0243 5.74073 21.2395 5.47942 19.6385C5.37786 19.0165 5.2715 18.8851 4.8688 18.8851C4.56328 18.8851 4.34222 19.0292 4.27653 19.271Z" fill="#137D67"/>
</svg>
