<svg width="101" height="87" viewBox="0 0 101 87" fill="none" xmlns="http://www.w3.org/2000/svg">
<path fill-rule="evenodd" clip-rule="evenodd" d="M48.784 0.162656C48.7521 0.272885 48.6436 0.780994 48.5429 1.29189C48.1318 3.37696 46.5546 5.65292 44.803 6.68818C43.931 7.20357 42.6738 7.65641 41.7095 7.80224L41.0073 7.90845L41.0954 10.5634L42.1698 10.7627C42.7608 10.8723 43.6928 11.1896 44.2407 11.468C45.4478 12.0812 47.0672 13.6556 47.6728 14.8046C48.1308 15.6736 48.6932 17.4659 48.6932 18.0564C48.6932 18.4025 48.7928 18.3957 50.0288 18.3665H51.3691L51.5431 17.3928C51.9259 15.4045 52.6389 14.1051 54.0917 12.7485C55.3636 11.5607 57.2789 10.6583 58.528 10.6583C59.031 10.6583 59.0583 10.5792 59.0557 9.12593L59.0537 7.98044L57.8454 7.69279C54.4343 6.88077 51.966 4.21731 51.4856 0.830226L51.3771 0.0649665L50.1096 0.013722C49.17 -0.024363 48.8271 0.0141864 48.784 0.162656ZM49.4979 5.82028C48.8827 6.77256 47.606 8.07735 46.6613 8.71907L45.9145 9.2264L46.8838 9.92401C47.945 10.6879 48.891 11.658 49.542 12.6502C49.773 13.0022 50.0069 13.2902 50.0618 13.2902C50.1169 13.2902 50.2868 13.0767 50.4397 12.8157C50.8761 12.0707 52.453 10.44 53.2932 9.86518C53.7135 9.57768 54.0591 9.29932 54.0613 9.24684C54.0634 9.1942 53.7804 8.9612 53.4323 8.72867C52.5705 8.15352 50.9372 6.45905 50.5161 5.70339C50.3266 5.36326 50.1268 5.0849 50.0721 5.0849C50.0175 5.0849 49.759 5.4159 49.4979 5.82028ZM33.5714 15.642C33.5229 15.7694 33.5038 16.3896 33.5289 17.0203L33.5745 18.1669L35.4931 18.2722C41.094 18.5798 45.4881 21.6986 47.6292 26.886C48.5443 29.103 48.6889 30.2917 48.6912 35.6134C48.6922 38.2267 48.6413 40.3943 48.578 40.4303C48.5146 40.4664 47.9977 40.3989 47.4289 40.2803C43.9314 39.5514 41.009 37.7525 39.0396 35.1163C37.0218 32.4153 36.1873 29.6204 36.2901 25.9078L36.3373 24.2048L36.721 24.2579C37.3945 24.3512 38.6101 24.933 39.6117 25.6413C41.261 26.8079 42.5193 28.82 42.8702 30.8523L43.0455 31.8682H44.3089C45.0037 31.8682 45.6068 31.8334 45.6492 31.7906C45.7974 31.6409 45.468 29.8271 45.0814 28.6655C44.3443 26.4507 42.4831 24.1125 40.4997 22.9097C40.0273 22.6232 39.0356 22.177 38.2959 21.9183C37.1331 21.5116 36.7228 21.4459 35.2628 21.4331L33.5745 21.4181L33.5284 24.3596C33.4432 29.8033 34.205 32.8683 36.4886 36.2693C39.6663 41.0021 46.0436 43.8679 51.8437 43.1694C55.8399 42.688 59.3399 40.9637 62.005 38.1634C63.4423 36.653 63.9735 35.8975 64.8723 34.086C66.2183 31.3734 66.4979 29.8149 66.4979 25.0278V21.3407H65.3403C59.8079 21.3407 55.1122 25.4987 54.4567 30.978L54.3502 31.8682H55.6706C56.5986 31.8682 57.0058 31.8106 57.0402 31.6747C57.0672 31.5683 57.2049 30.997 57.3463 30.4053C58.0193 27.5864 59.9329 25.4543 62.6492 24.4969C63.1953 24.3045 63.7067 24.1871 63.7856 24.2362C64.0577 24.4059 63.8033 28.7339 63.4378 30.151C62.1451 35.1649 58.153 39.0732 53.2211 40.1532C52.6302 40.2826 51.9912 40.4234 51.8013 40.4661L51.456 40.5438V35.4517C51.456 30.5538 51.4704 30.3015 51.8348 28.8304C52.8536 24.7178 55.5838 21.3623 59.4073 19.523C61.1364 18.6911 63.0997 18.2491 65.0781 18.2463L66.4979 18.2443V15.4104L64.592 15.5132C60.3956 15.7395 57.0074 17.1544 54.0513 19.9149C52.7991 21.0841 51.26 23.1012 50.6118 24.4224C50.3585 24.9384 50.1168 25.3608 50.0746 25.3608C50.0323 25.3606 49.7426 24.8835 49.4305 24.3001C48.218 22.0336 46.1127 19.6705 44.0538 18.2652C42.7806 17.3962 40.5287 16.3964 38.9466 15.9976C36.9827 15.5027 33.7069 15.2859 33.5714 15.642Z" fill="#137D67"/>
<path d="M34.539 80.6378V81.6687H30.9756V83.241H34.1397V84.2719H30.9756V86.8855H29.8697V80.6378H34.539Z" fill="#137D67"/>
<path d="M40.7503 80.6378L43.4741 86.8855H42.2965L41.7845 85.7401H38.5078L38.0061 86.8855H36.849L39.5727 80.6378H40.7503ZM38.9276 84.73H41.3749L40.1974 81.7624H40.0745L38.9276 84.73Z" fill="#137D67"/>
<path d="M51.9451 82.9286C51.9451 83.4631 51.7984 83.9213 51.5048 84.3031C51.3956 84.4419 51.2727 84.5669 51.1362 84.678C50.9996 84.789 50.8426 84.8827 50.6652 84.9591C50.8495 85.2645 51.0406 85.5839 51.2386 85.9171C51.4434 86.2503 51.6379 86.5731 51.8222 86.8855H50.573L49.5797 85.1882H47.6956V86.8855H46.5897V80.6378H49.6207C49.9415 80.6378 50.2419 80.6968 50.5218 80.8148C50.8085 80.9259 51.0611 81.089 51.2795 81.3042C51.4843 81.5125 51.6448 81.752 51.7608 82.0227C51.8837 82.2934 51.9451 82.5954 51.9451 82.9286ZM47.6956 84.1781H49.6412C49.8187 84.1781 49.9825 84.1469 50.1327 84.0844C50.2897 84.015 50.416 83.9213 50.5116 83.8033C50.6208 83.6853 50.7027 83.5499 50.7573 83.3972C50.8119 83.2445 50.8392 83.0883 50.8392 82.9286C50.8392 82.5885 50.7368 82.3073 50.532 82.0852C50.4296 81.9533 50.2931 81.8492 50.1224 81.7728C49.9586 81.6964 49.7811 81.6583 49.59 81.6583H47.6956V84.1781Z" fill="#137D67"/>
<path d="M56.3028 80.6378L58.4736 83.7304L60.5933 80.6378H61.7708V86.8855H60.6854V82.3038H60.6445L58.6272 85.209H58.2279L56.1902 82.3038H56.1492V86.8855H55.115V80.6378H56.3028Z" fill="#137D67"/>
<path d="M65.0373 82.3247C65.0373 82.0331 65.0953 81.7832 65.2114 81.575C65.3274 81.3598 65.481 81.1827 65.6722 81.0439C65.9043 80.8634 66.1876 80.7315 66.5221 80.6482C66.8566 80.5649 67.2184 80.5233 67.6075 80.5233C67.9966 80.5233 68.3891 80.5684 68.7851 80.6586C69.1878 80.7489 69.6179 80.912 70.0753 81.148L69.6657 82.0331C69.3176 81.8596 68.9796 81.7346 68.652 81.6583C68.3243 81.575 67.9966 81.5333 67.6689 81.5333C67.4164 81.5333 67.174 81.5507 66.9419 81.5854C66.7166 81.6201 66.5289 81.693 66.3787 81.804C66.1944 81.9359 66.1023 82.113 66.1023 82.3351C66.1023 82.4253 66.1227 82.5017 66.1637 82.5642C66.2047 82.6197 66.2627 82.6718 66.3378 82.7204C66.4265 82.7898 66.5323 82.8418 66.6552 82.8765C66.7781 82.9043 66.8941 82.9286 67.0034 82.9494L68.2526 83.1785C68.5598 83.2341 68.8602 83.3174 69.1537 83.4284C69.4541 83.5395 69.7067 83.6957 69.9115 83.897C70.048 84.0358 70.1538 84.199 70.2289 84.3864C70.304 84.5669 70.3415 84.7855 70.3415 85.0424C70.3415 85.3756 70.2767 85.6602 70.147 85.8962C70.0173 86.1323 69.8466 86.3232 69.635 86.4689C69.3619 86.6633 69.0308 86.8021 68.6417 86.8855C68.2526 86.9618 67.8533 87 67.4437 87C67.1843 87 66.9487 86.9896 66.7371 86.9688C66.5255 86.9479 66.3207 86.9167 66.1227 86.875C65.9248 86.8264 65.7302 86.7674 65.5391 86.698C65.3479 86.6217 65.1465 86.5349 64.9349 86.4377L65.2728 85.5214C66.0237 85.8268 66.7405 85.9795 67.4232 85.9795C67.7918 85.9795 68.1024 85.9553 68.355 85.9067C68.6076 85.8581 68.826 85.7644 69.0104 85.6255C69.1742 85.4936 69.2561 85.3097 69.2561 85.0736C69.2561 84.9556 69.2322 84.855 69.1844 84.7717C69.1435 84.6884 69.0854 84.6155 69.0104 84.553C68.9011 84.4766 68.768 84.4142 68.611 84.3656C68.454 84.3101 68.2867 84.2649 68.1093 84.2302L66.7474 83.9907C66.4675 83.9421 66.2115 83.8727 65.9794 83.7825C65.7541 83.6853 65.563 83.5569 65.4059 83.3972C65.2899 83.2722 65.1977 83.123 65.1295 82.9494C65.068 82.7759 65.0373 82.5676 65.0373 82.3247Z" fill="#137D67"/>
<path d="M12.6867 76.2374C11.7611 76.2374 11.0031 76.0184 10.4127 75.5802C9.83817 75.1258 9.39134 74.5822 9.07218 73.9493C8.76897 73.3165 8.44981 72.4969 8.11469 71.4908C7.85936 70.7281 7.62797 70.1196 7.42052 69.6652C7.21306 69.1946 6.94177 68.8133 6.60665 68.5212C6.27153 68.2129 5.85662 68.0587 5.36192 68.0587H3.66238V73.1947C3.66238 73.7303 3.7342 74.2414 3.87782 74.7282C4.02144 75.1989 4.21294 75.6045 4.45231 75.9453V76.067H0V75.9453C0.239372 75.6045 0.430869 75.1989 0.574492 74.7282C0.718114 74.2414 0.789926 73.7303 0.789926 73.1947V61.9003C0.789926 61.3648 0.718114 60.8617 0.574492 60.3911C0.430869 59.9043 0.239372 59.4905 0 59.1497V59.028H6.36728C8.10672 59.028 9.56688 59.4013 10.7478 60.1477C11.9446 60.878 12.5431 62.0058 12.5431 63.5312C12.5431 64.4399 12.3037 65.2107 11.825 65.8436C11.3622 66.4765 10.7637 66.9633 10.0297 67.3041C9.29559 67.6287 8.53758 67.8153 7.75564 67.864V67.937C8.79291 67.9694 9.5988 68.3751 10.1733 69.1541C10.7478 69.9168 11.2744 70.9472 11.7531 72.2454C12.1361 73.284 12.4872 74.071 12.8064 74.6065C13.1415 75.1421 13.5564 75.4098 14.0511 75.4098C14.3543 75.4098 14.6096 75.3043 14.8171 75.0934L14.9847 75.2394C14.7932 75.564 14.49 75.8155 14.075 75.994C13.6601 76.1563 13.1973 76.2374 12.6867 76.2374ZM5.98429 67.4988C7.06944 67.4988 7.93117 67.1499 8.5695 66.4522C9.22378 65.7381 9.55092 64.7645 9.55092 63.5312C9.55092 62.2979 9.2158 61.3323 8.54556 60.6346C7.89128 59.9368 6.98965 59.5879 5.84067 59.5879C5.04276 59.5879 4.31667 59.7096 3.66238 59.953V67.4988H5.98429Z" fill="#137D67"/>
<path d="M22.9838 76.3591C21.4039 76.3591 20.0076 75.994 18.7948 75.2638C17.5979 74.5335 16.6644 73.5031 15.9941 72.1724C15.3398 70.8255 15.0127 69.2839 15.0127 67.5475C15.0127 65.8112 15.3398 64.2777 15.9941 62.947C16.6644 61.6001 17.5979 60.5615 18.7948 59.8313C20.0076 59.101 21.4039 58.7359 22.9838 58.7359C24.5636 58.7359 25.952 59.101 27.1488 59.8313C28.3617 60.5615 29.2952 61.592 29.9495 62.9226C30.6197 64.2533 30.9548 65.7949 30.9548 67.5475C30.9548 69.3001 30.6197 70.8417 29.9495 72.1724C29.2952 73.5031 28.3617 74.5335 27.1488 75.2638C25.952 75.994 24.5636 76.3591 22.9838 76.3591ZM22.9838 75.7749C23.9732 75.7749 24.8349 75.4342 25.569 74.7526C26.3031 74.0548 26.8616 73.0811 27.2446 71.8316C27.6435 70.5821 27.843 69.1541 27.843 67.5475C27.843 65.941 27.6435 64.513 27.2446 63.2634C26.8616 62.0139 26.3031 61.0484 25.569 60.3668C24.8349 59.669 23.9732 59.3201 22.9838 59.3201C21.9944 59.3201 21.1326 59.669 20.3986 60.3668C19.6805 61.0484 19.1219 62.0139 18.723 63.2634C18.324 64.513 18.1245 65.941 18.1245 67.5475C18.1245 69.1541 18.324 70.5821 18.723 71.8316C19.1219 73.0811 19.6805 74.0548 20.3986 74.7526C21.1326 75.4342 21.9944 75.7749 22.9838 75.7749Z" fill="#137D67"/>
<path d="M38.0391 76.3591C36.9699 76.3591 35.9486 76.2374 34.9752 75.994C34.0177 75.7344 33.2677 75.4504 32.7251 75.1421V70.6389H32.9644C33.4272 72.1643 34.1374 73.3895 35.0949 74.3144C36.0523 75.2394 37.1136 75.7019 38.2785 75.7019C39.2998 75.7019 40.1137 75.4017 40.7201 74.8013C41.3425 74.2009 41.6536 73.4381 41.6536 72.5132C41.6536 71.5557 41.3026 70.8174 40.6004 70.2981C39.9142 69.7626 38.9408 69.292 37.6801 68.8863C36.547 68.5131 35.6215 68.1398 34.9034 67.7666C34.2012 67.3934 33.6267 66.8822 33.1799 66.2331C32.749 65.5678 32.5336 64.7158 32.5336 63.6772C32.5336 62.736 32.765 61.8922 33.2278 61.1457C33.6905 60.383 34.3448 59.7907 35.1906 59.3688C36.0523 58.9469 37.0417 58.7359 38.1588 58.7359C39.0525 58.7359 39.9302 58.8495 40.7919 59.0767C41.6696 59.2877 42.3558 59.523 42.8505 59.7826V63.945H42.6111C42.1483 62.5494 41.502 61.4459 40.6722 60.6346C39.8583 59.8069 38.8929 59.3931 37.7758 59.3931C36.8822 59.3931 36.1321 59.669 35.5257 60.2207C34.9193 60.7563 34.6161 61.4703 34.6161 62.3628C34.6161 62.9632 34.7916 63.4744 35.1427 63.8963C35.4938 64.3182 35.9566 64.6752 36.5311 64.9673C37.1056 65.2432 37.8556 65.5434 38.7812 65.868C39.8823 66.2412 40.7759 66.6144 41.4621 66.9877C42.1483 67.3447 42.7228 67.864 43.1856 68.5455C43.6644 69.2271 43.9037 70.1277 43.9037 71.2474C43.9037 72.2373 43.6564 73.1217 43.1617 73.9006C42.6829 74.6796 41.9967 75.2881 41.1031 75.7262C40.2254 76.1482 39.2041 76.3591 38.0391 76.3591Z" fill="#137D67"/>
<path d="M45.9135 75.9453C46.1529 75.6045 46.3444 75.1989 46.488 74.7282C46.6316 74.2414 46.7034 73.7303 46.7034 73.1947V61.9003C46.7034 61.3648 46.6316 60.8617 46.488 60.3911C46.3444 59.9043 46.1529 59.4905 45.9135 59.1497V59.028H57.1879L57.7385 63.3608H57.4991C56.9565 62.095 56.3022 61.1538 55.5362 60.5372C54.7862 59.9043 53.709 59.5879 52.3047 59.5879H49.5759V67.1824H52.2329C53.7808 67.1824 54.7623 66.4035 55.1772 64.8456H55.4166V70.079H55.1772C54.7623 68.5212 53.7808 67.7423 52.2329 67.7423H49.5759V75.5072H52.8553C53.8287 75.5072 54.6426 75.353 55.2969 75.0447C55.9512 74.7364 56.4857 74.3145 56.9007 73.7789C57.3156 73.2434 57.6986 72.5619 58.0496 71.7343H58.289L57.7385 76.067H45.9135V75.9453Z" fill="#137D67"/>
<path d="M58.1426 75.9453C58.9884 75.3124 59.6427 74.3956 60.1054 73.1947L65.611 58.9793H66.9993L72.4809 73.1704C72.7203 73.8033 72.9597 74.3226 73.1991 74.7282C73.4384 75.1339 73.7496 75.5396 74.1326 75.9453V76.067H69.034V75.9453C69.4329 75.4747 69.6324 74.923 69.6324 74.2901C69.6324 73.9169 69.5526 73.5355 69.3931 73.1461L68.268 70.2738H61.9247L60.8475 73.0244C60.6879 73.4138 60.6081 73.8033 60.6081 74.1927C60.6081 74.9068 60.8714 75.491 61.398 75.9453V76.067H58.1426V75.9453ZM65.1083 61.949L62.1162 69.7139H68.0765L65.1083 61.949Z" fill="#137D67"/>
<path d="M77.7237 75.9453C77.9631 75.6045 78.1546 75.1989 78.2982 74.7282C78.4419 74.2414 78.5137 73.7303 78.5137 73.1947V59.5879H77.3168C76.104 59.5879 75.1226 59.9205 74.3725 60.5859C73.6225 61.2512 72.9682 62.2249 72.4097 63.5068H72.1703L72.7209 59.028H87.2028L87.7295 63.5068H87.4901C86.9475 62.2249 86.3012 61.2512 85.5512 60.5859C84.8011 59.9205 83.8197 59.5879 82.6069 59.5879H81.3861V73.1947C81.3861 73.7303 81.4579 74.2414 81.6015 74.7282C81.7452 75.1989 81.9367 75.6045 82.176 75.9453V76.067H77.7237V75.9453Z" fill="#137D67"/>
<path d="M88.6245 75.9453C88.8639 75.6045 89.0554 75.1989 89.199 74.7282C89.3426 74.2414 89.4144 73.7303 89.4144 73.1947V61.9003C89.4144 61.3648 89.3426 60.8617 89.199 60.3911C89.0554 59.9043 88.8639 59.4905 88.6245 59.1497V59.028H99.8989L100.449 63.3608H100.21C99.6675 62.095 99.0132 61.1538 98.2472 60.5372C97.4972 59.9043 96.42 59.5879 95.0157 59.5879H92.2869V67.1824H94.9439C96.4918 67.1824 97.4733 66.4035 97.8882 64.8456H98.1275V70.079H97.8882C97.4733 68.5212 96.4918 67.7423 94.9439 67.7423H92.2869V75.5072H95.5663C96.5397 75.5072 97.3536 75.353 98.0079 75.0447C98.6621 74.7364 99.1967 74.3145 99.6116 73.7789C100.027 73.2434 100.41 72.5619 100.761 71.7343H101L100.449 76.067H88.6245V75.9453Z" fill="#137D67"/>
</svg>
