<svg width="24" height="27" viewBox="0 0 24 27" fill="none" xmlns="http://www.w3.org/2000/svg">
<path d="M19.3307 8.5C21.3558 8.5 22.9974 6.82107 22.9974 4.75C22.9974 2.67893 21.3558 1 19.3307 1C17.3057 1 15.6641 2.67893 15.6641 4.75C15.6641 6.82107 17.3057 8.5 19.3307 8.5Z" stroke="#676767" stroke-width="2" stroke-linecap="round" stroke-linejoin="round"/>
<path d="M4.66667 17.25C6.69171 17.25 8.33333 15.5711 8.33333 13.5C8.33333 11.4289 6.69171 9.75 4.66667 9.75C2.64162 9.75 1 11.4289 1 13.5C1 15.5711 2.64162 17.25 4.66667 17.25Z" stroke="#676767" stroke-width="2" stroke-linecap="round" stroke-linejoin="round"/>
<path d="M19.3307 26C21.3558 26 22.9974 24.3211 22.9974 22.25C22.9974 20.1789 21.3558 18.5 19.3307 18.5C17.3057 18.5 15.6641 20.1789 15.6641 22.25C15.6641 24.3211 17.3057 26 19.3307 26Z" stroke="#676767" stroke-width="2" stroke-linecap="round" stroke-linejoin="round"/>
<path d="M7.83203 15.3906L16.1798 20.3656" stroke="#676767" stroke-width="2" stroke-linecap="round" stroke-linejoin="round"/>
<path d="M16.1676 6.64062L7.83203 11.6156" stroke="#676767" stroke-width="2" stroke-linecap="round" stroke-linejoin="round"/>
</svg>
