<svg width="18" height="15" viewBox="0 0 18 15" fill="none" xmlns="http://www.w3.org/2000/svg">
<path fill-rule="evenodd" clip-rule="evenodd" d="M0 0.814335C0 0.821764 1.52594 2.54207 3.39099 4.63718C5.256 6.73231 6.77418 8.4625 6.76472 8.48209C6.75522 8.50165 5.32856 9.9103 3.59432 11.6124C1.86011 13.3146 0.419365 14.7302 0.392753 14.7583C0.347471 14.8061 0.434506 14.8094 1.72479 14.8094H3.10528L5.58501 12.3705C6.94885 11.0291 8.07318 9.93074 8.08352 9.92965C8.09389 9.92853 9.0786 11.0256 10.2718 12.3676L12.4412 14.8076L15.2206 14.8085C16.7493 14.809 18 14.8031 18 14.7954C18 14.7877 16.4046 12.9695 14.4547 10.755L10.9095 6.72868L11.0086 6.63771C11.0631 6.58768 12.3908 5.2846 13.959 3.74199C15.5273 2.19937 16.8426 0.906543 16.882 0.869005L16.9535 0.800781L15.562 0.802752L14.1706 0.804723L11.9118 3.03009C10.6694 4.25406 9.64489 5.25607 9.63505 5.25677C9.6252 5.2575 8.73579 4.25567 7.65858 3.03052L5.7 0.802964L2.85 0.801873C1.28248 0.801266 0 0.806876 0 0.814335ZM3.23647 2.17469C3.252 2.19655 5.50278 4.72766 8.23821 7.79937L13.2118 13.3843H13.9676C14.4164 13.3843 14.7187 13.3729 14.7118 13.3562C14.7053 13.3407 12.4844 10.8102 9.77647 7.73278L4.85294 2.13742L4.03059 2.13618C3.36127 2.13518 3.21349 2.14233 3.23647 2.17469Z" fill="white"/>
</svg>
