<svg width="128" height="103" viewBox="0 0 128 103" fill="none" xmlns="http://www.w3.org/2000/svg">
<path fill-rule="evenodd" clip-rule="evenodd" d="M50.5097 0.222563C49.3936 0.978307 45.7143 6.75661 45.7143 7.75377C45.7143 9.69561 47.6349 9.47388 49.1918 7.35228C53.1611 1.94201 53.6294 0.748043 52.0222 0.128752C51.5409 -0.0569038 50.8604 -0.0149195 50.5097 0.222563ZM75.7329 0.339337C74.6593 1.00586 75.3051 2.61444 78.289 6.70478C79.6258 8.53707 80.6439 9.3466 81.2976 9.09469C82.7801 8.52329 82.5091 7.21254 80.1633 3.61685C77.8534 0.0749561 77.0802 -0.497099 75.7329 0.339337ZM28.9456 1.0321C28.286 1.69469 28.3984 2.79092 29.7319 8.68992C30.0918 10.2814 32.3429 10.759 32.8222 9.34595C32.9757 8.89526 32.7575 7.03148 32.3383 5.20444C31.2333 0.393787 30.4908 -0.520061 28.9456 1.0321ZM96.9038 1.10427C96.1463 2.33563 94.7233 9.02647 95.0909 9.62476C95.7962 10.7715 97.9402 10.1404 98.2681 8.68992C99.6016 2.79092 99.714 1.69469 99.0544 1.0321C98.1427 0.116287 97.4988 0.137936 96.9038 1.10427ZM16.3638 18.9515C13.5556 21.0062 11.0465 23.4348 10.3771 24.7456C9.74302 25.9868 7.14906 32.2217 4.61192 38.6009C0.844408 48.0752 0 50.864 0 53.8293C0 59.0716 1.23625 60.0852 9.81355 61.8735C19.0426 63.797 27.71 64.6977 35.7198 64.5645L42.3778 64.4543L45.8423 67.3959C50.4124 71.2777 59.8282 78.2276 62.1531 79.4354C63.774 80.2771 64.226 80.2771 65.8469 79.4354C68.1718 78.2276 77.5876 71.2777 82.1577 67.3959L85.6222 64.4543L92.2802 64.5645C100.29 64.6977 108.957 63.797 118.186 61.8735C126.764 60.0852 128 59.0716 128 53.8293C128 50.864 127.156 48.0752 123.388 38.6009C120.851 32.2217 118.257 25.9868 117.623 24.7456C116.953 23.4348 114.444 21.0062 111.636 18.9515C105.891 14.7483 103.25 14.3383 99.9399 17.1369C97.0482 19.5813 95.138 23.6028 95.6264 26.219C96.2795 29.715 98.6651 31.3865 103.439 31.6916L107.571 31.956L107.3 36.642C107.151 39.2189 106.883 42.0319 106.704 42.8926L106.38 44.4579L104.618 42.8008C103.65 41.8896 101.594 40.5073 100.05 39.7299C98.5058 38.9519 97.1422 37.9599 97.0194 37.5257C94.1375 27.2975 88.4539 22.4213 79.3469 22.3635C74.1682 22.3301 71.0054 23.6415 66.5829 27.6557L64 29.9997L61.4171 27.6557C56.9704 23.6198 53.8344 22.3268 48.6531 22.3911C45.9618 22.4245 43.0844 22.8897 41.6568 23.5221C36.6792 25.7263 32.4473 30.8971 31.3802 36.0791C31.0753 37.5617 30.2211 38.4585 27.919 39.7148C26.238 40.6319 24.1326 42.0719 23.2398 42.9143L21.6176 44.4454L21.2989 42.8867C21.1239 42.0286 20.8346 39.2202 20.657 36.6446L20.3331 31.9619L24.5127 31.6949C29.1847 31.3957 31.6193 29.8009 32.3246 26.5772C32.8745 24.0613 30.9943 19.7512 28.318 17.3908C24.8091 14.2957 22.274 14.627 16.3638 18.9515ZM17.9592 21.7567C15.8041 23.3876 13.8403 25.0749 13.5961 25.5059C13.3512 25.9363 10.927 31.8346 8.20833 38.6127C2.5378 52.7508 1.94351 56.2717 5.02792 57.4499C8.60016 58.8138 22.1264 60.7707 30.6031 61.1492L39.3293 61.5389L36.8712 58.3211C33.8971 54.4276 32.2775 50.9093 31.2849 46.1878C30.8748 44.2362 30.4549 42.5436 30.351 42.4268C29.8286 41.839 26.0918 44.5307 23.2797 47.5196C19.2274 51.8264 18.5731 51.36 18.0212 43.7704C17.7927 40.6228 17.4407 36.3947 17.2395 34.3747C16.7471 29.4257 17.6457 28.5348 23.1288 28.5348C29.6366 28.5348 31.1177 25.5761 27.0439 20.713C24.7086 17.9242 22.72 18.1525 17.9592 21.7567ZM100.956 20.713C96.8823 25.5761 98.3634 28.5348 104.871 28.5348C110.354 28.5348 111.253 29.4257 110.76 34.3747C110.559 36.3947 110.207 40.6228 109.979 43.7704C109.427 51.36 108.773 51.8264 104.72 47.5196C101.908 44.5307 98.1714 41.839 97.649 42.4268C97.5451 42.5436 97.1252 44.2362 96.7151 46.1878C95.7225 50.9093 94.1029 54.4276 91.1288 58.3211L88.6707 61.5389L97.3969 61.1492C105.874 60.7707 119.4 58.8138 122.972 57.4499C126.076 56.2645 125.473 52.6524 119.829 38.6199C117.131 31.9114 114.706 26.0406 114.441 25.5728C113.49 23.896 105.761 18.6944 104.219 18.6944C103.265 18.6944 101.982 19.4882 100.956 20.713ZM45.3878 25.8352C36.3722 28.1923 32.0072 37.1274 34.912 47.2788C36.465 52.7061 39.1158 56.582 45.2173 62.3485C50.8656 67.6866 62.5855 76.4249 64.0953 76.4249C65.4008 76.4249 79.2601 65.8989 83.8106 61.4523C91.2953 54.1376 94.4836 47.2605 93.8122 39.8788C93.0024 30.9752 87.6558 25.7198 79.3469 25.6607C74.4189 25.626 71.9308 26.8822 67.4286 31.6804L64 35.3345L60.5714 31.6804C58.6854 29.671 56.1926 27.5455 55.0315 26.9577C52.463 25.6568 48.0385 25.1418 45.3878 25.8352ZM39.5102 85.7162C35.3953 87.3353 34.0317 88.5686 35.1334 89.6753C35.7538 90.2985 36.7105 90.2028 39.5513 89.2325C44.128 87.6698 45.3878 86.7547 44.8614 85.3764C44.3527 84.0453 43.6421 84.0905 39.5102 85.7162ZM82.4855 85.3764C81.9513 86.7757 83.5873 87.9578 87.9843 89.3506C90.5835 90.1732 91.6323 90.2592 92.1933 89.6957C93.3577 88.526 91.9255 87.2788 87.5957 85.6932C83.0191 84.0171 83.0054 84.0158 82.4855 85.3764ZM53.8129 97.467C52.3487 101.216 52.1691 102.213 52.8797 102.655C54.4052 103.602 55.2699 102.718 56.9306 98.5133C58.6847 94.0727 58.6599 92.8256 56.8196 92.8256C55.9464 92.8256 55.1386 94.072 53.8129 97.467ZM69.0677 93.6259C68.7014 94.7294 71.8485 102.53 72.8091 102.9C73.2375 103.066 73.9833 102.955 74.4673 102.655C75.7962 101.83 72.1868 92.8256 70.5273 92.8256C69.8704 92.8256 69.214 93.1857 69.0677 93.6259Z" fill="white"/>
</svg>
