<svg width="1920" height="166" viewBox="0 0 1920 166" fill="none" xmlns="http://www.w3.org/2000/svg">
<rect x="-41" y="26" width="1999" height="114" fill="#137D67"/>
<path d="M240.498 3C239.728 1.66666 237.803 1.66667 237.034 3L224.476 24.75C223.706 26.0833 224.669 27.75 226.208 27.75H251.323C252.863 27.75 253.825 26.0833 253.055 24.75L240.498 3Z" fill="#137D67"/>
<path d="M487.166 3C486.396 1.66666 484.471 1.66667 483.702 3L471.144 24.75C470.374 26.0833 471.337 27.75 472.876 27.75H497.991C499.531 27.75 500.493 26.0833 499.723 24.75L487.166 3Z" fill="#137D67"/>
<path d="M118.537 3C117.767 1.66666 115.842 1.66667 115.073 3L102.515 24.75C101.745 26.0833 102.708 27.75 104.247 27.75H129.362C130.902 27.75 131.864 26.0833 131.094 24.75L118.537 3Z" fill="#137D67"/>
<path d="M365.201 3C364.431 1.66666 362.507 1.66667 361.737 3L349.179 24.75C348.41 26.0833 349.372 27.75 350.911 27.75H376.026C377.566 27.75 378.528 26.0833 377.758 24.75L365.201 3Z" fill="#137D67"/>
<path d="M219.242 2.86596C218.465 1.56915 216.586 1.56915 215.81 2.86596L202.723 24.7226C201.925 26.0557 202.886 27.75 204.439 27.75H230.612C232.166 27.75 233.126 26.0557 232.328 24.7226L219.242 2.86596Z" fill="#137D67"/>
<path d="M465.91 2.86596C465.133 1.56915 463.254 1.56915 462.478 2.86596L449.391 24.7226C448.593 26.0557 449.554 27.75 451.107 27.75H477.28C478.834 27.75 479.794 26.0557 478.996 24.7226L465.91 2.86596Z" fill="#137D67"/>
<path d="M96.6149 3C95.8451 1.66666 93.9206 1.66667 93.1508 3L80.5934 24.75C79.8236 26.0833 80.7858 27.75 82.3254 27.75H107.44C108.98 27.75 109.942 26.0833 109.172 24.75L96.6149 3Z" fill="#137D67"/>
<path d="M343.275 3C342.505 1.66666 340.581 1.66667 339.811 3L327.254 24.75C326.484 26.0833 327.446 27.75 328.986 27.75H354.1C355.64 27.75 356.602 26.0833 355.832 24.75L343.275 3Z" fill="#137D67"/>
<path d="M197.316 2.86596C196.539 1.56915 194.66 1.56915 193.884 2.86596L180.798 24.7226C180 26.0557 180.96 27.75 182.514 27.75H208.686C210.24 27.75 211.2 26.0557 210.402 24.7226L197.316 2.86596Z" fill="#137D67"/>
<path d="M443.984 2.86596C443.207 1.56915 441.328 1.56915 440.552 2.86596L427.466 24.7226C426.668 26.0557 427.628 27.75 429.182 27.75H455.354C456.908 27.75 457.868 26.0557 457.07 24.7226L443.984 2.86596Z" fill="#137D67"/>
<path d="M75.3589 2.86596C74.5824 1.56915 72.7034 1.56915 71.927 2.86596L58.8407 24.7226C58.0425 26.0557 59.0029 27.75 60.5566 27.75H86.7293C88.283 27.75 89.2434 26.0557 88.4452 24.7226L75.3589 2.86596Z" fill="#137D67"/>
<path d="M322.019 2.86596C321.243 1.56915 319.364 1.56915 318.587 2.86596L305.501 24.7226C304.703 26.0557 305.663 27.75 307.217 27.75H333.389C334.943 27.75 335.904 26.0557 335.105 24.7226L322.019 2.86596Z" fill="#137D67"/>
<path d="M180.871 2.86596C180.094 1.56915 178.215 1.56915 177.439 2.86596L164.352 24.7226C163.554 26.0557 164.515 27.75 166.068 27.75H192.241C193.795 27.75 194.755 26.0557 193.957 24.7226L180.871 2.86596Z" fill="#137D67"/>
<path d="M427.539 2.86596C426.762 1.56915 424.883 1.56915 424.107 2.86596L411.02 24.7226C410.222 26.0557 411.183 27.75 412.736 27.75H438.909C440.463 27.75 441.423 26.0557 440.625 24.7226L427.539 2.86596Z" fill="#137D67"/>
<path d="M58.9136 2.86596C58.1371 1.56915 56.2581 1.56915 55.4817 2.86596L42.3954 24.7226C41.5972 26.0557 42.5576 27.75 44.1113 27.75H70.2839C71.8377 27.75 72.798 26.0557 71.9999 24.7226L58.9136 2.86596Z" fill="#137D67"/>
<path d="M305.574 2.86596C304.797 1.56915 302.918 1.56915 302.142 2.86596L289.056 24.7226C288.257 26.0557 289.218 27.75 290.771 27.75H316.944C318.498 27.75 319.458 26.0557 318.66 24.7226L305.574 2.86596Z" fill="#137D67"/>
<path d="M159.646 3C158.876 1.66666 156.952 1.66667 156.182 3L143.625 24.75C142.855 26.0833 143.817 27.75 145.357 27.75H170.471C172.011 27.75 172.973 26.0833 172.203 24.75L159.646 3Z" fill="#137D67"/>
<path d="M406.314 3C405.544 1.66666 403.62 1.66667 402.85 3L390.293 24.75C389.523 26.0833 390.485 27.75 392.025 27.75H417.139C418.679 27.75 419.641 26.0833 418.871 24.75L406.314 3Z" fill="#137D67"/>
<path d="M36.9878 2.86596C36.2113 1.56915 34.3323 1.56915 33.5559 2.86596L20.4696 24.7226C19.6714 26.0557 20.6318 27.75 22.1855 27.75H48.3582C49.9119 27.75 50.8723 26.0557 50.0741 24.7226L36.9878 2.86596Z" fill="#137D67"/>
<path d="M283.648 2.86596C282.872 1.56915 280.993 1.56915 280.216 2.86596L267.13 24.7226C266.332 26.0557 267.292 27.75 268.846 27.75H295.018C296.572 27.75 297.532 26.0557 296.734 24.7226L283.648 2.86596Z" fill="#137D67"/>
<path d="M137.72 3C136.951 1.66666 135.026 1.66667 134.256 3L121.699 24.75C120.929 26.0833 121.891 27.75 123.431 27.75H148.546C150.085 27.75 151.047 26.0833 150.278 24.75L137.72 3Z" fill="#137D67"/>
<path d="M384.388 3C383.618 1.66666 381.694 1.66667 380.924 3L368.367 24.75C367.597 26.0833 368.559 27.75 370.099 27.75H395.214C396.753 27.75 397.715 26.0833 396.946 24.75L384.388 3Z" fill="#137D67"/>
<path d="M16.4331 2.86596C15.6567 1.56915 13.7777 1.56915 13.0012 2.86596L-0.0850945 24.7226C-0.883255 26.0557 0.0770912 27.75 1.63085 27.75H27.8035C29.3572 27.75 30.3176 26.0557 29.5194 24.7226L16.4331 2.86596Z" fill="#137D67"/>
<path d="M263.093 2.86596C262.317 1.56915 260.438 1.56915 259.661 2.86596L246.575 24.7226C245.777 26.0557 246.737 27.75 248.291 27.75H274.464C276.017 27.75 276.978 26.0557 276.18 24.7226L263.093 2.86596Z" fill="#137D67"/>
<path d="M1749.9 163C1750.67 164.333 1752.6 164.333 1753.37 163L1765.93 141.25C1766.7 139.917 1765.73 138.25 1764.19 138.25H1739.08C1737.54 138.25 1736.58 139.917 1737.35 141.25L1749.9 163Z" fill="#137D67"/>
<path d="M1503.24 163C1504.01 164.333 1505.93 164.333 1506.7 163L1519.26 141.25C1520.03 139.917 1519.07 138.25 1517.53 138.25H1492.41C1490.87 138.25 1489.91 139.917 1490.68 141.25L1503.24 163Z" fill="#137D67"/>
<path d="M1871.87 163C1872.64 164.333 1874.56 164.333 1875.33 163L1887.89 141.25C1888.66 139.917 1887.7 138.25 1886.16 138.25H1861.04C1859.5 138.25 1858.54 139.917 1859.31 141.25L1871.87 163Z" fill="#137D67"/>
<path d="M1625.2 163C1625.97 164.333 1627.9 164.333 1628.67 163L1641.22 141.25C1641.99 139.917 1641.03 138.25 1639.49 138.25H1614.38C1612.84 138.25 1611.87 139.917 1612.64 141.25L1625.2 163Z" fill="#137D67"/>
<path d="M1771.16 163.134C1771.94 164.431 1773.82 164.431 1774.59 163.134L1787.68 141.277C1788.48 139.944 1787.52 138.25 1785.96 138.25H1759.79C1758.24 138.25 1757.28 139.944 1758.07 141.277L1771.16 163.134Z" fill="#137D67"/>
<path d="M1524.5 163.134C1525.27 164.431 1527.15 164.431 1527.93 163.134L1541.01 141.277C1541.81 139.944 1540.85 138.25 1539.3 138.25H1513.13C1511.57 138.25 1510.61 139.944 1511.41 141.277L1524.5 163.134Z" fill="#137D67"/>
<path d="M1893.79 163C1894.56 164.333 1896.48 164.333 1897.25 163L1909.81 141.25C1910.58 139.917 1909.62 138.25 1908.08 138.25H1882.96C1881.42 138.25 1880.46 139.917 1881.23 141.25L1893.79 163Z" fill="#137D67"/>
<path d="M1647.13 163C1647.9 164.333 1649.82 164.333 1650.59 163L1663.15 141.25C1663.92 139.917 1662.96 138.25 1661.42 138.25H1636.3C1634.76 138.25 1633.8 139.917 1634.57 141.25L1647.13 163Z" fill="#137D67"/>
<path d="M1793.09 163.134C1793.86 164.431 1795.74 164.431 1796.52 163.134L1809.6 141.277C1810.4 139.944 1809.44 138.25 1807.89 138.25H1781.72C1780.16 138.25 1779.2 139.944 1780 141.277L1793.09 163.134Z" fill="#137D67"/>
<path d="M1546.42 163.134C1547.2 164.431 1549.08 164.431 1549.85 163.134L1562.94 141.277C1563.74 139.944 1562.78 138.25 1561.22 138.25H1535.05C1533.5 138.25 1532.54 139.944 1533.34 141.277L1546.42 163.134Z" fill="#137D67"/>
<path d="M1915.04 163.134C1915.82 164.431 1917.7 164.431 1918.48 163.134L1931.56 141.277C1932.36 139.944 1931.4 138.25 1929.85 138.25H1903.67C1902.12 138.25 1901.16 139.944 1901.96 141.277L1915.04 163.134Z" fill="#137D67"/>
<path d="M1668.38 163.134C1669.16 164.431 1671.04 164.431 1671.82 163.134L1684.9 141.277C1685.7 139.944 1684.74 138.25 1683.19 138.25H1657.01C1655.46 138.25 1654.5 139.944 1655.3 141.277L1668.38 163.134Z" fill="#137D67"/>
<path d="M1809.53 163.134C1810.31 164.431 1812.19 164.431 1812.96 163.134L1826.05 141.277C1826.85 139.944 1825.89 138.25 1824.33 138.25H1798.16C1796.61 138.25 1795.65 139.944 1796.45 141.277L1809.53 163.134Z" fill="#137D67"/>
<path d="M1562.86 163.134C1563.64 164.431 1565.52 164.431 1566.3 163.134L1579.38 141.277C1580.18 139.944 1579.22 138.25 1577.67 138.25H1551.49C1549.94 138.25 1548.98 139.944 1549.78 141.277L1562.86 163.134Z" fill="#137D67"/>
<path d="M1931.49 163.134C1932.27 164.431 1934.14 164.431 1934.92 163.134L1948.01 141.277C1948.81 139.944 1947.84 138.25 1946.29 138.25H1920.12C1918.56 138.25 1917.6 139.944 1918.4 141.277L1931.49 163.134Z" fill="#137D67"/>
<path d="M1684.83 163.134C1685.61 164.431 1687.48 164.431 1688.26 163.134L1701.35 141.277C1702.14 139.944 1701.18 138.25 1699.63 138.25H1673.46C1671.9 138.25 1670.94 139.944 1671.74 141.277L1684.83 163.134Z" fill="#137D67"/>
<path d="M1830.76 163C1831.53 164.333 1833.45 164.333 1834.22 163L1846.78 141.25C1847.55 139.917 1846.59 138.25 1845.05 138.25H1819.93C1818.39 138.25 1817.43 139.917 1818.2 141.25L1830.76 163Z" fill="#137D67"/>
<path d="M1584.09 163C1584.86 164.333 1586.78 164.333 1587.55 163L1600.11 141.25C1600.88 139.917 1599.92 138.25 1598.38 138.25H1573.26C1571.72 138.25 1570.76 139.917 1571.53 141.25L1584.09 163Z" fill="#137D67"/>
<path d="M1706.75 163.134C1707.53 164.431 1709.41 164.431 1710.19 163.134L1723.27 141.277C1724.07 139.944 1723.11 138.25 1721.56 138.25H1695.38C1693.83 138.25 1692.87 139.944 1693.67 141.277L1706.75 163.134Z" fill="#137D67"/>
<path d="M1852.68 163C1853.45 164.333 1855.38 164.333 1856.15 163L1868.7 141.25C1869.47 139.917 1868.51 138.25 1866.97 138.25H1841.86C1840.32 138.25 1839.35 139.917 1840.12 141.25L1852.68 163Z" fill="#137D67"/>
<path d="M1606.01 163C1606.78 164.333 1608.71 164.333 1609.48 163L1622.04 141.25C1622.81 139.917 1621.84 138.25 1620.3 138.25H1595.19C1593.65 138.25 1592.69 139.917 1593.46 141.25L1606.01 163Z" fill="#137D67"/>
<path d="M1727.31 163.134C1728.09 164.431 1729.96 164.431 1730.74 163.134L1743.83 141.277C1744.63 139.944 1743.67 138.25 1742.11 138.25H1715.94C1714.38 138.25 1713.42 139.944 1714.22 141.277L1727.31 163.134Z" fill="#137D67"/>
<path d="M1239.5 3C1238.73 1.66666 1236.81 1.66667 1236.04 3L1223.48 24.75C1222.71 26.0833 1223.67 27.75 1225.21 27.75H1250.33C1251.87 27.75 1252.83 26.0833 1252.06 24.75L1239.5 3Z" fill="#137D67"/>
<path d="M1486.17 3C1485.4 1.66666 1483.47 1.66667 1482.7 3L1470.14 24.75C1469.37 26.0833 1470.34 27.75 1471.88 27.75H1496.99C1498.53 27.75 1499.49 26.0833 1498.72 24.75L1486.17 3Z" fill="#137D67"/>
<path d="M1117.54 3C1116.77 1.66666 1114.84 1.66667 1114.07 3L1101.52 24.75C1100.75 26.0833 1101.71 27.75 1103.25 27.75H1128.36C1129.9 27.75 1130.86 26.0833 1130.09 24.75L1117.54 3Z" fill="#137D67"/>
<path d="M1364.2 3C1363.43 1.66666 1361.51 1.66667 1360.74 3L1348.18 24.75C1347.41 26.0833 1348.38 27.75 1349.92 27.75H1375.03C1376.57 27.75 1377.53 26.0833 1376.76 24.75L1364.2 3Z" fill="#137D67"/>
<path d="M1218.24 2.86596C1217.47 1.56915 1215.59 1.56915 1214.81 2.86596L1201.72 24.7226C1200.93 26.0557 1201.89 27.75 1203.44 27.75H1229.61C1231.17 27.75 1232.13 26.0557 1231.33 24.7226L1218.24 2.86596Z" fill="#137D67"/>
<path d="M1464.91 2.86596C1464.13 1.56915 1462.25 1.56915 1461.48 2.86596L1448.39 24.7226C1447.59 26.0557 1448.55 27.75 1450.11 27.75H1476.28C1477.83 27.75 1478.79 26.0557 1478 24.7226L1464.91 2.86596Z" fill="#137D67"/>
<path d="M1095.62 3C1094.85 1.66666 1092.92 1.66667 1092.15 3L1079.6 24.75C1078.83 26.0833 1079.79 27.75 1081.33 27.75H1106.44C1107.98 27.75 1108.95 26.0833 1108.18 24.75L1095.62 3Z" fill="#137D67"/>
<path d="M1342.28 3C1341.51 1.66666 1339.58 1.66667 1338.81 3L1326.26 24.75C1325.49 26.0833 1326.45 27.75 1327.99 27.75H1353.1C1354.64 27.75 1355.61 26.0833 1354.84 24.75L1342.28 3Z" fill="#137D67"/>
<path d="M1196.32 2.86596C1195.54 1.56915 1193.66 1.56915 1192.88 2.86596L1179.8 24.7226C1179 26.0557 1179.96 27.75 1181.51 27.75H1207.69C1209.24 27.75 1210.2 26.0557 1209.4 24.7226L1196.32 2.86596Z" fill="#137D67"/>
<path d="M1442.98 2.86596C1442.21 1.56915 1440.33 1.56915 1439.55 2.86596L1426.47 24.7226C1425.67 26.0557 1426.63 27.75 1428.18 27.75H1454.35C1455.91 27.75 1456.87 26.0557 1456.07 24.7226L1442.98 2.86596Z" fill="#137D67"/>
<path d="M1074.36 2.86596C1073.58 1.56915 1071.7 1.56915 1070.93 2.86596L1057.84 24.7226C1057.04 26.0557 1058 27.75 1059.56 27.75H1085.73C1087.28 27.75 1088.24 26.0557 1087.45 24.7226L1074.36 2.86596Z" fill="#137D67"/>
<path d="M1321.02 2.86596C1320.24 1.56915 1318.36 1.56915 1317.59 2.86596L1304.5 24.7226C1303.7 26.0557 1304.66 27.75 1306.22 27.75H1332.39C1333.94 27.75 1334.9 26.0557 1334.11 24.7226L1321.02 2.86596Z" fill="#137D67"/>
<path d="M1179.87 2.86596C1179.1 1.56915 1177.22 1.56915 1176.44 2.86596L1163.36 24.7226C1162.56 26.0557 1163.52 27.75 1165.07 27.75H1191.24C1192.8 27.75 1193.76 26.0557 1192.96 24.7226L1179.87 2.86596Z" fill="#137D67"/>
<path d="M1426.54 2.86596C1425.76 1.56915 1423.88 1.56915 1423.11 2.86596L1410.02 24.7226C1409.22 26.0557 1410.18 27.75 1411.74 27.75H1437.91C1439.46 27.75 1440.42 26.0557 1439.62 24.7226L1426.54 2.86596Z" fill="#137D67"/>
<path d="M1057.92 2.86596C1057.14 1.56915 1055.26 1.56915 1054.49 2.86596L1041.4 24.7226C1040.6 26.0557 1041.56 27.75 1043.12 27.75H1069.29C1070.84 27.75 1071.8 26.0557 1071 24.7226L1057.92 2.86596Z" fill="#137D67"/>
<path d="M1304.58 2.86596C1303.8 1.56915 1301.92 1.56915 1301.15 2.86596L1288.06 24.7226C1287.26 26.0557 1288.22 27.75 1289.78 27.75H1315.95C1317.5 27.75 1318.46 26.0557 1317.66 24.7226L1304.58 2.86596Z" fill="#137D67"/>
<path d="M1158.65 3C1157.88 1.66666 1155.96 1.66667 1155.19 3L1142.63 24.75C1141.86 26.0833 1142.82 27.75 1144.36 27.75H1169.48C1171.01 27.75 1171.98 26.0833 1171.21 24.75L1158.65 3Z" fill="#137D67"/>
<path d="M1405.31 3C1404.54 1.66666 1402.62 1.66667 1401.85 3L1389.29 24.75C1388.52 26.0833 1389.49 27.75 1391.02 27.75H1416.14C1417.68 27.75 1418.64 26.0833 1417.87 24.75L1405.31 3Z" fill="#137D67"/>
<path d="M1035.99 2.86596C1035.22 1.56915 1033.34 1.56915 1032.56 2.86596L1019.47 24.7226C1018.68 26.0557 1019.64 27.75 1021.19 27.75H1047.36C1048.92 27.75 1049.88 26.0557 1049.08 24.7226L1035.99 2.86596Z" fill="#137D67"/>
<path d="M1282.65 2.86596C1281.88 1.56915 1280 1.56915 1279.22 2.86596L1266.13 24.7226C1265.34 26.0557 1266.3 27.75 1267.85 27.75H1294.02C1295.58 27.75 1296.54 26.0557 1295.74 24.7226L1282.65 2.86596Z" fill="#137D67"/>
<path d="M1136.72 3C1135.95 1.66666 1134.03 1.66667 1133.26 3L1120.7 24.75C1119.93 26.0833 1120.9 27.75 1122.43 27.75H1147.55C1149.09 27.75 1150.05 26.0833 1149.28 24.75L1136.72 3Z" fill="#137D67"/>
<path d="M1383.39 3C1382.62 1.66666 1380.69 1.66667 1379.92 3L1367.37 24.75C1366.6 26.0833 1367.56 27.75 1369.1 27.75H1394.21C1395.75 27.75 1396.72 26.0833 1395.95 24.75L1383.39 3Z" fill="#137D67"/>
<path d="M1012.9 2.86596C1012.13 1.56915 1010.25 1.56915 1009.47 2.86596L996.384 24.7226C995.585 26.0557 996.546 27.75 998.1 27.75H1024.27C1025.83 27.75 1026.79 26.0557 1025.99 24.7226L1012.9 2.86596Z" fill="#137D67"/>
<path d="M1262.09 2.86596C1261.32 1.56915 1259.44 1.56915 1258.66 2.86596L1245.58 24.7226C1244.78 26.0557 1245.74 27.75 1247.29 27.75H1273.46C1275.02 27.75 1275.98 26.0557 1275.18 24.7226L1262.09 2.86596Z" fill="#137D67"/>
<path d="M750.905 163C751.674 164.333 753.599 164.333 754.369 163L766.926 141.25C767.696 139.917 766.734 138.25 765.194 138.25H740.079C738.54 138.25 737.578 139.917 738.347 141.25L750.905 163Z" fill="#137D67"/>
<path d="M504.237 163C505.007 164.333 506.931 164.333 507.701 163L520.258 141.25C521.028 139.917 520.066 138.25 518.526 138.25H493.411C491.872 138.25 490.91 139.917 491.679 141.25L504.237 163Z" fill="#137D67"/>
<path d="M872.87 163C873.639 164.333 875.564 164.333 876.334 163L888.891 141.25C889.661 139.917 888.699 138.25 887.159 138.25H862.044C860.505 138.25 859.542 139.917 860.312 141.25L872.87 163Z" fill="#137D67"/>
<path d="M626.202 163C626.971 164.333 628.896 164.333 629.666 163L642.223 141.25C642.993 139.917 642.031 138.25 640.491 138.25H615.376C613.837 138.25 612.874 139.917 613.644 141.25L626.202 163Z" fill="#137D67"/>
<path d="M772.161 163.134C772.937 164.431 774.816 164.431 775.593 163.134L788.679 141.277C789.477 139.944 788.517 138.25 786.963 138.25H760.79C759.237 138.25 758.276 139.944 759.074 141.277L772.161 163.134Z" fill="#137D67"/>
<path d="M525.497 163.134C526.273 164.431 528.152 164.431 528.928 163.134L542.015 141.277C542.813 139.944 541.853 138.25 540.299 138.25H514.126C512.572 138.25 511.612 139.944 512.41 141.277L525.497 163.134Z" fill="#137D67"/>
<path d="M894.787 163C895.557 164.333 897.482 164.333 898.252 163L910.809 141.25C911.579 139.917 910.617 138.25 909.077 138.25H883.962C882.423 138.25 881.46 139.917 882.23 141.25L894.787 163Z" fill="#137D67"/>
<path d="M648.127 163C648.897 164.333 650.822 164.333 651.591 163L664.149 141.25C664.919 139.917 663.956 138.25 662.417 138.25H637.302C635.762 138.25 634.8 139.917 635.57 141.25L648.127 163Z" fill="#137D67"/>
<path d="M794.086 163.134C794.863 164.431 796.742 164.431 797.518 163.134L810.605 141.277C811.403 139.944 810.442 138.25 808.889 138.25H782.716C781.162 138.25 780.202 139.944 781 141.277L794.086 163.134Z" fill="#137D67"/>
<path d="M547.422 163.134C548.199 164.431 550.078 164.431 550.854 163.134L563.941 141.277C564.739 139.944 563.778 138.25 562.225 138.25H536.052C534.498 138.25 533.538 139.944 534.336 141.277L547.422 163.134Z" fill="#137D67"/>
<path d="M916.043 163.134C916.82 164.431 918.699 164.431 919.475 163.134L932.562 141.277C933.36 139.944 932.399 138.25 930.846 138.25H904.673C903.119 138.25 902.159 139.944 902.957 141.277L916.043 163.134Z" fill="#137D67"/>
<path d="M669.383 163.134C670.16 164.431 672.039 164.431 672.815 163.134L685.902 141.277C686.7 139.944 685.739 138.25 684.186 138.25H658.013C656.459 138.25 655.499 139.944 656.297 141.277L669.383 163.134Z" fill="#137D67"/>
<path d="M810.532 163.134C811.308 164.431 813.187 164.431 813.964 163.134L827.05 141.277C827.848 139.944 826.888 138.25 825.334 138.25H799.161C797.608 138.25 796.647 139.944 797.445 141.277L810.532 163.134Z" fill="#137D67"/>
<path d="M563.864 163.134C564.64 164.431 566.519 164.431 567.296 163.134L580.382 141.277C581.18 139.944 580.22 138.25 578.666 138.25H552.493C550.94 138.25 549.979 139.944 550.777 141.277L563.864 163.134Z" fill="#137D67"/>
<path d="M932.489 163.134C933.265 164.431 935.144 164.431 935.921 163.134L949.007 141.277C949.805 139.944 948.845 138.25 947.291 138.25H921.118C919.565 138.25 918.604 139.944 919.402 141.277L932.489 163.134Z" fill="#137D67"/>
<path d="M685.829 163.134C686.605 164.431 688.484 164.431 689.261 163.134L702.347 141.277C703.145 139.944 702.185 138.25 700.631 138.25H674.458C672.904 138.25 671.944 139.944 672.742 141.277L685.829 163.134Z" fill="#137D67"/>
<path d="M831.756 163C832.526 164.333 834.451 164.333 835.22 163L847.778 141.25C848.548 139.917 847.585 138.25 846.046 138.25H820.931C819.391 138.25 818.429 139.917 819.199 141.25L831.756 163Z" fill="#137D67"/>
<path d="M585.088 163C585.858 164.333 587.783 164.333 588.552 163L601.11 141.25C601.88 139.917 600.917 138.25 599.378 138.25H574.263C572.723 138.25 571.761 139.917 572.531 141.25L585.088 163Z" fill="#137D67"/>
<path d="M954.415 163.134C955.191 164.431 957.07 164.431 957.846 163.134L970.933 141.277C971.731 139.944 970.771 138.25 969.217 138.25H943.044C941.49 138.25 940.53 139.944 941.328 141.277L954.415 163.134Z" fill="#137D67"/>
<path d="M707.754 163.134C708.531 164.431 710.41 164.431 711.186 163.134L724.273 141.277C725.071 139.944 724.11 138.25 722.557 138.25H696.384C694.83 138.25 693.87 139.944 694.668 141.277L707.754 163.134Z" fill="#137D67"/>
<path d="M853.682 163C854.452 164.333 856.376 164.333 857.146 163L869.703 141.25C870.473 139.917 869.511 138.25 867.971 138.25H842.857C841.317 138.25 840.355 139.917 841.125 141.25L853.682 163Z" fill="#137D67"/>
<path d="M607.014 163C607.784 164.333 609.708 164.333 610.478 163L623.036 141.25C623.805 139.917 622.843 138.25 621.303 138.25H596.189C594.649 138.25 593.687 139.917 594.457 141.25L607.014 163Z" fill="#137D67"/>
<path d="M974.969 163.134C975.746 164.431 977.625 164.431 978.401 163.134L991.487 141.277C992.286 139.944 991.325 138.25 989.771 138.25H963.599C962.045 138.25 961.085 139.944 961.883 141.277L974.969 163.134Z" fill="#137D67"/>
<path d="M728.309 163.134C729.086 164.431 730.965 164.431 731.741 163.134L744.827 141.277C745.625 139.944 744.665 138.25 743.111 138.25H716.939C715.385 138.25 714.425 139.944 715.223 141.277L728.309 163.134Z" fill="#137D67"/>
<path d="M739.498 3C738.728 1.66666 736.803 1.66667 736.034 3L723.476 24.75C722.706 26.0833 723.669 27.75 725.208 27.75H750.323C751.863 27.75 752.825 26.0833 752.055 24.75L739.498 3Z" fill="#137D67"/>
<path d="M986.166 3C985.396 1.66666 983.471 1.66667 982.702 3L970.144 24.75C969.374 26.0833 970.337 27.75 971.876 27.75H996.991C998.531 27.75 999.493 26.0833 998.723 24.75L986.166 3Z" fill="#137D67"/>
<path d="M617.537 3C616.767 1.66666 614.842 1.66667 614.073 3L601.515 24.75C600.745 26.0833 601.708 27.75 603.247 27.75H628.362C629.902 27.75 630.864 26.0833 630.094 24.75L617.537 3Z" fill="#137D67"/>
<path d="M864.201 3C863.431 1.66666 861.507 1.66667 860.737 3L848.179 24.75C847.41 26.0833 848.372 27.75 849.911 27.75H875.026C876.566 27.75 877.528 26.0833 876.758 24.75L864.201 3Z" fill="#137D67"/>
<path d="M718.242 2.86596C717.465 1.56915 715.586 1.56915 714.81 2.86596L701.723 24.7226C700.925 26.0557 701.886 27.75 703.439 27.75H729.612C731.166 27.75 732.126 26.0557 731.328 24.7226L718.242 2.86596Z" fill="#137D67"/>
<path d="M964.91 2.86596C964.133 1.56915 962.254 1.56915 961.478 2.86596L948.391 24.7226C947.593 26.0557 948.554 27.75 950.107 27.75H976.28C977.834 27.75 978.794 26.0557 977.996 24.7226L964.91 2.86596Z" fill="#137D67"/>
<path d="M595.615 3C594.845 1.66666 592.921 1.66667 592.151 3L579.593 24.75C578.824 26.0833 579.786 27.75 581.325 27.75H606.44C607.98 27.75 608.942 26.0833 608.172 24.75L595.615 3Z" fill="#137D67"/>
<path d="M842.275 3C841.505 1.66666 839.581 1.66667 838.811 3L826.254 24.75C825.484 26.0833 826.446 27.75 827.986 27.75H853.1C854.64 27.75 855.602 26.0833 854.832 24.75L842.275 3Z" fill="#137D67"/>
<path d="M696.316 2.86596C695.539 1.56915 693.66 1.56915 692.884 2.86596L679.798 24.7226C679 26.0557 679.96 27.75 681.514 27.75H707.686C709.24 27.75 710.2 26.0557 709.402 24.7226L696.316 2.86596Z" fill="#137D67"/>
<path d="M942.984 2.86596C942.207 1.56915 940.328 1.56915 939.552 2.86596L926.466 24.7226C925.668 26.0557 926.628 27.75 928.182 27.75H954.354C955.908 27.75 956.868 26.0557 956.07 24.7226L942.984 2.86596Z" fill="#137D67"/>
<path d="M574.359 2.86596C573.582 1.56915 571.703 1.56915 570.927 2.86596L557.841 24.7226C557.043 26.0557 558.003 27.75 559.557 27.75H585.729C587.283 27.75 588.243 26.0557 587.445 24.7226L574.359 2.86596Z" fill="#137D67"/>
<path d="M821.019 2.86596C820.243 1.56915 818.364 1.56915 817.587 2.86596L804.501 24.7226C803.703 26.0557 804.663 27.75 806.217 27.75H832.389C833.943 27.75 834.904 26.0557 834.105 24.7226L821.019 2.86596Z" fill="#137D67"/>
<path d="M679.871 2.86596C679.094 1.56915 677.215 1.56915 676.439 2.86596L663.352 24.7226C662.554 26.0557 663.515 27.75 665.068 27.75H691.241C692.795 27.75 693.755 26.0557 692.957 24.7226L679.871 2.86596Z" fill="#137D67"/>
<path d="M926.539 2.86596C925.762 1.56915 923.883 1.56915 923.107 2.86596L910.02 24.7226C909.222 26.0557 910.183 27.75 911.736 27.75H937.909C939.463 27.75 940.423 26.0557 939.625 24.7226L926.539 2.86596Z" fill="#137D67"/>
<path d="M557.914 2.86596C557.137 1.56915 555.258 1.56915 554.482 2.86596L541.395 24.7226C540.597 26.0557 541.558 27.75 543.111 27.75H569.284C570.838 27.75 571.798 26.0557 571 24.7226L557.914 2.86596Z" fill="#137D67"/>
<path d="M804.574 2.86596C803.797 1.56915 801.918 1.56915 801.142 2.86596L788.056 24.7226C787.257 26.0557 788.218 27.75 789.771 27.75H815.944C817.498 27.75 818.458 26.0557 817.66 24.7226L804.574 2.86596Z" fill="#137D67"/>
<path d="M658.646 3C657.876 1.66666 655.952 1.66667 655.182 3L642.625 24.75C641.855 26.0833 642.817 27.75 644.357 27.75H669.471C671.011 27.75 671.973 26.0833 671.203 24.75L658.646 3Z" fill="#137D67"/>
<path d="M905.314 3C904.544 1.66666 902.62 1.66667 901.85 3L889.293 24.75C888.523 26.0833 889.485 27.75 891.025 27.75H916.139C917.679 27.75 918.641 26.0833 917.871 24.75L905.314 3Z" fill="#137D67"/>
<path d="M535.988 2.86596C535.211 1.56915 533.332 1.56915 532.556 2.86596L519.47 24.7226C518.671 26.0557 519.632 27.75 521.186 27.75H547.358C548.912 27.75 549.872 26.0557 549.074 24.7226L535.988 2.86596Z" fill="#137D67"/>
<path d="M782.648 2.86596C781.872 1.56915 779.993 1.56915 779.216 2.86596L766.13 24.7226C765.332 26.0557 766.292 27.75 767.846 27.75H794.018C795.572 27.75 796.532 26.0557 795.734 24.7226L782.648 2.86596Z" fill="#137D67"/>
<path d="M636.72 3C635.951 1.66666 634.026 1.66667 633.256 3L620.699 24.75C619.929 26.0833 620.891 27.75 622.431 27.75H647.546C649.085 27.75 650.047 26.0833 649.278 24.75L636.72 3Z" fill="#137D67"/>
<path d="M883.388 3C882.618 1.66666 880.694 1.66667 879.924 3L867.367 24.75C866.597 26.0833 867.559 27.75 869.099 27.75H894.214C895.753 27.75 896.715 26.0833 895.946 24.75L883.388 3Z" fill="#137D67"/>
<path d="M515.433 2.86596C514.657 1.56915 512.778 1.56915 512.001 2.86596L498.915 24.7226C498.117 26.0557 499.077 27.75 500.631 27.75H526.803C528.357 27.75 529.318 26.0557 528.519 24.7226L515.433 2.86596Z" fill="#137D67"/>
<path d="M762.093 2.86596C761.317 1.56915 759.438 1.56915 758.661 2.86596L745.575 24.7226C744.777 26.0557 745.737 27.75 747.291 27.75H773.464C775.017 27.75 775.978 26.0557 775.18 24.7226L762.093 2.86596Z" fill="#137D67"/>
<path d="M1250.9 163C1251.67 164.333 1253.6 164.333 1254.37 163L1266.93 141.25C1267.7 139.917 1266.73 138.25 1265.19 138.25H1240.08C1238.54 138.25 1237.58 139.917 1238.35 141.25L1250.9 163Z" fill="#137D67"/>
<path d="M998.768 163C999.538 164.333 1001.46 164.333 1002.23 163L1014.79 141.25C1015.56 139.917 1014.6 138.25 1013.06 138.25H987.943C986.403 138.25 985.441 139.917 986.211 141.25L998.768 163Z" fill="#137D67"/>
<path d="M1372.87 163C1373.64 164.333 1375.56 164.333 1376.33 163L1388.89 141.25C1389.66 139.917 1388.69 138.25 1387.16 138.25H1362.04C1360.5 138.25 1359.54 139.917 1360.31 141.25L1372.87 163Z" fill="#137D67"/>
<path d="M1126.2 163C1126.97 164.333 1128.9 164.333 1129.67 163L1142.22 141.25C1142.99 139.917 1142.03 138.25 1140.49 138.25H1115.38C1113.84 138.25 1112.87 139.917 1113.64 141.25L1126.2 163Z" fill="#137D67"/>
<path d="M1272.16 163.134C1272.94 164.431 1274.82 164.431 1275.59 163.134L1288.68 141.277C1289.48 139.944 1288.52 138.25 1286.96 138.25H1260.79C1259.24 138.25 1258.28 139.944 1259.07 141.277L1272.16 163.134Z" fill="#137D67"/>
<path d="M1025.49 163.134C1026.27 164.431 1028.15 164.431 1028.92 163.134L1042.01 141.277C1042.81 139.944 1041.85 138.25 1040.29 138.25H1014.12C1012.57 138.25 1011.61 139.944 1012.41 141.277L1025.49 163.134Z" fill="#137D67"/>
<path d="M1394.79 163C1395.56 164.333 1397.48 164.333 1398.25 163L1410.81 141.25C1411.58 139.917 1410.62 138.25 1409.08 138.25H1383.96C1382.42 138.25 1381.46 139.917 1382.23 141.25L1394.79 163Z" fill="#137D67"/>
<path d="M1148.13 163C1148.9 164.333 1150.82 164.333 1151.59 163L1164.15 141.25C1164.92 139.917 1163.96 138.25 1162.42 138.25H1137.3C1135.76 138.25 1134.8 139.917 1135.57 141.25L1148.13 163Z" fill="#137D67"/>
<path d="M1294.09 163.134C1294.86 164.431 1296.74 164.431 1297.52 163.134L1310.6 141.277C1311.4 139.944 1310.44 138.25 1308.89 138.25H1282.72C1281.16 138.25 1280.2 139.944 1281 141.277L1294.09 163.134Z" fill="#137D67"/>
<path d="M1047.42 163.134C1048.19 164.431 1050.07 164.431 1050.85 163.134L1063.94 141.277C1064.73 139.944 1063.77 138.25 1062.22 138.25H1036.05C1034.49 138.25 1033.53 139.944 1034.33 141.277L1047.42 163.134Z" fill="#137D67"/>
<path d="M1416.04 163.134C1416.82 164.431 1418.7 164.431 1419.48 163.134L1432.56 141.277C1433.36 139.944 1432.4 138.25 1430.85 138.25H1404.67C1403.12 138.25 1402.16 139.944 1402.96 141.277L1416.04 163.134Z" fill="#137D67"/>
<path d="M1169.38 163.134C1170.16 164.431 1172.04 164.431 1172.82 163.134L1185.9 141.277C1186.7 139.944 1185.74 138.25 1184.19 138.25H1158.01C1156.46 138.25 1155.5 139.944 1156.3 141.277L1169.38 163.134Z" fill="#137D67"/>
<path d="M1310.53 163.134C1311.31 164.431 1313.19 164.431 1313.96 163.134L1327.05 141.277C1327.85 139.944 1326.89 138.25 1325.33 138.25H1299.16C1297.61 138.25 1296.65 139.944 1297.45 141.277L1310.53 163.134Z" fill="#137D67"/>
<path d="M1063.86 163.134C1064.64 164.431 1066.52 164.431 1067.3 163.134L1080.38 141.277C1081.18 139.944 1080.22 138.25 1078.67 138.25H1052.49C1050.94 138.25 1049.98 139.944 1050.78 141.277L1063.86 163.134Z" fill="#137D67"/>
<path d="M1432.49 163.134C1433.27 164.431 1435.14 164.431 1435.92 163.134L1449.01 141.277C1449.81 139.944 1448.84 138.25 1447.29 138.25H1421.12C1419.56 138.25 1418.6 139.944 1419.4 141.277L1432.49 163.134Z" fill="#137D67"/>
<path d="M1185.83 163.134C1186.61 164.431 1188.48 164.431 1189.26 163.134L1202.35 141.277C1203.14 139.944 1202.18 138.25 1200.63 138.25H1174.46C1172.9 138.25 1171.94 139.944 1172.74 141.277L1185.83 163.134Z" fill="#137D67"/>
<path d="M1331.76 163C1332.53 164.333 1334.45 164.333 1335.22 163L1347.78 141.25C1348.55 139.917 1347.59 138.25 1346.05 138.25H1320.93C1319.39 138.25 1318.43 139.917 1319.2 141.25L1331.76 163Z" fill="#137D67"/>
<path d="M1085.09 163C1085.86 164.333 1087.78 164.333 1088.55 163L1101.11 141.25C1101.88 139.917 1100.92 138.25 1099.38 138.25H1074.26C1072.72 138.25 1071.76 139.917 1072.53 141.25L1085.09 163Z" fill="#137D67"/>
<path d="M1454.41 163.134C1455.19 164.431 1457.07 164.431 1457.85 163.134L1470.93 141.277C1471.73 139.944 1470.77 138.25 1469.22 138.25H1443.04C1441.49 138.25 1440.53 139.944 1441.33 141.277L1454.41 163.134Z" fill="#137D67"/>
<path d="M1207.75 163.134C1208.53 164.431 1210.41 164.431 1211.19 163.134L1224.27 141.277C1225.07 139.944 1224.11 138.25 1222.56 138.25H1196.38C1194.83 138.25 1193.87 139.944 1194.67 141.277L1207.75 163.134Z" fill="#137D67"/>
<path d="M1353.68 163C1354.45 164.333 1356.38 164.333 1357.15 163L1369.7 141.25C1370.47 139.917 1369.51 138.25 1367.97 138.25H1342.86C1341.32 138.25 1340.35 139.917 1341.12 141.25L1353.68 163Z" fill="#137D67"/>
<path d="M1107.01 163C1107.78 164.333 1109.71 164.333 1110.48 163L1123.04 141.25C1123.81 139.917 1122.84 138.25 1121.3 138.25H1096.19C1094.65 138.25 1093.69 139.917 1094.46 141.25L1107.01 163Z" fill="#137D67"/>
<path d="M1474.97 163.134C1475.75 164.431 1477.62 164.431 1478.4 163.134L1491.49 141.277C1492.29 139.944 1491.33 138.25 1489.77 138.25H1463.6C1462.05 138.25 1461.08 139.944 1461.88 141.277L1474.97 163.134Z" fill="#137D67"/>
<path d="M1228.31 163.134C1229.09 164.431 1230.96 164.431 1231.74 163.134L1244.83 141.277C1245.63 139.944 1244.67 138.25 1243.11 138.25H1216.94C1215.38 138.25 1214.42 139.944 1215.22 141.277L1228.31 163.134Z" fill="#137D67"/>
<path d="M1738.5 3C1737.73 1.66666 1735.8 1.66667 1735.03 3L1722.48 24.75C1721.71 26.0833 1722.67 27.75 1724.21 27.75H1749.32C1750.86 27.75 1751.82 26.0833 1751.06 24.75L1738.5 3Z" fill="#137D67"/>
<path d="M1616.53 3C1615.76 1.66666 1613.84 1.66667 1613.07 3L1600.51 24.75C1599.74 26.0833 1600.7 27.75 1602.24 27.75H1627.36C1628.9 27.75 1629.86 26.0833 1629.09 24.75L1616.53 3Z" fill="#137D67"/>
<path d="M1863.2 3C1862.43 1.66666 1860.51 1.66667 1859.74 3L1847.18 24.75C1846.41 26.0833 1847.37 27.75 1848.91 27.75H1874.03C1875.57 27.75 1876.53 26.0833 1875.76 24.75L1863.2 3Z" fill="#137D67"/>
<path d="M1717.24 2.86596C1716.47 1.56915 1714.59 1.56915 1713.81 2.86596L1700.72 24.7226C1699.93 26.0557 1700.89 27.75 1702.44 27.75H1728.61C1730.17 27.75 1731.13 26.0557 1730.33 24.7226L1717.24 2.86596Z" fill="#137D67"/>
<path d="M1594.61 3C1593.85 1.66666 1591.92 1.66667 1591.15 3L1578.59 24.75C1577.82 26.0833 1578.79 27.75 1580.33 27.75H1605.44C1606.98 27.75 1607.94 26.0833 1607.17 24.75L1594.61 3Z" fill="#137D67"/>
<path d="M1841.28 3C1840.51 1.66666 1838.58 1.66667 1837.81 3L1825.25 24.75C1824.48 26.0833 1825.45 27.75 1826.99 27.75H1852.1C1853.64 27.75 1854.6 26.0833 1853.83 24.75L1841.28 3Z" fill="#137D67"/>
<path d="M1695.31 2.86596C1694.54 1.56915 1692.66 1.56915 1691.88 2.86596L1678.79 24.7226C1678 26.0557 1678.96 27.75 1680.51 27.75H1706.68C1708.24 27.75 1709.2 26.0557 1708.4 24.7226L1695.31 2.86596Z" fill="#137D67"/>
<path d="M1573.36 2.86596C1572.58 1.56915 1570.7 1.56915 1569.93 2.86596L1556.84 24.7226C1556.04 26.0557 1557 27.75 1558.56 27.75H1584.73C1586.28 27.75 1587.24 26.0557 1586.45 24.7226L1573.36 2.86596Z" fill="#137D67"/>
<path d="M1820.02 2.86596C1819.24 1.56915 1817.36 1.56915 1816.59 2.86596L1803.5 24.7226C1802.7 26.0557 1803.66 27.75 1805.22 27.75H1831.39C1832.94 27.75 1833.9 26.0557 1833.11 24.7226L1820.02 2.86596Z" fill="#137D67"/>
<path d="M1678.87 2.86596C1678.09 1.56915 1676.22 1.56915 1675.44 2.86596L1662.35 24.7226C1661.55 26.0557 1662.51 27.75 1664.07 27.75H1690.24C1691.79 27.75 1692.76 26.0557 1691.96 24.7226L1678.87 2.86596Z" fill="#137D67"/>
<path d="M1925.53 2.86596C1924.76 1.56915 1922.88 1.56915 1922.1 2.86596L1909.02 24.7226C1908.22 26.0557 1909.18 27.75 1910.73 27.75H1936.91C1938.46 27.75 1939.42 26.0557 1938.62 24.7226L1925.53 2.86596Z" fill="#137D67"/>
<path d="M1556.91 2.86596C1556.14 1.56915 1554.26 1.56915 1553.48 2.86596L1540.4 24.7226C1539.6 26.0557 1540.56 27.75 1542.11 27.75H1568.28C1569.84 27.75 1570.8 26.0557 1570 24.7226L1556.91 2.86596Z" fill="#137D67"/>
<path d="M1803.57 2.86596C1802.8 1.56915 1800.92 1.56915 1800.14 2.86596L1787.06 24.7226C1786.26 26.0557 1787.22 27.75 1788.77 27.75H1814.94C1816.5 27.75 1817.46 26.0557 1816.66 24.7226L1803.57 2.86596Z" fill="#137D67"/>
<path d="M1657.65 3C1656.88 1.66666 1654.95 1.66667 1654.18 3L1641.62 24.75C1640.85 26.0833 1641.82 27.75 1643.36 27.75H1668.47C1670.01 27.75 1670.97 26.0833 1670.2 24.75L1657.65 3Z" fill="#137D67"/>
<path d="M1904.31 3C1903.54 1.66666 1901.62 1.66667 1900.85 3L1888.29 24.75C1887.52 26.0833 1888.48 27.75 1890.02 27.75H1915.14C1916.68 27.75 1917.64 26.0833 1916.87 24.75L1904.31 3Z" fill="#137D67"/>
<path d="M1534.99 2.86596C1534.21 1.56915 1532.33 1.56915 1531.56 2.86596L1518.47 24.7226C1517.67 26.0557 1518.63 27.75 1520.19 27.75H1546.36C1547.91 27.75 1548.87 26.0557 1548.07 24.7226L1534.99 2.86596Z" fill="#137D67"/>
<path d="M1781.65 2.86596C1780.87 1.56915 1778.99 1.56915 1778.22 2.86596L1765.13 24.7226C1764.33 26.0557 1765.29 27.75 1766.85 27.75H1793.02C1794.57 27.75 1795.53 26.0557 1794.73 24.7226L1781.65 2.86596Z" fill="#137D67"/>
<path d="M1635.72 3C1634.95 1.66666 1633.03 1.66667 1632.26 3L1619.7 24.75C1618.93 26.0833 1619.89 27.75 1621.43 27.75H1646.55C1648.09 27.75 1649.05 26.0833 1648.28 24.75L1635.72 3Z" fill="#137D67"/>
<path d="M1882.38 3C1881.61 1.66666 1879.69 1.66667 1878.92 3L1866.36 24.75C1865.59 26.0833 1866.56 27.75 1868.09 27.75H1893.21C1894.75 27.75 1895.71 26.0833 1894.94 24.75L1882.38 3Z" fill="#137D67"/>
<path d="M1514.43 2.86596C1513.66 1.56915 1511.78 1.56915 1511 2.86596L1497.91 24.7226C1497.12 26.0557 1498.08 27.75 1499.63 27.75H1525.8C1527.36 27.75 1528.32 26.0557 1527.52 24.7226L1514.43 2.86596Z" fill="#137D67"/>
<path d="M1761.09 2.86596C1760.32 1.56915 1758.44 1.56915 1757.66 2.86596L1744.58 24.7226C1743.78 26.0557 1744.74 27.75 1746.29 27.75H1772.46C1774.02 27.75 1774.98 26.0557 1774.18 24.7226L1761.09 2.86596Z" fill="#137D67"/>
<path d="M251.905 163C252.674 164.333 254.599 164.333 255.369 163L267.926 141.25C268.696 139.917 267.734 138.25 266.194 138.25H241.079C239.54 138.25 238.578 139.917 239.347 141.25L251.905 163Z" fill="#137D67"/>
<path d="M5.2367 163C6.0065 164.333 7.931 164.333 8.7008 163L21.2582 141.25C22.028 139.917 21.0657 138.25 19.5261 138.25H-5.58862C-7.12822 138.25 -8.09047 139.917 -7.32067 141.25L5.2367 163Z" fill="#137D67"/>
<path d="M373.87 163C374.639 164.333 376.564 164.333 377.334 163L389.891 141.25C390.661 139.917 389.699 138.25 388.159 138.25H363.044C361.505 138.25 360.542 139.917 361.312 141.25L373.87 163Z" fill="#137D67"/>
<path d="M127.202 163C127.971 164.333 129.896 164.333 130.666 163L143.223 141.25C143.993 139.917 143.031 138.25 141.491 138.25H116.376C114.837 138.25 113.874 139.917 114.644 141.25L127.202 163Z" fill="#137D67"/>
<path d="M273.161 163.134C273.937 164.431 275.816 164.431 276.593 163.134L289.679 141.277C290.477 139.944 289.517 138.25 287.963 138.25H261.79C260.237 138.25 259.276 139.944 260.074 141.277L273.161 163.134Z" fill="#137D67"/>
<path d="M26.4966 163.134C27.273 164.431 29.152 164.431 29.9285 163.134L43.0148 141.277C43.8129 139.944 42.8526 138.25 41.2988 138.25H15.1262C13.5725 138.25 12.6121 139.944 13.4103 141.277L26.4966 163.134Z" fill="#137D67"/>
<path d="M395.787 163C396.557 164.333 398.482 164.333 399.252 163L411.809 141.25C412.579 139.917 411.617 138.25 410.077 138.25H384.962C383.423 138.25 382.46 139.917 383.23 141.25L395.787 163Z" fill="#137D67"/>
<path d="M149.127 163C149.897 164.333 151.822 164.333 152.591 163L165.149 141.25C165.919 139.917 164.956 138.25 163.417 138.25H138.302C136.762 138.25 135.8 139.917 136.57 141.25L149.127 163Z" fill="#137D67"/>
<path d="M295.086 163.134C295.863 164.431 297.742 164.431 298.518 163.134L311.605 141.277C312.403 139.944 311.442 138.25 309.889 138.25H283.716C282.162 138.25 281.202 139.944 282 141.277L295.086 163.134Z" fill="#137D67"/>
<path d="M48.4224 163.134C49.1988 164.431 51.0778 164.431 51.8543 163.134L64.9406 141.277C65.7387 139.944 64.7784 138.25 63.2246 138.25H37.052C35.4982 138.25 34.5379 139.944 35.3361 141.277L48.4224 163.134Z" fill="#137D67"/>
<path d="M417.043 163.134C417.82 164.431 419.699 164.431 420.475 163.134L433.562 141.277C434.36 139.944 433.399 138.25 431.846 138.25H405.673C404.119 138.25 403.159 139.944 403.957 141.277L417.043 163.134Z" fill="#137D67"/>
<path d="M170.383 163.134C171.16 164.431 173.039 164.431 173.815 163.134L186.902 141.277C187.7 139.944 186.739 138.25 185.186 138.25H159.013C157.459 138.25 156.499 139.944 157.297 141.277L170.383 163.134Z" fill="#137D67"/>
<path d="M311.532 163.134C312.308 164.431 314.187 164.431 314.964 163.134L328.05 141.277C328.848 139.944 327.888 138.25 326.334 138.25H300.161C298.608 138.25 297.647 139.944 298.445 141.277L311.532 163.134Z" fill="#137D67"/>
<path d="M64.8677 163.134C65.6441 164.431 67.5231 164.431 68.2996 163.134L81.3859 141.277C82.184 139.944 81.2237 138.25 79.6699 138.25H53.4973C51.9436 138.25 50.9832 139.944 51.7814 141.277L64.8677 163.134Z" fill="#137D67"/>
<path d="M433.489 163.134C434.265 164.431 436.144 164.431 436.921 163.134L450.007 141.277C450.805 139.944 449.845 138.25 448.291 138.25H422.118C420.565 138.25 419.604 139.944 420.402 141.277L433.489 163.134Z" fill="#137D67"/>
<path d="M186.829 163.134C187.605 164.431 189.484 164.431 190.261 163.134L203.347 141.277C204.145 139.944 203.185 138.25 201.631 138.25H175.458C173.904 138.25 172.944 139.944 173.742 141.277L186.829 163.134Z" fill="#137D67"/>
<path d="M332.756 163C333.526 164.333 335.451 164.333 336.22 163L348.778 141.25C349.548 139.917 348.585 138.25 347.046 138.25H321.931C320.391 138.25 319.429 139.917 320.199 141.25L332.756 163Z" fill="#137D67"/>
<path d="M86.0922 163C86.862 164.333 88.7865 164.333 89.5563 163L102.114 141.25C102.883 139.917 101.921 138.25 100.382 138.25H75.2668C73.7272 138.25 72.765 139.917 73.5348 141.25L86.0922 163Z" fill="#137D67"/>
<path d="M455.415 163.134C456.191 164.431 458.07 164.431 458.846 163.134L471.933 141.277C472.731 139.944 471.771 138.25 470.217 138.25H444.044C442.49 138.25 441.53 139.944 442.328 141.277L455.415 163.134Z" fill="#137D67"/>
<path d="M208.754 163.134C209.531 164.431 211.41 164.431 212.186 163.134L225.273 141.277C226.071 139.944 225.11 138.25 223.557 138.25H197.384C195.83 138.25 194.87 139.944 195.668 141.277L208.754 163.134Z" fill="#137D67"/>
<path d="M354.682 163C355.452 164.333 357.376 164.333 358.146 163L370.703 141.25C371.473 139.917 370.511 138.25 368.971 138.25H343.857C342.317 138.25 341.355 139.917 342.125 141.25L354.682 163Z" fill="#137D67"/>
<path d="M108.018 163C108.788 164.333 110.712 164.333 111.482 163L124.039 141.25C124.809 139.917 123.847 138.25 122.307 138.25H97.1926C95.653 138.25 94.6908 139.917 95.4606 141.25L108.018 163Z" fill="#137D67"/>
<path d="M475.969 163.134C476.746 164.431 478.625 164.431 479.401 163.134L492.487 141.277C493.286 139.944 492.325 138.25 490.771 138.25H464.599C463.045 138.25 462.085 139.944 462.883 141.277L475.969 163.134Z" fill="#137D67"/>
<path d="M229.309 163.134C230.086 164.431 231.965 164.431 232.741 163.134L245.827 141.277C246.625 139.944 245.665 138.25 244.111 138.25H217.939C216.385 138.25 215.425 139.944 216.223 141.277L229.309 163.134Z" fill="#137D67"/>
</svg>
