<svg width="106" height="110" viewBox="0 0 106 110" fill="none" xmlns="http://www.w3.org/2000/svg">
<path fill-rule="evenodd" clip-rule="evenodd" d="M45.6337 3.58566C37.7976 16.0843 37.1091 24.5987 43.6587 28.0083C48.0047 30.2717 52.1984 29.6516 55.5804 26.2464C59.7784 22.0195 59.6526 18.3806 54.992 9.20424C49.4109 -1.78312 49.1123 -1.96243 45.6337 3.58566ZM44.8248 11.6353C43.1377 15.1788 41.7582 18.8222 41.7582 19.733C41.7582 21.9999 46.5073 26.6033 48.8465 26.6033C49.8964 26.6033 51.9609 25.3891 53.4353 23.9046C55.5786 21.7466 56.003 20.7188 55.552 18.7749C54.7537 15.3322 49.6235 5.19237 48.679 5.19237C48.2458 5.19237 46.5109 8.09176 44.8248 11.6353ZM74.9829 22.3612C61.9988 31.4377 52.8275 46.8392 47.031 69.2984C43.7916 81.8523 43.7048 85.3422 46.5561 88.4397C50.4396 92.6585 55.957 92.679 60.1187 88.4888C62.324 86.2683 62.3595 86.0363 61.593 78.9341C60.3659 67.5587 60.8567 57.095 62.9841 49.2899C65.2187 41.0859 70.6696 30.1361 75.1299 24.8895C78.7972 20.5761 78.7476 19.7295 74.9829 22.3612ZM88.8937 28.8407L86.854 30.8899L89.1834 33.2353L91.5119 35.5798L93.6437 33.5448C96.0644 31.2351 96.4463 29.2796 94.4775 29.2796C93.7465 29.2796 93.1484 28.6774 93.1484 27.9414C93.1484 26.0466 91.2815 26.4418 88.8937 28.8407ZM30.4373 28.6105C28.2869 31.2592 24.0374 40.8549 24.0374 43.0638C24.0374 44.5393 25.0422 46.4868 26.6273 48.0828C30.7367 52.2205 36.0149 51.3748 38.6987 46.1487C40.3387 42.9558 39.5723 39.7665 35.3406 32.179C32.6045 27.2723 31.9249 26.7781 30.4373 28.6105ZM29.3714 37.273C26.194 43.5455 27.5319 47.5529 32.6063 46.9632C36.3746 46.5252 37.1313 43.227 34.6716 37.9591C33.5889 35.6386 32.3555 33.7402 31.932 33.7402C31.5085 33.7402 30.3566 35.33 29.3714 37.273ZM78.9718 40.7808C78.9718 41.8487 78.1363 42.6793 76.6938 43.0433C74.0569 43.7097 74.2492 45.6536 76.9933 46.0613C78.1292 46.2308 78.9709 47.106 79.1393 48.2916C79.2908 49.3657 80.0129 50.2444 80.7439 50.2444C81.4749 50.2444 82.197 49.3657 82.3485 48.2916C82.5168 47.106 83.3586 46.2308 84.4945 46.0613C87.2385 45.6536 87.4308 43.7097 84.794 43.0433C83.3515 42.6793 82.516 41.8487 82.516 40.7808C82.516 39.688 81.8913 39.0929 80.7439 39.0929C79.5965 39.0929 78.9718 39.688 78.9718 40.7808ZM58.1676 47.4155C56.0234 50.711 51.1431 65.059 48.7907 74.9838L46.7342 83.6651L48.8305 85.9123C53.0499 90.4345 60.2498 87.412 59.0962 81.6034C57.6528 74.3335 57.5713 59.0416 58.9411 52.5354C59.7084 48.8884 60.1763 45.7419 59.9787 45.5439C59.782 45.3449 58.9668 46.188 58.1676 47.4155ZM1.10851 64.8788C-2.22742 67.0056 1.58963 67.6408 17.7182 67.6408C30.3283 67.6408 34.7283 67.9334 35.9794 68.8541C37.787 70.1851 37.9916 72.9275 36.8938 81.0931C35.6995 89.9822 40.6905 97.3466 49.511 99.7089C56.8837 101.684 65.3215 97.467 68.5077 90.215C69.9829 86.8562 70.1486 85.1397 69.6356 78.5211C68.7788 67.4686 68.3092 67.747 88.3213 67.4392C101.758 67.2322 104.224 66.9869 104.224 65.8566C104.224 64.7146 101.789 64.5184 87.6293 64.5184H71.0347L68.5795 67.0003C66.1792 69.4259 66.1296 69.6838 66.3794 78.5024C66.6151 86.8107 66.4636 87.784 64.4647 90.8243C59.059 99.0497 47.5573 99.0095 41.8964 90.7449C39.9462 87.8973 39.8559 87.1889 40.4123 79.0813C41.3914 64.8226 40.2422 64.0661 17.642 64.0857C9.22019 64.0937 1.78013 64.4497 1.10851 64.8788ZM81.3685 78.5693C80.5507 79.183 79.6443 80.9039 79.3537 82.3938C78.2461 88.0757 85.2219 91.7066 89.5927 87.7242C91.8575 85.6598 91.9461 80.9254 89.7558 78.9306C87.8402 77.1847 83.4649 76.9965 81.3685 78.5693ZM11.8101 80.3089C10.3898 81.739 10.4686 83.2484 12.0334 84.5554C13.9587 86.1648 16.9491 84.8516 16.9491 82.3965C16.9491 79.5443 13.8285 78.2766 11.8101 80.3089ZM83.6049 81.1752C81.9197 82.872 82.3166 85.2994 84.3873 85.9605C87.0002 86.7955 89.4997 84.2548 88.1653 82.1208C86.9408 80.1635 85.0084 79.762 83.6049 81.1752ZM100.511 97.6482C99.8354 99.4217 101.245 101.886 103.152 102.264C105.152 102.661 106.882 99.1389 105.506 97.4697C104.083 95.7435 101.197 95.8461 100.511 97.6482ZM22.8457 98.7124C20.8424 100.941 20.9841 105.366 23.1221 107.313C28.5996 112.305 36.4995 104.351 31.5422 98.8356C29.5282 96.5954 24.8092 96.5285 22.8457 98.7124ZM24.9642 101.045C22.571 103.949 26.5316 107.442 29.1862 104.769C30.3141 103.632 30.4302 102.936 29.6868 101.747C28.3932 99.6795 26.342 99.3744 24.9642 101.045ZM64.2999 105.503C62.923 106.534 62.7759 107.111 63.5627 108.403C64.8563 110.528 68.6592 110.534 69.065 108.412C69.3645 106.845 67.8387 104.218 66.6284 104.218C66.2935 104.218 65.2462 104.797 64.2999 105.503Z" fill="white"/>
</svg>
