<svg width="21" height="25" viewBox="0 0 21 25" fill="none" xmlns="http://www.w3.org/2000/svg">
<path d="M10.1064 0.594238C11.4441 0.594327 12.5833 1.0559 13.5352 1.98291C14.4869 2.9098 14.9589 4.01695 14.959 5.31494V5.51514H17.6855C18.3284 5.51514 18.873 5.73607 19.3301 6.18115C19.7871 6.62625 20.0117 7.15441 20.0117 7.77588V22.5396C20.0117 23.161 19.7871 23.6892 19.3301 24.1343C18.873 24.5793 18.3284 24.8003 17.6855 24.8003H2.52637C1.88351 24.8003 1.33894 24.5794 0.881836 24.1343C0.42483 23.6892 0.200208 23.161 0.200195 22.5396V7.77588C0.200195 7.15441 0.424817 6.62625 0.881836 6.18115C1.33895 5.73603 1.88349 5.51517 2.52637 5.51514H5.25293V5.31494C5.25301 4.01698 5.72508 2.90979 6.67676 1.98291C7.62872 1.05579 8.76864 0.594238 10.1064 0.594238ZM2.32617 22.7397H17.8857V7.57568H14.959V10.2368C14.9589 10.5332 14.8583 10.7734 14.6562 10.9702C14.4539 11.1672 14.2046 11.2671 13.8955 11.2671C13.5867 11.267 13.338 11.167 13.1357 10.9702C12.9337 10.7734 12.8331 10.5332 12.833 10.2368V7.57568H7.37988V10.2368C7.3798 10.5332 7.2792 10.7734 7.07715 10.9702C6.87477 11.1673 6.62552 11.2671 6.31641 11.2671C6.0073 11.2671 5.75805 11.1672 5.55566 10.9702C5.35362 10.7734 5.25301 10.5332 5.25293 10.2368V7.57568H2.32617V22.7397ZM10.1064 2.65479C9.36001 2.65479 8.71493 2.91578 8.18262 3.43408C7.65016 3.95265 7.37996 4.58321 7.37988 5.31494V5.51514H12.833V5.31494C12.8329 4.58326 12.5627 3.95263 12.0303 3.43408C11.498 2.91569 10.8529 2.65487 10.1064 2.65479Z" fill="#094F41" stroke="white" stroke-width="0.4"/>
</svg>
