<svg width="24" height="28" viewBox="0 0 24 28" fill="none" xmlns="http://www.w3.org/2000/svg">
<path fill-rule="evenodd" clip-rule="evenodd" d="M9.86295 4.02902C6.3559 4.40808 3.30626 6.67502 1.76144 10.0513C-0.817645 15.6879 1.62353 22.4889 7.06284 24.8206C8.30915 25.3549 9.47092 25.5894 10.8657 25.5882C13.0494 25.5864 14.9992 24.9214 16.7461 23.5827L17.1624 23.2636L19.2785 25.5191C20.8573 27.2019 21.4549 27.8037 21.6321 27.8893C22.3777 28.2499 23.2131 27.6863 23.2131 26.8228C23.2131 26.3097 23.1306 26.2025 20.8868 23.8017L18.7746 21.5418L19.0736 21.0966C20.0243 19.6812 20.6045 18.1419 20.8657 16.3422C20.9802 15.5533 20.9794 14.1044 20.8638 13.2482C20.2166 8.45043 16.6628 4.71251 12.1428 4.07513C11.6106 4.0001 10.3641 3.97484 9.86295 4.02902ZM10.0399 6.41654C8.1922 6.6244 6.52346 7.49437 5.21323 8.93278C4.30722 9.92745 3.77523 10.8585 3.37054 12.1579C2.89951 13.6702 2.83781 15.2032 3.18524 16.7624C3.9021 19.9797 6.29557 22.4078 9.41625 23.0836C10.1228 23.2366 11.706 23.2234 12.4059 23.0586C15.5749 22.3125 17.8868 19.8438 18.5806 16.4648C18.7358 15.7092 18.7495 14.0197 18.6066 13.2667C18.1167 10.6854 16.6964 8.61307 14.5601 7.36263C13.2594 6.60128 11.5596 6.2455 10.0399 6.41654Z" fill="#094F40"/>
<path d="M10.63 20.5767V9.78693H12.0874V20.5767H10.63ZM5.95952 15.9062V14.4574H16.7578V15.9062H5.95952Z" fill="#094F40"/>
</svg>
