<svg width="22" height="20" viewBox="0 0 22 20" fill="none" xmlns="http://www.w3.org/2000/svg">
<path d="M15.4457 0H6.5543C4.8164 0.00119496 3.15005 0.624667 1.92117 1.73351C0.69229 2.84236 0.00132432 4.34593 0 5.91407V13.937C0.00105946 15.5053 0.691908 17.0091 1.92082 18.1181C3.14973 19.2272 4.81622 19.8507 6.5543 19.8519H15.4457C17.1837 19.8505 18.85 19.2268 20.0789 18.1178C21.3077 17.0089 21.9987 15.5052 22 13.937V5.91407C21.9992 4.34578 21.3084 2.84193 20.0794 1.73298C18.8504 0.624036 17.1838 0.00071737 15.4457 0ZM19.7879 13.937C19.7876 14.976 19.3301 15.9725 18.5158 16.7072C17.7015 17.4419 16.5972 17.8548 15.4457 17.855H6.5543C5.98412 17.855 5.41953 17.7537 4.89276 17.5568C4.366 17.3598 3.88738 17.0712 3.48425 16.7074C3.08112 16.3436 2.76137 15.9116 2.54327 15.4363C2.32516 14.9609 2.21297 14.4515 2.2131 13.937V5.91407C2.21297 5.39963 2.32517 4.89021 2.54329 4.41491C2.76141 3.9396 3.08117 3.50773 3.48431 3.14397C3.88746 2.7802 4.36608 2.49167 4.89284 2.29486C5.4196 2.09805 5.98417 1.99681 6.5543 1.99692H15.4457C16.597 1.99716 17.701 2.40994 18.5151 3.1445C19.3292 3.87905 19.7866 4.87526 19.7869 5.91407L19.7879 13.937Z" fill="white"/>
<path d="M10.7995 4.73596C7.6 4.73596 5 6.91152 5 9.58683C5 12.2621 7.60102 14.4377 10.7995 14.4377C13.998 14.4377 16.5991 12.2621 16.5991 9.58683C16.5991 6.91152 13.9991 4.73596 10.7995 4.73596ZM10.7995 12.5504C9.85983 12.5505 8.95857 12.2384 8.294 11.6827C7.62944 11.127 7.25602 10.3732 7.25588 9.58726C7.25575 8.80127 7.62891 8.04743 8.29328 7.49157C8.95765 6.93572 9.85881 6.62338 10.7985 6.62326C11.7382 6.62315 12.6395 6.93527 13.304 7.49097C13.9686 8.04667 14.342 8.80042 14.3422 9.58641C14.3423 10.3724 13.9691 11.1262 13.3048 11.6821C12.6404 12.2379 11.7392 12.5503 10.7995 12.5504ZM16.6113 3.60938C16.8861 3.60954 17.1546 3.67784 17.383 3.80563C17.6114 3.93342 17.7894 4.11497 17.8944 4.32734C17.9995 4.5397 18.0269 4.77336 17.9732 4.99876C17.9196 5.22416 17.7873 5.43121 17.593 5.59372C17.3987 5.75623 17.1511 5.86692 16.8816 5.9118C16.6122 5.95668 16.3328 5.93373 16.0789 5.84586C15.825 5.75799 15.608 5.60913 15.4552 5.4181C15.3024 5.22708 15.2208 5.00246 15.2205 4.77263C15.2205 4.1313 15.7406 3.60938 16.6113 3.60938Z" fill="white"/>
</svg>
