<svg width="25" height="29" viewBox="0 0 25 29" fill="none" xmlns="http://www.w3.org/2000/svg">
<path fill-rule="evenodd" clip-rule="evenodd" d="M12.8921 0.133917C12.7272 0.217441 12.4983 0.41843 12.2728 0.677841C10.8323 2.33494 10.1134 4.2242 10.3012 5.85954C10.4089 6.79893 10.7774 7.79107 11.3764 8.75505C11.7684 9.3859 12.4699 10.2418 12.7407 10.4195L12.9673 10.5683L12.9689 11.6776C12.9705 12.7627 12.9732 12.7895 13.0917 12.91C13.2643 13.0855 13.5439 13.0752 13.7072 12.8872C13.8302 12.7455 13.8348 12.7082 13.8602 11.6478L13.8864 10.5546L14.1216 10.3604C14.4427 10.0955 15.0544 9.32073 15.459 8.66648C16.0155 7.76682 16.3146 6.97017 16.4626 5.99457C16.6891 4.50027 16.1493 2.81274 14.922 1.17819C14.0937 0.0750425 13.5554 -0.201878 12.8921 0.133917ZM12.8866 1.38972C12.6821 1.62425 12.3839 2.01314 12.224 2.25403C10.8782 4.28041 10.8252 6.11912 12.0549 8.10856C12.3559 8.59548 12.867 9.28452 12.9314 9.29002C12.953 9.29183 12.9706 7.93126 12.9706 6.26645C12.9706 4.60164 12.9853 3.19823 13.0031 3.1478C13.0548 3.00177 13.324 2.87819 13.4995 2.91989C13.8381 3.00041 13.8313 2.93769 13.8602 6.272L13.8864 9.29048L14.2218 8.8528C15.711 6.90965 15.996 5.11797 15.1164 3.23024C14.8058 2.56353 14.1074 1.55036 13.6753 1.13955C13.3984 0.876338 13.3097 0.9045 12.8866 1.38972ZM2.98324 4.31231C2.45199 4.40009 2.11383 4.64312 1.90792 5.08505C1.75694 5.40917 1.75443 5.70785 1.89646 6.46342C2.20122 8.08499 2.7363 9.30249 3.54762 10.2207C4.35376 11.1329 5.50591 11.6902 6.91619 11.8501C7.58999 11.9265 8.87443 11.8424 9.29851 11.6941L9.56696 11.6002L10.3863 12.3167C11.1131 12.9523 11.228 13.0332 11.404 13.0332C11.6439 13.0332 11.8193 12.8315 11.8193 12.5554C11.8193 12.3397 11.7037 12.2132 10.7597 11.3962L10.0925 10.8188L10.0916 10.4386C10.0906 9.96518 9.94034 9.18111 9.70401 8.41637C9.12975 6.55805 8.16075 5.32905 6.79484 4.7267C6.01188 4.38144 5.54913 4.29463 4.38851 4.27531C3.79849 4.26545 3.16613 4.28211 2.98324 4.31231ZM21.2306 4.87902C20.5322 4.96985 19.8331 5.19175 19.2535 5.50652C18.2713 6.03985 17.671 6.84443 17.3443 8.06504C17.1868 8.65368 17.0814 9.68696 17.1265 10.2L17.159 10.5683L16.4238 11.4183C16.0194 11.8858 15.6521 12.3411 15.6074 12.4302C15.4485 12.7471 15.6528 13.0899 16.0006 13.0899C16.1963 13.0899 16.2358 13.0541 16.9532 12.2258L17.7015 11.3616L18.0965 11.3809C18.5607 11.4035 19.3691 11.2657 19.9254 11.0691C21.023 10.6811 21.8161 9.97776 22.2517 9.00624C22.6211 8.182 22.7241 7.64204 22.7274 6.51306C22.7301 5.58166 22.729 5.57254 22.5862 5.3384C22.3288 4.9167 21.9439 4.78626 21.2306 4.87902ZM3.21109 5.24887C2.89208 5.29777 2.81809 5.33171 2.7364 5.46669C2.65927 5.59418 2.66136 5.65277 2.76429 6.23512C3.15671 8.4562 4.1155 9.94388 5.52474 10.5182C6.00948 10.7158 6.46318 10.8214 7.07768 10.8795C7.61155 10.93 8.62722 10.8946 8.62722 10.8255C8.62722 10.805 7.63678 9.9245 6.42618 8.869C5.21563 7.81345 4.20305 6.90506 4.176 6.85038C4.02863 6.55221 4.24481 6.15414 4.55403 6.15414C4.71102 6.15414 5.00411 6.38998 6.92561 8.06244C8.13145 9.11198 9.1265 9.96155 9.13686 9.95033C9.14717 9.93917 9.11865 9.7549 9.07339 9.54088C8.76433 8.07876 8.10874 6.7961 7.35592 6.1806C7.01478 5.90176 6.32706 5.54738 5.80141 5.37965C5.46556 5.27244 5.26173 5.25227 4.38851 5.23957C3.82727 5.23147 3.29743 5.23561 3.21109 5.24887ZM21.3172 5.84203C20.3604 5.96528 19.4514 6.3651 18.9713 6.87395C18.4866 7.38768 18.1268 8.25805 18.0529 9.09583C18.0322 9.33014 18.0307 9.51509 18.0495 9.50676C18.0684 9.49849 18.5581 8.93983 19.1379 8.26541C19.7623 7.53891 20.2438 7.02502 20.3192 7.00451C20.5905 6.93079 20.8724 7.1813 20.8724 7.49607C20.8724 7.61139 20.7946 7.74801 20.5977 7.97897C20.013 8.66439 18.9052 9.9564 18.7044 10.187L18.4936 10.429L18.6756 10.3937C20.4848 10.0427 21.3577 9.30872 21.7152 7.83788C21.8558 7.25956 21.9189 5.90742 21.8089 5.83195C21.7687 5.80441 21.7241 5.7848 21.7097 5.78837C21.6953 5.79194 21.5187 5.81608 21.3172 5.84203ZM22.6955 14.0632C22.5326 14.0859 22.2854 14.1624 22.1461 14.2333C22.0004 14.3073 20.9393 15.2218 19.6481 16.3861L17.4034 18.4103L17.1807 18.1421C17.0582 17.9945 16.842 17.8055 16.7003 17.722C16.1603 17.4037 16.0776 17.3964 12.9916 17.3964H10.1565L9.88403 17.1934C8.95779 16.5035 8.26065 16.2631 7.18622 16.2631C5.34682 16.2631 3.46384 16.9383 2.00242 18.1219C1.27766 18.7089 0.466491 19.616 0.269521 20.0597C0.0631846 20.5244 -0.0306952 21.0408 0.00886616 21.4933C0.0426189 21.8792 1.72262 27.9832 1.86009 28.2194C2.34665 29.0553 3.39895 29.2574 4.06249 28.6424C4.18384 28.5299 4.63645 27.9311 5.06822 27.3117C5.88169 26.1448 6.02371 25.9873 6.45841 25.7703L6.71718 25.6411L11.7408 25.6128L16.7645 25.5845L17.0649 25.4531C17.2301 25.3809 17.4826 25.2263 17.626 25.1097C18.0026 24.8032 24.4585 17.7051 24.667 17.3681C25.1851 16.531 25.0919 15.467 24.4345 14.7143C23.9845 14.1991 23.3699 13.969 22.6955 14.0632ZM22.5067 15.1157C22.4136 15.1702 21.3054 16.1455 20.0441 17.2831L17.7509 19.3513L17.6911 19.7929C17.6581 20.0362 17.5703 20.3669 17.4955 20.5295C17.305 20.9433 16.8918 21.3795 16.5084 21.5714L16.1889 21.7313L13.0094 21.7475L9.82987 21.7637L9.69951 21.6226C9.52285 21.4313 9.52196 21.1256 9.69763 20.9354L9.82605 20.7963L12.8505 20.7957L15.8749 20.7952L16.1366 20.6621C16.4495 20.5029 16.5413 20.3988 16.6903 20.0341C16.9072 19.5032 16.7033 18.8488 16.2267 18.5454L15.9796 18.388L12.9444 18.3597C10.701 18.3387 9.87147 18.3131 9.76435 18.2615C9.6846 18.2231 9.49621 18.092 9.34571 17.9703C8.50346 17.2889 7.54342 17.0912 6.14156 17.3103C4.40028 17.5824 2.9328 18.3756 1.63575 19.7457C1.08126 20.3315 0.908782 20.6968 0.912393 21.2779C0.914486 21.6241 1.02286 22.0603 1.76322 24.7031C2.2299 26.3688 2.64817 27.7753 2.69276 27.8287C2.91783 28.0979 3.33427 28.1016 3.56044 27.8362C3.63313 27.7509 4.01655 27.2144 4.41242 26.644C5.19679 25.5139 5.54913 25.1433 6.11539 24.8525L6.45553 24.6778L11.5315 24.6495L16.6075 24.6212L16.8605 24.4863C17.0512 24.3846 17.6686 23.7437 19.3712 21.8797C24.2943 16.4903 24.0007 16.832 24.0891 16.3881C24.1774 15.944 23.895 15.3542 23.4859 15.1282C23.2252 14.9841 22.742 14.978 22.5067 15.1157Z" fill="#137D67"/>
</svg>
