<svg width="257" height="236" viewBox="0 0 257 236" fill="none" xmlns="http://www.w3.org/2000/svg">
<circle cx="246.491" cy="110.931" r="9.15482" stroke="white"/>
<path d="M243.199 116V105.091H247.087C247.932 105.091 248.634 105.237 249.191 105.528C249.752 105.819 250.171 106.222 250.448 106.737C250.725 107.248 250.864 107.839 250.864 108.511C250.864 109.178 250.723 109.766 250.443 110.274C250.166 110.778 249.747 111.17 249.186 111.451C248.628 111.732 247.927 111.872 247.082 111.872H244.136V110.455H246.933C247.465 110.455 247.898 110.379 248.232 110.226C248.57 110.073 248.816 109.851 248.973 109.56C249.129 109.269 249.207 108.919 249.207 108.511C249.207 108.099 249.127 107.742 248.967 107.44C248.811 107.138 248.564 106.907 248.227 106.748C247.893 106.584 247.455 106.502 246.911 106.502H244.844V116H243.199ZM248.584 111.078L251.279 116H249.404L246.762 111.078H248.584Z" fill="white"/>
<path d="M0 225.212H67.0599V227.772H0V225.212Z" fill="white"/>
<path d="M175.511 225.212H242.892V227.772H175.511V225.212Z" fill="white"/>
<path d="M83.9625 188.347V190.787H75.3647V194.507H82.999V196.947H75.3647V203.132H72.6964V188.347H83.9625Z" fill="white"/>
<path d="M98.949 188.347L105.521 203.132H102.68L101.444 200.421H93.5383L92.3277 203.132H89.5359L96.1078 188.347H98.949ZM94.5513 198.031H100.456L97.6148 191.008H97.3184L94.5513 198.031Z" fill="white"/>
<path d="M125.96 193.768C125.96 195.033 125.605 196.117 124.897 197.021C124.634 197.349 124.337 197.645 124.008 197.908C123.678 198.171 123.299 198.392 122.871 198.573C123.316 199.296 123.777 200.051 124.255 200.84C124.749 201.628 125.218 202.392 125.663 203.132H122.649L120.252 199.115H115.706V203.132H113.038V188.347H120.351C121.125 188.347 121.85 188.487 122.525 188.766C123.217 189.029 123.827 189.415 124.354 189.924C124.848 190.417 125.235 190.984 125.515 191.624C125.811 192.265 125.96 192.98 125.96 193.768ZM115.706 196.725H120.401C120.829 196.725 121.224 196.651 121.587 196.503C121.965 196.339 122.27 196.117 122.501 195.838C122.764 195.559 122.962 195.238 123.094 194.877C123.225 194.516 123.291 194.146 123.291 193.768C123.291 192.963 123.044 192.298 122.55 191.772C122.303 191.46 121.974 191.214 121.562 191.033C121.167 190.852 120.738 190.762 120.277 190.762H115.706V196.725Z" fill="white"/>
<path d="M136.474 188.347L141.711 195.665L146.826 188.347H149.667V203.132H147.048V192.29H146.949L142.082 199.164H141.118L136.202 192.29H136.103V203.132H133.608V188.347H136.474Z" fill="white"/>
<path d="M157.548 192.339C157.548 191.649 157.688 191.058 157.968 190.565C158.248 190.056 158.619 189.637 159.08 189.308C159.64 188.881 160.323 188.569 161.13 188.372C161.938 188.175 162.81 188.076 163.749 188.076C164.688 188.076 165.635 188.183 166.591 188.396C167.562 188.61 168.6 188.996 169.704 189.555L168.715 191.649C167.875 191.238 167.06 190.943 166.269 190.762C165.479 190.565 164.688 190.466 163.898 190.466C163.288 190.466 162.703 190.507 162.143 190.589C161.6 190.672 161.147 190.844 160.785 191.107C160.34 191.419 160.117 191.838 160.117 192.364C160.117 192.577 160.167 192.758 160.266 192.906C160.365 193.037 160.505 193.16 160.686 193.275C160.9 193.44 161.155 193.563 161.452 193.645C161.748 193.711 162.028 193.768 162.292 193.817L165.306 194.359C166.047 194.491 166.772 194.688 167.48 194.951C168.205 195.214 168.814 195.583 169.308 196.06C169.638 196.388 169.893 196.774 170.074 197.218C170.255 197.645 170.346 198.162 170.346 198.77C170.346 199.559 170.189 200.232 169.876 200.791C169.564 201.349 169.152 201.801 168.641 202.146C167.982 202.606 167.183 202.934 166.245 203.132C165.306 203.312 164.342 203.403 163.354 203.403C162.728 203.403 162.16 203.378 161.649 203.329C161.139 203.279 160.645 203.205 160.167 203.107C159.689 202.992 159.22 202.852 158.759 202.688C158.297 202.507 157.812 202.302 157.301 202.072L158.116 199.904C159.928 200.626 161.658 200.988 163.305 200.988C164.194 200.988 164.943 200.93 165.553 200.815C166.162 200.7 166.689 200.479 167.134 200.15C167.529 199.838 167.727 199.403 167.727 198.844C167.727 198.565 167.669 198.327 167.554 198.129C167.455 197.932 167.315 197.76 167.134 197.612C166.871 197.431 166.549 197.283 166.171 197.169C165.792 197.037 165.388 196.93 164.96 196.848L161.674 196.281C160.999 196.166 160.381 196.002 159.821 195.789C159.277 195.559 158.816 195.255 158.437 194.877C158.157 194.581 157.935 194.228 157.77 193.817C157.622 193.407 157.548 192.914 157.548 192.339Z" fill="white"/>
<path d="M31.2378 178.222C29.0046 178.222 27.1757 177.704 25.751 176.667C24.3649 175.592 23.2868 174.305 22.5168 172.808C21.7852 171.31 21.0151 169.371 20.2066 166.99C19.5905 165.185 19.0322 163.745 18.5317 162.67C18.0311 161.556 17.3766 160.654 16.568 159.962C15.7594 159.233 14.7583 158.868 13.5647 158.868H9.46414V171.022C9.46414 172.289 9.63741 173.499 9.98394 174.651C10.3305 175.764 10.7925 176.724 11.3701 177.531V177.819H0.627636V177.531C1.20519 176.724 1.66723 175.764 2.01375 174.651C2.36028 173.499 2.53355 172.289 2.53355 171.022V144.295C2.53355 143.028 2.36028 141.837 2.01375 140.723C1.66723 139.571 1.20519 138.592 0.627636 137.786V137.498H15.9905C20.1873 137.498 23.7104 138.381 26.5596 140.147C29.4474 141.875 30.8912 144.544 30.8912 148.154C30.8912 150.305 30.3137 152.129 29.1586 153.626C28.042 155.124 26.5981 156.276 24.827 157.082C23.0558 157.85 21.2269 158.292 19.3402 158.407V158.58C21.843 158.657 23.7874 159.617 25.1735 161.46C26.5596 163.265 27.8302 165.703 28.9853 168.775C29.9094 171.233 30.7565 173.096 31.5265 174.363C32.3351 175.63 33.3362 176.264 34.5298 176.264C35.2614 176.264 35.8774 176.014 36.3779 175.515L36.7822 175.86C36.3202 176.628 35.5886 177.224 34.5875 177.646C33.5865 178.03 32.4699 178.222 31.2378 178.222ZM15.0664 157.543C17.6846 157.543 19.7638 156.717 21.3039 155.066C22.8825 153.377 23.6719 151.073 23.6719 148.154C23.6719 145.236 22.8633 142.951 21.2462 141.299C19.6675 139.648 17.4921 138.823 14.7198 138.823C12.7947 138.823 11.0428 139.111 9.46414 139.687V157.543H15.0664Z" fill="white"/>
<path d="M56.0823 178.222C52.2705 178.222 48.9015 177.358 45.9752 175.63C43.0875 173.902 40.835 171.464 39.2179 168.315C37.6392 165.127 36.8499 161.479 36.8499 157.37C36.8499 153.261 37.6392 149.632 39.2179 146.484C40.835 143.296 43.0875 140.839 45.9752 139.111C48.9015 137.383 52.2705 136.519 56.0823 136.519C59.8941 136.519 63.2439 137.383 66.1317 139.111C69.0579 140.839 71.3104 143.277 72.889 146.426C74.5061 149.575 75.3147 153.223 75.3147 157.37C75.3147 161.518 74.5061 165.166 72.889 168.315C71.3104 171.464 69.0579 173.902 66.1317 175.63C63.2439 177.358 59.8941 178.222 56.0823 178.222ZM56.0823 176.84C58.4695 176.84 60.5487 176.033 62.3199 174.42C64.091 172.769 65.4386 170.465 66.3627 167.508C67.3253 164.551 67.8066 161.172 67.8066 157.37C67.8066 153.569 67.3253 150.189 66.3627 147.232C65.4386 144.276 64.091 141.991 62.3199 140.378C60.5487 138.727 58.4695 137.901 56.0823 137.901C53.6951 137.901 51.6159 138.727 49.8448 140.378C48.1121 141.991 46.7645 144.276 45.8019 147.232C44.8394 150.189 44.3581 153.569 44.3581 157.37C44.3581 161.172 44.8394 164.551 45.8019 167.508C46.7645 170.465 48.1121 172.769 49.8448 174.42C51.6159 176.033 53.6951 176.84 56.0823 176.84Z" fill="white"/>
<path d="M92.4075 178.222C89.8278 178.222 87.3635 177.934 85.0148 177.358C82.7046 176.744 80.895 176.072 79.5859 175.342V164.686H80.1634C81.28 168.295 82.9934 171.195 85.3036 173.384C87.6138 175.572 90.1743 176.667 92.985 176.667C95.4492 176.667 97.4129 175.956 98.876 174.536C100.378 173.115 101.128 171.31 101.128 169.121C101.128 166.855 100.281 165.108 98.5872 163.879C96.9316 162.612 94.5829 161.498 91.5411 160.538C88.8074 159.655 86.5742 158.772 84.8416 157.889C83.1474 157.006 81.7613 155.796 80.6832 154.26C79.6436 152.685 79.1238 150.669 79.1238 148.212C79.1238 145.984 79.6821 143.988 80.7987 142.221C81.9153 140.416 83.494 139.015 85.5346 138.016C87.6138 137.018 90.001 136.519 92.6963 136.519C94.8524 136.519 96.9701 136.787 99.0493 137.325C101.167 137.824 102.823 138.381 104.016 138.995V148.845H103.439C102.322 145.543 100.763 142.932 98.7605 141.011C96.7969 139.053 94.4674 138.074 91.7722 138.074C89.616 138.074 87.8063 138.727 86.3432 140.032C84.8801 141.299 84.1485 142.989 84.1485 145.101C84.1485 146.522 84.5721 147.732 85.4191 148.73C86.2662 149.729 87.3828 150.573 88.7689 151.265C90.155 151.917 91.9647 152.628 94.1979 153.396C96.8546 154.279 99.0108 155.162 100.666 156.045C102.322 156.89 103.708 158.119 104.825 159.732C105.98 161.345 106.557 163.476 106.557 166.126C106.557 168.468 105.961 170.561 104.767 172.404C103.612 174.248 101.956 175.688 99.8001 176.724C97.6824 177.723 95.2182 178.222 92.4075 178.222Z" fill="white"/>
<path d="M111.407 177.243C111.984 176.436 112.446 175.476 112.793 174.363C113.139 173.211 113.312 172.001 113.312 170.734V144.007C113.312 142.74 113.139 141.549 112.793 140.435C112.446 139.283 111.984 138.304 111.407 137.498V137.21H138.609L139.938 147.463H139.36C138.051 144.468 136.472 142.24 134.624 140.781C132.814 139.283 130.215 138.535 126.827 138.535H120.243V156.506H126.654C130.389 156.506 132.757 154.663 133.758 150.977H134.335V163.361H133.758C132.757 159.674 130.389 157.831 126.654 157.831H120.243V176.206H128.156C130.504 176.206 132.468 175.841 134.047 175.112C135.625 174.382 136.915 173.384 137.916 172.116C138.917 170.849 139.841 169.236 140.688 167.278H141.266L139.938 177.531H111.407V177.243Z" fill="white"/>
<path d="M140.913 177.243C142.953 175.745 144.532 173.576 145.649 170.734L158.932 137.095H162.282L175.508 170.676C176.085 172.174 176.663 173.403 177.24 174.363C177.818 175.323 178.569 176.283 179.493 177.243V177.531H167.191V177.243C168.154 176.129 168.635 174.824 168.635 173.326C168.635 172.443 168.442 171.54 168.057 170.619L165.343 163.822H150.038L147.439 170.331C147.054 171.252 146.861 172.174 146.861 173.096C146.861 174.785 147.497 176.168 148.767 177.243V177.531H140.913V177.243ZM157.719 144.122L150.5 162.497H164.881L157.719 144.122Z" fill="white"/>
<path d="M188.157 177.243C188.735 176.436 189.197 175.476 189.544 174.363C189.89 173.211 190.063 172.001 190.063 170.734V138.535H187.176C184.249 138.535 181.881 139.322 180.072 140.896C178.262 142.471 176.684 144.775 175.336 147.808H174.758L176.087 137.21H211.028L212.299 147.808H211.722C210.412 144.775 208.853 142.471 207.043 140.896C205.234 139.322 202.866 138.535 199.939 138.535H196.994V170.734C196.994 172.001 197.167 173.211 197.514 174.363C197.86 175.476 198.322 176.436 198.9 177.243V177.531H188.157V177.243Z" fill="white"/>
<path d="M214.459 177.243C215.036 176.436 215.498 175.476 215.845 174.363C216.191 173.211 216.364 172.001 216.364 170.734V144.007C216.364 142.74 216.191 141.549 215.845 140.435C215.498 139.283 215.036 138.304 214.459 137.498V137.21H241.661L242.99 147.463H242.412C241.103 144.468 239.524 142.24 237.676 140.781C235.866 139.283 233.267 138.535 229.879 138.535H223.295V156.506H229.706C233.441 156.506 235.809 154.663 236.81 150.977H237.387V163.361H236.81C235.809 159.674 233.441 157.831 229.706 157.831H223.295V176.206H231.208C233.556 176.206 235.52 175.841 237.098 175.112C238.677 174.382 239.967 173.384 240.968 172.116C241.969 170.849 242.893 169.236 243.74 167.278H244.318L242.99 177.531H214.459V177.243Z" fill="white"/>
<path fill-rule="evenodd" clip-rule="evenodd" d="M119.515 0.414306C119.432 0.695075 119.15 1.9893 118.888 3.29061C117.821 8.60157 113.725 14.3988 109.175 17.0357C106.911 18.3485 103.646 19.5019 101.142 19.8734L99.3179 20.1439L99.4323 23.5253L99.5467 26.9064L102.337 27.4139C103.872 27.6931 106.292 28.5015 107.715 29.2105C110.85 30.7725 115.056 34.7825 116.629 37.7093C117.818 39.9227 119.279 44.488 119.279 45.992C119.279 46.8737 119.537 46.8563 122.747 46.7819H126.228L126.68 44.3019C127.674 39.2374 129.526 35.9277 133.299 32.4721C136.602 29.4467 141.576 27.1481 144.82 27.1481C146.127 27.1481 146.198 26.9466 146.191 23.245L146.186 20.3272L143.048 19.5946C134.189 17.5263 127.778 10.742 126.531 2.1147L126.249 0.165478L122.957 0.0349517C120.517 -0.0620557 119.627 0.0361347 119.515 0.414306ZM121.369 14.825C119.771 17.2506 116.455 20.5741 114.002 22.2086L112.062 23.5009L114.58 25.2778C117.336 27.2234 119.792 29.6944 121.483 32.2217C122.083 33.1184 122.69 33.8519 122.833 33.8519C122.976 33.8519 123.417 33.3081 123.814 32.6432C124.948 30.7457 129.043 26.5921 131.225 25.1279C132.317 24.3956 133.214 23.6866 133.22 23.5529C133.226 23.4189 132.491 22.8254 131.586 22.2331C129.348 20.7681 125.106 16.4521 124.013 14.5273C123.521 13.6609 123.002 12.9519 122.86 12.9519C122.718 12.9519 122.047 13.795 121.369 14.825ZM80.0062 39.8423C79.8803 40.1668 79.8308 41.7466 79.8958 43.3531L80.0142 46.2736L84.997 46.5417C99.5431 47.3253 110.955 55.2692 116.515 68.4824C118.892 74.1293 119.267 77.157 119.273 90.712C119.276 97.3685 119.144 102.89 118.98 102.981C118.815 103.073 117.472 102.901 115.995 102.599C106.912 100.743 99.3223 96.1606 94.2076 89.4458C88.9673 82.5662 86.8 75.4472 87.067 65.9905L87.1894 61.6528L88.186 61.788C89.9351 62.0258 93.0922 63.5078 95.6932 65.3119C99.9768 68.2832 103.245 73.4084 104.156 78.5849L104.611 81.1726H107.892C109.697 81.1726 111.263 81.0838 111.373 80.975C111.758 80.5937 110.903 75.9736 109.899 73.0149C107.984 67.3735 103.151 61.4178 97.9997 58.3541C96.7727 57.6242 94.1972 56.4877 92.2762 55.8288C89.2563 54.7929 88.1907 54.6257 84.399 54.5929L80.0142 54.5547L79.8946 62.0471C79.6734 75.9129 81.6517 83.72 87.5824 92.3828C95.8351 104.438 112.398 111.737 127.461 109.958C137.839 108.732 146.929 104.34 153.85 97.2072C157.583 93.36 158.963 91.4356 161.297 86.8215C164.793 79.9123 165.519 75.9425 165.519 63.7491V54.3575H162.512C148.144 54.3575 135.949 64.9487 134.247 78.9051L133.97 81.1726H137.4C139.81 81.1726 140.867 81.0259 140.956 80.6796C141.027 80.4087 141.384 78.9536 141.751 77.4465C143.499 70.2663 148.469 64.8355 155.523 62.3969C156.942 61.9067 158.27 61.6078 158.475 61.7328C159.182 62.165 158.521 73.1892 157.571 76.7986C154.214 89.5696 143.846 99.5247 131.038 102.276C129.503 102.605 127.844 102.964 127.351 103.073L126.454 103.271V90.3003C126.454 77.8246 126.491 77.1819 127.438 73.4349C130.084 62.9596 137.174 54.4127 147.104 49.7276C151.595 47.6088 156.693 46.483 161.832 46.4759L165.519 46.4707V42.8618V39.2524L160.569 39.5142C149.671 40.0907 140.871 43.6946 133.194 50.726C129.942 53.7041 125.945 58.8419 124.261 62.2072C123.604 63.5216 122.976 64.5973 122.866 64.5973C122.757 64.5969 122.004 63.3816 121.194 61.8957C118.044 56.1226 112.577 50.1034 107.23 46.524C103.923 44.3105 98.075 41.7639 93.966 40.7481C88.8656 39.4874 80.3582 38.9353 80.0062 39.8423Z" fill="white"/>
<path d="M72.6484 226.171C72.6484 220.743 76.7928 216.342 81.9051 216.342H161.681C166.793 216.342 170.937 220.743 170.937 226.171C170.937 231.6 166.793 236 161.681 236H81.9051C76.7928 236 72.6484 231.6 72.6484 226.171Z" fill="white"/>
<path d="M84.2111 230.901C83.6414 230.901 83.131 230.803 82.6797 230.607C82.2284 230.41 81.8659 230.12 81.5922 229.735C81.3259 229.35 81.1853 228.886 81.1705 228.344H83.1902C83.2198 228.651 83.3196 228.886 83.4898 229.051C83.6599 229.208 83.8819 229.287 84.1556 229.287C84.4367 229.287 84.6587 229.22 84.8214 229.087C84.9842 228.945 85.0656 228.753 85.0656 228.509C85.0656 228.305 84.999 228.136 84.8658 228.002C84.7401 227.869 84.581 227.759 84.3887 227.673C84.2037 227.586 83.9374 227.488 83.5897 227.378C83.0866 227.213 82.676 227.048 82.3579 226.883C82.0398 226.718 81.766 226.475 81.5367 226.153C81.3074 225.83 81.1927 225.41 81.1927 224.892C81.1927 224.122 81.4553 223.521 81.9806 223.089C82.5058 222.649 83.1902 222.429 84.0335 222.429C84.8917 222.429 85.5834 222.649 86.1087 223.089C86.634 223.521 86.9151 224.126 86.9521 224.904H84.8991C84.8843 224.636 84.7919 224.428 84.6217 224.279C84.4515 224.122 84.2333 224.043 83.967 224.043C83.7376 224.043 83.5527 224.11 83.4121 224.244C83.2715 224.369 83.2013 224.554 83.2013 224.797C83.2013 225.065 83.3196 225.273 83.5564 225.422C83.7931 225.571 84.163 225.732 84.6661 225.905C85.1692 226.086 85.576 226.259 85.8868 226.424C86.2049 226.589 86.4786 226.828 86.708 227.142C86.9373 227.457 87.052 227.861 87.052 228.356C87.052 228.827 86.9373 229.255 86.708 229.64C86.486 230.025 86.1605 230.332 85.7314 230.559C85.3023 230.787 84.7956 230.901 84.2111 230.901Z" fill="#15836D"/>
<path d="M92.6697 222.547V230.819H90.7721V222.547H92.6697Z" fill="#15836D"/>
<path d="M103.566 230.819H101.669L98.4948 225.717V230.819H96.5972V222.547H98.4948L101.669 227.673V222.547H103.566V230.819Z" fill="#15836D"/>
<path d="M107.172 226.671C107.172 225.854 107.339 225.127 107.672 224.491C108.005 223.847 108.467 223.348 109.059 222.995C109.658 222.633 110.335 222.453 111.09 222.453C112.014 222.453 112.806 222.712 113.464 223.23C114.123 223.749 114.563 224.456 114.785 225.351H112.699C112.543 225.006 112.321 224.742 112.033 224.562C111.752 224.381 111.43 224.291 111.067 224.291C110.483 224.291 110.009 224.507 109.647 224.939C109.284 225.371 109.103 225.948 109.103 226.671C109.103 227.394 109.284 227.971 109.647 228.403C110.009 228.835 110.483 229.051 111.067 229.051C111.43 229.051 111.752 228.961 112.033 228.78C112.321 228.599 112.543 228.336 112.699 227.991H114.785C114.563 228.886 114.123 229.593 113.464 230.112C112.806 230.622 112.014 230.878 111.09 230.878C110.335 230.878 109.658 230.701 109.059 230.347C108.467 229.986 108.005 229.487 107.672 228.851C107.339 228.215 107.172 227.488 107.172 226.671Z" fill="#15836D"/>
<path d="M120.397 224.161V225.834H122.938V227.39H120.397V229.204H123.271V230.819H118.499V222.547H123.271V224.161H120.397Z" fill="#15836D"/>
<path d="M131.571 224.091V222.217H134.645V230.819H132.67V224.091H131.571Z" fill="#15836D"/>
<path d="M140.537 228.297C140.648 228.918 140.988 229.228 141.558 229.228C141.95 229.228 142.228 229.043 142.39 228.674C142.553 228.305 142.635 227.704 142.635 226.871C142.472 227.115 142.25 227.303 141.969 227.437C141.688 227.57 141.373 227.637 141.025 227.637C140.552 227.637 140.13 227.535 139.76 227.331C139.39 227.119 139.098 226.808 138.884 226.4C138.677 225.984 138.573 225.481 138.573 224.892C138.573 224.31 138.684 223.804 138.906 223.372C139.135 222.94 139.457 222.606 139.871 222.37C140.293 222.135 140.789 222.017 141.358 222.017C142.453 222.017 143.219 222.378 143.655 223.101C144.092 223.823 144.31 224.888 144.31 226.294C144.31 227.315 144.221 228.16 144.044 228.827C143.874 229.487 143.581 229.99 143.167 230.336C142.76 230.681 142.202 230.854 141.492 230.854C140.929 230.854 140.448 230.736 140.049 230.5C139.657 230.265 139.353 229.955 139.139 229.57C138.932 229.185 138.813 228.761 138.784 228.297H140.537ZM141.458 226.046C141.769 226.046 142.017 225.948 142.202 225.752C142.387 225.548 142.479 225.273 142.479 224.927C142.479 224.55 142.383 224.259 142.191 224.055C141.998 223.851 141.739 223.749 141.414 223.749C141.088 223.749 140.829 223.855 140.637 224.067C140.452 224.271 140.36 224.554 140.36 224.915C140.36 225.253 140.452 225.528 140.637 225.74C140.829 225.944 141.103 226.046 141.458 226.046Z" fill="#15836D"/>
<path d="M149.207 226.2C148.511 225.807 148.163 225.19 148.163 224.35C148.163 223.926 148.267 223.541 148.474 223.195C148.681 222.841 148.996 222.563 149.417 222.358C149.839 222.146 150.357 222.04 150.971 222.04C151.585 222.04 152.099 222.146 152.514 222.358C152.935 222.563 153.25 222.841 153.457 223.195C153.664 223.541 153.768 223.926 153.768 224.35C153.768 224.774 153.671 225.143 153.479 225.457C153.294 225.772 153.043 226.019 152.724 226.2C153.124 226.404 153.431 226.687 153.645 227.048C153.86 227.402 153.967 227.818 153.967 228.297C153.967 228.855 153.834 229.338 153.568 229.746C153.301 230.147 152.939 230.453 152.48 230.665C152.029 230.878 151.526 230.984 150.971 230.984C150.416 230.984 149.909 230.878 149.451 230.665C148.999 230.453 148.641 230.147 148.374 229.746C148.108 229.338 147.975 228.855 147.975 228.297C147.975 227.81 148.082 227.39 148.297 227.036C148.511 226.675 148.814 226.396 149.207 226.2ZM151.925 224.656C151.925 224.334 151.837 224.087 151.659 223.914C151.489 223.733 151.26 223.643 150.971 223.643C150.683 223.643 150.449 223.733 150.272 223.914C150.102 224.094 150.017 224.346 150.017 224.668C150.017 224.974 150.105 225.218 150.283 225.398C150.461 225.571 150.69 225.658 150.971 225.658C151.252 225.658 151.481 225.567 151.659 225.387C151.837 225.206 151.925 224.962 151.925 224.656ZM150.971 227.072C150.623 227.072 150.342 227.174 150.128 227.378C149.913 227.574 149.806 227.849 149.806 228.203C149.806 228.533 149.909 228.804 150.117 229.016C150.331 229.228 150.616 229.334 150.971 229.334C151.326 229.334 151.604 229.228 151.803 229.016C152.01 228.804 152.114 228.533 152.114 228.203C152.114 227.857 152.007 227.582 151.792 227.378C151.585 227.174 151.311 227.072 150.971 227.072Z" fill="#15836D"/>
<path d="M157.423 224.091V222.217H160.497V230.819H158.522V224.091H157.423Z" fill="#15836D"/>
</svg>
