<svg width="27" height="19" viewBox="0 0 27 19" fill="none" xmlns="http://www.w3.org/2000/svg">
<path fill-rule="evenodd" clip-rule="evenodd" d="M5.57747 0.878708C5.0899 0.906404 3.93752 1.04735 3.57554 1.12353C2.46821 1.3566 1.81337 1.6576 1.22739 2.20283C0.731964 2.66378 0.440684 3.16315 0.262143 3.85742C0.0458297 4.69881 0.032343 4.95938 0.00752966 8.76961C-0.0178632 12.6779 0.014273 13.6046 0.208091 14.5515C0.738707 17.1438 2.32708 18.2912 5.77176 18.5704C6.24095 18.6085 8.75927 18.6193 14.033 18.606C21.9916 18.586 21.9571 18.5869 22.9895 18.3723C24.4042 18.0782 25.326 17.5325 25.9703 16.6075C26.4778 15.8791 26.7391 14.9992 26.9256 13.391C26.9877 12.8555 27.0314 5.53833 26.9713 5.73343C26.9468 5.81311 26.9211 5.66441 26.8988 5.3138C26.7408 2.83164 25.8153 1.6845 23.5518 1.16529C22.2489 0.866416 22.5213 0.874759 13.8223 0.868242C9.44699 0.864935 5.73684 0.869674 5.57747 0.878708ZM0.0181715 9.31266C0.0181715 11.322 0.0247041 12.1368 0.0326591 11.1233C0.0406141 10.1099 0.0406141 8.46589 0.0326591 7.47003C0.0246514 6.47416 0.0181715 7.30336 0.0181715 9.31266ZM10.9846 6.10197C10.7057 6.19513 10.4997 6.39349 10.4275 6.63866C10.384 6.78577 10.3712 7.66523 10.3824 9.7323L10.3979 12.6204L10.5218 12.807C10.5905 12.9106 10.7412 13.0394 10.8603 13.0963C11.2707 13.2925 11.2912 13.2848 14.4544 11.7353C16.0481 10.9547 17.4075 10.268 17.4755 10.2093C17.6641 10.0463 17.7471 9.85972 17.7469 9.599C17.7467 9.30886 17.6144 9.08947 17.3409 8.92527C16.9585 8.6958 11.6494 6.13653 11.4459 6.08355C11.2004 6.01967 11.2351 6.01829 10.9846 6.10197Z" fill="white"/>
</svg>
