<svg width="45" height="42" viewBox="0 0 45 42" fill="none" xmlns="http://www.w3.org/2000/svg">
<mask id="path-1-outside-1_2248_10813" maskUnits="userSpaceOnUse" x="0" y="0" width="45" height="42" fill="black">
<rect fill="white" width="45" height="42"/>
<path fill-rule="evenodd" clip-rule="evenodd" d="M21.9621 1.43241C21.5945 2.32347 21.9571 4.30204 22.4879 4.30204C22.8673 4.30204 22.9915 3.92319 22.9915 2.76634C22.9915 1.25407 22.3687 0.446719 21.9621 1.43241ZM15.2945 4.73242C15.0444 5.10939 18.3857 7.97277 18.7987 7.73509C19.4054 7.38654 19.1439 6.89682 17.7035 5.68469C16.2685 4.47694 15.6316 4.2252 15.2945 4.73242ZM27.2723 5.68469C25.832 6.89682 25.5704 7.38654 26.1771 7.73509C26.5901 7.97277 29.9315 5.10939 29.6813 4.73242C29.3442 4.2252 28.7073 4.47694 27.2723 5.68469ZM6.73929 6.72254C5.45337 9.86576 5.5551 9.76769 3.5762 9.76769C2.298 9.76769 1.61744 9.92042 1.29781 10.279C0.897597 10.7275 1.0423 10.9542 2.47797 12.1295L4.11407 13.4687L3.73232 14.8798C2.9282 17.8503 3.57452 18.3219 6.17187 16.6594L7.6035 15.7431L9.08617 16.6582C11.6463 18.2379 12.3913 17.8459 11.5912 15.3398C11.3058 14.446 11.0725 13.6255 11.0725 13.5168C11.0725 13.4081 11.7587 12.8413 12.5971 12.2566C13.6671 11.5108 14.0925 11.0045 14.024 10.5588C13.9398 10.0107 13.6426 9.91136 11.8497 9.8314L9.77311 9.73896L9.18992 8.26979C8.86894 7.46181 8.46302 6.6251 8.28742 6.41022C7.79018 5.8015 7.05556 5.94985 6.73929 6.72254ZM21.1234 7.8797L20.3945 9.73989L18.3354 9.83172C15.6188 9.95321 15.4107 10.6544 17.5883 12.3478L19.0935 13.5181L18.5852 15.1097C17.732 17.7819 18.469 18.2438 21.0005 16.6238L22.4879 15.6718L23.9753 16.6238C26.5068 18.2438 27.2438 17.7819 26.3907 15.1097L25.8823 13.5181L27.3875 12.3478C29.5652 10.6544 29.357 9.95321 26.6404 9.83172L24.5813 9.73989L23.8524 7.8797C22.8592 5.34582 22.1166 5.34582 21.1234 7.8797ZM36.7001 6.39679C36.5182 6.61885 36.1069 7.46181 35.7859 8.26979L35.2027 9.73896L33.1261 9.8314C31.3332 9.91136 31.0361 10.0107 30.9518 10.5588C30.8833 11.0045 31.3087 11.5108 32.3787 12.2566C33.2171 12.8413 33.9034 13.4081 33.9034 13.5168C33.9034 13.6255 33.67 14.446 33.3846 15.3398C32.5845 17.8459 33.3296 18.2379 35.8897 16.6582L37.3723 15.7431L38.804 16.6594C41.4013 18.3219 42.0476 17.8503 41.2435 14.8798L40.8618 13.4687L42.4979 12.1295C43.912 10.972 44.0742 10.7228 43.6914 10.2936C43.4064 9.97414 42.5778 9.76426 41.365 9.70429L39.4815 9.61153L38.7418 7.89375C37.9951 6.15973 37.3075 5.65564 36.7001 6.39679ZM7.01292 9.17396C6.50796 10.4701 6.3844 10.5632 4.77415 10.8596L3.06955 11.1731L4.23192 11.954C5.25326 12.6401 5.37581 12.8672 5.24453 13.8279C5.16228 14.4291 4.98064 15.1859 4.84096 15.5098C4.62105 16.0191 4.79597 15.9845 6.13527 15.2546L7.68375 14.4104L8.93945 15.204C9.62975 15.6403 10.2512 15.9451 10.32 15.8811C10.3889 15.8174 10.2683 15.1546 10.0525 14.4088C9.66265 13.0621 9.66869 13.0458 10.8868 12.0664L12.1133 11.0798L10.4698 10.8696C8.90386 10.6694 8.79608 10.5919 8.1867 9.23081L7.5471 7.80193L7.01292 9.17396ZM36.772 9.21988C36.2049 10.6013 36.1206 10.6631 34.5225 10.8674L32.8625 11.0798L34.089 12.0664C35.3071 13.0458 35.3132 13.0621 34.9234 14.4088C34.7075 15.1546 34.5869 15.8174 34.6558 15.8811C34.7246 15.9451 35.3461 15.6403 36.0364 15.204L37.2921 14.4104L38.8405 15.2546C40.1798 15.9845 40.3548 16.0191 40.1349 15.5098C39.9952 15.1859 39.8135 14.4291 39.7313 13.8279C39.6 12.8672 39.7226 12.6401 40.7439 11.954L41.9063 11.1731L40.2144 10.8608C38.6273 10.5679 38.4867 10.4629 37.9421 9.16647L37.3612 7.78444L36.772 9.21988ZM21.7368 9.43101C21.2624 10.5544 21.0878 10.6744 19.6307 10.8777L18.0419 11.0991L19.2429 12.1229C20.3536 13.0693 20.42 13.2248 20.1229 14.1877C19.5793 15.9508 19.7099 16.0797 21.1449 15.1962L22.4879 14.3695L23.8309 15.1962C25.2659 16.0797 25.3965 15.9508 24.8529 14.1877C24.5558 13.2248 24.6223 13.0693 25.7329 12.1229L26.9339 11.0991L25.3451 10.8777C23.888 10.6744 23.7134 10.5544 23.239 9.43101C22.9546 8.75733 22.6165 8.20607 22.4879 8.20607C22.3593 8.20607 22.0212 8.75733 21.7368 9.43101ZM21.0747 19.4363C19.4474 19.9101 18.188 20.9885 17.6055 22.4074C16.8809 24.1727 17.1629 25.7714 18.4697 27.3028L19.4407 28.4412L18.3622 28.8547C17.769 29.0824 16.6519 29.8088 15.88 30.4694L14.4763 31.6703L12.8402 30.6234L11.2041 29.5765L11.8081 28.6514C13.7658 25.6524 10.868 21.9858 7.27044 22.9099C4.72614 23.5636 3.57486 26.4404 4.97459 28.6473L5.6753 29.7523L4.76475 30.1949C3.07358 31.0166 1 33.6129 1 34.9085C1 35.1824 1.371 35.7514 1.82426 36.173C2.62603 36.9192 2.78417 36.9398 7.69986 36.9398H12.7512V38.1613C12.7512 39.142 12.955 39.5424 13.7843 40.1914L14.8171 41H22.4879H30.1588L31.1915 40.1914C32.0208 39.5424 32.2246 39.142 32.2246 38.1613V36.9398H37.2941H42.3636L43.3376 35.9697C44.2263 35.0846 43.8244 35.6905 44 33.959C43.8288 34.0574 43.5887 33.8456 43.4668 33.4883C43.1529 32.5682 41.362 30.7442 40.2453 30.2071L39.3005 29.7523L40.0012 28.6473C41.401 26.4404 40.2497 23.5636 37.7054 22.9099C34.1078 21.9858 31.21 25.6524 33.1677 28.6514L33.7718 29.5765L32.1356 30.6234L30.4995 31.6703L29.0958 30.4694C28.3239 29.8088 27.2069 29.0824 26.6136 28.8547L25.5352 28.4412L26.5145 27.3028C29.1418 24.2501 27.319 19.9219 23.1594 19.337C22.5131 19.2461 21.575 19.2907 21.0747 19.4363ZM20.9495 20.6734C20.5654 20.8267 19.8476 21.398 19.3547 21.9427C17.2264 24.296 19.118 27.8824 22.4879 27.8824C24.8086 27.8824 26.5169 26.2318 26.5169 23.9893C26.5169 22.3862 24.8073 20.7074 22.9912 20.5275C22.2529 20.4541 21.3339 20.5197 20.9495 20.6734ZM6.92798 24.1761C6.1299 24.6074 5.309 26.4342 5.58599 27.1622C6.41059 29.3297 9.02708 29.8419 10.5688 28.1379C11.2716 27.3609 11.4247 26.9352 11.2705 26.1859C10.8905 24.3398 8.59228 23.276 6.92798 24.1761ZM34.7612 24.525C33.4467 25.6009 33.3161 26.932 34.407 28.1379C36.5467 30.5034 40.4078 28.3868 39.1326 25.5478C38.3205 23.7395 36.2986 23.2663 34.7612 24.525ZM20.1357 29.4047C18.4133 29.9303 17.1505 30.7127 15.9929 31.9707C13.9737 34.1648 13.1538 37.5595 14.2812 39.0564C14.7952 39.7395 14.9279 39.7507 22.4879 39.7507C30.048 39.7507 30.1806 39.7395 30.6946 39.0564C31.9181 37.432 30.7598 33.384 28.5371 31.516C27.8172 30.9113 26.7351 30.1789 26.1325 29.8891C24.8993 29.296 21.4142 29.0146 20.1357 29.4047ZM5.85459 30.9682C3.73199 31.8649 1.83031 34.3541 2.49912 35.3604C2.63711 35.5681 4.54853 35.6905 7.65353 35.6905H12.5887L13.1259 34.301C13.6594 32.9205 13.6571 32.9061 12.7875 32.1313C10.8569 30.411 8.2196 29.9687 5.85459 30.9682ZM34.2391 30.8789C33.5928 31.1393 32.6698 31.7031 32.1884 32.1319C31.3188 32.9061 31.3164 32.9205 31.8499 34.301L32.3871 35.6905H37.3223C40.4273 35.6905 42.3387 35.5681 42.4767 35.3604C43.1455 34.3541 41.2438 31.8649 39.1212 30.9682C37.4794 30.2742 35.8151 30.2439 34.2391 30.8789ZM1.05305 34.7535C1.05305 35.183 1.12926 35.3588 1.22227 35.1439C1.3156 34.9294 1.3156 34.578 1.22227 34.3631C1.12926 34.1486 1.05305 34.3241 1.05305 34.7535Z"/>
</mask>
<path fill-rule="evenodd" clip-rule="evenodd" d="M21.9621 1.43241C21.5945 2.32347 21.9571 4.30204 22.4879 4.30204C22.8673 4.30204 22.9915 3.92319 22.9915 2.76634C22.9915 1.25407 22.3687 0.446719 21.9621 1.43241ZM15.2945 4.73242C15.0444 5.10939 18.3857 7.97277 18.7987 7.73509C19.4054 7.38654 19.1439 6.89682 17.7035 5.68469C16.2685 4.47694 15.6316 4.2252 15.2945 4.73242ZM27.2723 5.68469C25.832 6.89682 25.5704 7.38654 26.1771 7.73509C26.5901 7.97277 29.9315 5.10939 29.6813 4.73242C29.3442 4.2252 28.7073 4.47694 27.2723 5.68469ZM6.73929 6.72254C5.45337 9.86576 5.5551 9.76769 3.5762 9.76769C2.298 9.76769 1.61744 9.92042 1.29781 10.279C0.897597 10.7275 1.0423 10.9542 2.47797 12.1295L4.11407 13.4687L3.73232 14.8798C2.9282 17.8503 3.57452 18.3219 6.17187 16.6594L7.6035 15.7431L9.08617 16.6582C11.6463 18.2379 12.3913 17.8459 11.5912 15.3398C11.3058 14.446 11.0725 13.6255 11.0725 13.5168C11.0725 13.4081 11.7587 12.8413 12.5971 12.2566C13.6671 11.5108 14.0925 11.0045 14.024 10.5588C13.9398 10.0107 13.6426 9.91136 11.8497 9.8314L9.77311 9.73896L9.18992 8.26979C8.86894 7.46181 8.46302 6.6251 8.28742 6.41022C7.79018 5.8015 7.05556 5.94985 6.73929 6.72254ZM21.1234 7.8797L20.3945 9.73989L18.3354 9.83172C15.6188 9.95321 15.4107 10.6544 17.5883 12.3478L19.0935 13.5181L18.5852 15.1097C17.732 17.7819 18.469 18.2438 21.0005 16.6238L22.4879 15.6718L23.9753 16.6238C26.5068 18.2438 27.2438 17.7819 26.3907 15.1097L25.8823 13.5181L27.3875 12.3478C29.5652 10.6544 29.357 9.95321 26.6404 9.83172L24.5813 9.73989L23.8524 7.8797C22.8592 5.34582 22.1166 5.34582 21.1234 7.8797ZM36.7001 6.39679C36.5182 6.61885 36.1069 7.46181 35.7859 8.26979L35.2027 9.73896L33.1261 9.8314C31.3332 9.91136 31.0361 10.0107 30.9518 10.5588C30.8833 11.0045 31.3087 11.5108 32.3787 12.2566C33.2171 12.8413 33.9034 13.4081 33.9034 13.5168C33.9034 13.6255 33.67 14.446 33.3846 15.3398C32.5845 17.8459 33.3296 18.2379 35.8897 16.6582L37.3723 15.7431L38.804 16.6594C41.4013 18.3219 42.0476 17.8503 41.2435 14.8798L40.8618 13.4687L42.4979 12.1295C43.912 10.972 44.0742 10.7228 43.6914 10.2936C43.4064 9.97414 42.5778 9.76426 41.365 9.70429L39.4815 9.61153L38.7418 7.89375C37.9951 6.15973 37.3075 5.65564 36.7001 6.39679ZM7.01292 9.17396C6.50796 10.4701 6.3844 10.5632 4.77415 10.8596L3.06955 11.1731L4.23192 11.954C5.25326 12.6401 5.37581 12.8672 5.24453 13.8279C5.16228 14.4291 4.98064 15.1859 4.84096 15.5098C4.62105 16.0191 4.79597 15.9845 6.13527 15.2546L7.68375 14.4104L8.93945 15.204C9.62975 15.6403 10.2512 15.9451 10.32 15.8811C10.3889 15.8174 10.2683 15.1546 10.0525 14.4088C9.66265 13.0621 9.66869 13.0458 10.8868 12.0664L12.1133 11.0798L10.4698 10.8696C8.90386 10.6694 8.79608 10.5919 8.1867 9.23081L7.5471 7.80193L7.01292 9.17396ZM36.772 9.21988C36.2049 10.6013 36.1206 10.6631 34.5225 10.8674L32.8625 11.0798L34.089 12.0664C35.3071 13.0458 35.3132 13.0621 34.9234 14.4088C34.7075 15.1546 34.5869 15.8174 34.6558 15.8811C34.7246 15.9451 35.3461 15.6403 36.0364 15.204L37.2921 14.4104L38.8405 15.2546C40.1798 15.9845 40.3548 16.0191 40.1349 15.5098C39.9952 15.1859 39.8135 14.4291 39.7313 13.8279C39.6 12.8672 39.7226 12.6401 40.7439 11.954L41.9063 11.1731L40.2144 10.8608C38.6273 10.5679 38.4867 10.4629 37.9421 9.16647L37.3612 7.78444L36.772 9.21988ZM21.7368 9.43101C21.2624 10.5544 21.0878 10.6744 19.6307 10.8777L18.0419 11.0991L19.2429 12.1229C20.3536 13.0693 20.42 13.2248 20.1229 14.1877C19.5793 15.9508 19.7099 16.0797 21.1449 15.1962L22.4879 14.3695L23.8309 15.1962C25.2659 16.0797 25.3965 15.9508 24.8529 14.1877C24.5558 13.2248 24.6223 13.0693 25.7329 12.1229L26.9339 11.0991L25.3451 10.8777C23.888 10.6744 23.7134 10.5544 23.239 9.43101C22.9546 8.75733 22.6165 8.20607 22.4879 8.20607C22.3593 8.20607 22.0212 8.75733 21.7368 9.43101ZM21.0747 19.4363C19.4474 19.9101 18.188 20.9885 17.6055 22.4074C16.8809 24.1727 17.1629 25.7714 18.4697 27.3028L19.4407 28.4412L18.3622 28.8547C17.769 29.0824 16.6519 29.8088 15.88 30.4694L14.4763 31.6703L12.8402 30.6234L11.2041 29.5765L11.8081 28.6514C13.7658 25.6524 10.868 21.9858 7.27044 22.9099C4.72614 23.5636 3.57486 26.4404 4.97459 28.6473L5.6753 29.7523L4.76475 30.1949C3.07358 31.0166 1 33.6129 1 34.9085C1 35.1824 1.371 35.7514 1.82426 36.173C2.62603 36.9192 2.78417 36.9398 7.69986 36.9398H12.7512V38.1613C12.7512 39.142 12.955 39.5424 13.7843 40.1914L14.8171 41H22.4879H30.1588L31.1915 40.1914C32.0208 39.5424 32.2246 39.142 32.2246 38.1613V36.9398H37.2941H42.3636L43.3376 35.9697C44.2263 35.0846 43.8244 35.6905 44 33.959C43.8288 34.0574 43.5887 33.8456 43.4668 33.4883C43.1529 32.5682 41.362 30.7442 40.2453 30.2071L39.3005 29.7523L40.0012 28.6473C41.401 26.4404 40.2497 23.5636 37.7054 22.9099C34.1078 21.9858 31.21 25.6524 33.1677 28.6514L33.7718 29.5765L32.1356 30.6234L30.4995 31.6703L29.0958 30.4694C28.3239 29.8088 27.2069 29.0824 26.6136 28.8547L25.5352 28.4412L26.5145 27.3028C29.1418 24.2501 27.319 19.9219 23.1594 19.337C22.5131 19.2461 21.575 19.2907 21.0747 19.4363ZM20.9495 20.6734C20.5654 20.8267 19.8476 21.398 19.3547 21.9427C17.2264 24.296 19.118 27.8824 22.4879 27.8824C24.8086 27.8824 26.5169 26.2318 26.5169 23.9893C26.5169 22.3862 24.8073 20.7074 22.9912 20.5275C22.2529 20.4541 21.3339 20.5197 20.9495 20.6734ZM6.92798 24.1761C6.1299 24.6074 5.309 26.4342 5.58599 27.1622C6.41059 29.3297 9.02708 29.8419 10.5688 28.1379C11.2716 27.3609 11.4247 26.9352 11.2705 26.1859C10.8905 24.3398 8.59228 23.276 6.92798 24.1761ZM34.7612 24.525C33.4467 25.6009 33.3161 26.932 34.407 28.1379C36.5467 30.5034 40.4078 28.3868 39.1326 25.5478C38.3205 23.7395 36.2986 23.2663 34.7612 24.525ZM20.1357 29.4047C18.4133 29.9303 17.1505 30.7127 15.9929 31.9707C13.9737 34.1648 13.1538 37.5595 14.2812 39.0564C14.7952 39.7395 14.9279 39.7507 22.4879 39.7507C30.048 39.7507 30.1806 39.7395 30.6946 39.0564C31.9181 37.432 30.7598 33.384 28.5371 31.516C27.8172 30.9113 26.7351 30.1789 26.1325 29.8891C24.8993 29.296 21.4142 29.0146 20.1357 29.4047ZM5.85459 30.9682C3.73199 31.8649 1.83031 34.3541 2.49912 35.3604C2.63711 35.5681 4.54853 35.6905 7.65353 35.6905H12.5887L13.1259 34.301C13.6594 32.9205 13.6571 32.9061 12.7875 32.1313C10.8569 30.411 8.2196 29.9687 5.85459 30.9682ZM34.2391 30.8789C33.5928 31.1393 32.6698 31.7031 32.1884 32.1319C31.3188 32.9061 31.3164 32.9205 31.8499 34.301L32.3871 35.6905H37.3223C40.4273 35.6905 42.3387 35.5681 42.4767 35.3604C43.1455 34.3541 41.2438 31.8649 39.1212 30.9682C37.4794 30.2742 35.8151 30.2439 34.2391 30.8789ZM1.05305 34.7535C1.05305 35.183 1.12926 35.3588 1.22227 35.1439C1.3156 34.9294 1.3156 34.578 1.22227 34.3631C1.12926 34.1486 1.05305 34.3241 1.05305 34.7535Z" fill="#137D67"/>
<path fill-rule="evenodd" clip-rule="evenodd" d="M21.9621 1.43241C21.5945 2.32347 21.9571 4.30204 22.4879 4.30204C22.8673 4.30204 22.9915 3.92319 22.9915 2.76634C22.9915 1.25407 22.3687 0.446719 21.9621 1.43241ZM15.2945 4.73242C15.0444 5.10939 18.3857 7.97277 18.7987 7.73509C19.4054 7.38654 19.1439 6.89682 17.7035 5.68469C16.2685 4.47694 15.6316 4.2252 15.2945 4.73242ZM27.2723 5.68469C25.832 6.89682 25.5704 7.38654 26.1771 7.73509C26.5901 7.97277 29.9315 5.10939 29.6813 4.73242C29.3442 4.2252 28.7073 4.47694 27.2723 5.68469ZM6.73929 6.72254C5.45337 9.86576 5.5551 9.76769 3.5762 9.76769C2.298 9.76769 1.61744 9.92042 1.29781 10.279C0.897597 10.7275 1.0423 10.9542 2.47797 12.1295L4.11407 13.4687L3.73232 14.8798C2.9282 17.8503 3.57452 18.3219 6.17187 16.6594L7.6035 15.7431L9.08617 16.6582C11.6463 18.2379 12.3913 17.8459 11.5912 15.3398C11.3058 14.446 11.0725 13.6255 11.0725 13.5168C11.0725 13.4081 11.7587 12.8413 12.5971 12.2566C13.6671 11.5108 14.0925 11.0045 14.024 10.5588C13.9398 10.0107 13.6426 9.91136 11.8497 9.8314L9.77311 9.73896L9.18992 8.26979C8.86894 7.46181 8.46302 6.6251 8.28742 6.41022C7.79018 5.8015 7.05556 5.94985 6.73929 6.72254ZM21.1234 7.8797L20.3945 9.73989L18.3354 9.83172C15.6188 9.95321 15.4107 10.6544 17.5883 12.3478L19.0935 13.5181L18.5852 15.1097C17.732 17.7819 18.469 18.2438 21.0005 16.6238L22.4879 15.6718L23.9753 16.6238C26.5068 18.2438 27.2438 17.7819 26.3907 15.1097L25.8823 13.5181L27.3875 12.3478C29.5652 10.6544 29.357 9.95321 26.6404 9.83172L24.5813 9.73989L23.8524 7.8797C22.8592 5.34582 22.1166 5.34582 21.1234 7.8797ZM36.7001 6.39679C36.5182 6.61885 36.1069 7.46181 35.7859 8.26979L35.2027 9.73896L33.1261 9.8314C31.3332 9.91136 31.0361 10.0107 30.9518 10.5588C30.8833 11.0045 31.3087 11.5108 32.3787 12.2566C33.2171 12.8413 33.9034 13.4081 33.9034 13.5168C33.9034 13.6255 33.67 14.446 33.3846 15.3398C32.5845 17.8459 33.3296 18.2379 35.8897 16.6582L37.3723 15.7431L38.804 16.6594C41.4013 18.3219 42.0476 17.8503 41.2435 14.8798L40.8618 13.4687L42.4979 12.1295C43.912 10.972 44.0742 10.7228 43.6914 10.2936C43.4064 9.97414 42.5778 9.76426 41.365 9.70429L39.4815 9.61153L38.7418 7.89375C37.9951 6.15973 37.3075 5.65564 36.7001 6.39679ZM7.01292 9.17396C6.50796 10.4701 6.3844 10.5632 4.77415 10.8596L3.06955 11.1731L4.23192 11.954C5.25326 12.6401 5.37581 12.8672 5.24453 13.8279C5.16228 14.4291 4.98064 15.1859 4.84096 15.5098C4.62105 16.0191 4.79597 15.9845 6.13527 15.2546L7.68375 14.4104L8.93945 15.204C9.62975 15.6403 10.2512 15.9451 10.32 15.8811C10.3889 15.8174 10.2683 15.1546 10.0525 14.4088C9.66265 13.0621 9.66869 13.0458 10.8868 12.0664L12.1133 11.0798L10.4698 10.8696C8.90386 10.6694 8.79608 10.5919 8.1867 9.23081L7.5471 7.80193L7.01292 9.17396ZM36.772 9.21988C36.2049 10.6013 36.1206 10.6631 34.5225 10.8674L32.8625 11.0798L34.089 12.0664C35.3071 13.0458 35.3132 13.0621 34.9234 14.4088C34.7075 15.1546 34.5869 15.8174 34.6558 15.8811C34.7246 15.9451 35.3461 15.6403 36.0364 15.204L37.2921 14.4104L38.8405 15.2546C40.1798 15.9845 40.3548 16.0191 40.1349 15.5098C39.9952 15.1859 39.8135 14.4291 39.7313 13.8279C39.6 12.8672 39.7226 12.6401 40.7439 11.954L41.9063 11.1731L40.2144 10.8608C38.6273 10.5679 38.4867 10.4629 37.9421 9.16647L37.3612 7.78444L36.772 9.21988ZM21.7368 9.43101C21.2624 10.5544 21.0878 10.6744 19.6307 10.8777L18.0419 11.0991L19.2429 12.1229C20.3536 13.0693 20.42 13.2248 20.1229 14.1877C19.5793 15.9508 19.7099 16.0797 21.1449 15.1962L22.4879 14.3695L23.8309 15.1962C25.2659 16.0797 25.3965 15.9508 24.8529 14.1877C24.5558 13.2248 24.6223 13.0693 25.7329 12.1229L26.9339 11.0991L25.3451 10.8777C23.888 10.6744 23.7134 10.5544 23.239 9.43101C22.9546 8.75733 22.6165 8.20607 22.4879 8.20607C22.3593 8.20607 22.0212 8.75733 21.7368 9.43101ZM21.0747 19.4363C19.4474 19.9101 18.188 20.9885 17.6055 22.4074C16.8809 24.1727 17.1629 25.7714 18.4697 27.3028L19.4407 28.4412L18.3622 28.8547C17.769 29.0824 16.6519 29.8088 15.88 30.4694L14.4763 31.6703L12.8402 30.6234L11.2041 29.5765L11.8081 28.6514C13.7658 25.6524 10.868 21.9858 7.27044 22.9099C4.72614 23.5636 3.57486 26.4404 4.97459 28.6473L5.6753 29.7523L4.76475 30.1949C3.07358 31.0166 1 33.6129 1 34.9085C1 35.1824 1.371 35.7514 1.82426 36.173C2.62603 36.9192 2.78417 36.9398 7.69986 36.9398H12.7512V38.1613C12.7512 39.142 12.955 39.5424 13.7843 40.1914L14.8171 41H22.4879H30.1588L31.1915 40.1914C32.0208 39.5424 32.2246 39.142 32.2246 38.1613V36.9398H37.2941H42.3636L43.3376 35.9697C44.2263 35.0846 43.8244 35.6905 44 33.959C43.8288 34.0574 43.5887 33.8456 43.4668 33.4883C43.1529 32.5682 41.362 30.7442 40.2453 30.2071L39.3005 29.7523L40.0012 28.6473C41.401 26.4404 40.2497 23.5636 37.7054 22.9099C34.1078 21.9858 31.21 25.6524 33.1677 28.6514L33.7718 29.5765L32.1356 30.6234L30.4995 31.6703L29.0958 30.4694C28.3239 29.8088 27.2069 29.0824 26.6136 28.8547L25.5352 28.4412L26.5145 27.3028C29.1418 24.2501 27.319 19.9219 23.1594 19.337C22.5131 19.2461 21.575 19.2907 21.0747 19.4363ZM20.9495 20.6734C20.5654 20.8267 19.8476 21.398 19.3547 21.9427C17.2264 24.296 19.118 27.8824 22.4879 27.8824C24.8086 27.8824 26.5169 26.2318 26.5169 23.9893C26.5169 22.3862 24.8073 20.7074 22.9912 20.5275C22.2529 20.4541 21.3339 20.5197 20.9495 20.6734ZM6.92798 24.1761C6.1299 24.6074 5.309 26.4342 5.58599 27.1622C6.41059 29.3297 9.02708 29.8419 10.5688 28.1379C11.2716 27.3609 11.4247 26.9352 11.2705 26.1859C10.8905 24.3398 8.59228 23.276 6.92798 24.1761ZM34.7612 24.525C33.4467 25.6009 33.3161 26.932 34.407 28.1379C36.5467 30.5034 40.4078 28.3868 39.1326 25.5478C38.3205 23.7395 36.2986 23.2663 34.7612 24.525ZM20.1357 29.4047C18.4133 29.9303 17.1505 30.7127 15.9929 31.9707C13.9737 34.1648 13.1538 37.5595 14.2812 39.0564C14.7952 39.7395 14.9279 39.7507 22.4879 39.7507C30.048 39.7507 30.1806 39.7395 30.6946 39.0564C31.9181 37.432 30.7598 33.384 28.5371 31.516C27.8172 30.9113 26.7351 30.1789 26.1325 29.8891C24.8993 29.296 21.4142 29.0146 20.1357 29.4047ZM5.85459 30.9682C3.73199 31.8649 1.83031 34.3541 2.49912 35.3604C2.63711 35.5681 4.54853 35.6905 7.65353 35.6905H12.5887L13.1259 34.301C13.6594 32.9205 13.6571 32.9061 12.7875 32.1313C10.8569 30.411 8.2196 29.9687 5.85459 30.9682ZM34.2391 30.8789C33.5928 31.1393 32.6698 31.7031 32.1884 32.1319C31.3188 32.9061 31.3164 32.9205 31.8499 34.301L32.3871 35.6905H37.3223C40.4273 35.6905 42.3387 35.5681 42.4767 35.3604C43.1455 34.3541 41.2438 31.8649 39.1212 30.9682C37.4794 30.2742 35.8151 30.2439 34.2391 30.8789ZM1.05305 34.7535C1.05305 35.183 1.12926 35.3588 1.22227 35.1439C1.3156 34.9294 1.3156 34.578 1.22227 34.3631C1.12926 34.1486 1.05305 34.3241 1.05305 34.7535Z" stroke="#137D67" stroke-width="0.6" mask="url(#path-1-outside-1_2248_10813)"/>
</svg>
