<svg width="26" height="26" viewBox="0 0 26 26" fill="none" xmlns="http://www.w3.org/2000/svg">
<path d="M7.86719 21.54C8.48101 21.54 9.00018 21.7521 9.42383 22.1758C9.84732 22.5994 10.0586 23.1178 10.0586 23.7314C10.0586 24.3157 9.84676 24.8271 9.42285 25.2656C8.99923 25.7037 8.48072 25.9229 7.86719 25.9229C7.28334 25.9227 6.77238 25.7039 6.33398 25.2656C5.89543 24.8271 5.67676 24.3156 5.67676 23.7314C5.67679 23.1178 5.89572 22.5994 6.33398 22.1758C6.77235 21.7521 7.2832 21.5402 7.86719 21.54ZM18.4453 21.54C19.059 21.54 19.5774 21.7523 20.001 22.1758C20.4246 22.5994 20.6367 23.1177 20.6367 23.7314C20.6367 24.3157 20.4249 24.8271 20.001 25.2656C19.5773 25.7038 19.0589 25.9229 18.4453 25.9229C17.8614 25.9228 17.3505 25.7039 16.9121 25.2656C16.4736 24.8271 16.2539 24.3156 16.2539 23.7314C16.2539 23.1178 16.4738 22.5994 16.9121 22.1758C17.3505 21.7521 17.8613 21.5401 18.4453 21.54ZM2.5791 14.4883C3.19275 14.4884 3.71121 14.7005 4.13477 15.124C4.55827 15.5476 4.76953 16.066 4.76953 16.6797C4.76952 17.2639 4.55864 17.7754 4.13477 18.2139C3.71117 18.6521 3.19262 18.871 2.5791 18.8711C1.99507 18.8711 1.48343 18.6523 1.04492 18.2139C0.606375 17.7753 0.387707 17.2638 0.387695 16.6797C0.387695 16.066 0.606631 15.5477 1.04492 15.124C1.48344 14.7001 1.99485 14.4883 2.5791 14.4883ZM13.1562 14.4883C13.7701 14.4883 14.2892 14.7004 14.7129 15.124C15.1363 15.5476 15.3477 16.066 15.3477 16.6797C15.3476 17.2639 15.1358 17.7754 14.7119 18.2139C14.2883 18.6519 13.7698 18.8711 13.1562 18.8711C12.5724 18.871 12.0614 18.6521 11.623 18.2139C11.1845 17.7753 10.9658 17.2638 10.9658 16.6797C10.9658 16.066 11.1848 15.5477 11.623 15.124C12.0614 14.7003 12.5722 14.4884 13.1562 14.4883ZM23.7344 14.4883C24.3482 14.4883 24.8664 14.7004 25.29 15.124C25.7137 15.5477 25.9258 16.0659 25.9258 16.6797C25.9258 17.2639 25.7139 17.7754 25.29 18.2139C24.8664 18.652 24.348 18.8711 23.7344 18.8711C23.1505 18.8711 22.6396 18.6521 22.2012 18.2139C21.7626 17.7753 21.543 17.2638 21.543 16.6797C21.543 16.0661 21.762 15.5477 22.2002 15.124C22.6387 14.7001 23.1502 14.4883 23.7344 14.4883ZM7.86719 7.43652C8.48101 7.43652 9.00018 7.64862 9.42383 8.07227C9.84724 8.49585 10.0586 9.01428 10.0586 9.62793C10.0585 10.2121 9.84671 10.7236 9.42285 11.1621C8.99926 11.6001 8.48064 11.8193 7.86719 11.8193C7.28326 11.8192 6.77242 11.5996 6.33398 11.1611C5.89557 10.7227 5.67681 10.2119 5.67676 9.62793C5.67676 9.01425 5.89569 8.49595 6.33398 8.07227C6.77239 7.64849 7.28313 7.43664 7.86719 7.43652ZM18.4453 7.43652C19.0591 7.43652 19.5773 7.64863 20.001 8.07227C20.4246 8.49591 20.6367 9.01411 20.6367 9.62793C20.6367 10.2121 20.4248 10.7236 20.001 11.1621C19.5774 11.6002 19.0588 11.8193 18.4453 11.8193C17.8613 11.8193 17.3506 11.5996 16.9121 11.1611C16.4736 10.7226 16.254 10.212 16.2539 9.62793C16.2539 9.01425 16.4738 8.49595 16.9121 8.07227C17.3505 7.64851 17.8612 7.43658 18.4453 7.43652ZM2.5791 0.384766C3.1927 0.384852 3.71123 0.596046 4.13477 1.01953C4.55841 1.44318 4.76953 1.96235 4.76953 2.57617C4.76944 3.16012 4.55835 3.67103 4.13477 4.10938C3.71117 4.54758 3.19262 4.76651 2.5791 4.7666C1.99497 4.7666 1.48348 4.54793 1.04492 4.10938C0.606532 3.67094 0.387789 3.16009 0.387695 2.57617C0.387695 1.96255 0.606714 1.44417 1.04492 1.02051C1.48345 0.5966 1.99484 0.384766 2.5791 0.384766ZM13.1562 0.384766C13.7701 0.384766 14.2892 0.595884 14.7129 1.01953C15.1365 1.44318 15.3477 1.96236 15.3477 2.57617C15.3476 3.16028 15.1357 3.67094 14.7119 4.10938C14.2882 4.54767 13.7699 4.7666 13.1562 4.7666C12.5723 4.76651 12.0615 4.54784 11.623 4.10938C11.1846 3.67091 10.9659 3.16014 10.9658 2.57617C10.9658 1.96249 11.1848 1.44419 11.623 1.02051C12.0615 0.596687 12.5721 0.384852 13.1562 0.384766ZM23.7344 0.384766C24.348 0.384766 24.8665 0.596122 25.29 1.01953C25.7137 1.44318 25.9258 1.96235 25.9258 2.57617C25.9257 3.16023 25.7138 3.67097 25.29 4.10938C24.8664 4.54767 24.3481 4.7666 23.7344 4.7666C23.1504 4.76657 22.6397 4.54782 22.2012 4.10938C21.7627 3.67091 21.5431 3.16014 21.543 2.57617C21.543 1.96267 21.7622 1.44412 22.2002 1.02051C22.6387 0.596627 23.1502 0.384793 23.7344 0.384766Z" fill="#137D67" stroke="#137D67" stroke-width="0.025"/>
</svg>
