<svg width="45" height="39" viewBox="0 0 45 39" fill="none" xmlns="http://www.w3.org/2000/svg">
<path d="M26.0205 20.2139C25.9468 20.2118 25.9194 20.2376 25.9053 20.2627C25.8856 20.2979 25.8715 20.3723 25.9053 20.4961C25.9789 20.7656 26.8033 23.9973 27.7373 27.6777C28.2046 29.5184 28.6471 31.1912 28.9844 32.4033C29.153 33.0094 29.2952 33.4992 29.4004 33.8369C29.4433 33.9746 29.4815 34.0853 29.5107 34.168C29.5623 34.1116 29.6263 34.0378 29.6982 33.9473C29.8761 33.7234 30.1011 33.4123 30.3291 33.0693C30.7911 32.3744 31.1646 31.8387 31.5225 31.4902C31.8857 31.1366 32.2522 30.9576 32.6943 31.0107C33.1194 31.062 33.5866 31.3264 34.1641 31.7744C34.7454 32.2255 35.4618 32.8811 36.3857 33.7451L39.2295 36.4053L40.8447 34.8555L42.4492 33.3135L39.5967 30.5586C38.7262 29.7179 37.9818 28.9425 37.4541 28.3359C37.1906 28.033 36.9786 27.77 36.832 27.5605C36.7589 27.456 36.7005 27.3612 36.6592 27.2803C36.6209 27.2053 36.5869 27.1209 36.5869 27.043C36.587 26.6553 36.8129 26.2899 37.2773 25.874C37.7435 25.4567 38.477 24.9646 39.5508 24.3262L40.8135 23.5742L33.7832 21.9404C31.7501 21.4678 29.857 21.0361 28.4453 20.7227C27.7396 20.566 27.1545 20.439 26.7324 20.3506C26.5213 20.3063 26.3509 20.2715 26.2275 20.248C26.166 20.2363 26.1167 20.2276 26.0801 20.2217C26.0617 20.2187 26.047 20.2172 26.0361 20.2158C26.0252 20.2144 26.0205 20.2139 26.0205 20.2139ZM2.60254 24.0439H24.9814L24.9141 23.5947L24.8398 23.0996L17.5039 23.0273L10.04 22.9541L9.96973 22.9531L9.92578 22.8994L9.32715 22.1768C9.05927 21.8531 8.89794 21.5508 8.80664 21.0518C8.71747 20.5641 8.69434 19.8851 8.69434 18.8096C8.69434 17.7316 8.71701 17.053 8.80664 16.5654C8.89846 16.0661 9.06103 15.7637 9.33105 15.4375L9.93359 14.71L9.97852 14.6562H18.834C22.3957 14.6563 24.6216 14.6741 26.0146 14.7324C26.7108 14.7616 27.2043 14.8017 27.5537 14.8545C27.8116 14.8935 28.003 14.9412 28.1436 15.0049L28.2686 15.0742L28.3574 15.1426C28.5573 15.3092 28.6973 15.5333 28.7998 15.8604C28.9149 16.2275 28.9854 16.7333 29.041 17.4482L29.1777 19.208L32.1836 19.9248C33.0373 20.1279 33.83 20.2958 34.4189 20.4023C34.7136 20.4556 34.9552 20.4925 35.127 20.5117C35.1956 20.5194 35.2512 20.5218 35.293 20.5234C35.2947 20.5089 35.298 20.4928 35.2998 20.4746C35.3097 20.375 35.3188 20.2297 35.3281 20.0439C35.3468 19.673 35.3637 19.1448 35.3779 18.498C35.4064 17.2046 35.4248 15.4404 35.4248 13.5176V6.67285H2.60254V24.0439ZM10.4473 18.7803C10.4473 19.8376 10.4694 20.4809 10.5352 20.876C10.568 21.0731 10.6099 21.1948 10.6562 21.2715C10.6989 21.3421 10.7468 21.3779 10.8086 21.4004C10.8105 21.4009 10.8251 21.405 10.8604 21.4102C10.8948 21.4152 10.941 21.4205 10.999 21.4258C11.1151 21.4364 11.273 21.4471 11.4688 21.457C11.86 21.477 12.3972 21.4946 13.042 21.5098C14.3314 21.5401 16.0476 21.5586 17.8789 21.5586H24.3633L24.207 20.6309C24.0758 19.8514 24.1162 19.2682 24.4648 18.9209C24.6395 18.747 24.877 18.6477 25.166 18.6045C25.4539 18.5615 25.8029 18.5725 26.2129 18.626L27.2891 18.7656V16.3369H10.4473V18.7803ZM23.8682 10.0098C24.0796 9.95475 24.2887 9.95583 24.4492 10.0654C24.6146 10.1785 24.6835 10.3749 24.6836 10.6064C24.6836 10.726 24.6291 10.8603 24.5586 10.9883C24.4852 11.1214 24.382 11.2695 24.2607 11.4238C24.0177 11.7332 23.6911 12.0792 23.3535 12.3955C23.0163 12.7114 22.663 13.0025 22.3643 13.2002C22.2156 13.2986 22.0744 13.3774 21.9521 13.4238C21.8911 13.447 21.8292 13.4646 21.7695 13.4697C21.7106 13.4748 21.6415 13.4692 21.5791 13.4326C21.4066 13.3312 21.2846 13.1921 21.2305 13.0146C21.1773 12.8397 21.1959 12.6463 21.2666 12.4463C21.4064 12.0513 21.7647 11.5821 22.3096 11.0518C22.8913 10.4856 23.4441 10.1202 23.8682 10.0098ZM12.3398 10.0625C12.5063 9.97159 12.6961 9.97727 12.8965 10.0479C13.0944 10.1176 13.319 10.2551 13.5742 10.4521C13.8308 10.6503 14.1268 10.915 14.4697 11.2471C14.7661 11.5341 14.9959 11.7606 15.165 11.9443C15.3322 12.1259 15.4508 12.2767 15.5156 12.4121C15.5846 12.5563 15.5961 12.6924 15.5391 12.8281C15.5137 12.8885 15.4757 12.9448 15.4307 12.999L15.2793 13.1572C15.1701 13.261 15.0599 13.3556 14.9336 13.4023C14.7955 13.4534 14.6564 13.4424 14.5049 13.3779C14.3605 13.3164 14.1968 13.2032 13.9961 13.042C13.7933 12.8791 13.542 12.6579 13.2236 12.3721C12.7442 11.9415 12.4035 11.5878 12.1982 11.2969C11.9995 11.0153 11.8953 10.7461 11.9902 10.5107C12.0701 10.313 12.179 10.1505 12.3398 10.0625ZM18.0156 7.81641C18.15 7.79337 18.3033 7.79173 18.4453 7.81738C18.5643 7.83899 18.6666 7.89764 18.75 7.99609C18.8301 8.09066 18.8887 8.21682 18.9336 8.37109C19.0228 8.67787 19.0724 9.14075 19.1055 9.80566C19.1284 10.2678 19.1236 10.6613 19.0898 10.9824C19.0564 11.3009 18.9933 11.5601 18.8936 11.7461C18.7916 11.9362 18.6397 12.0675 18.4326 12.0791C18.2395 12.0899 18.0392 11.9935 17.8408 11.8369C17.7561 11.7701 17.6991 11.6539 17.6572 11.5391C17.6126 11.4166 17.5751 11.2643 17.543 11.0957C17.4785 10.7578 17.4345 10.3369 17.415 9.91797C17.3956 9.49922 17.3998 9.07666 17.4326 8.73438C17.449 8.56352 17.4728 8.40831 17.5059 8.28223C17.5368 8.16406 17.583 8.0431 17.6611 7.96875L17.7354 7.91309C17.8173 7.86357 17.919 7.83301 18.0156 7.81641ZM2.60254 4.99219H35.4463L35.3682 3.84082L35.2881 2.66797L18.9404 2.59766L2.60254 2.52637V4.99219ZM33.25 3.05859C33.4649 3.05859 33.654 3.10992 33.7891 3.23828C33.9255 3.36793 33.9814 3.55174 33.9814 3.76074C33.9814 3.96993 33.9256 4.15443 33.7891 4.28418C33.654 4.41251 33.4649 4.46387 33.25 4.46387C33.0351 4.46387 32.846 4.41251 32.7109 4.28418C32.5744 4.15443 32.5186 3.96993 32.5186 3.76074C32.5186 3.55174 32.5745 3.36793 32.7109 3.23828C32.846 3.10992 33.0351 3.05859 33.25 3.05859ZM30.4375 3.11035C30.641 3.13788 30.8298 3.21588 30.9707 3.32422C31.1078 3.42972 31.2205 3.5818 31.2207 3.76074C31.2207 3.93989 31.1079 4.09265 30.9707 4.19824C30.8298 4.30658 30.641 4.38458 30.4375 4.41211C30.1877 4.44569 29.965 4.44579 29.8105 4.32715C29.6486 4.20264 29.6133 3.99093 29.6133 3.76074C29.6133 3.53073 29.6487 3.31974 29.8105 3.19531C29.965 3.07665 30.1877 3.07677 30.4375 3.11035ZM26.958 3.27441C27.1834 3.06016 27.5274 3.05667 27.79 3.14746C28.0487 3.23702 28.3152 3.45113 28.3154 3.76465C28.3154 3.94344 28.2016 4.09557 28.0645 4.2002C27.9236 4.3076 27.7354 4.3846 27.5322 4.41211C27.1744 4.46026 26.8717 4.33838 26.7432 4.08691C26.6133 3.83278 26.6983 3.52137 26.958 3.27441ZM36.8867 11.3604C36.8867 14.0789 36.8645 16.0387 36.8857 17.4668C36.907 18.899 36.972 19.774 37.1377 20.332C37.2194 20.6073 37.3234 20.7974 37.4521 20.9365C37.5804 21.0751 37.7422 21.1734 37.9541 21.2529C38.1685 21.3334 38.4283 21.3923 38.75 21.457C39.0685 21.5211 39.4459 21.59 39.8809 21.6895C40.4613 21.8222 41.0273 21.9853 41.4717 22.1416C41.6937 22.2197 41.8885 22.2973 42.04 22.3691C42.1157 22.405 42.1828 22.441 42.2383 22.4756C42.2918 22.5089 42.343 22.5466 42.3799 22.5889C42.5708 22.8075 42.69 23.0392 42.708 23.292C42.7261 23.5453 42.6407 23.797 42.4688 24.0518C42.1303 24.553 41.4254 25.1094 40.3369 25.792L38.3555 27.0342L41.1592 29.709C42.0244 30.5342 42.7641 31.2955 43.2881 31.8916C43.5497 32.1892 43.7598 32.4479 43.9053 32.6543C43.9779 32.7573 44.037 32.8505 44.0781 32.9307C44.1162 33.005 44.1504 33.0892 44.1504 33.167C44.1503 33.2416 44.1206 33.3205 44.0869 33.3906C44.0511 33.4653 44.0007 33.5497 43.9395 33.6406C43.8167 33.8229 43.6428 34.0438 43.4355 34.2871C43.0204 34.7745 42.4612 35.3623 41.8838 35.9287C41.3064 36.4951 40.7077 37.0431 40.2109 37.4502C39.9629 37.6535 39.7375 37.824 39.5518 37.9443C39.4592 38.0043 39.3736 38.0539 39.2979 38.0889C39.2262 38.122 39.1464 38.1504 39.0723 38.1504C39.0294 38.1503 38.9883 38.1368 38.958 38.125C38.9248 38.1121 38.8888 38.0948 38.8516 38.0742C38.7766 38.0328 38.6856 37.9733 38.582 37.9004C38.3742 37.7542 38.1053 37.5444 37.7949 37.2881C37.1735 36.7751 36.3781 36.069 35.5586 35.293C34.7419 34.5194 33.987 33.83 33.4297 33.3438C33.1509 33.1006 32.9228 32.9097 32.7617 32.7842C32.7052 32.7401 32.657 32.7073 32.6201 32.6816C32.6055 32.7021 32.5896 32.7258 32.5713 32.752C32.5045 32.847 32.4148 32.9772 32.3086 33.1328C32.0961 33.4441 31.8182 33.8571 31.5264 34.2959C30.943 35.1731 30.514 35.7172 30.0967 35.9805C29.8816 36.116 29.6666 36.1791 29.4365 36.1758C29.2102 36.1724 28.9789 36.1051 28.7295 35.9971C28.3903 35.8501 28.1655 35.5475 27.8926 34.7881C27.6184 34.0253 27.2803 32.7567 26.7441 30.6133L25.5215 25.7246H13.8506C8.57129 25.7246 5.60695 25.7126 3.90332 25.6494C3.05258 25.6179 2.50852 25.5737 2.14551 25.5098C1.78113 25.4455 1.58161 25.3588 1.43359 25.2314C1.36253 25.1703 1.29529 25.1001 1.23633 25.001C1.17821 24.9033 1.13175 24.7835 1.09277 24.627C1.01565 24.3171 0.96401 23.841 0.928711 23.0615C0.857971 21.4989 0.84961 18.6679 0.849609 13.3828C0.849609 7.93045 0.854469 5.10115 0.929688 3.56934C0.967202 2.80547 1.02334 2.35078 1.10938 2.05078C1.15313 1.89823 1.20552 1.78237 1.26953 1.68457C1.33325 1.58722 1.40425 1.51301 1.47754 1.44336C1.55202 1.37258 1.6317 1.30252 1.74609 1.24121C1.85958 1.18042 2.0005 1.13222 2.19531 1.0918C2.58092 1.01179 3.20411 0.959132 4.30469 0.923828C6.5107 0.853077 10.6784 0.849609 18.8037 0.849609C26.0987 0.84961 30.2816 0.863405 32.7109 0.923828C33.9246 0.954022 34.7055 0.995909 35.2197 1.05469C35.7286 1.11284 36 1.18895 36.1738 1.30469L36.8193 1.73438L36.8867 1.7793V11.3604Z" fill="#137D67" stroke="#137D67" stroke-width="0.3"/>
</svg>
