<svg width="51" height="40" viewBox="0 0 51 40" fill="none" xmlns="http://www.w3.org/2000/svg">
<mask id="path-1-outside-1_2248_10807" maskUnits="userSpaceOnUse" x="0" y="0" width="51" height="40" fill="black">
<rect fill="white" width="51" height="40"/>
<path fill-rule="evenodd" clip-rule="evenodd" d="M2.66058 1.48083C0.970509 2.44298 1.00003 2.19653 1.00003 15.3924V27.3488L1.90214 28.2686L2.80452 29.1882L14.3582 29.2586L25.9122 29.3293L27.0985 31.4737C29.4042 35.6416 33.8441 38.9552 37.1826 38.9995C41.3227 39.0544 46.5111 34.5078 48.6931 28.9124C49.7823 26.1193 50.0773 23.8754 49.9837 19.094L49.9018 14.9086L46.936 14.8389L43.9703 14.7692V9.22998C43.9703 3.03386 43.8245 2.34302 42.3385 1.49708C41.4846 1.01083 41.0588 1 22.4852 1C4.12394 1 3.47702 1.01576 2.66058 1.48083ZM3.09398 2.94399L2.31814 3.66856V15.2043C2.31814 25.2463 2.37139 26.8106 2.7286 27.2868L3.13879 27.8341H14.3142H25.4894L25.2136 27.0955L24.9379 26.3569H15.5192H6.10084L5.52746 25.7872C4.67808 24.9427 4.70048 22.48 5.56437 21.7219C6.16675 21.1936 6.29328 21.1867 15.3107 21.1867H24.4465L24.5203 18.0476L24.5941 14.9086L27.7576 14.8554C31.2471 14.7968 33.9105 14.3426 35.9488 13.459C37.1016 12.9589 37.374 12.9222 37.926 13.1916C38.6728 13.556 41.8162 14.5393 42.2343 14.5393C42.4331 14.5393 42.503 12.8373 42.4629 8.953C42.4086 3.67939 42.3748 3.33816 41.8624 2.85955C41.3259 2.35828 41.1016 2.35164 22.5946 2.2859L3.86955 2.21967L3.09398 2.94399ZM7.47378 4.25378C7.24812 4.55464 7.06332 4.9424 7.06332 5.11548C7.06332 5.28831 6.82079 5.42988 6.52422 5.42988C6.22764 5.42988 5.69381 5.70193 5.33792 6.0343C4.77562 6.5592 4.69073 6.86178 4.69073 8.33996C4.69073 9.6884 4.80409 10.1759 5.23722 10.6899C5.74521 11.2934 5.92975 11.3387 7.87343 11.3387C10.1269 11.3387 11.0176 10.9201 11.0176 9.86148C11.0176 9.5003 11.1935 9.36908 11.6767 9.36908C12.9392 9.36908 13.3902 8.60143 13.3902 6.45284C13.3902 3.87882 13.1872 3.70648 10.1551 3.70648C8.10726 3.70648 7.8439 3.76015 7.47378 4.25378ZM18.6653 4.81142C18.4011 5.10859 18.4006 5.25828 18.6627 5.55298C18.9431 5.86885 20.3527 5.92179 28.3829 5.91858C33.5488 5.91637 37.9352 5.8201 38.1305 5.70439C38.3262 5.58868 38.4432 5.2856 38.3907 5.03103C38.2998 4.5896 37.8511 4.56522 28.6457 4.50367C20.2982 4.44778 18.9516 4.48939 18.6653 4.81142ZM8.64505 6.53778V8.16147L10.2608 8.08835L11.8763 8.01498V6.53778V5.06058L10.2608 4.98721L8.64505 4.91409V6.53778ZM6.27246 8.38428V9.86148H8.00155C9.08714 9.86148 9.67001 9.76989 9.56772 9.61528C9.47809 9.47987 9.16675 9.36908 8.87572 9.36908C7.88608 9.36908 7.33564 8.8917 7.16323 7.884C7.06253 7.29607 6.8519 6.90708 6.63415 6.90708C6.36789 6.90708 6.27246 7.29657 6.27246 8.38428ZM18.6627 7.76878C18.4006 8.06348 18.4011 8.21317 18.6653 8.51033C18.9516 8.83236 20.2982 8.87397 28.6457 8.81808C37.8511 8.75653 38.2998 8.73216 38.3907 8.29072C38.4432 8.03615 38.3262 7.73308 38.1305 7.61737C37.9352 7.50165 33.5488 7.40539 28.3829 7.40317C20.3527 7.39997 18.9431 7.4529 18.6627 7.76878ZM18.6627 10.7232C18.4006 11.0179 18.4011 11.1676 18.6653 11.4647C18.9516 11.7868 20.2982 11.8284 28.6457 11.7725C37.8511 11.7109 38.2998 11.6866 38.3907 11.2451C38.4432 10.9906 38.3262 10.6875 38.1305 10.5718C37.9352 10.4561 33.5488 10.3598 28.3829 10.3576C20.3527 10.3544 18.9431 10.4073 18.6627 10.7232ZM36.5464 14.6811C34.9423 15.4662 31.908 16.0601 28.9858 16.1608L25.9963 16.2639L26.0314 20.3476C26.077 25.6355 26.4347 27.3523 28.1556 30.544C30.3587 34.6295 34.3333 37.6826 37.4486 37.6818C39.8797 37.6814 43.6943 34.9106 45.7518 31.6502C47.8956 28.2536 48.7015 24.9612 48.7102 19.5625L48.7155 16.3378L45.6179 16.1814C42.4753 16.0229 40.4243 15.6349 38.361 14.8089C37.374 14.4137 37.1283 14.3965 36.5464 14.6811ZM5.66402 15.3668C5.43203 15.931 5.71068 16.0165 7.78564 16.0165C9.50287 16.0165 9.72748 15.9645 9.65024 15.5856C9.57774 15.2318 9.22686 15.142 7.68599 15.0831C6.24214 15.0277 5.77632 15.0932 5.66402 15.3668ZM10.8784 15.289C10.5257 15.8222 11.2143 16.0401 13.0209 15.967C14.4273 15.9101 14.8401 15.8097 14.8401 15.5241C14.8401 15.2368 14.4202 15.1388 12.9513 15.0829C11.7537 15.0373 10.9952 15.1127 10.8784 15.289ZM16.0264 15.5241C16.0264 15.9727 16.2023 16.0165 18.0036 16.0165C19.8049 16.0165 19.9808 15.9727 19.9808 15.5241C19.9808 15.0755 19.8049 15.0317 18.0036 15.0317C16.2023 15.0317 16.0264 15.0755 16.0264 15.5241ZM34.719 18.0666C33.1515 18.8394 32.0686 20.3176 31.9051 21.908C31.8168 22.7651 31.6594 23.1563 31.4027 23.1563C31.197 23.1563 30.7378 23.4283 30.3819 23.7607C29.7548 24.3462 29.7347 24.4744 29.7347 27.9097C29.7347 31.1918 29.7793 31.516 30.3358 32.2874C31.3173 33.6474 31.7327 33.7353 37.2073 33.7392C44.39 33.7446 44.4975 33.6579 44.4975 27.8673C44.4975 24.3708 44.4648 24.1317 43.9205 23.6583C43.6033 23.3823 43.2118 23.1563 43.0508 23.1563C42.8894 23.1563 42.6166 22.5181 42.4442 21.7384C41.682 18.2926 37.9033 16.4966 34.719 18.0666ZM35.9612 18.9716C34.4678 19.4044 33.1618 21.0658 33.1618 22.5329V23.1563H37.1504H41.139L41.0088 22.0777C40.7984 20.3343 39.5591 19.1585 37.6434 18.8837C37.1359 18.8111 36.379 18.8507 35.9612 18.9716ZM6.37843 22.7611C6.30093 22.95 6.27483 23.5315 6.3207 24.0537L6.40427 25.0028L15.6002 25.0675L24.7961 25.1323L24.6321 24.2058C24.5419 23.6962 24.4668 23.0856 24.4652 22.8485C24.4626 22.4467 23.8584 22.4177 15.491 22.4177C8.06007 22.4177 6.49522 22.4768 6.37843 22.7611ZM31.3977 24.7071C31.1636 25.0577 31.2137 30.8365 31.4567 31.5522C31.7304 32.3573 32.6891 32.5119 37.409 32.5119C41.8239 32.5119 41.8943 32.5035 42.5399 31.9006C43.1815 31.3013 43.1929 31.2233 43.1209 27.8998L43.0476 24.5104L37.3212 24.4609C33.1022 24.4247 31.5432 24.4895 31.3977 24.7071ZM35.8183 25.7633C34.9157 26.4724 34.7514 27.4242 35.3942 28.2179C35.6072 28.4806 35.7851 29.1444 35.7896 29.6929C35.7996 30.8631 36.1584 31.2809 37.1538 31.2809C38.0786 31.2809 38.6979 30.4746 38.6979 29.2712C38.6979 28.7674 38.8165 28.2871 38.9615 28.2034C39.4887 27.8991 39.2496 26.3574 38.5779 25.7303C37.7457 24.9528 36.8359 24.9636 35.8183 25.7633ZM36.7434 26.6804C36.3226 26.9677 36.3073 27.0753 36.6213 27.545C37.0199 28.1409 37.3355 28.1327 37.752 27.5162C38.183 26.8781 37.4019 26.2306 36.7434 26.6804Z"/>
</mask>
<path fill-rule="evenodd" clip-rule="evenodd" d="M2.66058 1.48083C0.970509 2.44298 1.00003 2.19653 1.00003 15.3924V27.3488L1.90214 28.2686L2.80452 29.1882L14.3582 29.2586L25.9122 29.3293L27.0985 31.4737C29.4042 35.6416 33.8441 38.9552 37.1826 38.9995C41.3227 39.0544 46.5111 34.5078 48.6931 28.9124C49.7823 26.1193 50.0773 23.8754 49.9837 19.094L49.9018 14.9086L46.936 14.8389L43.9703 14.7692V9.22998C43.9703 3.03386 43.8245 2.34302 42.3385 1.49708C41.4846 1.01083 41.0588 1 22.4852 1C4.12394 1 3.47702 1.01576 2.66058 1.48083ZM3.09398 2.94399L2.31814 3.66856V15.2043C2.31814 25.2463 2.37139 26.8106 2.7286 27.2868L3.13879 27.8341H14.3142H25.4894L25.2136 27.0955L24.9379 26.3569H15.5192H6.10084L5.52746 25.7872C4.67808 24.9427 4.70048 22.48 5.56437 21.7219C6.16675 21.1936 6.29328 21.1867 15.3107 21.1867H24.4465L24.5203 18.0476L24.5941 14.9086L27.7576 14.8554C31.2471 14.7968 33.9105 14.3426 35.9488 13.459C37.1016 12.9589 37.374 12.9222 37.926 13.1916C38.6728 13.556 41.8162 14.5393 42.2343 14.5393C42.4331 14.5393 42.503 12.8373 42.4629 8.953C42.4086 3.67939 42.3748 3.33816 41.8624 2.85955C41.3259 2.35828 41.1016 2.35164 22.5946 2.2859L3.86955 2.21967L3.09398 2.94399ZM7.47378 4.25378C7.24812 4.55464 7.06332 4.9424 7.06332 5.11548C7.06332 5.28831 6.82079 5.42988 6.52422 5.42988C6.22764 5.42988 5.69381 5.70193 5.33792 6.0343C4.77562 6.5592 4.69073 6.86178 4.69073 8.33996C4.69073 9.6884 4.80409 10.1759 5.23722 10.6899C5.74521 11.2934 5.92975 11.3387 7.87343 11.3387C10.1269 11.3387 11.0176 10.9201 11.0176 9.86148C11.0176 9.5003 11.1935 9.36908 11.6767 9.36908C12.9392 9.36908 13.3902 8.60143 13.3902 6.45284C13.3902 3.87882 13.1872 3.70648 10.1551 3.70648C8.10726 3.70648 7.8439 3.76015 7.47378 4.25378ZM18.6653 4.81142C18.4011 5.10859 18.4006 5.25828 18.6627 5.55298C18.9431 5.86885 20.3527 5.92179 28.3829 5.91858C33.5488 5.91637 37.9352 5.8201 38.1305 5.70439C38.3262 5.58868 38.4432 5.2856 38.3907 5.03103C38.2998 4.5896 37.8511 4.56522 28.6457 4.50367C20.2982 4.44778 18.9516 4.48939 18.6653 4.81142ZM8.64505 6.53778V8.16147L10.2608 8.08835L11.8763 8.01498V6.53778V5.06058L10.2608 4.98721L8.64505 4.91409V6.53778ZM6.27246 8.38428V9.86148H8.00155C9.08714 9.86148 9.67001 9.76989 9.56772 9.61528C9.47809 9.47987 9.16675 9.36908 8.87572 9.36908C7.88608 9.36908 7.33564 8.8917 7.16323 7.884C7.06253 7.29607 6.8519 6.90708 6.63415 6.90708C6.36789 6.90708 6.27246 7.29657 6.27246 8.38428ZM18.6627 7.76878C18.4006 8.06348 18.4011 8.21317 18.6653 8.51033C18.9516 8.83236 20.2982 8.87397 28.6457 8.81808C37.8511 8.75653 38.2998 8.73216 38.3907 8.29072C38.4432 8.03615 38.3262 7.73308 38.1305 7.61737C37.9352 7.50165 33.5488 7.40539 28.3829 7.40317C20.3527 7.39997 18.9431 7.4529 18.6627 7.76878ZM18.6627 10.7232C18.4006 11.0179 18.4011 11.1676 18.6653 11.4647C18.9516 11.7868 20.2982 11.8284 28.6457 11.7725C37.8511 11.7109 38.2998 11.6866 38.3907 11.2451C38.4432 10.9906 38.3262 10.6875 38.1305 10.5718C37.9352 10.4561 33.5488 10.3598 28.3829 10.3576C20.3527 10.3544 18.9431 10.4073 18.6627 10.7232ZM36.5464 14.6811C34.9423 15.4662 31.908 16.0601 28.9858 16.1608L25.9963 16.2639L26.0314 20.3476C26.077 25.6355 26.4347 27.3523 28.1556 30.544C30.3587 34.6295 34.3333 37.6826 37.4486 37.6818C39.8797 37.6814 43.6943 34.9106 45.7518 31.6502C47.8956 28.2536 48.7015 24.9612 48.7102 19.5625L48.7155 16.3378L45.6179 16.1814C42.4753 16.0229 40.4243 15.6349 38.361 14.8089C37.374 14.4137 37.1283 14.3965 36.5464 14.6811ZM5.66402 15.3668C5.43203 15.931 5.71068 16.0165 7.78564 16.0165C9.50287 16.0165 9.72748 15.9645 9.65024 15.5856C9.57774 15.2318 9.22686 15.142 7.68599 15.0831C6.24214 15.0277 5.77632 15.0932 5.66402 15.3668ZM10.8784 15.289C10.5257 15.8222 11.2143 16.0401 13.0209 15.967C14.4273 15.9101 14.8401 15.8097 14.8401 15.5241C14.8401 15.2368 14.4202 15.1388 12.9513 15.0829C11.7537 15.0373 10.9952 15.1127 10.8784 15.289ZM16.0264 15.5241C16.0264 15.9727 16.2023 16.0165 18.0036 16.0165C19.8049 16.0165 19.9808 15.9727 19.9808 15.5241C19.9808 15.0755 19.8049 15.0317 18.0036 15.0317C16.2023 15.0317 16.0264 15.0755 16.0264 15.5241ZM34.719 18.0666C33.1515 18.8394 32.0686 20.3176 31.9051 21.908C31.8168 22.7651 31.6594 23.1563 31.4027 23.1563C31.197 23.1563 30.7378 23.4283 30.3819 23.7607C29.7548 24.3462 29.7347 24.4744 29.7347 27.9097C29.7347 31.1918 29.7793 31.516 30.3358 32.2874C31.3173 33.6474 31.7327 33.7353 37.2073 33.7392C44.39 33.7446 44.4975 33.6579 44.4975 27.8673C44.4975 24.3708 44.4648 24.1317 43.9205 23.6583C43.6033 23.3823 43.2118 23.1563 43.0508 23.1563C42.8894 23.1563 42.6166 22.5181 42.4442 21.7384C41.682 18.2926 37.9033 16.4966 34.719 18.0666ZM35.9612 18.9716C34.4678 19.4044 33.1618 21.0658 33.1618 22.5329V23.1563H37.1504H41.139L41.0088 22.0777C40.7984 20.3343 39.5591 19.1585 37.6434 18.8837C37.1359 18.8111 36.379 18.8507 35.9612 18.9716ZM6.37843 22.7611C6.30093 22.95 6.27483 23.5315 6.3207 24.0537L6.40427 25.0028L15.6002 25.0675L24.7961 25.1323L24.6321 24.2058C24.5419 23.6962 24.4668 23.0856 24.4652 22.8485C24.4626 22.4467 23.8584 22.4177 15.491 22.4177C8.06007 22.4177 6.49522 22.4768 6.37843 22.7611ZM31.3977 24.7071C31.1636 25.0577 31.2137 30.8365 31.4567 31.5522C31.7304 32.3573 32.6891 32.5119 37.409 32.5119C41.8239 32.5119 41.8943 32.5035 42.5399 31.9006C43.1815 31.3013 43.1929 31.2233 43.1209 27.8998L43.0476 24.5104L37.3212 24.4609C33.1022 24.4247 31.5432 24.4895 31.3977 24.7071ZM35.8183 25.7633C34.9157 26.4724 34.7514 27.4242 35.3942 28.2179C35.6072 28.4806 35.7851 29.1444 35.7896 29.6929C35.7996 30.8631 36.1584 31.2809 37.1538 31.2809C38.0786 31.2809 38.6979 30.4746 38.6979 29.2712C38.6979 28.7674 38.8165 28.2871 38.9615 28.2034C39.4887 27.8991 39.2496 26.3574 38.5779 25.7303C37.7457 24.9528 36.8359 24.9636 35.8183 25.7633ZM36.7434 26.6804C36.3226 26.9677 36.3073 27.0753 36.6213 27.545C37.0199 28.1409 37.3355 28.1327 37.752 27.5162C38.183 26.8781 37.4019 26.2306 36.7434 26.6804Z" fill="#137D67"/>
<path fill-rule="evenodd" clip-rule="evenodd" d="M2.66058 1.48083C0.970509 2.44298 1.00003 2.19653 1.00003 15.3924V27.3488L1.90214 28.2686L2.80452 29.1882L14.3582 29.2586L25.9122 29.3293L27.0985 31.4737C29.4042 35.6416 33.8441 38.9552 37.1826 38.9995C41.3227 39.0544 46.5111 34.5078 48.6931 28.9124C49.7823 26.1193 50.0773 23.8754 49.9837 19.094L49.9018 14.9086L46.936 14.8389L43.9703 14.7692V9.22998C43.9703 3.03386 43.8245 2.34302 42.3385 1.49708C41.4846 1.01083 41.0588 1 22.4852 1C4.12394 1 3.47702 1.01576 2.66058 1.48083ZM3.09398 2.94399L2.31814 3.66856V15.2043C2.31814 25.2463 2.37139 26.8106 2.7286 27.2868L3.13879 27.8341H14.3142H25.4894L25.2136 27.0955L24.9379 26.3569H15.5192H6.10084L5.52746 25.7872C4.67808 24.9427 4.70048 22.48 5.56437 21.7219C6.16675 21.1936 6.29328 21.1867 15.3107 21.1867H24.4465L24.5203 18.0476L24.5941 14.9086L27.7576 14.8554C31.2471 14.7968 33.9105 14.3426 35.9488 13.459C37.1016 12.9589 37.374 12.9222 37.926 13.1916C38.6728 13.556 41.8162 14.5393 42.2343 14.5393C42.4331 14.5393 42.503 12.8373 42.4629 8.953C42.4086 3.67939 42.3748 3.33816 41.8624 2.85955C41.3259 2.35828 41.1016 2.35164 22.5946 2.2859L3.86955 2.21967L3.09398 2.94399ZM7.47378 4.25378C7.24812 4.55464 7.06332 4.9424 7.06332 5.11548C7.06332 5.28831 6.82079 5.42988 6.52422 5.42988C6.22764 5.42988 5.69381 5.70193 5.33792 6.0343C4.77562 6.5592 4.69073 6.86178 4.69073 8.33996C4.69073 9.6884 4.80409 10.1759 5.23722 10.6899C5.74521 11.2934 5.92975 11.3387 7.87343 11.3387C10.1269 11.3387 11.0176 10.9201 11.0176 9.86148C11.0176 9.5003 11.1935 9.36908 11.6767 9.36908C12.9392 9.36908 13.3902 8.60143 13.3902 6.45284C13.3902 3.87882 13.1872 3.70648 10.1551 3.70648C8.10726 3.70648 7.8439 3.76015 7.47378 4.25378ZM18.6653 4.81142C18.4011 5.10859 18.4006 5.25828 18.6627 5.55298C18.9431 5.86885 20.3527 5.92179 28.3829 5.91858C33.5488 5.91637 37.9352 5.8201 38.1305 5.70439C38.3262 5.58868 38.4432 5.2856 38.3907 5.03103C38.2998 4.5896 37.8511 4.56522 28.6457 4.50367C20.2982 4.44778 18.9516 4.48939 18.6653 4.81142ZM8.64505 6.53778V8.16147L10.2608 8.08835L11.8763 8.01498V6.53778V5.06058L10.2608 4.98721L8.64505 4.91409V6.53778ZM6.27246 8.38428V9.86148H8.00155C9.08714 9.86148 9.67001 9.76989 9.56772 9.61528C9.47809 9.47987 9.16675 9.36908 8.87572 9.36908C7.88608 9.36908 7.33564 8.8917 7.16323 7.884C7.06253 7.29607 6.8519 6.90708 6.63415 6.90708C6.36789 6.90708 6.27246 7.29657 6.27246 8.38428ZM18.6627 7.76878C18.4006 8.06348 18.4011 8.21317 18.6653 8.51033C18.9516 8.83236 20.2982 8.87397 28.6457 8.81808C37.8511 8.75653 38.2998 8.73216 38.3907 8.29072C38.4432 8.03615 38.3262 7.73308 38.1305 7.61737C37.9352 7.50165 33.5488 7.40539 28.3829 7.40317C20.3527 7.39997 18.9431 7.4529 18.6627 7.76878ZM18.6627 10.7232C18.4006 11.0179 18.4011 11.1676 18.6653 11.4647C18.9516 11.7868 20.2982 11.8284 28.6457 11.7725C37.8511 11.7109 38.2998 11.6866 38.3907 11.2451C38.4432 10.9906 38.3262 10.6875 38.1305 10.5718C37.9352 10.4561 33.5488 10.3598 28.3829 10.3576C20.3527 10.3544 18.9431 10.4073 18.6627 10.7232ZM36.5464 14.6811C34.9423 15.4662 31.908 16.0601 28.9858 16.1608L25.9963 16.2639L26.0314 20.3476C26.077 25.6355 26.4347 27.3523 28.1556 30.544C30.3587 34.6295 34.3333 37.6826 37.4486 37.6818C39.8797 37.6814 43.6943 34.9106 45.7518 31.6502C47.8956 28.2536 48.7015 24.9612 48.7102 19.5625L48.7155 16.3378L45.6179 16.1814C42.4753 16.0229 40.4243 15.6349 38.361 14.8089C37.374 14.4137 37.1283 14.3965 36.5464 14.6811ZM5.66402 15.3668C5.43203 15.931 5.71068 16.0165 7.78564 16.0165C9.50287 16.0165 9.72748 15.9645 9.65024 15.5856C9.57774 15.2318 9.22686 15.142 7.68599 15.0831C6.24214 15.0277 5.77632 15.0932 5.66402 15.3668ZM10.8784 15.289C10.5257 15.8222 11.2143 16.0401 13.0209 15.967C14.4273 15.9101 14.8401 15.8097 14.8401 15.5241C14.8401 15.2368 14.4202 15.1388 12.9513 15.0829C11.7537 15.0373 10.9952 15.1127 10.8784 15.289ZM16.0264 15.5241C16.0264 15.9727 16.2023 16.0165 18.0036 16.0165C19.8049 16.0165 19.9808 15.9727 19.9808 15.5241C19.9808 15.0755 19.8049 15.0317 18.0036 15.0317C16.2023 15.0317 16.0264 15.0755 16.0264 15.5241ZM34.719 18.0666C33.1515 18.8394 32.0686 20.3176 31.9051 21.908C31.8168 22.7651 31.6594 23.1563 31.4027 23.1563C31.197 23.1563 30.7378 23.4283 30.3819 23.7607C29.7548 24.3462 29.7347 24.4744 29.7347 27.9097C29.7347 31.1918 29.7793 31.516 30.3358 32.2874C31.3173 33.6474 31.7327 33.7353 37.2073 33.7392C44.39 33.7446 44.4975 33.6579 44.4975 27.8673C44.4975 24.3708 44.4648 24.1317 43.9205 23.6583C43.6033 23.3823 43.2118 23.1563 43.0508 23.1563C42.8894 23.1563 42.6166 22.5181 42.4442 21.7384C41.682 18.2926 37.9033 16.4966 34.719 18.0666ZM35.9612 18.9716C34.4678 19.4044 33.1618 21.0658 33.1618 22.5329V23.1563H37.1504H41.139L41.0088 22.0777C40.7984 20.3343 39.5591 19.1585 37.6434 18.8837C37.1359 18.8111 36.379 18.8507 35.9612 18.9716ZM6.37843 22.7611C6.30093 22.95 6.27483 23.5315 6.3207 24.0537L6.40427 25.0028L15.6002 25.0675L24.7961 25.1323L24.6321 24.2058C24.5419 23.6962 24.4668 23.0856 24.4652 22.8485C24.4626 22.4467 23.8584 22.4177 15.491 22.4177C8.06007 22.4177 6.49522 22.4768 6.37843 22.7611ZM31.3977 24.7071C31.1636 25.0577 31.2137 30.8365 31.4567 31.5522C31.7304 32.3573 32.6891 32.5119 37.409 32.5119C41.8239 32.5119 41.8943 32.5035 42.5399 31.9006C43.1815 31.3013 43.1929 31.2233 43.1209 27.8998L43.0476 24.5104L37.3212 24.4609C33.1022 24.4247 31.5432 24.4895 31.3977 24.7071ZM35.8183 25.7633C34.9157 26.4724 34.7514 27.4242 35.3942 28.2179C35.6072 28.4806 35.7851 29.1444 35.7896 29.6929C35.7996 30.8631 36.1584 31.2809 37.1538 31.2809C38.0786 31.2809 38.6979 30.4746 38.6979 29.2712C38.6979 28.7674 38.8165 28.2871 38.9615 28.2034C39.4887 27.8991 39.2496 26.3574 38.5779 25.7303C37.7457 24.9528 36.8359 24.9636 35.8183 25.7633ZM36.7434 26.6804C36.3226 26.9677 36.3073 27.0753 36.6213 27.545C37.0199 28.1409 37.3355 28.1327 37.752 27.5162C38.183 26.8781 37.4019 26.2306 36.7434 26.6804Z" stroke="#137D67" stroke-width="0.6" mask="url(#path-1-outside-1_2248_10807)"/>
</svg>
