<svg width="53" height="53" viewBox="0 0 53 53" fill="none" xmlns="http://www.w3.org/2000/svg">
<path fill-rule="evenodd" clip-rule="evenodd" d="M23.0102 0.183261C14.5332 1.27262 6.74364 6.70625 2.84946 14.2462C0.709842 18.3893 -0.00544996 21.3929 3.1223e-05 26.2131C0.00316333 28.8364 0.0896864 29.9054 0.426387 31.4775C2.49397 41.1309 9.30237 48.8393 18.3379 51.7567C21.0513 52.6329 22.5445 52.866 26.1339 52.974C30.1001 53.0933 32.3556 52.817 35.4954 51.8272C37.6712 51.1411 41.1367 49.4753 41.3084 49.0327C41.5119 48.5078 41.1081 47.7118 40.6021 47.6405C40.3358 47.6029 39.2508 47.989 38.0611 48.5446C33.8485 50.5122 31.5691 51.0042 26.7842 50.9793C23.5225 50.9622 23.0932 50.9173 21.008 50.3751C14.5422 48.6938 9.81663 45.4014 6.23761 40.0833C3.33141 35.7656 2.01045 31.4318 2.00419 26.1954C1.99792 21.0089 3.18283 17.1481 6.10783 12.8226C9.63164 7.61166 15.5644 3.69531 21.8934 2.40226C28.9299 0.964556 36.9765 2.94016 42.9625 7.57546L44.2065 8.53876L42.1857 8.44931C39.8917 8.34784 39.3616 8.5558 39.3616 9.55745C39.3616 10.2224 39.8508 10.6236 40.6714 10.6319C41.0008 10.6354 42.6796 10.72 44.4023 10.8201L47.5344 11.0021L47.9944 10.5482L48.4542 10.0944L47.6556 5.5679C46.9818 1.74876 46.7917 0.988179 46.4399 0.702382C45.9266 0.285497 45.6886 0.27872 45.1311 0.665011C44.5834 1.04433 44.5767 1.58495 45.0874 4.23612C45.3028 5.35394 45.4789 6.43749 45.4789 6.6439C45.4789 6.98701 45.4326 6.97695 44.9406 6.52676C42.6184 4.40187 38.0044 1.99389 34.2672 0.956617C31.1529 0.0922551 26.3083 -0.2404 23.0102 0.183261ZM22.5754 6.64642C18.509 7.48619 14.802 9.53828 12.0009 12.5C6.17478 18.6606 4.80898 27.4161 8.46924 35.1419C9.8781 38.1159 12.3734 41.2194 13.3553 41.2194C13.646 41.2194 13.9896 41.1148 14.1188 40.987C14.5933 40.5176 14.3484 39.8765 13.2089 38.6069C10.8837 36.0158 9.20783 32.4727 8.65481 28.9785C8.34767 27.0372 8.54852 23.4831 9.06766 21.6758C10.8823 15.3578 15.7733 10.5548 22.0919 8.88613C24.2967 8.30389 27.4772 8.17396 29.7808 8.57207C34.0536 9.31076 38.0091 11.5938 40.7275 14.8908C42.1229 16.5831 43.7997 19.96 44.3306 22.1469C44.8441 24.2617 44.9232 27.4914 44.5125 29.5803C44.2339 30.9973 44.2357 31.0145 44.681 31.3714C45.6819 32.173 46.2996 31.582 46.6502 29.4881C47.8999 22.0233 44.4669 14.0367 38.1988 9.8264C36.5777 8.73762 33.7621 7.44882 31.8739 6.93125C29.8944 6.38889 24.6068 6.22683 22.5754 6.64642ZM25.7144 10.6131C25.603 10.8191 25.5118 11.5598 25.5118 12.259C25.5118 13.2558 25.5932 13.6109 25.8888 13.9033C26.3117 14.3215 27.0197 14.2549 27.4204 13.759C27.788 13.3042 27.7415 10.9227 27.3576 10.5428C26.921 10.1112 25.964 10.1521 25.7144 10.6131ZM31.9498 19.849L27.5038 24.2317H26.5166C25.5343 24.2317 25.5134 24.2183 22.3537 21.5917C20.6069 20.1399 19.0174 18.952 18.8212 18.952C18.4007 18.952 17.6815 19.6105 17.6815 19.9954C17.6815 20.4098 18.1361 20.8422 21.352 23.4852C23.4303 25.1934 24.3373 26.0599 24.3373 26.3372C24.3373 27.4963 25.4521 28.6334 26.5885 28.6334C27.7309 28.6334 28.8396 27.5298 28.8396 26.3928C28.8396 26.2185 30.8657 24.0278 33.342 21.5243C37.088 17.7373 37.8444 16.8799 37.8444 16.4201C37.8444 15.8494 37.4016 15.4666 36.7416 15.4666C36.5513 15.4666 34.395 17.4387 31.9498 19.849ZM50.2879 18.4346C49.8355 18.7618 49.8504 19.2598 50.3689 21.1787C50.9114 23.1855 51.1154 27.43 50.771 29.542C50.534 30.9946 50.5394 31.0463 50.9611 31.3839C51.5161 31.8285 51.8467 31.8227 52.3144 31.3601C52.8251 30.855 53.0191 29.3127 52.9985 25.9226C52.9844 23.6122 52.8891 22.7206 52.4608 20.8883C51.9456 18.6836 51.6654 18.1774 50.9601 18.1774C50.7859 18.1774 50.4835 18.2932 50.2879 18.4346ZM10.1753 25.5023C9.74479 25.9728 9.76651 26.4197 10.2428 26.8908C10.558 27.2025 10.8952 27.278 11.9743 27.278C13.4708 27.278 13.9622 26.9767 13.9622 26.0593C13.9622 25.3623 13.4663 25.1481 11.8521 25.1481C10.7901 25.1481 10.4295 25.2242 10.1753 25.5023ZM39.5076 25.606C39.1564 26.1364 39.3631 26.9508 39.9009 27.1549C40.4179 27.351 42.5316 27.2974 42.947 27.0776C43.381 26.8478 43.4732 25.7588 43.0907 25.3805C42.9482 25.2395 42.2564 25.1481 41.3334 25.1481C39.9486 25.1481 39.7836 25.1895 39.5076 25.606ZM16.6049 33.0987C15.3135 33.4736 13.7664 35.3437 13.7664 36.5298C13.7664 37.0701 14.3811 37.3843 15.2917 37.3096C15.9123 37.2587 16.0699 37.144 16.3784 36.5196C17.4975 34.2537 20.5699 35.4467 19.5792 37.7623C19.1861 38.6813 17.8254 40.4088 15.6363 42.7684C13.842 44.7024 13.7529 44.8393 13.8071 45.576L13.8643 46.3505L18.157 46.4028C21.4604 46.4431 22.486 46.3984 22.6074 46.2092C22.8581 45.8184 22.7963 44.579 22.5144 44.3476C22.3701 44.2291 21.2326 44.1126 19.9206 44.0818L17.5837 44.027L18.5806 42.962C20.1853 41.2478 21.3676 39.7224 21.9058 38.672C23.0484 36.4417 22.2366 34.123 19.9879 33.194C19.2035 32.8699 17.5531 32.8234 16.6049 33.0987ZM28.2126 33.2321C28.0498 33.4186 26.8909 35.3692 25.6375 37.5669C23.5709 41.1905 23.3585 41.6533 23.3585 42.5322C23.3585 43.2374 23.4428 43.5334 23.6682 43.619C23.8385 43.6837 25.1598 43.7365 26.6045 43.7365H29.2312V45.1016V46.4667L30.3568 46.4086L31.4824 46.3505L31.5399 45.0555C31.5955 43.8084 31.6172 43.7584 32.1272 43.7001C32.6313 43.6426 32.6569 43.5884 32.6569 42.5748C32.6569 41.5569 32.633 41.5071 32.1186 41.4486L31.5802 41.3872V37.3727C31.5802 34.5084 31.5129 33.2914 31.3453 33.1256C31.2097 32.9915 30.5603 32.8933 29.8096 32.8933C28.814 32.8933 28.4393 32.9729 28.2126 33.2321ZM39.2445 33.2321C39.1454 33.4186 37.9384 36.4323 36.5618 39.9292C34.5076 45.1487 34.109 46.3205 34.3369 46.472C34.6274 46.6648 36.488 46.5209 36.6867 46.2901C37.0054 45.9199 41.7819 33.2794 41.6705 33.1012C41.5993 32.9868 41.0644 32.8933 40.4825 32.8933C39.6736 32.8933 39.3819 32.9731 39.2445 33.2321ZM43.4452 33.0521C43.242 33.3772 43.133 34.3627 43.243 34.878L43.3568 35.4105H46.3753C48.0357 35.4105 49.3941 35.4502 49.3941 35.4988C49.3941 35.5474 48.381 37.9131 47.1429 40.7562C45.9047 43.5991 44.8917 46.0465 44.8917 46.1951C44.8917 46.4049 45.1859 46.4524 46.213 46.4079L47.5344 46.3505L49.9252 40.9101C51.619 37.0557 52.3386 35.1932 52.394 34.5204C52.5332 32.8304 52.7098 32.8933 47.8327 32.8933C45.4742 32.8933 43.4998 32.9647 43.4452 33.0521ZM27.9431 38.1697C27.3302 39.2612 26.6574 40.4377 26.4479 40.7837L26.0672 41.413H27.6491H29.2312V38.799C29.2312 37.3613 29.192 36.185 29.1442 36.185C29.0965 36.185 28.556 37.0782 27.9431 38.1697Z" fill="#137D67"/>
</svg>
