<svg width="48" height="52" viewBox="0 0 48 52" fill="none" xmlns="http://www.w3.org/2000/svg">
<path fill-rule="evenodd" clip-rule="evenodd" d="M35.3319 0.0356318C34.9302 0.180815 34.682 0.514762 34.682 0.910112C34.682 1.134 35.0037 2.11958 35.3969 3.10022C35.79 4.08085 36.1117 4.92827 36.1117 4.9833C36.1117 5.03846 35.4258 4.749 34.5873 4.33999C30.9168 2.54979 27.3047 1.78719 23.1808 1.93199C19.6307 2.05648 16.9675 2.69511 13.7587 4.19104C8.8835 6.46388 4.68978 10.6205 2.37539 15.4735C0.867915 18.6349 0.144589 21.5917 0.0169507 25.1156C-0.146041 29.6184 0.867914 33.88 2.99409 37.6283C3.63917 38.7654 4.07849 39.0309 4.63297 38.6184C5.20981 38.1892 5.15236 37.8091 4.22627 35.929C1.93997 31.2881 1.31374 26.4896 2.33172 21.414C3.18658 17.1515 5.54646 12.8845 8.70257 9.89415C15.5274 3.42805 25.6043 1.9342 33.9963 6.1445C34.8023 6.54883 35.4618 6.92115 35.4618 6.97189C35.4618 7.07961 35.1307 7.13385 32.6036 7.43996C30.9981 7.63445 30.677 7.71147 30.4265 7.96215C30.034 8.35503 30.0454 8.92106 30.4538 9.3051L30.775 9.60704L34.6456 9.11867C36.9394 8.82922 38.6346 8.55576 38.8067 8.44753C39.3894 8.0808 39.3309 7.81164 37.8636 4.10388C37.097 2.1668 36.3747 0.472351 36.2582 0.338356C36.0181 0.0619099 35.6198 -0.0683119 35.3319 0.0356318ZM43.5809 13.2053C43.2865 13.3247 43.0818 13.552 42.9593 13.8958C42.9086 14.038 43.0979 14.5423 43.4594 15.2282C46.9641 21.8794 47.1046 29.3539 43.8472 35.878C38.3572 46.8737 25.1148 51.2723 14.045 45.777C13.2392 45.3769 12.552 45.0046 12.5181 44.9496C12.484 44.8944 12.8217 44.8094 13.2684 44.7604C13.715 44.7115 14.8392 44.5645 15.7665 44.4338C17.1967 44.2321 17.4883 44.1515 17.6901 43.9021C18.0173 43.4978 17.9358 42.8971 17.5109 42.5811C17.1736 42.3302 17.154 42.3314 13.3516 42.8063C11.0166 43.0981 9.41836 43.3561 9.24094 43.4701C8.655 43.846 8.71206 44.1119 10.1811 47.8492C11.8323 52.0498 12.1106 52.4278 13.0232 51.7093C13.5168 51.3207 13.4676 50.9419 12.6508 48.8452C12.2576 47.8358 11.9359 46.966 11.9359 46.9124C11.9359 46.8587 12.4769 47.0923 13.1382 47.4314C17.9376 49.8927 23.6892 50.642 29.0703 49.5069C37.3253 47.7654 44.3129 41.4588 46.877 33.4351C47.7919 30.5719 48.0016 29.189 48 26.0256C47.9983 22.7987 47.7387 21.0288 46.8949 18.4929C46.1591 16.2814 44.7905 13.5302 44.2997 13.2762C44.0926 13.1691 43.9057 13.0852 43.8844 13.0896C43.8629 13.0942 43.7263 13.1462 43.5809 13.2053ZM22.0092 15.0964C21.0083 15.2618 17.6452 15.7864 14.5354 16.2626C11.4257 16.7386 8.80019 17.1711 8.70101 17.2237C8.56441 17.2961 6.37818 24.9592 6.35141 25.4593C6.34894 25.5055 6.84402 25.614 7.45167 25.7004L8.55648 25.8574V30.131V34.4047L8.9789 34.4792C9.63737 34.5953 21.7427 36.4652 23.0109 36.6467C24.2843 36.829 23.3466 36.9422 33.3822 35.3947C36.4204 34.9261 39.0378 34.5133 39.1987 34.4772L39.4911 34.4116V30.1351V25.8587L39.7836 25.7867C39.9445 25.7472 40.3756 25.6758 40.7418 25.628C41.1079 25.5803 41.4789 25.497 41.5661 25.443C41.6845 25.3698 41.4577 24.3563 40.6729 21.4518C40.0945 19.3105 39.6211 17.4891 39.6211 17.404C39.6211 17.2202 39.5404 17.201 37.2815 16.8527C30.0593 15.7385 24.5475 14.8928 24.2188 14.8485C24.0043 14.8196 23.01 14.9311 22.0092 15.0964ZM18.5323 17.0967C15.9766 17.4997 13.8856 17.8619 13.8856 17.9016C13.8856 17.9768 22.4759 19.3377 23.5135 19.4268C24.1187 19.4788 33.3561 18.1104 33.8371 17.8974C34.0121 17.8199 34.0334 17.7793 33.9021 17.7729C33.7949 17.7679 31.6327 17.4418 29.0974 17.0487C26.562 16.6554 24.1932 16.3405 23.8333 16.3488C23.4734 16.357 21.088 16.6936 18.5323 17.0967ZM31.8225 19.722C28.2838 20.2833 25.3379 20.7458 25.2759 20.7497C25.214 20.7536 25.1917 20.8885 25.2264 21.0496C25.3027 21.4037 26.6513 26.2721 26.6859 26.3184C26.7081 26.3481 28.5968 26.061 37.0607 24.7412C38.6193 24.4983 39.9166 24.2773 39.9436 24.2501C39.9708 24.223 39.7309 23.2649 39.4108 22.1211C39.0907 20.9772 38.7525 19.7515 38.6593 19.3974C38.5662 19.0432 38.4374 18.7416 38.3732 18.7273C38.3089 18.713 35.3611 19.1606 31.8225 19.722ZM9.48491 19.2283C9.13969 20.3377 8.16654 23.9969 8.16654 24.186C8.16654 24.3033 8.21048 24.3983 8.26403 24.3967C8.31758 24.3953 11.2722 24.8432 14.8297 25.3923C18.3872 25.9413 21.3266 26.3618 21.3619 26.3265C21.4492 26.2392 22.854 21.2033 22.854 20.9778C22.854 20.8521 22.5486 20.7532 21.8467 20.6515C21.2927 20.5713 18.3828 20.1237 15.3803 19.6569C12.3778 19.19 9.85261 18.8076 9.76891 18.8068C9.68507 18.8061 9.55731 18.9958 9.48491 19.2283ZM23.0894 25.9605C22.9687 26.3541 22.8007 26.9551 22.716 27.2962C22.6314 27.6373 22.5235 27.9403 22.4762 27.9694C22.429 27.9987 19.6433 27.5957 16.2857 27.0739C12.9283 26.552 10.1373 26.1501 10.0837 26.1805C10.0302 26.2111 9.98623 27.7805 9.98623 29.6682C9.98623 31.5558 10.0302 33.1269 10.0837 33.1596C10.2563 33.2645 23.243 35.2415 23.3113 35.1732C23.3474 35.1369 23.3617 32.8882 23.343 30.1761C23.3095 25.3269 23.3053 25.2569 23.0894 25.9605ZM24.8037 30.3186C24.8037 34.6309 24.8269 35.1971 25.0045 35.1971C25.1148 35.1971 27.0889 34.9027 29.3912 34.543C31.6935 34.1833 34.586 33.7337 35.8193 33.5439L38.0614 33.1988V29.6446C38.0614 26.8888 38.0249 26.0904 37.8989 26.0895C37.8096 26.0888 35.061 26.505 31.791 27.0144C28.5212 27.5239 25.7652 27.9097 25.6669 27.8719C25.5678 27.8339 25.3578 27.2759 25.1962 26.6217C25.0358 25.9719 24.8819 25.4402 24.8541 25.4402C24.8264 25.4402 24.8037 27.6355 24.8037 30.3186Z" fill="#137D67"/>
</svg>
