<svg width="57" height="57" viewBox="0 0 57 57" fill="none" xmlns="http://www.w3.org/2000/svg">
<path d="M38.6731 23.0786L35.8231 20.2287C35.4516 19.8572 34.8512 19.8572 34.4798 20.2287L24.7016 30.0069L21.5734 26.8786C21.2019 26.5071 20.6015 26.5071 20.2301 26.8786L17.3802 29.7286C17.0087 30.1 17.0087 30.7005 17.3802 31.0718L24.03 37.7217C24.2153 37.9079 24.4585 38 24.7016 38C24.9449 38 25.188 37.9069 25.3733 37.7217L38.6731 24.4219C39.0445 24.0505 39.0445 23.4501 38.6731 23.0786ZM24.7016 35.7068L19.3951 30.4002L20.9018 28.8935L24.03 32.0218C24.4015 32.3933 25.0019 32.3933 25.3733 32.0218L35.1515 22.2436L36.6582 23.7503L24.7016 35.7068Z" fill="#137D67"/>
<path d="M56.779 33.5922L52.5364 28.5002L56.779 23.4083C57.0156 23.1252 57.0659 22.731 56.9101 22.3976C56.7534 22.0641 56.4181 21.8504 56.0495 21.8504H43.5733L42.7401 16.0166C42.6737 15.5482 42.2728 15.2006 41.7996 15.2006H34.5436C33.4246 14.2676 29.1078 10.671 29.1078 10.671C28.7554 10.3766 28.2443 10.3766 27.8918 10.671L22.456 15.2006H15.2C14.7268 15.2006 14.327 15.5482 14.2595 16.0157L13.4263 21.8505H0.950483C0.581883 21.8505 0.246569 22.0642 0.0898224 22.3977C-0.0669246 22.7321 -0.0156033 23.1263 0.220964 23.4084L4.4636 28.5003L0.220964 33.5923C-0.0156033 33.8754 -0.0659226 34.2696 0.0898224 34.603C0.246569 34.9374 0.581883 35.1502 0.950483 35.1502H13.4266C13.6802 36.9219 14.2606 40.985 14.2606 40.985C14.3271 41.4533 14.728 41.8001 15.2001 41.8001H22.4561L27.8919 46.3296C28.0686 46.4769 28.2842 46.5501 28.4999 46.5501C28.7155 46.5501 28.9321 46.4769 29.1078 46.3296L34.5426 41.8001C36.0189 41.8001 41.8014 41.8039 41.7995 41.8001C42.2727 41.8001 42.6726 41.4524 42.74 40.985C42.74 40.985 43.3205 36.9219 43.5741 35.1502H56.0493C56.4179 35.1502 56.7532 34.9364 56.9099 34.603C57.0669 34.2685 57.0156 33.8743 56.779 33.5922ZM2.97873 33.2502L6.43006 29.1083C6.72362 28.7558 6.72362 28.2438 6.43006 27.8923L2.97873 23.7503H12.222L8.77069 27.8922C8.47712 28.2446 8.47712 28.7566 8.77069 29.1082L12.222 33.2501H2.97873V33.2502ZM42.0211 33.5912C41.9745 33.6472 41.9337 33.7089 41.9014 33.7745C41.8349 33.9075 41.832 33.9132 40.9771 39.9C33.9767 39.9 33.97 39.9038 33.7753 40.0008C33.7097 40.034 33.648 40.0739 33.5919 40.1204L28.5 44.3631L23.408 40.1204C23.2381 39.9779 23.0223 39.9 22.8001 39.9H16.0239C15.1689 33.9132 15.166 33.9075 15.0996 33.7745C15.0663 33.7089 15.0264 33.6473 14.9799 33.5912L10.7373 28.5002L14.9799 23.4083C15.093 23.2725 15.1661 23.109 15.1907 22.9343L16.0239 17.1004H22.8001C23.0224 17.1004 23.237 17.0225 23.408 16.88L28.5 12.6374C33.6755 16.9503 33.6793 16.9522 33.7753 17.0007C33.9073 17.0663 34.0527 17.1004 34.1999 17.1004H40.9761L41.8092 22.9353C41.8339 23.11 41.9071 23.2735 42.0201 23.4093L46.2627 28.5002L42.0211 33.5912ZM44.7778 33.2502L48.2292 29.1083C48.5227 28.7558 48.5227 28.2438 48.2292 27.8923L44.7778 23.7504H54.0211L50.5698 27.8923C50.2762 28.2447 50.2762 28.7567 50.5698 29.1083L54.0211 33.2502H44.7778Z" fill="#137D67"/>
</svg>
