<svg width="58" height="37" viewBox="0 0 58 37" fill="none" xmlns="http://www.w3.org/2000/svg">
<path fill-rule="evenodd" clip-rule="evenodd" d="M14.258 0.133905C8.8792 0.207852 8.75829 0.215847 8.25313 0.530481C7.63262 0.916778 6.99329 1.84084 6.88521 2.50736L6.80651 2.99316H3.40325H0V3.8497V4.70623H6.62999H13.26V3.8497V2.99316L11.0856 2.99102C8.63595 2.98845 8.38245 2.92107 8.74432 2.36803C8.87535 2.16775 9.12387 1.9282 9.29653 1.8357C9.53407 1.70836 13.1084 1.68495 23.9927 1.73919C36.0787 1.79929 38.4069 1.84284 38.5751 2.01114C38.7469 2.18317 38.5535 3.47496 37.2096 11.132C36.3485 16.0383 35.5745 20.3941 35.4898 20.8118L35.3357 21.571L20.2413 21.5256C10.4226 21.4959 5.1001 21.4301 5.0127 21.3373C4.93884 21.2588 4.91076 20.9857 4.95054 20.7306L5.02268 20.2666H9.14126H13.26V19.4101V18.5535H6.62999H0V19.4101V20.2666H1.63968C2.5415 20.2666 3.27935 20.2909 3.27935 20.3204C3.27935 20.3501 2.95854 22.2274 2.56645 24.4922C1.64609 29.8081 1.6468 29.9172 2.6115 30.9376L3.05008 31.4016L5.76681 31.4037C7.26105 31.405 8.55825 31.4535 8.6495 31.5116C8.74075 31.5699 8.87891 32.0754 8.95633 32.635C9.21412 34.4975 10.0555 35.7789 11.478 36.4758C14.6081 38.009 18.8895 36.0339 20.233 32.4367L20.5517 31.5837L21.504 31.4937C22.0278 31.4441 25.7316 31.4031 29.7346 31.4026L37.0129 31.4016L37.1779 32.5355C37.4597 34.4711 38.4367 35.8474 40.0651 36.6026C41.0972 37.0813 42.7873 37.1119 44.0813 36.6754C46.2587 35.9411 47.9796 34.1737 48.6265 32.0083L48.8077 31.4016H51.4273C53.4694 31.4016 54.1636 31.3529 54.5752 31.1806C55.1962 30.9209 55.6989 30.4794 55.972 29.954C56.2457 29.4273 57.7086 21.4267 57.9678 19.0381C58.0963 17.8545 57.9333 17.3433 55.7203 11.9868C53.5237 6.66984 53.4451 6.50481 52.782 5.81259L52.2691 5.27726H46.1486H40.028L40.1201 4.59916C40.1709 4.22629 40.2499 3.40715 40.2959 2.77903C40.3722 1.73563 40.3501 1.59401 40.0399 1.13948C39.8531 0.865957 39.4455 0.497647 39.1341 0.321058L38.568 0L29.1577 0.0292649C23.982 0.0453963 17.2772 0.0925057 14.258 0.133905ZM2.13871 7.7041V8.56064H8.69741H15.2561V7.7041V6.84757H8.69741H2.13871V7.7041ZM39.8949 7.36534C39.5333 7.75136 39.4389 8.18648 38.2877 14.7705C37.615 18.6178 36.9973 22.1026 36.9152 22.5145L36.7658 23.2632L20.6285 23.2996L4.49128 23.3359L4.10432 25.4772C3.89145 26.6549 3.69896 28.0682 3.67658 28.6178L3.6358 29.6171L6.48741 29.6467L9.33902 29.6761L9.98063 28.6685C11.7138 25.9467 15.1713 24.7045 17.7384 25.8812C19.1257 26.5172 20.219 27.8295 20.4641 29.1532L20.5634 29.6885H29.0994H37.6354L37.9432 29.0818C38.1125 28.748 38.6958 28.0365 39.2394 27.5006C40.7358 26.0254 42.5268 25.299 44.332 25.4351C46.3924 25.5903 48.4156 27.2882 48.7059 29.1056L48.8 29.6946L51.4395 29.656C54.0694 29.6173 54.0798 29.6158 54.3428 29.2602C54.5327 29.0037 54.8247 27.6372 55.3814 24.4008C55.8073 21.9246 56.2006 19.5016 56.2554 19.0166L56.3551 18.135L48.7686 18.0944L41.1822 18.0539L40.7662 17.5877C40.2587 17.0188 40.2565 16.9029 40.7009 14.1945C41.3787 10.0627 41.5933 9.35165 42.3025 8.88641C42.6364 8.66742 43.2474 8.62988 47.565 8.56392L52.4498 8.48926L52.1564 7.81117L51.8629 7.13308L48.9226 7.13265C47.3053 7.13251 44.699 7.09254 43.1306 7.04372L40.279 6.95521L39.8949 7.36534ZM48.2401 10.7342C48.2846 10.9913 48.3586 12.101 48.4045 13.2002C48.4504 14.2994 48.5216 15.4717 48.5626 15.8055L48.6375 16.4122H52.1219C54.0384 16.4122 55.6064 16.356 55.6064 16.2873C55.6064 16.2185 55.0687 14.8535 54.4115 13.2537L53.2166 10.3451L50.6879 10.306L48.1593 10.267L48.2401 10.7342ZM43.0542 10.5949C43.0513 10.6931 42.836 12.0086 42.5758 13.5183C42.3155 15.0279 42.1359 16.2967 42.1769 16.3377C42.2178 16.3787 43.2772 16.4122 44.531 16.4122H46.8107L46.7119 13.5348C46.6576 11.9522 46.5796 10.6032 46.5387 10.537C46.4119 10.3314 43.0602 10.3872 43.0542 10.5949ZM4.41999 11.6299V12.415H11.05H17.68V11.6299V10.8447H11.05H4.41999V11.6299ZM2.13871 15.5557V16.4122H8.69741H15.2561V15.5557V14.6991H8.69741H2.13871V15.5557ZM14.1868 27.3761C12.08 28.1089 10.6634 29.9733 10.6404 32.044C10.6238 33.5211 11.2299 34.5299 12.4376 35.035C13.2671 35.382 14.8885 35.3252 15.7551 34.9188C16.8417 34.4092 17.8851 33.3837 18.4164 32.3034C19.9737 29.1362 17.4797 26.2308 14.1868 27.3761ZM42.3937 27.3831C41.0733 27.8401 40.0727 28.7483 39.3475 30.1483C38.9876 30.8433 38.9245 31.1265 38.9245 32.0455C38.9245 32.8427 38.9989 33.2721 39.2083 33.6831C40.2098 35.6487 43.3422 35.8144 45.3489 34.008C46.2373 33.2083 46.6684 32.5513 46.9683 31.5403C47.3849 30.1358 47.1906 29.1315 46.3194 28.1851C45.3711 27.1552 43.9135 26.8574 42.3937 27.3831Z" fill="#137D67"/>
</svg>
