<svg width="21" height="18" viewBox="0 0 21 18" fill="none" xmlns="http://www.w3.org/2000/svg">
<path fill-rule="evenodd" clip-rule="evenodd" d="M0 0.0165863C0 0.0256772 1.74393 2.13087 3.87542 4.69473C6.00686 7.25863 7.74192 9.37592 7.73111 9.39989C7.72026 9.42382 6.08979 11.1476 4.10779 13.2306C2.12584 15.3135 0.479274 17.0459 0.448861 17.0803C0.397109 17.1388 0.496578 17.1429 1.97119 17.1429H3.54889L6.38287 14.1583C7.94154 12.5168 9.22649 11.1727 9.23831 11.1713C9.25016 11.1699 10.3755 12.5125 11.7391 14.1547L14.2185 17.1406L17.395 17.1417C19.142 17.1424 20.5714 17.1351 20.5714 17.1257C20.5714 17.1163 18.7482 14.8913 16.5197 12.1814L12.468 7.25417L12.5812 7.14286C12.6435 7.08163 14.1609 5.48701 15.9532 3.59926C17.7455 1.7115 19.2487 0.129425 19.2937 0.0834879L19.3754 0L17.7852 0.00241189L16.195 0.00482372L13.6134 2.72809C12.1936 4.2259 11.0227 5.4521 11.0115 5.45295C11.0002 5.45384 9.98376 4.22787 8.75266 2.72861L6.51429 0.00267163L3.25714 0.00133578C1.46569 0.000593666 0 0.00745827 0 0.0165863ZM3.69882 1.6813C3.71657 1.70805 6.28889 4.80545 9.4151 8.56442L15.0991 15.3989H15.963C16.4759 15.3989 16.8214 15.3849 16.8134 15.3645C16.8061 15.3456 14.2679 12.2489 11.1731 8.48293L5.54622 1.6357L4.60639 1.63417C3.84145 1.63295 3.67256 1.64171 3.69882 1.6813Z" fill="#137D67"/>
</svg>
