<svg width="23" height="17" viewBox="0 0 23 17" fill="none" xmlns="http://www.w3.org/2000/svg">
<path fill-rule="evenodd" clip-rule="evenodd" d="M4.75118 0.0110377C4.33584 0.0375719 3.35419 0.172608 3.04583 0.245588C2.10255 0.468882 1.54473 0.757258 1.04555 1.27962C0.623525 1.72124 0.375397 2.19966 0.223307 2.86481C0.0390401 3.67091 0.0275515 3.92055 0.00641415 7.57096C-0.0152168 11.3153 0.0121585 12.2031 0.177263 13.1103C0.629269 15.5939 1.98233 16.6931 4.91669 16.9607C5.31637 16.9972 7.4616 17.0075 11.954 16.9948C18.7336 16.9756 18.7042 16.9765 19.5836 16.7708C20.7887 16.4891 21.574 15.9663 22.1229 15.0801C22.5551 14.3823 22.7777 13.5393 22.9366 11.9985C22.9895 11.4855 23.0268 4.47521 22.9756 4.66213C22.9547 4.73847 22.9328 4.59601 22.9138 4.2601C22.7792 1.88205 21.9908 0.783036 20.0626 0.285603C18.9528 -0.00073946 19.1848 0.00725397 11.7745 0.00101064C8.04743 -0.00215833 4.88693 0.00238218 4.75118 0.0110377ZM0.0154794 8.09124C0.0154794 10.0163 0.0210442 10.7969 0.0278207 9.82594C0.0345972 8.85501 0.0345972 7.27998 0.0278207 6.32589C0.0209993 5.37179 0.0154794 6.16621 0.0154794 8.09124ZM9.35727 5.01521C9.11965 5.10446 8.94422 5.29451 8.88265 5.52939C8.84567 5.67034 8.83476 6.5129 8.84423 8.49327L8.85747 11.2602L8.96298 11.439C9.0215 11.5383 9.14989 11.6617 9.25136 11.7162C9.60096 11.9042 9.61842 11.8967 12.313 10.4122C13.6706 9.66442 14.8287 9.0065 14.8865 8.95026C15.0472 8.79413 15.1179 8.61535 15.1177 8.36557C15.1175 8.0876 15.0049 7.8774 14.7718 7.72009C14.4462 7.50025 9.92358 5.04832 9.75018 4.99757C9.54105 4.93637 9.57067 4.93504 9.35727 5.01521Z" fill="#137D67"/>
</svg>
