<svg width="24" height="23" viewBox="0 0 24 23" fill="none" xmlns="http://www.w3.org/2000/svg">
<path fill-rule="evenodd" clip-rule="evenodd" d="M2.3133 0.0462682C0.587064 0.409344 -0.417952 2.13938 0.167507 3.7401C0.404136 4.38714 0.960684 4.98873 1.61697 5.30684C2.06448 5.52374 2.35134 5.58625 2.90251 5.58691C3.47363 5.58757 3.74581 5.53209 4.19836 5.32261C4.94925 4.97507 5.49156 4.35811 5.75186 3.55533C5.82126 3.34123 5.83079 3.24639 5.82943 2.78342C5.828 2.2969 5.82044 2.23366 5.73282 1.97519C5.39356 0.974443 4.57437 0.257661 3.52566 0.043959C3.23333 -0.0156189 2.60176 -0.0144313 2.3133 0.0462682ZM17.3577 7.18856C17.2359 7.20254 16.9907 7.24705 16.8128 7.28746C15.4872 7.58855 14.3281 8.32842 13.551 9.36955L13.3565 9.63L13.3475 8.62314L13.3385 7.61629H10.9724H8.60625V15.2367V22.8571H10.9714H13.3367L13.3496 18.5274C13.3636 13.8599 13.3571 14.0314 13.5432 13.4223C13.9412 12.1201 14.9087 11.436 16.3533 11.4355C17.7943 11.435 18.6032 12.1235 18.9675 13.6606C19.0392 13.9634 19.0401 14.0139 19.0514 18.4119L19.0628 22.8571H21.5314H24L23.9887 17.5872C23.9765 11.9059 23.9835 12.138 23.799 11.3275C23.5837 10.382 23.1431 9.49408 22.5824 8.87567C21.7173 7.92157 20.515 7.34733 19.0531 7.19004C18.684 7.15032 17.698 7.14946 17.3577 7.18856ZM0.467779 15.2367V22.8571H2.95359H5.43939V15.2367V7.61629H2.95359H0.467779V15.2367Z" fill="#137D67"/>
</svg>
